<svg version="1.1" xmlns="http://www.w3.org/2000/svg" viewBox="0 0 1801.2787097013447 1017.7693996047689" width="3602.5574194026894" height="2035.5387992095377">
  <!-- svg-source:excalidraw -->
  
  <defs>
    <style class="style-fonts">
      @font-face {
        font-family: "Virgil";
        src: url("https://unpkg.com/@excalidraw/excalidraw@undefined/dist/excalidraw-assets/Virgil.woff2");
      }
      @font-face {
        font-family: "Cascadia";
        src: url("https://unpkg.com/@excalidraw/excalidraw@undefined/dist/excalidraw-assets/Cascadia.woff2");
      }
      @font-face {
        font-family: "Assistant";
        src: url("https://unpkg.com/@excalidraw/excalidraw@undefined/dist/excalidraw-assets/Assistant-Regular.woff2");
      }
    </style>
    
  </defs>
  <rect x="0" y="0" width="1801.2787097013447" height="1017.7693996047689" fill="#ffffff"></rect><g stroke-linecap="round" transform="translate(978.5208075801027 515.9914789824059) rotate(0 100.2435472705696 50.52792062236301)"><path d="M25.26 0 C84.75 -3.3, 142.61 -4.77, 175.22 0 C194.93 0.27, 198.19 7.29, 200.49 25.26 C200.33 37.97, 198.08 60.31, 200.49 75.79 C198.89 90.29, 190.05 102.75, 175.22 101.06 C136.88 100.39, 93.89 103.45, 25.26 101.06 C9.06 98.83, 2.37 94.44, 0 75.79 C0.4 61.26, -2.71 47.27, 0 25.26 C0.44 5.09, 8.34 -0.34, 25.26 0" stroke="none" stroke-width="0" fill="#ffffff"></path><path d="M25.26 0 C64.91 0.54, 102.93 0.1, 175.22 0 M25.26 0 C77.87 -1.5, 129 -1.42, 175.22 0 M175.22 0 C192.91 -0.84, 201.89 6.47, 200.49 25.26 M175.22 0 C192.19 -1.57, 200.8 9.27, 200.49 25.26 M200.49 25.26 C200.74 37.35, 202.43 49.9, 200.49 75.79 M200.49 25.26 C199.64 41.25, 200.55 58.97, 200.49 75.79 M200.49 75.79 C200.5 94.23, 192.46 99.21, 175.22 101.06 M200.49 75.79 C201.82 94.24, 191.22 99.2, 175.22 101.06 M175.22 101.06 C117.03 99.04, 57.25 101.26, 25.26 101.06 M175.22 101.06 C127.16 100.61, 79.45 101.32, 25.26 101.06 M25.26 101.06 C6.53 100.27, 1.22 90.76, 0 75.79 M25.26 101.06 C6.7 99.64, -0.84 93.5, 0 75.79 M0 75.79 C-0.26 62.11, -1.7 51.17, 0 25.26 M0 75.79 C0.79 60.19, -0.16 45.78, 0 25.26 M0 25.26 C-0.51 8.79, 6.84 1.99, 25.26 0 M0 25.26 C-1.05 8.71, 10.65 0.56, 25.26 0" stroke="#1e1e1e" stroke-width="2" fill="none"></path></g><g stroke-linecap="round" transform="translate(780.37060546875 58.110512262658176) rotate(0 154.041015625 188.50260416666669)"><path d="M32 0 C124.2 -0.99, 219.11 -2.66, 276.08 0 M32 0 C102.64 -0.21, 173.72 -0.36, 276.08 0 M276.08 0 C296.7 1.76, 307.24 10.26, 308.08 32 M276.08 0 C296.81 0.5, 309.6 10.34, 308.08 32 M308.08 32 C308.8 104.48, 307.48 177.63, 308.08 345.01 M308.08 32 C308.43 122.12, 307.5 211.95, 308.08 345.01 M308.08 345.01 C307.15 366.96, 298.99 376.04, 276.08 377.01 M308.08 345.01 C307.25 364.62, 298.51 375.77, 276.08 377.01 M276.08 377.01 C223.44 375.86, 169.69 377.21, 32 377.01 M276.08 377.01 C195.81 376.26, 113.63 376.51, 32 377.01 M32 377.01 C11.75 377.73, 0.05 364.72, 0 345.01 M32 377.01 C10.4 375.88, -1.38 368.64, 0 345.01 M0 345.01 C-2.75 270.73, -2 194.63, 0 32 M0 345.01 C-2.33 248.31, -1.5 151.28, 0 32 M0 32 C0.35 9.52, 10.62 0.93, 32 0 M0 32 C1.6 8.58, 11.82 -1.98, 32 0" stroke="#1e1e1e" stroke-width="2" fill="none"></path></g><g transform="translate(860.2216186523438 405.11572059599155) rotate(0 74.19000244140625 12.5)"><text x="74.19000244140625" y="0" font-family="Virgil, Segoe UI Emoji" font-size="20px" fill="#1e1e1e" text-anchor="middle" style="white-space: pre;" direction="ltr" dominant-baseline="text-before-edge">CommentService</text></g><g stroke-linecap="round" transform="translate(10 145.4868143459915) rotate(0 113.041015625 47.8359375)"><path d="M23.92 0 C87.6 -0.02, 154.19 -2.67, 202.16 0 M23.92 0 C60.26 0.44, 97.11 -1.12, 202.16 0 M202.16 0 C219.47 1.97, 225.86 6.45, 226.08 23.92 M202.16 0 C218.26 1.38, 225.81 7.61, 226.08 23.92 M226.08 23.92 C224.42 34.51, 225.78 47.28, 226.08 71.75 M226.08 23.92 C225.73 40.28, 226 55.56, 226.08 71.75 M226.08 71.75 C227.4 87.9, 219.61 95.83, 202.16 95.67 M226.08 71.75 C224.77 85.96, 218.4 94.67, 202.16 95.67 M202.16 95.67 C161.48 93.61, 117.44 96.68, 23.92 95.67 M202.16 95.67 C158.72 94.9, 112.8 93.3, 23.92 95.67 M23.92 95.67 C9.46 94.79, -1.43 86.82, 0 71.75 M23.92 95.67 C8.79 93.7, -1.5 86.07, 0 71.75 M0 71.75 C-0.59 55.6, -1.09 40.13, 0 23.92 M0 71.75 C-0.42 59.82, -0.51 50.13, 0 23.92 M0 23.92 C1.16 6.41, 8.28 1.46, 23.92 0 M0 23.92 C-0.91 9.06, 6.75 0.6, 23.92 0" stroke="#1e1e1e" stroke-width="2" fill="none"></path></g><g transform="translate(100.70101547241211 180.8227518459915) rotate(0 22.34000015258789 12.5)"><text x="22.34000015258789" y="0" font-family="Virgil, Segoe UI Emoji" font-size="20px" fill="#1e1e1e" text-anchor="middle" style="white-space: pre;" direction="ltr" dominant-baseline="text-before-edge">User</text></g><g stroke-linecap="round"><g transform="translate(245.2211950819169 198.455099367201) rotate(0 63.26440245904155 15.083405233183008)"><path d="M1 -0.49 C22.16 4.63, 106.58 26.02, 127.36 31.27 M0.06 -1.8 C21.1 2.97, 105.5 24.58, 126.84 29.73" stroke="#1e1e1e" stroke-width="2" fill="none"></path></g><g transform="translate(245.2211950819169 198.455099367201) rotate(0 63.26440245904155 15.083405233183008)"><path d="M30.84 -3.59 C20.1 -0.93, 12.83 -2.73, 1 -0.49 M30.84 -3.59 C19.8 -1.76, 8.5 -1.92, 1 -0.49" stroke="#1e1e1e" stroke-width="2" fill="none"></path></g><g transform="translate(245.2211950819169 198.455099367201) rotate(0 63.26440245904155 15.083405233183008)"><path d="M25.84 16.32 C16.68 12.31, 11.07 3.88, 1 -0.49 M25.84 16.32 C16.83 10.79, 7.37 3.31, 1 -0.49" stroke="#1e1e1e" stroke-width="2" fill="none"></path></g><g transform="translate(245.2211950819169 198.455099367201) rotate(0 63.26440245904155 15.083405233183008)"><path d="M97.01 32.87 C106.1 32.95, 118.69 29.08, 126.84 29.73 M97.01 32.87 C107.99 32.05, 118.64 29.6, 126.84 29.73" stroke="#1e1e1e" stroke-width="2" fill="none"></path></g><g transform="translate(245.2211950819169 198.455099367201) rotate(0 63.26440245904155 15.083405233183008)"><path d="M101.97 12.95 C109.5 19.71, 120.44 22.46, 126.84 29.73 M101.97 12.95 C110.94 19.5, 119.76 24.36, 126.84 29.73" stroke="#1e1e1e" stroke-width="2" fill="none"></path></g></g><mask></mask><g stroke-linecap="round" transform="translate(386.5394965277778 52.708168512658176) rotate(0 113.041015625 223.3359375)"><path d="M32 0 C93.03 -0.31, 157.61 0.23, 194.08 0 M32 0 C63.81 -0.21, 96.88 -1.21, 194.08 0 M194.08 0 C213.61 -1.68, 225.98 8.89, 226.08 32 M194.08 0 C215.41 0.23, 224.69 12.82, 226.08 32 M226.08 32 C225.98 180.6, 226.43 327.74, 226.08 414.67 M226.08 32 C227.46 140.59, 226.72 248.08, 226.08 414.67 M226.08 414.67 C226.7 435.89, 214.63 446.97, 194.08 446.67 M226.08 414.67 C226.66 436.86, 215.35 447.94, 194.08 446.67 M194.08 446.67 C131.54 445.69, 68.94 445.05, 32 446.67 M194.08 446.67 C150.78 446.4, 107.81 446.55, 32 446.67 M32 446.67 C10.76 445.23, -0.14 436.5, 0 414.67 M32 446.67 C12.88 448.5, -0.63 434.22, 0 414.67 M0 414.67 C-0.33 296.95, -0.17 182.08, 0 32 M0 414.67 C-0.25 317.13, -0.17 218.74, 0 32 M0 32 C-0.24 10.91, 10.83 1.69, 32 0 M0 32 C-0.05 10, 9.01 -0.96, 32 0" stroke="#1e1e1e" stroke-width="2" fill="none"></path></g><g transform="translate(432.8305045233833 251.04410601265818) rotate(0 66.75000762939453 25)"><text x="66.75000762939453" y="0" font-family="Virgil, Segoe UI Emoji" font-size="20px" fill="#1e1e1e" text-anchor="middle" style="white-space: pre;" direction="ltr" dominant-baseline="text-before-edge">API Gateway</text><text x="66.75000762939453" y="25" font-family="Virgil, Segoe UI Emoji" font-size="20px" fill="#1e1e1e" text-anchor="middle" style="white-space: pre;" direction="ltr" dominant-baseline="text-before-edge">/LB</text></g><g stroke-linecap="round" transform="translate(852.8232421875 108.02848101265818) rotate(0 88.5 32)"><path d="M16 0 C65.38 2.65, 111.75 1.28, 161 0 M16 0 C59.59 -0.48, 103.73 -0.02, 161 0 M161 0 C173.06 0.05, 177.4 6.67, 177 16 M161 0 C169.55 -2.23, 178.93 3.51, 177 16 M177 16 C176.82 24.3, 176.83 30.52, 177 48 M177 16 C177.13 26.24, 176.48 37.9, 177 48 M177 48 C176.1 58.02, 170.71 64.7, 161 64 M177 48 C175.82 56.91, 170.09 64.86, 161 64 M161 64 C120.43 63.77, 79.71 64.04, 16 64 M161 64 C121.3 64.14, 82.22 64.13, 16 64 M16 64 C4.11 65.33, 1.03 58.92, 0 48 M16 64 C7.36 61.97, 1.93 57.5, 0 48 M0 48 C1.23 39.51, 1.39 28.78, 0 16 M0 48 C0.67 37.79, 0.08 25.46, 0 16 M0 16 C1.21 4.66, 3.9 1.58, 16 0 M0 16 C1.02 5.77, 3.14 -1.32, 16 0" stroke="#1e1e1e" stroke-width="2" fill="none"></path></g><g transform="translate(866.8932418823242 127.52848101265818) rotate(0 74.43000030517578 12.5)"><text x="74.43000030517578" y="0" font-family="Virgil, Segoe UI Emoji" font-size="20px" fill="#1e1e1e" text-anchor="middle" style="white-space: pre;" direction="ltr" dominant-baseline="text-before-edge">CreateComment</text></g><g stroke-linecap="round" transform="translate(852.7954644097222 216.27848101265818) rotate(0 88.5 32)"><path d="M16 0 C44.25 0.66, 76.65 -0.27, 161 0 M16 0 C51.6 1.66, 84.89 0.48, 161 0 M161 0 C173.39 0.37, 176.97 7.11, 177 16 M161 0 C170.41 -1.1, 177.01 3.6, 177 16 M177 16 C175.51 25.2, 175.71 29.74, 177 48 M177 16 C175.96 25.63, 177.73 34.59, 177 48 M177 48 C178.77 57.61, 169.89 63.41, 161 64 M177 48 C178.27 57.63, 172.66 64.01, 161 64 M161 64 C126.32 64.18, 93.67 63.46, 16 64 M161 64 C119.23 65.44, 76.67 64.27, 16 64 M16 64 C3.52 63.02, 1.4 59.21, 0 48 M16 64 C6.22 63.47, -0.03 60.27, 0 48 M0 48 C0.85 39.84, 0.75 35.03, 0 16 M0 48 C-1.1 38.7, -0.61 31.44, 0 16 M0 16 C1.83 5.13, 3.35 -1.69, 16 0 M0 16 C-1.36 6.12, 6.95 -0.62, 16 0" stroke="#1e1e1e" stroke-width="2" fill="none"></path></g><g transform="translate(876.1754616631401 235.77848101265818) rotate(0 65.12000274658203 12.5)"><text x="65.12000274658203" y="0" font-family="Virgil, Segoe UI Emoji" font-size="20px" fill="#1e1e1e" text-anchor="middle" style="white-space: pre;" direction="ltr" dominant-baseline="text-before-edge">ListComments</text></g><g stroke-linecap="round"><g transform="translate(628.3510199652778 172.75299516902348) rotate(0 107.94933564743997 -21.3052913940587)"><path d="M-0.79 1.07 C35.42 -5.99, 180.5 -35.08, 216.45 -42.17 M0.99 0.59 C37.17 -6.86, 179.74 -36.76, 215.8 -44.07" stroke="#1e1e1e" stroke-width="2" fill="none"></path></g><g transform="translate(628.3510199652778 172.75299516902348) rotate(0 107.94933564743997 -21.3052913940587)"><path d="M190.27 -28.31 C197.86 -30.82, 202.65 -36.95, 215.8 -44.07 M190.27 -28.31 C200.69 -34.54, 209.64 -40.37, 215.8 -44.07" stroke="#1e1e1e" stroke-width="2" fill="none"></path></g><g transform="translate(628.3510199652778 172.75299516902348) rotate(0 107.94933564743997 -21.3052913940587)"><path d="M186.11 -48.41 C194.69 -46.29, 200.43 -47.82, 215.8 -44.07 M186.11 -48.41 C198.19 -46.78, 208.76 -44.73, 215.8 -44.07" stroke="#1e1e1e" stroke-width="2" fill="none"></path></g></g><mask></mask><g stroke-linecap="round"><g transform="translate(633.3510199652778 247.5967906613794) rotate(0 104.86519975282056 1.52132780829821)"><path d="M0.13 -0.9 C35.05 -0.4, 175.33 1.75, 210.4 2.42 M-1.26 1.25 C33.48 1.95, 174.55 3.09, 209.8 3.63" stroke="#1e1e1e" stroke-width="2" fill="none"></path></g><g transform="translate(633.3510199652778 247.5967906613794) rotate(0 104.86519975282056 1.52132780829821)"><path d="M181.5 13.57 C190.61 10.94, 201.63 7.53, 209.8 3.63 M181.5 13.57 C190.03 11.25, 199.65 6.26, 209.8 3.63" stroke="#1e1e1e" stroke-width="2" fill="none"></path></g><g transform="translate(633.3510199652778 247.5967906613794) rotate(0 104.86519975282056 1.52132780829821)"><path d="M181.73 -6.95 C190.66 -1.92, 201.59 2.32, 209.8 3.63 M181.73 -6.95 C190.19 -3, 199.74 -1.74, 209.8 3.63" stroke="#1e1e1e" stroke-width="2" fill="none"></path></g></g><mask></mask><g stroke-linecap="round" transform="translate(1249.55741940269 10) rotate(0 156.5 107.5)"><path d="M193.46 2.44 C209.66 3.44, 227.3 10.98, 241.74 17.34 C256.18 23.71, 269.68 31.53, 280.11 40.64 C290.53 49.76, 298.81 60.97, 304.28 72.02 C309.75 83.07, 312.84 95.25, 312.91 106.96 C312.99 118.66, 309.97 131.15, 304.74 142.24 C299.51 153.33, 291.84 164.41, 281.54 173.48 C271.24 182.55, 257.37 190.3, 242.95 196.66 C228.53 203.01, 211.41 208.48, 195.04 211.6 C178.66 214.73, 161.54 216.4, 144.72 215.43 C127.89 214.46, 109.76 210.35, 94.1 205.79 C78.45 201.23, 63.12 195.97, 50.77 188.08 C38.43 180.19, 28.28 168.68, 20.04 158.44 C11.79 148.2, 4.22 137.9, 1.33 126.65 C-1.56 115.4, 0 102.6, 2.69 90.95 C5.38 79.31, 9.71 67.02, 17.45 56.76 C25.19 46.5, 36.62 37.39, 49.1 29.39 C61.58 21.39, 76.8 13.63, 92.35 8.77 C107.9 3.91, 123.03 0.64, 142.39 0.24 C161.74 -0.16, 195.63 4.39, 208.51 6.38 C221.39 8.36, 220.57 10.39, 219.67 12.15 M96.39 8.76 C110.41 2.8, 129.35 -0.02, 146.14 -0.92 C162.93 -1.82, 180.74 -0.02, 197.12 3.34 C213.51 6.69, 230.4 12.45, 244.45 19.21 C258.5 25.97, 271.37 34.5, 281.42 43.88 C291.46 53.26, 299.35 64.68, 304.72 75.5 C310.09 86.32, 313.93 97.59, 313.62 108.81 C313.31 120.02, 308.55 131.51, 302.86 142.78 C297.18 154.04, 289.9 167.13, 279.49 176.38 C269.08 185.64, 255.03 192.27, 240.41 198.29 C225.79 204.32, 208.3 210.07, 191.77 212.54 C175.24 215.02, 158.18 214.14, 141.22 213.14 C124.27 212.14, 105.38 211.07, 90.03 206.54 C74.69 202.01, 61.44 194.28, 49.17 185.95 C36.9 177.63, 24.35 166.79, 16.41 156.59 C8.46 146.38, 3.65 136.37, 1.51 124.7 C-0.63 113.04, 0.24 98.47, 3.57 86.61 C6.9 74.76, 13.3 63.23, 21.48 53.58 C29.67 43.93, 40.43 36.33, 52.67 28.72 C64.92 21.12, 87.62 11.23, 94.96 7.95 C102.3 4.66, 95.48 7.23, 96.72 9.02" stroke="#1e1e1e" stroke-width="2" fill="none"></path></g><g transform="translate(1365.4652078418194 92.48602102244615) rotate(0 40.43000030517578 25)"><text x="40.43000030517578" y="0" font-family="Virgil, Segoe UI Emoji" font-size="20px" fill="#1e1e1e" text-anchor="middle" style="white-space: pre;" direction="ltr" dominant-baseline="text-before-edge">Comment</text><text x="40.43000030517578" y="25" font-family="Virgil, Segoe UI Emoji" font-size="20px" fill="#1e1e1e" text-anchor="middle" style="white-space: pre;" direction="ltr" dominant-baseline="text-before-edge">Store</text></g><g stroke-linecap="round"><g transform="translate(1040.8232421875 128.37122593799504) rotate(0 98.97206235066301 3.2850130578471664)"><path d="M-0.33 -0.39 C32.28 0.89, 163.78 5.55, 196.88 6.82 M1.69 -1.63 C34.56 -0.67, 166.37 3.68, 199.04 4.83" stroke="#1e1e1e" stroke-width="2" fill="none"></path></g><g transform="translate(1040.8232421875 128.37122593799504) rotate(0 98.97206235066301 3.2850130578471664)"><path d="M170.52 14.13 C181.34 8.72, 193.79 7.31, 199.04 4.83 M170.52 14.13 C180.84 10.41, 190.59 6.86, 199.04 4.83" stroke="#1e1e1e" stroke-width="2" fill="none"></path></g><g transform="translate(1040.8232421875 128.37122593799504) rotate(0 98.97206235066301 3.2850130578471664)"><path d="M171.21 -6.38 C181.61 -3.59, 193.79 3.19, 199.04 4.83 M171.21 -6.38 C181.39 -2.8, 190.89 0.94, 199.04 4.83" stroke="#1e1e1e" stroke-width="2" fill="none"></path></g></g><mask></mask><g mask="url(#mask-L72J386JWwccKPn0qEwc-)" stroke-linecap="round"><g transform="translate(1033.2954644097222 238.63191170325427) rotate(0 113.25004799691305 -32.75928407482154)"><path d="M0.93 -0.55 C38.56 -11.53, 188.32 -55.37, 225.79 -66.33 M-0.04 1.78 C37.97 -9.03, 190.09 -54.01, 228.12 -65.22" stroke="#1e1e1e" stroke-width="2" fill="none"></path></g><g transform="translate(1033.2954644097222 238.63191170325427) rotate(0 113.25004799691305 -32.75928407482154)"><path d="M203.99 -47.4 C210.41 -54.15, 217.24 -59.68, 228.12 -65.22 M203.99 -47.4 C209.64 -50.59, 215.31 -56.34, 228.12 -65.22" stroke="#1e1e1e" stroke-width="2" fill="none"></path></g><g transform="translate(1033.2954644097222 238.63191170325427) rotate(0 113.25004799691305 -32.75928407482154)"><path d="M198.18 -67.08 C206.28 -67.95, 214.86 -67.54, 228.12 -65.22 M198.18 -67.08 C205.01 -65.71, 212.02 -66.92, 228.12 -65.22" stroke="#1e1e1e" stroke-width="2" fill="none"></path></g></g><mask id="mask-L72J386JWwccKPn0qEwc-"><rect x="0" y="0" fill="#fff" width="1359.7955604035483" height="404.1504798528973"></rect><rect x="1138.6655122921943" y="193.37262762843272" fill="#000" width="15.760000228881836" height="25" opacity="1"></rect></mask><g transform="translate(1138.6655122921945 193.37262762843272) rotate(0 8.669858546378123 12.981309827952643)"><text x="7.880000114440918" y="0" font-family="Virgil, Segoe UI Emoji" font-size="20px" fill="#1e1e1e" text-anchor="middle" style="white-space: pre;" direction="ltr" dominant-baseline="text-before-edge">V1</text></g><g mask="url(#mask-p1AkL84t9Lq0Tm6vcNxHV)" stroke-linecap="round"><g transform="translate(241.76556461858024 237.85628820458732) rotate(0 70.88607594936701 64.55696202531644)"><path d="M-1.07 0.31 C22.42 21.97, 118.13 107.46, 141.93 129.09 M0.56 -0.57 C23.82 21.37, 117.67 109.14, 141.06 130.62" stroke="#2f9e44" stroke-width="2" fill="none"></path></g><g transform="translate(241.76556461858024 237.85628820458732) rotate(0 70.88607594936701 64.55696202531644)"><path d="M113.42 118.96 C124.41 123.92, 134.41 128.01, 141.06 130.62 M113.42 118.96 C123.14 123.58, 134.33 127.06, 141.06 130.62" stroke="#2f9e44" stroke-width="2" fill="none"></path></g><g transform="translate(241.76556461858024 237.85628820458732) rotate(0 70.88607594936701 64.55696202531644)"><path d="M127.38 103.92 C132.93 114.5, 137.6 124.33, 141.06 130.62 M127.38 103.92 C131.7 114.36, 137.5 123.65, 141.06 130.62" stroke="#2f9e44" stroke-width="2" fill="none"></path></g></g><mask id="mask-p1AkL84t9Lq0Tm6vcNxHV"><rect x="0" y="0" fill="#fff" width="483.53771651731427" height="466.9702122552202"></rect><rect x="309.94164052980034" y="289.9132502299037" fill="#000" width="5.420000076293945" height="25" opacity="1"></rect></mask><g transform="translate(309.9416405298002 289.9132502299038) rotate(0 2.2507459554821594 12.968828572798529)"><text x="2.7100000381469727" y="0" font-family="Virgil, Segoe UI Emoji" font-size="20px" fill="#2f9e44" text-anchor="middle" style="white-space: pre;" direction="ltr" dominant-baseline="text-before-edge">1</text></g><g mask="url(#mask-cuyMKBoOy-8cNwABVmWKR)" stroke-linecap="round"><g transform="translate(536.4807544919977 516.7961616223087) rotate(0 184.31170886075938 201.1651420832839)"><path d="M-0.1 1.17 C17.03 36.6, 41.55 145.96, 103.11 212.86 C164.67 279.75, 324.95 370.8, 369.27 402.56 M-1.61 0.74 C15.29 36.3, 40.2 146.86, 101.94 214.07 C163.68 281.28, 324.25 372.78, 368.84 403.99" stroke="#2f9e44" stroke-width="2" fill="none"></path></g><g transform="translate(536.4807544919977 516.7961616223087) rotate(0 184.31170886075938 201.1651420832839)"><path d="M339.57 397.42 C351.18 398.9, 357.85 402.85, 368.84 403.99 M339.57 397.42 C349.53 398.35, 359.09 400.94, 368.84 403.99" stroke="#2f9e44" stroke-width="2" fill="none"></path></g><g transform="translate(536.4807544919977 516.7961616223087) rotate(0 184.31170886075938 201.1651420832839)"><path d="M350.64 380.14 C358.65 387.31, 361.66 396.95, 368.84 403.99 M350.64 380.14 C357.13 386.68, 363.16 394.78, 368.84 403.99" stroke="#2f9e44" stroke-width="2" fill="none"></path></g></g><mask id="mask-cuyMKBoOy-8cNwABVmWKR"><rect x="0" y="0" fill="#fff" width="1005.1041722135164" height="1019.1264457888765"></rect><rect x="513.1443521040903" y="605.2693996047689" fill="#000" width="253.74000549316406" height="250" opacity="1"></rect></mask><g transform="translate(513.1443521040903 605.2693996047689) rotate(0 207.16279635410604 113.89484918789145)"><text x="126.87000274658203" y="0" font-family="Virgil, Segoe UI Emoji" font-size="20px" fill="#2f9e44" text-anchor="middle" style="white-space: pre;" direction="ltr" dominant-baseline="text-before-edge">1. Connect</text><text x="126.87000274658203" y="25" font-family="Virgil, Segoe UI Emoji" font-size="20px" fill="#2f9e44" text-anchor="middle" style="white-space: pre;" direction="ltr" dominant-baseline="text-before-edge">Router will forward</text><text x="126.87000274658203" y="50" font-family="Virgil, Segoe UI Emoji" font-size="20px" fill="#2f9e44" text-anchor="middle" style="white-space: pre;" direction="ltr" dominant-baseline="text-before-edge">subscription to right</text><text x="126.87000274658203" y="75" font-family="Virgil, Segoe UI Emoji" font-size="20px" fill="#2f9e44" text-anchor="middle" style="white-space: pre;" direction="ltr" dominant-baseline="text-before-edge">channel sec</text><text x="126.87000274658203" y="100" font-family="Virgil, Segoe UI Emoji" font-size="20px" fill="#2f9e44" text-anchor="middle" style="white-space: pre;" direction="ltr" dominant-baseline="text-before-edge"></text><text x="126.87000274658203" y="125" font-family="Virgil, Segoe UI Emoji" font-size="20px" fill="#2f9e44" text-anchor="middle" style="white-space: pre;" direction="ltr" dominant-baseline="text-before-edge">Option 2:</text><text x="126.87000274658203" y="150" font-family="Virgil, Segoe UI Emoji" font-size="20px" fill="#2f9e44" text-anchor="middle" style="white-space: pre;" direction="ltr" dominant-baseline="text-before-edge">Router updates </text><text x="126.87000274658203" y="175" font-family="Virgil, Segoe UI Emoji" font-size="20px" fill="#2f9e44" text-anchor="middle" style="white-space: pre;" direction="ltr" dominant-baseline="text-before-edge">ChannelSvc cluster info </text><text x="126.87000274658203" y="200" font-family="Virgil, Segoe UI Emoji" font-size="20px" fill="#2f9e44" text-anchor="middle" style="white-space: pre;" direction="ltr" dominant-baseline="text-before-edge">so LB can associate this</text><text x="126.87000274658203" y="225" font-family="Virgil, Segoe UI Emoji" font-size="20px" fill="#2f9e44" text-anchor="middle" style="white-space: pre;" direction="ltr" dominant-baseline="text-before-edge">with some header</text></g><g mask="url(#mask-vg57mNbuI4Zz7QVSe37QT)" stroke-linecap="round"><g transform="translate(803.775058289466 572.3657818754732) rotate(0 -95.56170886075938 -31.811708860759495)"><path d="M-0.82 -1.18 C-32.91 -12.12, -160.04 -53.91, -191.86 -64.49 M0.95 0.81 C-30.81 -9.48, -157.24 -52.63, -189.54 -63.41" stroke="#2f9e44" stroke-width="2" fill="none"></path></g><g transform="translate(803.775058289466 572.3657818754732) rotate(0 -95.56170886075938 -31.811708860759495)"><path d="M-159.55 -64.11 C-172.15 -65.3, -182.28 -64.83, -189.54 -63.41 M-159.55 -64.11 C-166.34 -63.65, -172.19 -63.96, -189.54 -63.41" stroke="#2f9e44" stroke-width="2" fill="none"></path></g><g transform="translate(803.775058289466 572.3657818754732) rotate(0 -95.56170886075938 -31.811708860759495)"><path d="M-166.11 -44.67 C-176.57 -52.71, -184.37 -59.14, -189.54 -63.41 M-166.11 -44.67 C-171.65 -48.34, -176.09 -52.81, -189.54 -63.41" stroke="#2f9e44" stroke-width="2" fill="none"></path></g></g><mask id="mask-vg57mNbuI4Zz7QVSe37QT"><rect x="0" y="0" fill="#fff" width="1094.8984760109847" height="735.9891995969922"></rect><rect x="685.5533495812945" y="528.0540730147137" fill="#000" width="45.31999969482422" height="25" opacity="1"></rect></mask><g transform="translate(685.5533495812945 528.0540730147137) rotate(0 22.76621089434252 12.473446377459922)"><text x="22.65999984741211" y="0" font-family="Virgil, Segoe UI Emoji" font-size="20px" fill="#1e1e1e" text-anchor="middle" style="white-space: pre;" direction="ltr" dominant-baseline="text-before-edge">Push</text></g><g stroke-linecap="round"><g transform="translate(379.740248162884 450.51451605268846) rotate(0 -82.91139240506322 -98.10126582278477)"><path d="M0.8 -0.15 C-27.1 -32.64, -138.76 -162.44, -166.43 -195.23 M-0.25 -1.28 C-27.82 -34.06, -136.46 -164.4, -164.04 -196.84" stroke="#2f9e44" stroke-width="2" fill="none"></path></g><g transform="translate(379.740248162884 450.51451605268846) rotate(0 -82.91139240506322 -98.10126582278477)"><path d="M-138.05 -181.87 C-148.08 -188.37, -156.03 -192.03, -164.04 -196.84 M-138.05 -181.87 C-144.03 -185.26, -151.17 -189.25, -164.04 -196.84" stroke="#2f9e44" stroke-width="2" fill="none"></path></g><g transform="translate(379.740248162884 450.51451605268846) rotate(0 -82.91139240506322 -98.10126582278477)"><path d="M-153.75 -168.66 C-157.83 -180.25, -159.84 -188.91, -164.04 -196.84 M-153.75 -168.66 C-156.02 -175.16, -159.35 -182.36, -164.04 -196.84" stroke="#2f9e44" stroke-width="2" fill="none"></path></g></g><mask></mask><g stroke-linecap="round" transform="translate(1675.723154145789 420.26102143175916) rotate(0 57.77777777777783 49.44444444444443)"><path d="M24.72 0 C42.19 1.92, 63.46 2.26, 90.83 0 M24.72 0 C48.8 0.88, 72.12 -0.51, 90.83 0 M90.83 0 C109.15 0.9, 116.47 8.83, 115.56 24.72 M90.83 0 C107.18 1.64, 117.54 6.06, 115.56 24.72 M115.56 24.72 C113.26 36.52, 113.78 53.08, 115.56 74.17 M115.56 24.72 C116.29 35.48, 114.55 46.43, 115.56 74.17 M115.56 74.17 C113.87 92.08, 108.62 98.63, 90.83 98.89 M115.56 74.17 C113.98 92.56, 105.71 99.21, 90.83 98.89 M90.83 98.89 C72.3 99.64, 50.38 99.53, 24.72 98.89 M90.83 98.89 C73.08 98.05, 56.85 98.51, 24.72 98.89 M24.72 98.89 C8.9 98.32, -0.47 91.03, 0 74.17 M24.72 98.89 C10.09 96.81, -2.21 89.32, 0 74.17 M0 74.17 C-0.26 62.16, -1.12 47.26, 0 24.72 M0 74.17 C-0.67 60.87, 0.29 47.61, 0 24.72 M0 24.72 C-1.19 9.57, 7.23 1.18, 24.72 0 M0 24.72 C-2.05 9.91, 8.27 -0.58, 24.72 0" stroke="#1e1e1e" stroke-width="2" fill="none"></path></g><g transform="translate(1685.8609325339185 444.70546587620356) rotate(0 47.63999938964844 25)"><text x="47.63999938964844" y="0" font-family="Virgil, Segoe UI Emoji" font-size="20px" fill="#1e1e1e" text-anchor="middle" style="white-space: pre;" direction="ltr" dominant-baseline="text-before-edge">Comment</text><text x="47.63999938964844" y="25" font-family="Virgil, Segoe UI Emoji" font-size="20px" fill="#1e1e1e" text-anchor="middle" style="white-space: pre;" direction="ltr" dominant-baseline="text-before-edge">Processor</text></g><g stroke-linecap="round"><g transform="translate(1495.6290158208758 212.6139805720531) rotate(0 95.00148599550585 102.15685376318638)"><path d="M-0.11 0.31 C31.47 34.41, 158.18 170.67, 189.69 204.78 M-1.62 -0.57 C29.75 33.14, 156.42 168.98, 188.57 202.9" stroke="#1e1e1e" stroke-width="2" fill="none"></path></g><g transform="translate(1495.6290158208758 212.6139805720531) rotate(0 95.00148599550585 102.15685376318638)"><path d="M161.8 189.37 C170.84 193.17, 179.6 196.22, 188.57 202.9 M161.8 189.37 C171.26 193.39, 181.2 199, 188.57 202.9" stroke="#1e1e1e" stroke-width="2" fill="none"></path></g><g transform="translate(1495.6290158208758 212.6139805720531) rotate(0 95.00148599550585 102.15685376318638)"><path d="M176.76 175.33 C181.08 183.57, 185.09 191.07, 188.57 202.9 M176.76 175.33 C180.81 184.41, 185.43 195.01, 188.57 202.9" stroke="#1e1e1e" stroke-width="2" fill="none"></path></g></g><mask></mask><g stroke-linecap="round" transform="translate(1155.7231541457893 321.37213254287127) rotate(0 106.1111111111112 83.33333333333331)"><path d="M117.97 0.23 C131.12 0.18, 146.22 5.6, 158.13 10.89 C170.05 16.18, 181.13 23.69, 189.48 31.98 C197.83 40.26, 204.46 50.36, 208.23 60.61 C212.01 70.86, 213.82 82.87, 212.14 93.49 C210.46 104.1, 204.88 115.01, 198.15 124.31 C191.41 133.61, 182.11 142.9, 171.72 149.28 C161.33 155.65, 148.84 159.84, 135.81 162.57 C122.78 165.29, 107.08 166.67, 93.52 165.64 C79.96 164.6, 66.19 161.33, 54.44 156.36 C42.69 151.39, 31.28 144.07, 23 135.8 C14.72 127.54, 8.43 117.06, 4.76 106.77 C1.09 96.48, -0.46 84.76, 0.97 74.06 C2.4 63.35, 6.96 51.69, 13.34 42.54 C19.71 33.4, 28.58 25.77, 39.21 19.18 C49.84 12.59, 62.59 5.84, 77.11 3.03 C91.64 0.22, 117.25 2.09, 126.37 2.33 C135.5 2.56, 132.35 3.21, 131.87 4.44 M65.03 7.29 C76.17 2.7, 92.14 1.45, 105.79 1.24 C119.43 1.02, 134.02 2.07, 146.89 6.02 C159.77 9.97, 173.59 17.06, 183.04 24.93 C192.49 32.81, 198.68 43.49, 203.58 53.25 C208.47 63.01, 212.56 72.88, 212.41 83.51 C212.26 94.15, 207.73 107.2, 202.66 117.04 C197.58 126.88, 191.33 135.44, 181.95 142.56 C172.57 149.68, 159.2 155.71, 146.38 159.77 C133.57 163.83, 118.55 166.88, 105.07 166.91 C91.59 166.95, 77.89 164.34, 65.49 160 C53.09 155.66, 40.19 148.22, 30.67 140.87 C21.14 133.51, 13.56 125.62, 8.34 115.87 C3.11 106.12, -0.48 93.19, -0.69 82.36 C-0.91 71.53, 1.49 60.39, 7.03 50.91 C12.57 41.42, 22.59 32.7, 32.56 25.46 C42.54 18.22, 61.03 10.41, 66.88 7.46 C72.73 4.5, 66.92 6.65, 67.67 7.75" stroke="#1e1e1e" stroke-width="2" fill="none"></path></g><g transform="translate(1192.5723833034556 354.7799007773256) rotate(0 69.22999572753906 49.99999999999999)"><text x="69.22999572753906" y="0" font-family="Virgil, Segoe UI Emoji" font-size="20px" fill="#1e1e1e" text-anchor="middle" style="white-space: pre;" direction="ltr" dominant-baseline="text-before-edge">CommentsByEn</text><text x="69.22999572753906" y="25" font-family="Virgil, Segoe UI Emoji" font-size="20px" fill="#1e1e1e" text-anchor="middle" style="white-space: pre;" direction="ltr" dominant-baseline="text-before-edge">tity</text><text x="69.22999572753906" y="50" font-family="Virgil, Segoe UI Emoji" font-size="20px" fill="#1e1e1e" text-anchor="middle" style="white-space: pre;" direction="ltr" dominant-baseline="text-before-edge">Secondary</text><text x="69.22999572753906" y="75" font-family="Virgil, Segoe UI Emoji" font-size="20px" fill="#1e1e1e" text-anchor="middle" style="white-space: pre;" direction="ltr" dominant-baseline="text-before-edge">Index</text></g><g mask="url(#mask-Ar-oo7ri9dA3nKfW3-vo-)" stroke-linecap="round"><g transform="translate(1376.675666232997 228.6159601558454) rotate(0 -31.10750214780353 45.31538883250173)"><path d="M-0.17 -0.46 C-10.33 14.64, -50.78 76.07, -61.12 91.19 M-1.72 -1.75 C-11.93 12.95, -51.28 73.84, -61.5 89.36" stroke="#1e1e1e" stroke-width="2" fill="none"></path></g><g transform="translate(1376.675666232997 228.6159601558454) rotate(0 -31.10750214780353 45.31538883250173)"><path d="M-54.69 60.14 C-57.26 70.32, -57.52 76.81, -61.5 89.36 M-54.69 60.14 C-56.16 67.01, -58.07 75.81, -61.5 89.36" stroke="#1e1e1e" stroke-width="2" fill="none"></path></g><g transform="translate(1376.675666232997 228.6159601558454) rotate(0 -31.10750214780353 45.31538883250173)"><path d="M-37.5 71.35 C-45.05 78.29, -50.22 81.58, -61.5 89.36 M-37.5 71.35 C-43.48 75.08, -50.01 80.87, -61.5 89.36" stroke="#1e1e1e" stroke-width="2" fill="none"></path></g></g><mask id="mask-Ar-oo7ri9dA3nKfW3-vo-"><rect x="0" y="0" fill="#fff" width="1538.890670528604" height="419.24673782084886"></rect><rect x="1243.908160423084" y="261.43134898834717" fill="#000" width="203.32000732421875" height="25" opacity="1"></rect></mask><g transform="translate(1243.9081604230842 261.43134898834717) rotate(0 101.93386134401419 11.905872810254806)"><text x="101.66000366210938" y="0" font-family="Virgil, Segoe UI Emoji" font-size="20px" fill="#1e1e1e" text-anchor="middle" style="white-space: pre;" direction="ltr" dominant-baseline="text-before-edge">Option 1 (eg Dynamo)</text></g><g mask="url(#mask-sLVzcwYXsrC_U0obsyCLe)" stroke-linecap="round"><g transform="translate(1036.0292177906394 287.02073571870704) rotate(0 61.90016858653712 32.683527902518556)"><path d="M-0.4 -0.52 C20.38 10.28, 104.16 54.79, 124.91 65.89 M1.59 1.82 C22.28 12.77, 104.23 53.66, 124.54 64.04" stroke="#1e1e1e" stroke-width="2" fill="none"></path></g><g transform="translate(1036.0292177906394 287.02073571870704) rotate(0 61.90016858653712 32.683527902518556)"><path d="M94.75 60.5 C103.48 63.58, 114.8 63.36, 124.54 64.04 M94.75 60.5 C104.49 61.69, 116.4 63.39, 124.54 64.04" stroke="#1e1e1e" stroke-width="2" fill="none"></path></g><g transform="translate(1036.0292177906394 287.02073571870704) rotate(0 61.90016858653712 32.683527902518556)"><path d="M103.99 42.18 C109.92 51.12, 118.27 56.78, 124.54 64.04 M103.99 42.18 C110.41 49.99, 119.01 58.25, 124.54 64.04" stroke="#1e1e1e" stroke-width="2" fill="none"></path></g></g><mask id="mask-sLVzcwYXsrC_U0obsyCLe"><rect x="0" y="0" fill="#fff" width="1259.8295549637137" height="452.38779152374417"></rect><rect x="1085.579385995707" y="307.2042636212256" fill="#000" width="24.700000762939453" height="25" opacity="1"></rect></mask><g transform="translate(1085.5793859957068 307.2042636212256) rotate(0 12.703728291392395 12.499939873814586)"><text x="12.350000381469727" y="0" font-family="Virgil, Segoe UI Emoji" font-size="20px" fill="#1e1e1e" text-anchor="middle" style="white-space: pre;" direction="ltr" dominant-baseline="text-before-edge">v2</text></g><g mask="url(#mask-Ry-p8oT-Xf_FxBj2VIeQx)" stroke-linecap="round"><g transform="translate(1661.2787097013447 460.3967144201896) rotate(0 -144.60525192258478 -16.658059198406136)"><path d="M0.56 0.13 C-47.4 -5.41, -239.94 -28.65, -288.17 -34.17 M-0.6 -0.85 C-48.6 -6.18, -240.45 -27.37, -288.57 -33.08" stroke="#1e1e1e" stroke-width="2" fill="none"></path></g><g transform="translate(1661.2787097013447 460.3967144201896) rotate(0 -144.60525192258478 -16.658059198406136)"><path d="M-259.4 -40.08 C-267.01 -36.35, -276.4 -35.56, -288.57 -33.08 M-259.4 -40.08 C-269.75 -36.68, -278.3 -34.6, -288.57 -33.08" stroke="#1e1e1e" stroke-width="2" fill="none"></path></g><g transform="translate(1661.2787097013447 460.3967144201896) rotate(0 -144.60525192258478 -16.658059198406136)"><path d="M-261.73 -19.69 C-268.56 -21.4, -277.33 -26.03, -288.57 -33.08 M-261.73 -19.69 C-271.44 -23.06, -279.22 -27.73, -288.57 -33.08" stroke="#1e1e1e" stroke-width="2" fill="none"></path></g></g><mask id="mask-Ry-p8oT-Xf_FxBj2VIeQx"><rect x="0" y="0" fill="#fff" width="2050.4892135465143" height="593.7128328170019"></rect><rect x="1444.6834599149906" y="406.23865522178346" fill="#000" width="143.97999572753906" height="75" opacity="1"></rect></mask><g transform="translate(1444.6834599149904 406.23865522178346) rotate(0 72.58848649636377 37.13935107886791)"><text x="71.98999786376953" y="0" font-family="Virgil, Segoe UI Emoji" font-size="20px" fill="#1e1e1e" text-anchor="middle" style="white-space: pre;" direction="ltr" dominant-baseline="text-before-edge">Opt 2</text><text x="71.98999786376953" y="25" font-family="Virgil, Segoe UI Emoji" font-size="20px" fill="#1e1e1e" text-anchor="middle" style="white-space: pre;" direction="ltr" dominant-baseline="text-before-edge">SQS or kafka </text><text x="71.98999786376953" y="50" font-family="Virgil, Segoe UI Emoji" font-size="20px" fill="#1e1e1e" text-anchor="middle" style="white-space: pre;" direction="ltr" dominant-baseline="text-before-edge">to do both</text></g><g stroke-linecap="round" transform="translate(923.5208075801027 514.7414789824059) rotate(0 100.2435472705696 50.52792062236301)"><path d="M25.26 0 C56.03 3.58, 93.91 1.47, 175.22 0 C193.34 0.68, 196.97 11.03, 200.49 25.26 C201.82 35.68, 196.93 50.63, 200.49 75.79 C199.17 93.98, 190.61 100.93, 175.22 101.06 C119.36 103.17, 69.34 100.5, 25.26 101.06 C11.65 104.02, -3.25 92.15, 0 75.79 C-2.62 67.28, -1.41 52.04, 0 25.26 C3.48 9.31, 12.01 0.19, 25.26 0" stroke="none" stroke-width="0" fill="#ffffff"></path><path d="M25.26 0 C81.17 -1.08, 135.38 1.24, 175.22 0 M25.26 0 C83.6 2.16, 139.57 1.69, 175.22 0 M175.22 0 C191.78 -0.46, 200.12 9.97, 200.49 25.26 M175.22 0 C191.11 -0.44, 200.5 8.54, 200.49 25.26 M200.49 25.26 C200.51 44.83, 199.77 65.33, 200.49 75.79 M200.49 25.26 C200.16 39.53, 200.48 53.85, 200.49 75.79 M200.49 75.79 C202.44 90.81, 193.42 101.72, 175.22 101.06 M200.49 75.79 C198.64 90.37, 191.08 102.35, 175.22 101.06 M175.22 101.06 C130.56 101.6, 85.74 100.16, 25.26 101.06 M175.22 101.06 C117.89 100.51, 60.78 100.26, 25.26 101.06 M25.26 101.06 C9.83 99.11, 0.11 91.27, 0 75.79 M25.26 101.06 C8.74 101.91, -1.04 93.77, 0 75.79 M0 75.79 C1.69 58.58, 0.48 43.07, 0 25.26 M0 75.79 C0.56 60.1, 0.36 43.32, 0 25.26 M0 25.26 C0.39 6.58, 9.58 1.39, 25.26 0 M0 25.26 C-0.85 6.57, 10.43 0.88, 25.26 0" stroke="#1e1e1e" stroke-width="2" fill="none"></path></g><g stroke-linecap="round" transform="translate(866.0208075801031 515.9914789824059) rotate(0 100.2435472705696 50.52792062236301)"><path d="M25.26 0 C66.06 2.01, 111.45 5.71, 175.22 0 C195 2.63, 200.78 7.83, 200.49 25.26 C202.4 37.82, 197.11 50.47, 200.49 75.79 C198.09 90.79, 189.92 102.38, 175.22 101.06 C128.98 101.12, 76.37 101.2, 25.26 101.06 C11.09 104.27, 1.32 89.55, 0 75.79 C1.46 55.55, -2.29 37.14, 0 25.26 C-3.4 11.4, 8.12 -3.43, 25.26 0" stroke="none" stroke-width="0" fill="#ffffff"></path><path d="M25.26 0 C66.7 1.15, 108.31 2.26, 175.22 0 M25.26 0 C62.48 0.53, 98.76 1.45, 175.22 0 M175.22 0 C192.37 -1.06, 202.36 9.81, 200.49 25.26 M175.22 0 C190.62 0.93, 200.26 10.25, 200.49 25.26 M200.49 25.26 C199.45 44.06, 201.14 65.31, 200.49 75.79 M200.49 25.26 C201.48 40.57, 201.85 56.64, 200.49 75.79 M200.49 75.79 C199.16 91.57, 191.95 101.95, 175.22 101.06 M200.49 75.79 C200.66 91.08, 193.5 101.75, 175.22 101.06 M175.22 101.06 C124.02 103.35, 73.91 101.77, 25.26 101.06 M175.22 101.06 C132.68 101.49, 89.27 99.97, 25.26 101.06 M25.26 101.06 C10.37 100.92, 1.2 92.25, 0 75.79 M25.26 101.06 C6.79 101.44, -0.62 92.26, 0 75.79 M0 75.79 C0.24 56.3, -1.14 39.81, 0 25.26 M0 75.79 C0.17 57.77, -0.17 41.06, 0 25.26 M0 25.26 C-0.68 10.03, 6.89 -0.11, 25.26 0 M0 25.26 C0.38 8.87, 9.19 -0.85, 25.26 0" stroke="#1e1e1e" stroke-width="2" fill="none"></path></g><g stroke-linecap="round" transform="translate(814.3068274745926 513.9106460632366) rotate(0 100.2435472705696 50.52792062236301)"><path d="M25.26 0 C66.86 -2.4, 103.77 1.55, 175.22 0 C191.6 2.65, 197.94 5.39, 200.49 25.26 C200.05 40.55, 199.52 63.89, 200.49 75.79 C200.45 92.48, 190.01 99.92, 175.22 101.06 C145.18 104.57, 114.2 99.58, 25.26 101.06 C7.98 103.35, -3.06 89.2, 0 75.79 C-1.65 59.43, -0.74 42.55, 0 25.26 C3.31 7.57, 7.96 -2.26, 25.26 0" stroke="none" stroke-width="0" fill="#ffffff"></path><path d="M25.26 0 C61.56 0.61, 92.22 0.19, 175.22 0 M25.26 0 C57.96 -1.94, 89.77 -2.11, 175.22 0 M175.22 0 C191.27 -0.28, 201.28 8.77, 200.49 25.26 M175.22 0 C193.07 -0.72, 201.26 6.37, 200.49 25.26 M200.49 25.26 C199.54 38.08, 199.25 46.17, 200.49 75.79 M200.49 25.26 C199.42 42.59, 199.6 62.4, 200.49 75.79 M200.49 75.79 C199.07 92.74, 191.03 102.79, 175.22 101.06 M200.49 75.79 C198.56 92.29, 191.86 98.97, 175.22 101.06 M175.22 101.06 C117.81 100.82, 57.52 103.6, 25.26 101.06 M175.22 101.06 C134.43 102.44, 95.39 100.81, 25.26 101.06 M25.26 101.06 C7.63 99.46, -1.54 92.69, 0 75.79 M25.26 101.06 C10.61 98.93, -0.8 94.91, 0 75.79 M0 75.79 C1.16 61.51, -2.35 46.79, 0 25.26 M0 75.79 C0.76 58.32, 0.7 39.84, 0 25.26 M0 25.26 C-0.59 9.61, 9.85 -0.97, 25.26 0 M0 25.26 C-0.99 7.32, 7.99 -0.1, 25.26 0" stroke="#1e1e1e" stroke-width="2" fill="none"></path></g><g transform="translate(842.3003747451621 526.9385666855997) rotate(0 72.25 37.5)"><text x="72.25" y="0" font-family="Virgil, Segoe UI Emoji" font-size="20px" fill="#1e1e1e" text-anchor="middle" style="white-space: pre;" direction="ltr" dominant-baseline="text-before-edge">Channelservice</text><text x="72.25" y="25" font-family="Virgil, Segoe UI Emoji" font-size="20px" fill="#1e1e1e" text-anchor="middle" style="white-space: pre;" direction="ltr" dominant-baseline="text-before-edge">(handles 100K </text><text x="72.25" y="50" font-family="Virgil, Segoe UI Emoji" font-size="20px" fill="#1e1e1e" text-anchor="middle" style="white-space: pre;" direction="ltr" dominant-baseline="text-before-edge">conns)</text></g><g mask="url(#mask-aa5wqWT9dSVVawDhdUY76)" stroke-linecap="round"><g transform="translate(1680.8358964078511 512.6857537460783) rotate(0 -275.90383678071146 224.67003029056772)"><path d="M0.42 0 C-11.73 65.86, 18.15 321.04, -73.93 395.91 C-166.01 470.78, -472.31 440.27, -552.06 449.21 M-0.82 -1.05 C-12.52 64.39, 20.19 318.83, -71.83 394.08 C-163.86 469.33, -472.85 441.02, -552.96 450.46" stroke="#1e1e1e" stroke-width="2" fill="none"></path></g><g transform="translate(1680.8358964078511 512.6857537460783) rotate(0 -275.90383678071146 224.67003029056772)"><path d="M-524.96 439.71 C-530.85 440.14, -535.89 443.96, -552.96 450.46 M-524.96 439.71 C-533.63 442.12, -542.01 446.27, -552.96 450.46" stroke="#1e1e1e" stroke-width="2" fill="none"></path></g><g transform="translate(1680.8358964078511 512.6857537460783) rotate(0 -275.90383678071146 224.67003029056772)"><path d="M-524.6 460.23 C-530.7 456.29, -535.81 455.74, -552.96 450.46 M-524.6 460.23 C-533.27 456.7, -541.75 454.91, -552.96 450.46" stroke="#1e1e1e" stroke-width="2" fill="none"></path></g></g><mask id="mask-aa5wqWT9dSVVawDhdUY76"><rect x="0" y="0" fill="#fff" width="2332.643569969274" height="1062.0258143272138"></rect><rect x="1539.9942612896152" y="895.5387992095377" fill="#000" width="136.1800079345703" height="25" opacity="1"></rect></mask><g transform="translate(1539.9942612896152 895.5387992095377) rotate(0 -135.42925701321315 -158.14468509430117)"><text x="68.09000396728516" y="0" font-family="Virgil, Segoe UI Emoji" font-size="20px" fill="#1e1e1e" text-anchor="middle" style="white-space: pre;" direction="ltr" dominant-baseline="text-before-edge">Push Comment</text></g><g stroke-linecap="round" transform="translate(912.5143548506724 847.7693996047689) rotate(0 103.125 80)"><path d="M32 0 C83.87 -0.07, 134.52 -1.37, 174.25 0 C194.61 3.01, 207.41 10.43, 206.25 32 C207.34 67.07, 203.05 92.56, 206.25 128 C205.37 152.19, 195.97 160.02, 174.25 160 C138.72 157.95, 110.67 157.6, 32 160 C12.59 156.65, -3.52 149.94, 0 128 C-3.8 89.9, 1.41 50.89, 0 32 C-0.31 8.4, 12.68 0.98, 32 0" stroke="none" stroke-width="0" fill="#ffffff"></path><path d="M32 0 C64.54 -0.18, 98.97 1.38, 174.25 0 M32 0 C68.66 0.14, 108.02 0.74, 174.25 0 M174.25 0 C194.97 -1.41, 207.33 10.1, 206.25 32 M174.25 0 C194.98 -1.3, 207.7 9.5, 206.25 32 M206.25 32 C207 53.67, 206.35 75.34, 206.25 128 M206.25 32 C205.57 66.08, 206.3 98.49, 206.25 128 M206.25 128 C205 150.46, 194.52 158.94, 174.25 160 M206.25 128 C205.97 151.06, 196.33 159.15, 174.25 160 M174.25 160 C143.74 161.8, 115.85 158.76, 32 160 M174.25 160 C122.53 160.46, 71.87 160.75, 32 160 M32 160 C10.86 160.2, -1.47 149.52, 0 128 M32 160 C10.67 161, -2.2 149.14, 0 128 M0 128 C-0.04 105.64, 0.84 80.96, 0 32 M0 128 C-0.4 97.03, 0.43 66.42, 0 32 M0 32 C0.37 11.93, 12.36 -0.44, 32 0 M0 32 C1.17 9, 9.58 1.92, 32 0" stroke="#1e1e1e" stroke-width="2" fill="none"></path></g><g transform="translate(936.8293572920786 852.7693996047689) rotate(0 78.80999755859375 75)"><text x="78.80999755859375" y="0" font-family="Virgil, Segoe UI Emoji" font-size="20px" fill="#1e1e1e" text-anchor="middle" style="white-space: pre;" direction="ltr" dominant-baseline="text-before-edge">Router/</text><text x="78.80999755859375" y="25" font-family="Virgil, Segoe UI Emoji" font-size="20px" fill="#1e1e1e" text-anchor="middle" style="white-space: pre;" direction="ltr" dominant-baseline="text-before-edge">Coordinator</text><text x="78.80999755859375" y="50" font-family="Virgil, Segoe UI Emoji" font-size="20px" fill="#1e1e1e" text-anchor="middle" style="white-space: pre;" direction="ltr" dominant-baseline="text-before-edge">(replicas)</text><text x="78.80999755859375" y="75" font-family="Virgil, Segoe UI Emoji" font-size="20px" fill="#1e1e1e" text-anchor="middle" style="white-space: pre;" direction="ltr" dominant-baseline="text-before-edge"></text><text x="78.80999755859375" y="100" font-family="Virgil, Segoe UI Emoji" font-size="20px" fill="#1e1e1e" text-anchor="middle" style="white-space: pre;" direction="ltr" dominant-baseline="text-before-edge">Only a few 100 </text><text x="78.80999755859375" y="125" font-family="Virgil, Segoe UI Emoji" font-size="20px" fill="#1e1e1e" text-anchor="middle" style="white-space: pre;" direction="ltr" dominant-baseline="text-before-edge">conns</text></g><g stroke-linecap="round" transform="translate(1325.6393548506724 705.8943996047689) rotate(0 61.875 43.125)"><path d="M21.56 0 C36.4 2.35, 58.46 -2.76, 102.19 0 C117.52 2.03, 122.22 5.92, 123.75 21.56 C126.68 36.76, 125.37 47.63, 123.75 64.69 C124.1 78.04, 118.28 83.38, 102.19 86.25 C83.49 88.97, 60.49 85.93, 21.56 86.25 C7.83 87.91, 1.72 82.08, 0 64.69 C0.61 47.5, 0.04 33.15, 0 21.56 C2.23 7.31, 5.68 1.81, 21.56 0" stroke="none" stroke-width="0" fill="#ffffff"></path><path d="M21.56 0 C52.01 -0.22, 84.44 0.4, 102.19 0 M21.56 0 C50.22 -0.67, 81.02 -0.83, 102.19 0 M102.19 0 C116.78 0.84, 122.98 8.86, 123.75 21.56 M102.19 0 C117.94 -1.63, 125.91 7.74, 123.75 21.56 M123.75 21.56 C122.59 33.69, 123.07 48.02, 123.75 64.69 M123.75 21.56 C123.28 30.21, 124.34 39.57, 123.75 64.69 M123.75 64.69 C122.8 79.09, 115.27 84.33, 102.19 86.25 M123.75 64.69 C124.45 80.96, 114.28 85.39, 102.19 86.25 M102.19 86.25 C80.11 86.62, 57.72 84.81, 21.56 86.25 M102.19 86.25 C79.84 86.4, 58.14 87.01, 21.56 86.25 M21.56 86.25 C6.99 85.12, 1.88 77.17, 0 64.69 M21.56 86.25 C7.56 88.36, -0.99 80.15, 0 64.69 M0 64.69 C-0.39 47.63, 1.38 33.41, 0 21.56 M0 64.69 C-0.62 49.33, 0.04 36.4, 0 21.56 M0 21.56 C0.18 6.58, 5.59 -0.03, 21.56 0 M0 21.56 C-0.36 6.97, 7.26 -1.27, 21.56 0" stroke="#1e1e1e" stroke-width="2" fill="none"></path></g><g transform="translate(1345.3143579024302 736.5193996047689) rotate(0 42.19999694824219 12.5)"><text x="42.19999694824219" y="0" font-family="Virgil, Segoe UI Emoji" font-size="20px" fill="#1e1e1e" text-anchor="middle" style="white-space: pre;" direction="ltr" dominant-baseline="text-before-edge">ZK/Etcd</text></g><g stroke-linecap="round"><g transform="translate(1128.7643548506726 871.2653769318182) rotate(0 96.87499999999989 -49.44685302150313)"><path d="M0.86 0.26 C33.13 -16.11, 162.58 -81.11, 194.71 -97.83 M-0.14 -0.65 C31.96 -17.37, 162.11 -82.94, 194.27 -99.39" stroke="#1e1e1e" stroke-width="2" fill="none"></path></g><g transform="translate(1128.7643548506726 871.2653769318182) rotate(0 96.87499999999989 -49.44685302150313)"><path d="M173.78 -77.49 C182.16 -84.6, 191.52 -94.93, 194.27 -99.39 M173.78 -77.49 C177.34 -82.12, 181.5 -86.26, 194.27 -99.39" stroke="#1e1e1e" stroke-width="2" fill="none"></path></g><g transform="translate(1128.7643548506726 871.2653769318182) rotate(0 96.87499999999989 -49.44685302150313)"><path d="M164.49 -95.79 C176.57 -95.81, 189.57 -98.97, 194.27 -99.39 M164.49 -95.79 C169.99 -96.68, 176.03 -97.12, 194.27 -99.39" stroke="#1e1e1e" stroke-width="2" fill="none"></path></g></g><mask></mask><g stroke-linecap="round"><g transform="translate(1002.125431794128 842.7693996047689) rotate(0 -34.68279493812588 -110.04123973093277)"><path d="M-0.04 0.03 C-11.61 -36.41, -56.8 -182.76, -68.51 -219.51 M-1.52 -1 C-13.26 -37.72, -57.95 -184.94, -69.01 -221.34" stroke="#1e1e1e" stroke-width="2" fill="none"></path></g><g transform="translate(1002.125431794128 842.7693996047689) rotate(0 -34.68279493812588 -110.04123973093277)"><path d="M-51 -197.35 C-57.57 -205, -63.49 -217.03, -69.01 -221.34 M-51 -197.35 C-55.44 -203.04, -60.12 -209.87, -69.01 -221.34" stroke="#1e1e1e" stroke-width="2" fill="none"></path></g><g transform="translate(1002.125431794128 842.7693996047689) rotate(0 -34.68279493812588 -110.04123973093277)"><path d="M-70.63 -191.38 C-69.75 -201.28, -68.24 -215.57, -69.01 -221.34 M-70.63 -191.38 C-69.9 -198.54, -69.37 -206.95, -69.01 -221.34" stroke="#1e1e1e" stroke-width="2" fill="none"></path></g></g><mask></mask><g stroke-linecap="round"><g transform="translate(1035.4192797226237 839.0502052649124) rotate(0 2.7396857921442006 -108.47658177846591)"><path d="M-0.62 0.07 C0.18 -35.82, 4.36 -179.58, 5.32 -215.89 M1.25 -0.95 C1.84 -37.1, 3.8 -181.46, 4.29 -217.46" stroke="#1e1e1e" stroke-width="2" fill="none"></path></g><g transform="translate(1035.4192797226237 839.0502052649124) rotate(0 2.7396857921442006 -108.47658177846591)"><path d="M14.16 -189.13 C11.04 -199.11, 9.33 -209.13, 4.29 -217.46 M14.16 -189.13 C12.09 -195.08, 9.59 -202.56, 4.29 -217.46" stroke="#1e1e1e" stroke-width="2" fill="none"></path></g><g transform="translate(1035.4192797226237 839.0502052649124) rotate(0 2.7396857921442006 -108.47658177846591)"><path d="M-6.36 -189.41 C-2.48 -199.19, 2.8 -209.11, 4.29 -217.46 M-6.36 -189.41 C-3.74 -195.2, -1.56 -202.61, 4.29 -217.46" stroke="#1e1e1e" stroke-width="2" fill="none"></path></g></g><mask></mask><g stroke-linecap="round"><g transform="translate(1062.9264361062087 844.0193996047689) rotate(0 40.03589980876393 -109.32498564850638)"><path d="M-0.53 1.11 C12.92 -35.25, 67.31 -182.59, 80.74 -219.14 M1.39 0.65 C14.75 -35.47, 67.17 -181.03, 80.15 -217.85" stroke="#1e1e1e" stroke-width="2" fill="none"></path></g><g transform="translate(1062.9264361062087 844.0193996047689) rotate(0 40.03589980876393 -109.32498564850638)"><path d="M80.33 -187.86 C82.37 -195.78, 79.64 -206, 80.15 -217.85 M80.33 -187.86 C79.47 -197.82, 79.28 -208.35, 80.15 -217.85" stroke="#1e1e1e" stroke-width="2" fill="none"></path></g><g transform="translate(1062.9264361062087 844.0193996047689) rotate(0 40.03589980876393 -109.32498564850638)"><path d="M61.01 -194.75 C68.81 -200.51, 71.91 -208.65, 80.15 -217.85 M61.01 -194.75 C66.68 -202.19, 73.05 -210.39, 80.15 -217.85" stroke="#1e1e1e" stroke-width="2" fill="none"></path></g></g><mask></mask><g stroke-linecap="round"><g transform="translate(1024.1122937775745 839.0193996047689) rotate(0 -8.673887334497635 -103.60781332410318)"><path d="M-0.28 -1.05 C-3.23 -35.6, -14.92 -172.3, -17.82 -206.57 M1.77 1.02 C-1.37 -33.95, -15.62 -173.4, -19.02 -208.35" stroke="#1e1e1e" stroke-width="2" fill="none"></path></g><g transform="translate(1024.1122937775745 839.0193996047689) rotate(0 -8.673887334497635 -103.60781332410318)"><path d="M-6 -181.32 C-11.72 -190.03, -12.7 -197.7, -19.02 -208.35 M-6 -181.32 C-9.67 -190.56, -14.7 -200.5, -19.02 -208.35" stroke="#1e1e1e" stroke-width="2" fill="none"></path></g><g transform="translate(1024.1122937775745 839.0193996047689) rotate(0 -8.673887334497635 -103.60781332410318)"><path d="M-26.42 -179.28 C-26.19 -188.54, -21.2 -196.81, -19.02 -208.35 M-26.42 -179.28 C-22.98 -189.35, -20.91 -199.99, -19.02 -208.35" stroke="#1e1e1e" stroke-width="2" fill="none"></path></g></g><mask></mask></svg>