<svg version="1.1" xmlns="http://www.w3.org/2000/svg" viewBox="0 0 987.3415256076389 397.00520833333337" width="1974.6830512152778" height="794.0104166666667" filter="invert(93%) hue-rotate(180deg)">
  <!-- svg-source:excalidraw -->
  
  <defs>
    <style class="style-fonts">
      @font-face {
        font-family: "Virgil";
        src: url("https://unpkg.com/@excalidraw/excalidraw@undefined/dist/excalidraw-assets/Virgil.woff2");
      }
      @font-face {
        font-family: "Cascadia";
        src: url("https://unpkg.com/@excalidraw/excalidraw@undefined/dist/excalidraw-assets/Cascadia.woff2");
      }
      @font-face {
        font-family: "Assistant";
        src: url("https://unpkg.com/@excalidraw/excalidraw@undefined/dist/excalidraw-assets/Assistant-Regular.woff2");
      }
    </style>
    
  </defs>
  <rect x="0" y="0" width="987.3415256076389" height="397.00520833333337" fill="#ffffff"></rect><g stroke-linecap="round" transform="translate(410.37060546875 10) rotate(0 283.48546006944446 188.50260416666669)"><path d="M32 0 C224.5 -1.03, 418.31 -1.84, 534.97 0 M32 0 C178.26 -0.02, 324.73 -0.09, 534.97 0 M534.97 0 C555.58 1.76, 566.13 10.26, 566.97 32 M534.97 0 C555.7 0.5, 568.49 10.34, 566.97 32 M566.97 32 C567.69 104.48, 566.37 177.63, 566.97 345.01 M566.97 32 C567.32 122.12, 566.39 211.95, 566.97 345.01 M566.97 345.01 C566.04 366.96, 557.88 376.04, 534.97 377.01 M566.97 345.01 C566.14 364.62, 557.4 375.77, 534.97 377.01 M534.97 377.01 C424.98 375.89, 314.44 376.54, 32 377.01 M534.97 377.01 C368.39 376.05, 200.9 376.17, 32 377.01 M32 377.01 C11.75 377.73, 0.05 364.72, 0 345.01 M32 377.01 C10.4 375.88, -1.38 368.64, 0 345.01 M0 345.01 C-2.75 270.73, -2 194.63, 0 32 M0 345.01 C-2.33 248.31, -1.5 151.28, 0 32 M0 32 C0.35 9.52, 10.62 0.93, 32 0 M0 32 C1.6 8.58, 11.82 -1.98, 32 0" stroke="#1e1e1e" stroke-width="2" fill="none"></path></g><g transform="translate(655.5160653856065 357.00520833333337) rotate(0 38.34000015258789 12.5)"><text x="38.34000015258789" y="0" font-family="Virgil, Segoe UI Emoji" font-size="20px" fill="#1e1e1e" text-anchor="middle" style="white-space: pre;" direction="ltr" dominant-baseline="text-before-edge">KVStore</text></g><g stroke-linecap="round" transform="translate(10 117.37630208333326) rotate(0 113.041015625 47.8359375)"><path d="M23.92 0 C87.6 -0.02, 154.19 -2.67, 202.16 0 M23.92 0 C60.26 0.44, 97.11 -1.12, 202.16 0 M202.16 0 C219.47 1.97, 225.86 6.45, 226.08 23.92 M202.16 0 C218.26 1.38, 225.81 7.61, 226.08 23.92 M226.08 23.92 C224.42 34.51, 225.78 47.28, 226.08 71.75 M226.08 23.92 C225.73 40.28, 226 55.56, 226.08 71.75 M226.08 71.75 C227.4 87.9, 219.61 95.83, 202.16 95.67 M226.08 71.75 C224.77 85.96, 218.4 94.67, 202.16 95.67 M202.16 95.67 C161.48 93.61, 117.44 96.68, 23.92 95.67 M202.16 95.67 C158.72 94.9, 112.8 93.3, 23.92 95.67 M23.92 95.67 C9.46 94.79, -1.43 86.82, 0 71.75 M23.92 95.67 C8.79 93.7, -1.5 86.07, 0 71.75 M0 71.75 C-0.59 55.6, -1.09 40.13, 0 23.92 M0 71.75 C-0.42 59.82, -0.51 50.13, 0 23.92 M0 23.92 C1.16 6.41, 8.28 1.46, 23.92 0 M0 23.92 C-0.91 9.06, 6.75 0.6, 23.92 0" stroke="#1e1e1e" stroke-width="2" fill="none"></path></g><g transform="translate(100.70101547241211 152.71223958333326) rotate(0 22.34000015258789 12.5)"><text x="22.34000015258789" y="0" font-family="Virgil, Segoe UI Emoji" font-size="20px" fill="#1e1e1e" text-anchor="middle" style="white-space: pre;" direction="ltr" dominant-baseline="text-before-edge">User</text></g><g stroke-linecap="round" transform="translate(482.8232421875 59.91796875) rotate(0 88.5 32)"><path d="M16 0 C65.38 2.65, 111.75 1.28, 161 0 M16 0 C59.59 -0.48, 103.73 -0.02, 161 0 M161 0 C173.06 0.05, 177.4 6.67, 177 16 M161 0 C169.55 -2.23, 178.93 3.51, 177 16 M177 16 C176.82 24.3, 176.83 30.52, 177 48 M177 16 C177.13 26.24, 176.48 37.9, 177 48 M177 48 C176.1 58.02, 170.71 64.7, 161 64 M177 48 C175.82 56.91, 170.09 64.86, 161 64 M161 64 C120.43 63.77, 79.71 64.04, 16 64 M161 64 C121.3 64.14, 82.22 64.13, 16 64 M16 64 C4.11 65.33, 1.03 58.92, 0 48 M16 64 C7.36 61.97, 1.93 57.5, 0 48 M0 48 C1.23 39.51, 1.39 28.78, 0 16 M0 48 C0.67 37.79, 0.08 25.46, 0 16 M0 16 C1.21 4.66, 3.9 1.58, 16 0 M0 16 C1.02 5.77, 3.14 -1.32, 16 0" stroke="#1e1e1e" stroke-width="2" fill="none"></path></g><g transform="translate(552.3132419586182 79.41796875) rotate(0 19.010000228881836 12.5)"><text x="19.010000228881836" y="0" font-family="Virgil, Segoe UI Emoji" font-size="20px" fill="#1e1e1e" text-anchor="middle" style="white-space: pre;" direction="ltr" dominant-baseline="text-before-edge">Get</text></g><g stroke-linecap="round" transform="translate(486.12879774305566 245.94574652777777) rotate(0 88.5 32)"><path d="M16 0 C44.25 0.66, 76.65 -0.27, 161 0 M16 0 C51.6 1.66, 84.89 0.48, 161 0 M161 0 C173.39 0.37, 176.97 7.11, 177 16 M161 0 C170.41 -1.1, 177.01 3.6, 177 16 M177 16 C175.51 25.2, 175.71 29.74, 177 48 M177 16 C175.96 25.63, 177.73 34.59, 177 48 M177 48 C178.77 57.61, 169.89 63.41, 161 64 M177 48 C178.27 57.63, 172.66 64.01, 161 64 M161 64 C126.32 64.18, 93.67 63.46, 16 64 M161 64 C119.23 65.44, 76.67 64.27, 16 64 M16 64 C3.52 63.02, 1.4 59.21, 0 48 M16 64 C6.22 63.47, -0.03 60.27, 0 48 M0 48 C0.85 39.84, 0.75 35.03, 0 16 M0 48 C-1.1 38.7, -0.61 31.44, 0 16 M0 16 C1.83 5.13, 3.35 -1.69, 16 0 M0 16 C-1.36 6.12, 6.95 -0.62, 16 0" stroke="#1e1e1e" stroke-width="2" fill="none"></path></g><g transform="translate(542.1387960645889 265.44574652777777) rotate(0 32.4900016784668 12.5)"><text x="32.4900016784668" y="0" font-family="Virgil, Segoe UI Emoji" font-size="20px" fill="#1e1e1e" text-anchor="middle" style="white-space: pre;" direction="ltr" dominant-baseline="text-before-edge">Delete</text></g><g stroke-linecap="round"><g transform="translate(258.3510199652778 124.6424829063653) rotate(0 107.94933564743997 -21.3052913940587)"><path d="M-0.79 1.07 C35.42 -5.99, 180.5 -35.08, 216.45 -42.17 M0.99 0.59 C37.17 -6.86, 179.74 -36.76, 215.8 -44.07" stroke="#1e1e1e" stroke-width="2" fill="none"></path></g><g transform="translate(258.3510199652778 124.6424829063653) rotate(0 107.94933564743997 -21.3052913940587)"><path d="M190.27 -28.31 C197.86 -30.82, 202.65 -36.95, 215.8 -44.07 M190.27 -28.31 C200.69 -34.54, 209.64 -40.37, 215.8 -44.07" stroke="#1e1e1e" stroke-width="2" fill="none"></path></g><g transform="translate(258.3510199652778 124.6424829063653) rotate(0 107.94933564743997 -21.3052913940587)"><path d="M186.11 -48.41 C194.69 -46.29, 200.43 -47.82, 215.8 -44.07 M186.11 -48.41 C198.19 -46.78, 208.76 -44.73, 215.8 -44.07" stroke="#1e1e1e" stroke-width="2" fill="none"></path></g></g><mask></mask><g stroke-linecap="round"><g transform="translate(263.3510199652778 221.42945230424428) rotate(0 106.5318664194873 21.27586880486796)"><path d="M0.13 -0.9 C35.61 6.19, 178.1 34.68, 213.73 41.93 M-1.26 1.25 C34.04 8.53, 177.33 36.02, 213.14 43.14" stroke="#1e1e1e" stroke-width="2" fill="none"></path></g><g transform="translate(263.3510199652778 221.42945230424428) rotate(0 106.5318664194873 21.27586880486796)"><path d="M183.5 47.81 C193.09 47.15, 204.6 45.7, 213.14 43.14 M183.5 47.81 C192.44 47.09, 202.46 43.71, 213.14 43.14" stroke="#1e1e1e" stroke-width="2" fill="none"></path></g><g transform="translate(263.3510199652778 221.42945230424428) rotate(0 106.5318664194873 21.27586880486796)"><path d="M187.43 27.67 C195.45 34.53, 205.5 40.59, 213.14 43.14 M187.43 27.67 C195.17 33.13, 204 35.89, 213.14 43.14" stroke="#1e1e1e" stroke-width="2" fill="none"></path></g></g><mask></mask><g stroke-linecap="round" transform="translate(811.9343532986111 86.39019097222223) rotate(0 71.5 107.5)"><path d="M88.19 2.44 C96.85 3.95, 106.87 12.93, 114.42 21.12 C121.96 29.31, 128.81 39.88, 133.46 51.59 C138.11 63.3, 141.07 77.76, 142.31 91.39 C143.54 105.02, 143.08 119.98, 140.85 133.37 C138.63 146.76, 134.22 160.6, 128.98 171.71 C123.74 182.81, 117.18 193.08, 109.39 200.02 C101.6 206.96, 91.55 211.35, 82.23 213.35 C72.91 215.34, 62.31 215.06, 53.47 211.98 C44.63 208.9, 36.47 203.08, 29.19 194.87 C21.91 186.66, 14.6 174.42, 9.78 162.73 C4.96 151.04, 1.44 138.36, 0.26 124.73 C-0.92 111.1, 0.59 94.32, 2.7 80.96 C4.8 67.59, 7.46 55.39, 12.88 44.56 C18.29 33.72, 27.37 23.2, 35.19 15.93 C43.02 8.67, 49.72 2.45, 59.8 0.98 C69.89 -0.49, 88.53 5.14, 95.7 7.11 C102.86 9.09, 103.11 11.25, 102.79 12.82 M86.47 2.48 C95.29 3.53, 105.49 9.76, 112.82 17.34 C120.15 24.92, 125.58 36.25, 130.46 47.97 C135.35 59.69, 140.28 74.3, 142.12 87.65 C143.97 100.99, 143.49 114.74, 141.54 128.04 C139.59 141.34, 135.49 155.78, 130.41 167.44 C125.32 179.1, 118.63 190.25, 111.04 198.02 C103.44 205.8, 93.92 211.42, 84.83 214.09 C75.73 216.75, 65.26 217.04, 56.46 214.03 C47.66 211.01, 39.59 204.13, 32.01 196.02 C24.43 187.9, 15.91 176.45, 10.97 165.32 C6.03 154.19, 3.87 142.5, 2.36 129.22 C0.85 115.95, 0.39 99.26, 1.94 85.65 C3.49 72.04, 6.59 59.12, 11.66 47.58 C16.74 36.03, 24.87 23.77, 32.38 16.38 C39.9 8.99, 47.76 5.5, 56.77 3.24 C65.78 0.97, 81.86 2.68, 86.46 2.78 C91.07 2.87, 84.75 1.92, 84.39 3.79" stroke="#1e1e1e" stroke-width="2" fill="none"></path></g><g transform="translate(856.3362194355943 181.37621199466838) rotate(0 27.03999900817871 12.5)"><text x="27.03999900817871" y="0" font-family="Virgil, Segoe UI Emoji" font-size="20px" fill="#1e1e1e" text-anchor="middle" style="white-space: pre;" direction="ltr" dominant-baseline="text-before-edge">Store</text></g><g stroke-linecap="round"><g transform="translate(670.8232421875 109.36206973001566) rotate(0 64.7530803588644 33.13282988830556)"><path d="M-0.33 -0.39 C20.88 10.84, 106.75 55.3, 128.44 66.52 M1.69 -1.63 C23.16 9.28, 109.34 53.43, 130.6 64.53" stroke="#1e1e1e" stroke-width="2" fill="none"></path></g><g transform="translate(670.8232421875 109.36206973001566) rotate(0 64.7530803588644 33.13282988830556)"><path d="M100.84 60.71 C112.07 60.55, 125.02 64.38, 130.6 64.53 M100.84 60.71 C111.67 61.66, 121.86 62.77, 130.6 64.53" stroke="#1e1e1e" stroke-width="2" fill="none"></path></g><g transform="translate(670.8232421875 109.36206973001566) rotate(0 64.7530803588644 33.13282988830556)"><path d="M110.26 42.47 C117.59 49.57, 126.78 60.69, 130.6 64.53 M110.26 42.47 C117.83 49.93, 124.67 57.53, 130.6 64.53" stroke="#1e1e1e" stroke-width="2" fill="none"></path></g></g><mask></mask><g stroke-linecap="round"><g transform="translate(666.6287977430557 268.44165931548736) rotate(0 69.63530877453047 -19.935861319396665)"><path d="M0.93 -0.55 C24.02 -7.25, 115.63 -33.99, 138.56 -40.69 M-0.04 1.78 C23.44 -4.75, 117.4 -32.64, 140.89 -39.58" stroke="#1e1e1e" stroke-width="2" fill="none"></path></g><g transform="translate(666.6287977430557 268.44165931548736) rotate(0 69.63530877453047 -19.935861319396665)"><path d="M116.77 -21.74 C123.19 -28.49, 130.02 -34.02, 140.89 -39.58 M116.77 -21.74 C122.42 -24.93, 128.09 -30.68, 140.89 -39.58" stroke="#1e1e1e" stroke-width="2" fill="none"></path></g><g transform="translate(666.6287977430557 268.44165931548736) rotate(0 69.63530877453047 -19.935861319396665)"><path d="M110.95 -41.42 C119.05 -42.29, 127.63 -41.89, 140.89 -39.58 M110.95 -41.42 C117.78 -40.05, 124.79 -41.26, 140.89 -39.58" stroke="#1e1e1e" stroke-width="2" fill="none"></path></g></g><mask></mask><g stroke-linecap="round" transform="translate(485.6338433159722 152.60026041666669) rotate(0 88.5 32)"><path d="M16 0 C55.81 -0.32, 96.39 2.25, 161 0 M16 0 C53.67 0.25, 92.68 0.52, 161 0 M161 0 C170.42 0.98, 176.98 3.43, 177 16 M161 0 C171.89 -0.44, 174.93 6.61, 177 16 M177 16 C178.9 27.96, 179.23 41.35, 177 48 M177 16 C177.55 28.05, 177.56 40.12, 177 48 M177 48 C178.43 57.6, 169.73 64.94, 161 64 M177 48 C176.48 56.87, 172.33 64.56, 161 64 M161 64 C120.35 66.87, 77.16 66.31, 16 64 M161 64 C113.75 65.56, 68.05 64.34, 16 64 M16 64 C5.06 63.97, -1.08 60.53, 0 48 M16 64 C3.55 63.82, 0.78 59.44, 0 48 M0 48 C0.85 41.26, -0.61 31.71, 0 16 M0 48 C0.72 39.53, 0.67 30.42, 0 16 M0 16 C0.87 5.75, 7.31 -0.63, 16 0 M0 16 C2.08 4.45, 3.16 0.86, 16 0" stroke="#1e1e1e" stroke-width="2" fill="none"></path></g><g transform="translate(556.9338444603814 172.10026041666669) rotate(0 17.19999885559082 12.5)"><text x="17.19999885559082" y="0" font-family="Virgil, Segoe UI Emoji" font-size="20px" fill="#1e1e1e" text-anchor="middle" style="white-space: pre;" direction="ltr" dominant-baseline="text-before-edge">Set</text></g><g stroke-linecap="round"><g transform="translate(243.0227322048611 171.26692708333337) rotate(0 118.8888888888888 7.2222222222222)"><path d="M-0.74 1.16 C38.83 3.55, 198.37 11.01, 238.25 13.34 M1.08 0.72 C40.45 3.31, 198.03 12.23, 237.55 14.3" stroke="#1e1e1e" stroke-width="2" fill="none"></path></g><g transform="translate(243.0227322048611 171.26692708333337) rotate(0 118.8888888888888 7.2222222222222)"><path d="M208.84 23 C221.48 20.74, 228.35 18.03, 237.55 14.3 M208.84 23 C219.06 20.36, 228.39 16.27, 237.55 14.3" stroke="#1e1e1e" stroke-width="2" fill="none"></path></g><g transform="translate(243.0227322048611 171.26692708333337) rotate(0 118.8888888888888 7.2222222222222)"><path d="M209.97 2.51 C222.01 7.83, 228.46 12.72, 237.55 14.3 M209.97 2.51 C219.95 7.14, 228.88 10.33, 237.55 14.3" stroke="#1e1e1e" stroke-width="2" fill="none"></path></g></g><mask></mask><g stroke-linecap="round"><g transform="translate(673.0227322048611 187.93359375) rotate(0 66.66666666666663 2.2222222222222285)"><path d="M-0.28 0.55 C22.01 1.13, 110.6 3.92, 132.81 4.41 M1.77 -0.2 C23.95 0.5, 109.87 5.18, 131.58 5.93" stroke="#1e1e1e" stroke-width="2" fill="none"></path></g><g transform="translate(673.0227322048611 187.93359375) rotate(0 66.66666666666663 2.2222222222222285)"><path d="M102.95 14.9 C110.06 12.13, 115.34 10.47, 131.58 5.93 M102.95 14.9 C109.56 13.35, 116.65 9.86, 131.58 5.93" stroke="#1e1e1e" stroke-width="2" fill="none"></path></g><g transform="translate(673.0227322048611 187.93359375) rotate(0 66.66666666666663 2.2222222222222285)"><path d="M103.89 -5.6 C110.95 -3.89, 116.03 -1.08, 131.58 5.93 M103.89 -5.6 C110.3 -2.59, 117.18 -1.53, 131.58 5.93" stroke="#1e1e1e" stroke-width="2" fill="none"></path></g></g><mask></mask></svg>