<svg version="1.1" xmlns="http://www.w3.org/2000/svg" viewBox="0 0 1849.648208618164 974.6767578125001" width="1849.648208618164" height="974.6767578125001" filter="invert(93%) hue-rotate(180deg)">
  <!-- svg-source:excalidraw -->
  
  <defs>
    <style class="style-fonts">
      @font-face {
        font-family: "Virgil";
        src: url("https://unpkg.com/@excalidraw/excalidraw@undefined/dist/excalidraw-assets/Virgil.woff2");
      }
      @font-face {
        font-family: "Cascadia";
        src: url("https://unpkg.com/@excalidraw/excalidraw@undefined/dist/excalidraw-assets/Cascadia.woff2");
      }
      @font-face {
        font-family: "Assistant";
        src: url("https://unpkg.com/@excalidraw/excalidraw@undefined/dist/excalidraw-assets/Assistant-Regular.woff2");
      }
    </style>
    
  </defs>
  <rect x="0" y="0" width="1849.648208618164" height="974.6767578125001" fill="#ffffff"></rect><g stroke-linecap="round" transform="translate(930.749885559082 229.9228515625) rotate(0 110.6875 367.37695312500006)"><path d="M32 0 C77.1 -2.14, 125.99 -0.54, 189.38 0 M32 0 C76.41 0.91, 120.32 1.71, 189.38 0 M189.38 0 C211.11 -1.88, 220.09 12.47, 221.38 32 M189.38 0 C209.85 1.64, 221.82 11.84, 221.38 32 M221.38 32 C219.33 194.76, 218.59 359.08, 221.38 702.75 M221.38 32 C223.01 238.13, 223.21 444.82, 221.38 702.75 M221.38 702.75 C220.96 725.6, 211.82 733.95, 189.38 734.75 M221.38 702.75 C222.39 723.15, 210.95 733.15, 189.38 734.75 M189.38 734.75 C146.27 734.31, 99.32 734.4, 32 734.75 M189.38 734.75 C135.87 735.11, 83.26 736.45, 32 734.75 M32 734.75 C12.51 734.81, -1.44 723.4, 0 702.75 M32 734.75 C8.76 736.03, -1.02 724.12, 0 702.75 M0 702.75 C1.4 536.05, 2.49 368.47, 0 32 M0 702.75 C0.01 442.87, -0.29 182.4, 0 32 M0 32 C0.28 12.09, 9.25 -1.04, 32 0 M0 32 C-0.59 12.1, 9.68 0.81, 32 0" stroke="#1e1e1e" stroke-width="2" fill="none"></path></g><g transform="translate(991.6474380493164 234.9228515625) rotate(0 49.789947509765625 12.5)"><text x="49.789947509765625" y="0" font-family="Virgil, Segoe UI Emoji" font-size="20px" fill="#1e1e1e" text-anchor="middle" style="white-space: pre;" direction="ltr" dominant-baseline="text-before-edge">FileService</text></g><g stroke-linecap="round" transform="translate(557.064453125 304.939453125) rotate(0 59.82421875 269.7734375)"><path d="M29.91 0 C44.36 -1.24, 62.23 -0.15, 89.74 0 M29.91 0 C52.16 -0.37, 74.34 -0.82, 89.74 0 M89.74 0 C108.12 0.81, 118.67 10.91, 119.65 29.91 M89.74 0 C111.95 -0.06, 117.83 10.17, 119.65 29.91 M119.65 29.91 C120.25 210.8, 120.21 391.34, 119.65 509.63 M119.65 29.91 C119.63 214.12, 120.44 399.47, 119.65 509.63 M119.65 509.63 C121.41 529.8, 109.97 537.64, 89.74 539.55 M119.65 509.63 C119.22 531.15, 111.94 540.78, 89.74 539.55 M89.74 539.55 C69.15 540.32, 49.44 540.54, 29.91 539.55 M89.74 539.55 C70.69 539.81, 50.24 538.8, 29.91 539.55 M29.91 539.55 C9.94 538.8, 0.06 530.2, 0 509.63 M29.91 539.55 C8.79 540.58, -1.9 530.11, 0 509.63 M0 509.63 C0.19 323.99, 1.54 139.58, 0 29.91 M0 509.63 C1.45 372.92, 2.11 235.4, 0 29.91 M0 29.91 C-0.92 8.41, 9.25 1.64, 29.91 0 M0 29.91 C1.6 12.02, 10.87 -0.77, 29.91 0" stroke="#1e1e1e" stroke-width="2" fill="none"></path></g><g transform="translate(564.1287155151367 524.712890625) rotate(0 52.75995635986328 50)"><text x="52.75995635986328" y="0" font-family="Virgil, Segoe UI Emoji" font-size="20px" fill="#1e1e1e" text-anchor="middle" style="white-space: pre;" direction="ltr" dominant-baseline="text-before-edge">API </text><text x="52.75995635986328" y="25" font-family="Virgil, Segoe UI Emoji" font-size="20px" fill="#1e1e1e" text-anchor="middle" style="white-space: pre;" direction="ltr" dominant-baseline="text-before-edge">Gateway</text><text x="52.75995635986328" y="50" font-family="Virgil, Segoe UI Emoji" font-size="20px" fill="#1e1e1e" text-anchor="middle" style="white-space: pre;" direction="ltr" dominant-baseline="text-before-edge">Routing/Au</text><text x="52.75995635986328" y="75" font-family="Virgil, Segoe UI Emoji" font-size="20px" fill="#1e1e1e" text-anchor="middle" style="white-space: pre;" direction="ltr" dominant-baseline="text-before-edge">th/LB</text></g><g stroke-linecap="round" transform="translate(1510.951171875 476.279296875) rotate(0 57.732421875 81.361328125)"><path d="M43.84 1.85 C51.14 -1.93, 60.93 -0.72, 69.12 1.74 C77.3 4.21, 86.33 9.37, 92.97 16.61 C99.61 23.85, 105.05 34.63, 108.93 45.19 C112.81 55.75, 116.19 68.24, 116.27 79.97 C116.34 91.7, 112.96 104.68, 109.38 115.57 C105.8 126.46, 101.08 137.93, 94.8 145.34 C88.51 152.74, 79.81 157.55, 71.68 160 C63.54 162.46, 54.21 162.46, 45.98 160.05 C37.74 157.65, 29.01 152.67, 22.27 145.59 C15.53 138.52, 9.08 128.11, 5.51 117.63 C1.94 107.15, 0.8 94.47, 0.84 82.7 C0.88 70.93, 2.47 57.74, 5.75 47.03 C9.03 36.31, 12.93 26.16, 20.53 18.39 C28.13 10.63, 45.47 3.11, 51.37 0.43 C57.26 -2.24, 56.01 1, 55.89 2.34 M80.34 5.46 C87.78 8.94, 95.28 18.78, 101.05 28.2 C106.82 37.61, 112.85 50.65, 114.95 61.94 C117.04 73.23, 115.44 84.83, 113.61 95.92 C111.78 107.01, 109.03 118.7, 103.96 128.47 C98.89 138.24, 90.31 148.93, 83.19 154.54 C76.06 160.15, 69.27 162, 61.19 162.14 C53.12 162.28, 42.38 159.9, 34.73 155.37 C27.08 150.84, 20.59 143.84, 15.3 134.94 C10.01 126.05, 5.6 113.26, 2.99 102.01 C0.38 90.76, -1.56 78.83, -0.37 67.45 C0.81 56.07, 4.66 43.37, 10.1 33.73 C15.53 24.1, 24.57 15.08, 32.24 9.64 C39.9 4.19, 47.87 1.3, 56.1 1.07 C64.32 0.84, 77.73 6.86, 81.59 8.25 C85.44 9.64, 79.72 8.55, 79.22 9.41" stroke="#1e1e1e" stroke-width="2" fill="none"></path></g><g transform="translate(1541.8206363499157 532.6094781564688) rotate(0 27.03997039794922 25.000000000000014)"><text x="27.03997039794922" y="0" font-family="Virgil, Segoe UI Emoji" font-size="20px" fill="#1e1e1e" text-anchor="middle" style="white-space: pre;" direction="ltr" dominant-baseline="text-before-edge">File</text><text x="27.03997039794922" y="25" font-family="Virgil, Segoe UI Emoji" font-size="20px" fill="#1e1e1e" text-anchor="middle" style="white-space: pre;" direction="ltr" dominant-baseline="text-before-edge">Store</text></g><g stroke-linecap="round" transform="translate(980.390625 492.5078125) rotate(0 62.259765625 50.7421875)"><path d="M25.37 0 C41.98 0.8, 61.94 0.99, 99.15 0 M25.37 0 C43.86 -0.54, 61.32 -0.26, 99.15 0 M99.15 0 C116.49 -0.69, 124.52 8.38, 124.52 25.37 M99.15 0 C115.84 0.93, 125.82 9.18, 124.52 25.37 M124.52 25.37 C122.8 43.31, 124.12 58.08, 124.52 76.11 M124.52 25.37 C124.01 38.17, 125.09 50.99, 124.52 76.11 M124.52 76.11 C123.12 93.57, 114.68 102.28, 99.15 101.48 M124.52 76.11 C125.44 93.83, 116.98 99.82, 99.15 101.48 M99.15 101.48 C71.53 100.69, 46.45 102.95, 25.37 101.48 M99.15 101.48 C78.74 101.1, 56.51 101.56, 25.37 101.48 M25.37 101.48 C7.94 99.65, -0.24 91.71, 0 76.11 M25.37 101.48 C6.45 99.32, 1.12 91.17, 0 76.11 M0 76.11 C-0.66 59.85, -1.71 40.3, 0 25.37 M0 76.11 C0.83 63.89, 0.66 52.91, 0 25.37 M0 25.37 C1.86 8.68, 10.03 0.26, 25.37 0 M0 25.37 C1.93 6.57, 6.81 0.04, 25.37 0" stroke="#1e1e1e" stroke-width="2" fill="none"></path></g><g transform="translate(992.6204376220703 530.75) rotate(0 50.02995300292969 12.5)"><text x="50.02995300292969" y="0" font-family="Virgil, Segoe UI Emoji" font-size="20px" fill="#1e1e1e" text-anchor="middle" style="white-space: pre;" direction="ltr" dominant-baseline="text-before-edge">CreateFile</text></g><g stroke-linecap="round" transform="translate(1325.462890625 78.904296875) rotate(0 81.6796875 81.361328125)"><path d="M65.07 2.34 C75.32 -1.18, 88.55 -0.96, 99.48 1.4 C110.41 3.76, 121.76 10.02, 130.63 16.49 C139.49 22.96, 147.33 30.84, 152.67 40.22 C158.01 49.6, 161.58 61.7, 162.67 72.79 C163.76 83.89, 162.54 96.23, 159.23 106.77 C155.92 117.31, 150.42 127.7, 142.84 136.04 C135.25 144.39, 123.97 152.41, 113.72 156.82 C103.47 161.24, 92.37 162.61, 81.36 162.53 C70.35 162.45, 57.89 160.87, 47.65 156.37 C37.41 151.87, 27.2 144.1, 19.91 135.54 C12.61 126.99, 7.04 115.46, 3.88 105.03 C0.72 94.61, -0.35 83.85, 0.93 73 C2.2 62.14, 6.15 49.49, 11.52 39.9 C16.89 30.32, 23.84 21.92, 33.14 15.49 C42.44 9.07, 61.11 3.41, 67.33 1.35 C73.55 -0.7, 70.26 1.69, 70.45 3.16 M53.81 5.65 C63.33 0.73, 76.09 -1.23, 87.21 -0.71 C98.34 -0.19, 110.72 3.2, 120.56 8.8 C130.41 14.39, 139.66 24.13, 146.28 32.88 C152.9 41.63, 157.54 50.69, 160.31 61.29 C163.08 71.88, 164.61 85.42, 162.89 96.43 C161.17 107.44, 156.25 118.14, 149.97 127.34 C143.7 136.55, 135.12 145.95, 125.26 151.65 C115.4 157.34, 101.97 160.23, 90.8 161.52 C79.63 162.81, 68.89 162.43, 58.24 159.38 C47.59 156.32, 35.49 150.51, 26.91 143.19 C18.32 135.87, 11.32 125.53, 6.74 115.43 C2.16 105.32, -0.57 93.26, -0.55 82.56 C-0.54 71.86, 2.64 61.44, 6.85 51.23 C11.07 41.03, 16.71 28.88, 24.71 21.32 C32.7 13.77, 49.85 8.42, 54.83 5.91 C59.81 3.4, 54.06 5.33, 54.57 6.27" stroke="#1e1e1e" stroke-width="2" fill="none"></path></g><g transform="translate(1355.7163648159737 122.73447815646873) rotate(0 51.669952392578125 37.5)"><text x="51.669952392578125" y="0" font-family="Virgil, Segoe UI Emoji" font-size="20px" fill="#1e1e1e" text-anchor="middle" style="white-space: pre;" direction="ltr" dominant-baseline="text-before-edge">Content</text><text x="51.669952392578125" y="25" font-family="Virgil, Segoe UI Emoji" font-size="20px" fill="#1e1e1e" text-anchor="middle" style="white-space: pre;" direction="ltr" dominant-baseline="text-before-edge">Store (eg </text><text x="51.669952392578125" y="50" font-family="Virgil, Segoe UI Emoji" font-size="20px" fill="#1e1e1e" text-anchor="middle" style="white-space: pre;" direction="ltr" dominant-baseline="text-before-edge">S3)</text></g><g stroke-linecap="round" transform="translate(10 408.89453125) rotate(0 177.123046875 55)"><path d="M27.5 0 C121.95 0.75, 216.97 1.77, 326.75 0 M27.5 0 C93.42 -2.18, 158.31 -1.19, 326.75 0 M326.75 0 C343.24 0.29, 354.65 9.76, 354.25 27.5 M326.75 0 C347.13 -0.79, 355.91 9.54, 354.25 27.5 M354.25 27.5 C354.39 48.82, 352.98 67.17, 354.25 82.5 M354.25 27.5 C354.12 40.39, 354.95 54.18, 354.25 82.5 M354.25 82.5 C355.33 99.76, 347 109.91, 326.75 110 M354.25 82.5 C352.83 98.64, 343.26 109.72, 326.75 110 M326.75 110 C257.72 110.44, 190.72 110.58, 27.5 110 M326.75 110 C235.6 108.63, 143.49 108.73, 27.5 110 M27.5 110 C8.54 108.86, -0.07 102.77, 0 82.5 M27.5 110 C10.62 109.03, 2.05 99.85, 0 82.5 M0 82.5 C1.24 71.06, 0.74 56.81, 0 27.5 M0 82.5 C0.02 62.18, -0.07 42.09, 0 27.5 M0 27.5 C-1.4 9.89, 7.79 -1.28, 27.5 0 M0 27.5 C0.07 11.35, 10.26 1.47, 27.5 0" stroke="#1e1e1e" stroke-width="2" fill="none"></path></g><g transform="translate(19.483184814453125 413.89453125) rotate(0 167.63986206054688 50)"><text x="167.63986206054688" y="0" font-family="Virgil, Segoe UI Emoji" font-size="20px" fill="#1e1e1e" text-anchor="middle" style="white-space: pre;" direction="ltr" dominant-baseline="text-before-edge">User</text><text x="167.63986206054688" y="25" font-family="Virgil, Segoe UI Emoji" font-size="20px" fill="#1e1e1e" text-anchor="middle" style="white-space: pre;" direction="ltr" dominant-baseline="text-before-edge">Decides Chunks for a File (can </text><text x="167.63986206054688" y="50" font-family="Virgil, Segoe UI Emoji" font-size="20px" fill="#1e1e1e" text-anchor="middle" style="white-space: pre;" direction="ltr" dominant-baseline="text-before-edge">have a API return it once size is</text><text x="167.63986206054688" y="75" font-family="Virgil, Segoe UI Emoji" font-size="20px" fill="#1e1e1e" text-anchor="middle" style="white-space: pre;" direction="ltr" dominant-baseline="text-before-edge">specified too)</text></g><g mask="url(#mask-ohuvl8ayWY-9N_ZZYZfBI)" stroke-linecap="round"><g transform="translate(686.403068127202 473.14719585790124) rotate(0 144.585575311399 26.186306347657634)"><path d="M0.67 -0.33 C49.05 8.24, 242.13 43.23, 290.26 52.14 M-0.43 -1.55 C47.88 7.14, 241.67 44.77, 289.88 53.55" stroke="#1e1e1e" stroke-width="2" fill="none"></path></g><g transform="translate(686.403068127202 473.14719585790124) rotate(0 144.585575311399 26.186306347657634)"><path d="M260.28 58.4 C268.59 58.59, 277.63 55.8, 289.88 53.55 M260.28 58.4 C271.41 57.38, 281.15 55.51, 289.88 53.55" stroke="#1e1e1e" stroke-width="2" fill="none"></path></g><g transform="translate(686.403068127202 473.14719585790124) rotate(0 144.585575311399 26.186306347657634)"><path d="M264.09 38.24 C271.36 44.5, 279.27 47.77, 289.88 53.55 M264.09 38.24 C273.72 44.42, 282.09 49.77, 289.88 53.55" stroke="#1e1e1e" stroke-width="2" fill="none"></path></g></g><mask id="mask-ohuvl8ayWY-9N_ZZYZfBI"><rect x="0" y="0" fill="#fff" width="1075.57421875" height="625.5198085532165"></rect><rect x="790.0586812803979" y="486.83350220555883" fill="#000" width="81.85992431640625" height="25" opacity="1"></rect></mask><g transform="translate(790.0586812803979 486.83350220555894) rotate(0 41.25873232942536 12.311472806399678)"><text x="40.929962158203125" y="0" font-family="Virgil, Segoe UI Emoji" font-size="20px" fill="#1e1e1e" text-anchor="middle" style="white-space: pre;" direction="ltr" dominant-baseline="text-before-edge">Creation</text></g><g mask="url(#mask-G3zeV6yhfTepqLzdjXDa-)" stroke-linecap="round"><g transform="translate(1116.484375 537.7248413700131) rotate(0 195.78047448217183 14.13142795378306)"><path d="M0.51 -1.03 C65.8 3.68, 325.57 24, 390.74 28.93 M-0.67 1.05 C65.07 5.35, 327.79 22.33, 393.02 27.16" stroke="#1e1e1e" stroke-width="2" fill="none"></path></g><g transform="translate(1116.484375 537.7248413700131) rotate(0 195.78047448217183 14.13142795378306)"><path d="M364.19 35.47 C368.82 32.14, 378.03 31.58, 393.02 27.16 M364.19 35.47 C373.62 33.14, 383.79 29.34, 393.02 27.16" stroke="#1e1e1e" stroke-width="2" fill="none"></path></g><g transform="translate(1116.484375 537.7248413700131) rotate(0 195.78047448217183 14.13142795378306)"><path d="M365.6 14.99 C370.03 16.2, 378.93 20.18, 393.02 27.16 M365.6 14.99 C374.54 19.34, 384.25 22.23, 393.02 27.16" stroke="#1e1e1e" stroke-width="2" fill="none"></path></g></g><mask id="mask-G3zeV6yhfTepqLzdjXDa-"><rect x="0" y="0" fill="#fff" width="1608.0453239643437" height="665.9876972775792"></rect><rect x="1262.8148830515079" y="526.8562693237961" fill="#000" width="98.89993286132812" height="50" opacity="1"></rect></mask><g transform="translate(1262.8148830515079 526.8562693237961) rotate(0 49.84291299291874 24.821374392509497)"><text x="49.44996643066406" y="0" font-family="Virgil, Segoe UI Emoji" font-size="20px" fill="#1e1e1e" text-anchor="middle" style="white-space: pre;" direction="ltr" dominant-baseline="text-before-edge">1. Create </text><text x="49.44996643066406" y="25" font-family="Virgil, Segoe UI Emoji" font-size="20px" fill="#1e1e1e" text-anchor="middle" style="white-space: pre;" direction="ltr" dominant-baseline="text-before-edge">File Entry</text></g><g mask="url(#mask-EKQbmf4rJJblHSnUYkklf)" stroke-linecap="round"><g transform="translate(1116.7857883978966 360.883539504734) rotate(0 139.44466005525794 -50.64762420631476)"><path d="M0.82 0.23 C47.41 -16.62, 233.15 -83.52, 279.62 -100.3 M-0.21 -0.69 C46.29 -17.93, 232.47 -84.96, 279.06 -101.91" stroke="#1e1e1e" stroke-width="2" fill="none"></path></g><g transform="translate(1116.7857883978966 360.883539504734) rotate(0 139.44466005525794 -50.64762420631476)"><path d="M256.04 -82.67 C263.33 -87.48, 271.63 -93.25, 279.06 -101.91 M256.04 -82.67 C264.99 -89.68, 272.54 -95.95, 279.06 -101.91" stroke="#1e1e1e" stroke-width="2" fill="none"></path></g><g transform="translate(1116.7857883978966 360.883539504734) rotate(0 139.44466005525794 -50.64762420631476)"><path d="M249.06 -101.96 C258.61 -100.93, 269.05 -100.81, 279.06 -101.91 M249.06 -101.96 C260.45 -101.78, 270.59 -100.89, 279.06 -101.91" stroke="#1e1e1e" stroke-width="2" fill="none"></path></g></g><mask id="mask-EKQbmf4rJJblHSnUYkklf"><rect x="0" y="0" fill="#fff" width="1495.6751085084124" height="562.1787879173635"></rect><rect x="1166.6905085727833" y="272.7359152984193" fill="#000" width="179.0798797607422" height="75" opacity="1"></rect></mask><g transform="translate(1166.6905085727835 272.73591529841923) rotate(0 89.80358761888454 37.310937860417184)"><text x="89.5399398803711" y="0" font-family="Virgil, Segoe UI Emoji" font-size="20px" fill="#1e1e1e" text-anchor="middle" style="white-space: pre;" direction="ltr" dominant-baseline="text-before-edge">2. Obtain</text><text x="89.5399398803711" y="25" font-family="Virgil, Segoe UI Emoji" font-size="20px" fill="#1e1e1e" text-anchor="middle" style="white-space: pre;" direction="ltr" dominant-baseline="text-before-edge">ChunkUpload URLs</text><text x="89.5399398803711" y="50" font-family="Virgil, Segoe UI Emoji" font-size="20px" fill="#1e1e1e" text-anchor="middle" style="white-space: pre;" direction="ltr" dominant-baseline="text-before-edge">(signed/authed)</text></g><g mask="url(#mask-x34PV3SqD_o-xi4byvLMq)" stroke-linecap="round"><g transform="translate(967.6390597822674 333.04985831263787) rotate(0 -142.0792955161337 29.159039772186937)"><path d="M-0.3 -0.42 C-47.55 9.08, -236.1 48.01, -283.51 57.68 M1.74 -1.68 C-45.6 7.91, -236.18 48.85, -284.12 58.88" stroke="#e03131" stroke-width="2" fill="none"></path></g><g transform="translate(967.6390597822674 333.04985831263787) rotate(0 -142.0792955161337 29.159039772186937)"><path d="M-258.67 42.99 C-266.84 48.73, -274.77 51.35, -284.12 58.88 M-258.67 42.99 C-265.26 47.8, -270.68 49.79, -284.12 58.88" stroke="#e03131" stroke-width="2" fill="none"></path></g><g transform="translate(967.6390597822674 333.04985831263787) rotate(0 -142.0792955161337 29.159039772186937)"><path d="M-254.41 63.06 C-263.96 62.83, -273.15 59.49, -284.12 58.88 M-254.41 63.06 C-261.85 63.09, -268.29 60.29, -284.12 58.88" stroke="#e03131" stroke-width="2" fill="none"></path></g></g><mask id="mask-x34PV3SqD_o-xi4byvLMq"><rect x="0" y="0" fill="#fff" width="1351.7976508145348" height="491.3679378570117"></rect><rect x="738.5698121787314" y="337.2088980848248" fill="#000" width="173.9799041748047" height="50" opacity="1"></rect></mask><g transform="translate(738.5698121787314 337.2088980848248) rotate(0 87.881833757842 24.44011379069648)"><text x="86.98995208740234" y="0" font-family="Virgil, Segoe UI Emoji" font-size="20px" fill="#e03131" text-anchor="middle" style="white-space: pre;" direction="ltr" dominant-baseline="text-before-edge">3. Send FileID + </text><text x="86.98995208740234" y="25" font-family="Virgil, Segoe UI Emoji" font-size="20px" fill="#e03131" text-anchor="middle" style="white-space: pre;" direction="ltr" dominant-baseline="text-before-edge">ChunkUploadURLs</text></g><g mask="url(#mask-JtZZA-CAtI93USMqLC-xV)" stroke-linecap="round"><g transform="translate(333.5803923846664 395.921875) rotate(0 491.8847318014828 -120.87916080273195)"><path d="M0.14 -1.17 C71.09 -31.35, 262.66 -140.47, 426.44 -180.67 C590.22 -220.86, 889.98 -232.24, 982.83 -242.34 M-1.25 0.83 C69.45 -29.75, 260.9 -142.12, 425.31 -182.48 C589.73 -222.84, 892.17 -231.15, 985.23 -241.32" stroke="#1e1e1e" stroke-width="2" fill="none"></path></g><g transform="translate(333.5803923846664 395.921875) rotate(0 491.8847318014828 -120.87916080273195)"><path d="M957.86 -229.04 C965.8 -234.09, 978.67 -239.56, 985.23 -241.32 M957.86 -229.04 C964.9 -233.12, 971.93 -236.28, 985.23 -241.32" stroke="#1e1e1e" stroke-width="2" fill="none"></path></g><g transform="translate(333.5803923846664 395.921875) rotate(0 491.8847318014828 -120.87916080273195)"><path d="M956.36 -249.5 C964.92 -247.12, 978.33 -245.17, 985.23 -241.32 M956.36 -249.5 C963.74 -248.44, 971.14 -246.45, 985.23 -241.32" stroke="#1e1e1e" stroke-width="2" fill="none"></path></g></g><mask id="mask-JtZZA-CAtI93USMqLC-xV"><rect x="0" y="0" fill="#fff" width="1417.349855987632" height="737.6801966054638"></rect><rect x="604.7716674804688" y="202.16796875" fill="#000" width="311.1597900390625" height="25" opacity="1"></rect></mask><g transform="translate(604.7716674804688 202.16796875) rotate(0 220.7994688359949 72.99960659790813)"><text x="155.57989501953125" y="0" font-family="Virgil, Segoe UI Emoji" font-size="20px" fill="#1e1e1e" text-anchor="middle" style="white-space: pre;" direction="ltr" dominant-baseline="text-before-edge">4. Upload Chunk to upload URL</text></g><g mask="url(#mask-OFynjk8RSAS9rfKQoHeS9)" stroke-linecap="round"><g transform="translate(1451.9831918713585 239.38092549499382) rotate(0 50.46378974314189 117.2841908217441)"><path d="M-0.3 0.03 C16.5 39.06, 84.69 194.74, 101.43 233.79 M1.74 -1 C18.38 38.19, 83.94 195.49, 100.75 234.91" stroke="#1e1e1e" stroke-width="2" fill="none"></path></g><g transform="translate(1451.9831918713585 239.38092549499382) rotate(0 50.46378974314189 117.2841908217441)"><path d="M80.35 212.91 C87.46 221.5, 93.24 227.04, 100.75 234.91 M80.35 212.91 C85.32 218.71, 91.28 225.93, 100.75 234.91" stroke="#1e1e1e" stroke-width="2" fill="none"></path></g><g transform="translate(1451.9831918713585 239.38092549499382) rotate(0 50.46378974314189 117.2841908217441)"><path d="M99.27 204.95 C99.74 216.27, 98.9 224.6, 100.75 234.91 M99.27 204.95 C99.01 213.16, 99.68 222.61, 100.75 234.91" stroke="#1e1e1e" stroke-width="2" fill="none"></path></g></g><mask id="mask-OFynjk8RSAS9rfKQoHeS9"><rect x="0" y="0" fill="#fff" width="1652.9107713576423" height="573.949307138482"></rect><rect x="1422.8470441755358" y="306.6651163167379" fill="#000" width="159.1998748779297" height="100" opacity="1"></rect></mask><g transform="translate(1422.8470441755358 306.6651163167379) rotate(0 79.7003874540328 49.67049361175859)"><text x="79.59993743896484" y="0" font-family="Virgil, Segoe UI Emoji" font-size="20px" fill="#1e1e1e" text-anchor="middle" style="white-space: pre;" direction="ltr" dominant-baseline="text-before-edge">5. OnUploaded </text><text x="79.59993743896484" y="25" font-family="Virgil, Segoe UI Emoji" font-size="20px" fill="#1e1e1e" text-anchor="middle" style="white-space: pre;" direction="ltr" dominant-baseline="text-before-edge">notification to </text><text x="79.59993743896484" y="50" font-family="Virgil, Segoe UI Emoji" font-size="20px" fill="#1e1e1e" text-anchor="middle" style="white-space: pre;" direction="ltr" dominant-baseline="text-before-edge">update </text><text x="79.59993743896484" y="75" font-family="Virgil, Segoe UI Emoji" font-size="20px" fill="#1e1e1e" text-anchor="middle" style="white-space: pre;" direction="ltr" dominant-baseline="text-before-edge">lastUploadedMD</text></g><g stroke-linecap="round" transform="translate(975.482421875 303.599609375) rotate(0 60.66796875 50.7421875)"><path d="M25.37 0 C45.49 -1.22, 67.19 -2.05, 95.96 0 M25.37 0 C50.18 -0.1, 74.3 0.92, 95.96 0 M95.96 0 C114.54 0.47, 121.54 7.32, 121.34 25.37 M95.96 0 C111.96 1.58, 122.27 8.19, 121.34 25.37 M121.34 25.37 C123.28 37.99, 120.82 48.98, 121.34 76.11 M121.34 25.37 C120.61 41.24, 119.92 58.6, 121.34 76.11 M121.34 76.11 C122.45 91.11, 111.56 101.71, 95.96 101.48 M121.34 76.11 C121.63 91, 111 100.95, 95.96 101.48 M95.96 101.48 C72.46 102.2, 49.31 102.21, 25.37 101.48 M95.96 101.48 C81.37 102.13, 65.57 100.75, 25.37 101.48 M25.37 101.48 C9.44 103.44, -0.75 93.63, 0 76.11 M25.37 101.48 C7.54 100.06, -0.29 92.4, 0 76.11 M0 76.11 C-1.16 64.46, -1.88 50.44, 0 25.37 M0 76.11 C-0.11 58.99, 0.09 39.73, 0 25.37 M0 25.37 C0.65 9.97, 9.14 0.05, 25.37 0 M0 25.37 C-2.07 10.29, 6.71 0.95, 25.37 0" stroke="#1e1e1e" stroke-width="2" fill="none"></path></g><g transform="translate(987.5204315185547 341.841796875) rotate(0 48.62995910644531 12.5)"><text x="48.62995910644531" y="0" font-family="Virgil, Segoe UI Emoji" font-size="20px" fill="#1e1e1e" text-anchor="middle" style="white-space: pre;" direction="ltr" dominant-baseline="text-before-edge">UploadFile</text></g><g mask="url(#mask-3eeMWb5jIdFKsLZwIYyKS)" stroke-linecap="round"><g transform="translate(685.0677142037779 431.66715176242775) rotate(0 141.17382812499994 -23.25311277690922)"><path d="M-0.79 0.88 C46.38 -6.98, 236.12 -38.9, 283.3 -46.82 M1 0.3 C48.07 -7.41, 236.1 -37.83, 282.85 -45.45" stroke="#1e1e1e" stroke-width="2" fill="none"></path></g><g transform="translate(685.0677142037779 431.66715176242775) rotate(0 141.17382812499994 -23.25311277690922)"><path d="M256.67 -30.81 C266.57 -33.78, 273.05 -40.16, 282.85 -45.45 M256.67 -30.81 C265.06 -33.82, 270.86 -38.69, 282.85 -45.45" stroke="#1e1e1e" stroke-width="2" fill="none"></path></g><g transform="translate(685.0677142037779 431.66715176242775) rotate(0 141.17382812499994 -23.25311277690922)"><path d="M253.38 -51.06 C264.4 -47.46, 271.94 -47.28, 282.85 -45.45 M253.38 -51.06 C262.68 -48.27, 269.41 -47.37, 282.85 -45.45" stroke="#1e1e1e" stroke-width="2" fill="none"></path></g></g><mask id="mask-3eeMWb5jIdFKsLZwIYyKS"><rect x="0" y="0" fill="#fff" width="1067.4153704537778" height="578.1733773162462"></rect><rect x="793.6415667428402" y="395.9140389855185" fill="#000" width="65.199951171875" height="25" opacity="1"></rect></mask><g transform="translate(793.6415667428403 395.9140389855186) rotate(0 32.682863497734104 12.78239033222198)"><text x="32.5999755859375" y="0" font-family="Virgil, Segoe UI Emoji" font-size="20px" fill="#1e1e1e" text-anchor="middle" style="white-space: pre;" direction="ltr" dominant-baseline="text-before-edge">Upload</text></g><g stroke-linecap="round"><g transform="translate(551.1484375 404.14333948110414) rotate(0 -88.26953125 12.113283027767665)"><path d="M-0.26 0.46 C-29.63 4.78, -146.95 21.39, -176.37 25.32 M1.81 -0.34 C-27.7 3.71, -147.31 19.51, -177.23 23.77" stroke="#e03131" stroke-width="2" fill="none"></path></g><g transform="translate(551.1484375 404.14333948110414) rotate(0 -88.26953125 12.113283027767665)"><path d="M-150.69 9.79 C-157.66 14.05, -164.29 17.39, -177.23 23.77 M-150.69 9.79 C-158.54 12.9, -165.11 16.69, -177.23 23.77" stroke="#e03131" stroke-width="2" fill="none"></path></g><g transform="translate(551.1484375 404.14333948110414) rotate(0 -88.26953125 12.113283027767665)"><path d="M-147.91 30.12 C-155.59 28.5, -163.03 25.95, -177.23 23.77 M-147.91 30.12 C-156.74 27.5, -164.09 25.59, -177.23 23.77" stroke="#e03131" stroke-width="2" fill="none"></path></g></g><mask></mask><g mask="url(#mask-UTrTA7xTJGqGeiBuEJUB0)" stroke-linecap="round"><g transform="translate(373.3671875 470.6053116975919) rotate(0 90.447265625 -1.9342283459543665)"><path d="M-0.94 0.74 C29.08 0.1, 150.12 -2.91, 180.56 -3.7 M0.77 0.09 C30.56 -0.34, 149.34 -1.6, 179.43 -2.07" stroke="#1e1e1e" stroke-width="2" fill="none"></path></g><g transform="translate(373.3671875 470.6053116975919) rotate(0 90.447265625 -1.9342283459543665)"><path d="M151.37 8.55 C162.12 4.6, 170.69 2.87, 179.43 -2.07 M151.37 8.55 C160.13 5.38, 166.67 2.32, 179.43 -2.07" stroke="#1e1e1e" stroke-width="2" fill="none"></path></g><g transform="translate(373.3671875 470.6053116975919) rotate(0 90.447265625 -1.9342283459543665)"><path d="M151.11 -11.97 C161.97 -8.95, 170.63 -3.72, 179.43 -2.07 M151.11 -11.97 C160.02 -9.24, 166.64 -6.39, 179.43 -2.07" stroke="#1e1e1e" stroke-width="2" fill="none"></path></g></g><mask id="mask-UTrTA7xTJGqGeiBuEJUB0"><rect x="0" y="0" fill="#fff" width="654.26171875" height="574.4737683895006"></rect><rect x="424.8144836425781" y="443.67108335163755" fill="#000" width="77.99993896484375" height="50" opacity="1"></rect></mask><g transform="translate(424.8144836425781 443.67108335163755) rotate(0 38.36203067302705 25.455731701850908)"><text x="38.999969482421875" y="0" font-family="Virgil, Segoe UI Emoji" font-size="20px" fill="#1e1e1e" text-anchor="middle" style="white-space: pre;" direction="ltr" dominant-baseline="text-before-edge">Create/</text><text x="38.999969482421875" y="25" font-family="Virgil, Segoe UI Emoji" font-size="20px" fill="#1e1e1e" text-anchor="middle" style="white-space: pre;" direction="ltr" dominant-baseline="text-before-edge">Upload</text></g><g stroke-linecap="round" transform="translate(347.81640625 10) rotate(0 81.6796875 81.361328125)"><path d="M74.52 0.72 C84.93 -1.29, 99.22 0.84, 109.61 4.54 C120.01 8.24, 128.98 15.17, 136.9 22.91 C144.81 30.66, 152.56 40.88, 157.13 51.01 C161.69 61.13, 164.45 72.78, 164.3 83.64 C164.15 94.49, 161.16 106.19, 156.23 116.14 C151.3 126.09, 143.2 136.27, 134.72 143.33 C126.25 150.4, 116.01 155.37, 105.37 158.54 C94.74 161.71, 82.08 163.58, 70.91 162.35 C59.74 161.11, 47.84 157, 38.33 151.12 C28.82 145.24, 19.91 136.27, 13.87 127.08 C7.82 117.88, 3.87 106.75, 2.05 95.94 C0.24 85.14, 0.67 72.84, 2.96 62.26 C5.26 51.68, 9.15 41.2, 15.85 32.47 C22.54 23.73, 32.42 15.36, 43.12 9.85 C53.83 4.34, 72.9 0.81, 80.07 -0.57 C87.25 -1.95, 85.92 0.2, 86.16 1.59 M78.73 0.54 C89 -1.07, 101.68 1.82, 112.19 6.1 C122.7 10.39, 133.99 18.39, 141.78 26.24 C149.56 34.08, 155.55 42.74, 158.92 53.16 C162.28 63.58, 162.83 77.37, 161.97 88.75 C161.11 100.13, 158.63 112.03, 153.75 121.42 C148.86 130.82, 141.37 138.64, 132.64 145.11 C123.91 151.59, 112.43 157.35, 101.37 160.27 C90.31 163.18, 77.1 164.38, 66.28 162.59 C55.46 160.79, 45.72 156.07, 36.46 149.5 C27.19 142.93, 16.68 132.56, 10.7 123.15 C4.72 113.75, 1.91 104.03, 0.59 93.06 C-0.73 82.09, -0.4 68.05, 2.78 57.33 C5.96 46.62, 12.22 37.19, 19.66 28.77 C27.1 20.36, 37.44 11.51, 47.42 6.83 C57.41 2.15, 74.09 1.8, 79.58 0.71 C85.07 -0.37, 80.41 -0.94, 80.37 0.32" stroke="#1e1e1e" stroke-width="2" fill="none"></path></g><g transform="translate(409.0598477871652 78.83018128146875) rotate(0 20.67998504638672 12.5)"><text x="20.67998504638672" y="0" font-family="Virgil, Segoe UI Emoji" font-size="20px" fill="#1e1e1e" text-anchor="middle" style="white-space: pre;" direction="ltr" dominant-baseline="text-before-edge">CDN</text></g><g mask="url(#mask-ALPj7h32NS9ERq2ghutHx)" stroke-linecap="round"><g transform="translate(240.98383877623007 404.478515625) rotate(0 65.5310416216953 -120.69379052081624)"><path d="M-0.63 -0.47 C21.2 -40.45, 109.31 -200.38, 131.14 -240.65 M1.24 -1.76 C22.9 -42.02, 108.9 -202.49, 130.24 -242.38" stroke="#1e1e1e" stroke-width="2" fill="none"></path></g><g transform="translate(240.98383877623007 404.478515625) rotate(0 65.5310416216953 -120.69379052081624)"><path d="M125.97 -212.69 C126.71 -221.84, 130.05 -232.41, 130.24 -242.38 M125.97 -212.69 C126.58 -219.59, 128.78 -226.85, 130.24 -242.38" stroke="#1e1e1e" stroke-width="2" fill="none"></path></g><g transform="translate(240.98383877623007 404.478515625) rotate(0 65.5310416216953 -120.69379052081624)"><path d="M107.88 -222.38 C114.23 -228.39, 123.24 -235.93, 130.24 -242.38 M107.88 -222.38 C112.93 -227.04, 119.51 -231.95, 130.24 -242.38" stroke="#1e1e1e" stroke-width="2" fill="none"></path></g></g><mask id="mask-ALPj7h32NS9ERq2ghutHx"><rect x="0" y="0" fill="#fff" width="472.04592201962066" height="745.8660966666325"></rect><rect x="261.8849136620855" y="271.28472510418374" fill="#000" width="89.25993347167969" height="25" opacity="1"></rect></mask><g transform="translate(261.8849136620855 271.28472510418374) rotate(0 44.35440037250521 11.76859640817625)"><text x="44.629966735839844" y="0" font-family="Virgil, Segoe UI Emoji" font-size="20px" fill="#1e1e1e" text-anchor="middle" style="white-space: pre;" direction="ltr" dominant-baseline="text-before-edge">Download</text></g><g mask="url(#mask-NhOaJCQYE3j6AW0A1TD_7)" stroke-linecap="round"><g transform="translate(1327.19140625 106.435546875) rotate(0 -401.08203125 -12.435546875)"><path d="M-0.66 -0.52 C-134.54 -4.56, -669.59 -21.49, -803.1 -25.44 M1.19 1.82 C-132.33 -1.96, -666.97 -19.52, -800.89 -24.2" stroke="#1e1e1e" stroke-width="2" fill="none"></path></g><g transform="translate(1327.19140625 106.435546875) rotate(0 -401.08203125 -12.435546875)"><path d="M-772.37 -33.51 C-782.27 -32.31, -791.29 -27.15, -800.89 -24.2 M-772.37 -33.51 C-783.08 -30.32, -792.2 -27.48, -800.89 -24.2" stroke="#1e1e1e" stroke-width="2" fill="none"></path></g><g transform="translate(1327.19140625 106.435546875) rotate(0 -401.08203125 -12.435546875)"><path d="M-773.06 -13 C-782.54 -18.23, -791.35 -19.5, -800.89 -24.2 M-773.06 -13 C-783.35 -17.03, -792.23 -21.41, -800.89 -24.2" stroke="#1e1e1e" stroke-width="2" fill="none"></path></g></g><mask id="mask-NhOaJCQYE3j6AW0A1TD_7"><rect x="0" y="0" fill="#fff" width="2229.35546875" height="231.306640625"></rect><rect x="837.4994354248047" y="81.5" fill="#000" width="177.21987915039062" height="25" opacity="1"></rect></mask><g transform="translate(837.4994354248047 81.5) rotate(0 88.73396741074038 13.127649598973804)"><text x="88.60993957519531" y="0" font-family="Virgil, Segoe UI Emoji" font-size="20px" fill="#1e1e1e" text-anchor="middle" style="white-space: pre;" direction="ltr" dominant-baseline="text-before-edge">6. Upload to CDN</text></g><g stroke-linecap="round" transform="translate(1175.111328125 616.359375) rotate(0 77.15234375 44.728515625)"><path d="M105.74 2.51 C116.76 4.36, 127.64 10.01, 135.35 15.44 C143.07 20.87, 149.39 28.36, 152.03 35.1 C154.66 41.83, 154.22 49.21, 151.16 55.84 C148.11 62.47, 141.55 69.61, 133.69 74.89 C125.83 80.18, 115.11 85.01, 104 87.53 C92.9 90.05, 78.93 91.23, 67.06 90.02 C55.2 88.81, 42.62 84.28, 32.8 80.28 C22.99 76.27, 13.74 72, 8.17 65.99 C2.59 59.97, -0.71 51.12, -0.66 44.19 C-0.61 37.26, 2.82 30.51, 8.45 24.42 C14.09 18.33, 23.05 11.52, 33.16 7.64 C43.27 3.75, 56.28 1.58, 69.11 1.12 C81.93 0.65, 102.59 4.02, 110.13 4.85 C117.66 5.69, 115.02 5.53, 114.33 6.11 M89.66 0.29 C101.32 0.73, 114.6 6.24, 124.2 10.58 C133.81 14.92, 142.11 20.47, 147.3 26.35 C152.5 32.22, 155.81 38.79, 155.37 45.85 C154.92 52.91, 150.94 62.69, 144.64 68.71 C138.33 74.73, 127.95 78.73, 117.54 81.99 C107.13 85.25, 93.78 87.7, 82.17 88.29 C70.57 88.89, 58.67 88.04, 47.91 85.56 C37.14 83.08, 25.47 78.84, 17.58 73.41 C9.7 67.97, 3.13 59.83, 0.58 52.96 C-1.97 46.08, -1.5 38.85, 2.28 32.14 C6.05 25.44, 14.73 17.89, 23.24 12.7 C31.74 7.52, 42.08 2.94, 53.3 1.03 C64.52 -0.87, 84.3 1.27, 90.57 1.26 C96.83 1.24, 91.29 0.07, 90.89 0.94" stroke="#1e1e1e" stroke-width="2" fill="none"></path></g><g transform="translate(1204.0487837979863 635.9600539141541) rotate(0 48.159942626953125 25)"><text x="48.159942626953125" y="0" font-family="Virgil, Segoe UI Emoji" font-size="20px" fill="#1e1e1e" text-anchor="middle" style="white-space: pre;" direction="ltr" dominant-baseline="text-before-edge">Permission</text><text x="48.159942626953125" y="25" font-family="Virgil, Segoe UI Emoji" font-size="20px" fill="#1e1e1e" text-anchor="middle" style="white-space: pre;" direction="ltr" dominant-baseline="text-before-edge">Store</text></g><g stroke-linecap="round" transform="translate(964.912109375 635.642578125) rotate(0 62.259765625 50.7421875)"><path d="M25.37 0 C44.85 0.56, 61.29 -0.13, 99.15 0 M25.37 0 C42.49 0.45, 58.96 0.78, 99.15 0 M99.15 0 C114.5 -1.33, 126.13 7.18, 124.52 25.37 M99.15 0 C114.64 1.09, 126.59 9.04, 124.52 25.37 M124.52 25.37 C124.26 44.95, 125.97 63.23, 124.52 76.11 M124.52 25.37 C124.86 41.65, 124.49 57.74, 124.52 76.11 M124.52 76.11 C124.65 91.28, 114.58 100.72, 99.15 101.48 M124.52 76.11 C124.53 94.11, 116.24 102.52, 99.15 101.48 M99.15 101.48 C73.29 100.81, 45.26 100.41, 25.37 101.48 M99.15 101.48 C80.47 100.63, 60.92 101.13, 25.37 101.48 M25.37 101.48 C10.2 101.7, -0.79 93.84, 0 76.11 M25.37 101.48 C9.38 100.11, 1.94 90.84, 0 76.11 M0 76.11 C-0.6 59.95, 1.27 48.14, 0 25.37 M0 76.11 C-0.19 62.3, 0.75 47.81, 0 25.37 M0 25.37 C-0.93 7.41, 6.59 1.21, 25.37 0 M0 25.37 C-2.07 8.08, 6.23 0.71, 25.37 0" stroke="#1e1e1e" stroke-width="2" fill="none"></path></g><g transform="translate(983.6819152832031 673.884765625) rotate(0 43.489959716796875 12.5)"><text x="43.489959716796875" y="0" font-family="Virgil, Segoe UI Emoji" font-size="20px" fill="#1e1e1e" text-anchor="middle" style="white-space: pre;" direction="ltr" dominant-baseline="text-before-edge">ShareFile</text></g><g stroke-linecap="round"><g transform="translate(297.36282748685846 520.9375) rotate(0 122.77366438157082 24.63952760923641)"><path d="M0.74 -1.07 C41.87 7.05, 204.97 39.92, 245.78 48.15 M-0.33 0.98 C40.75 9.26, 204.09 41.07, 244.95 49.09" stroke="#1971c2" stroke-width="2" fill="none"></path></g><g transform="translate(297.36282748685846 520.9375) rotate(0 122.77366438157082 24.63952760923641)"><path d="M215.31 53.75 C219.99 52.94, 226.34 51.62, 244.95 49.09 M215.31 53.75 C222.78 53.09, 228.44 52.16, 244.95 49.09" stroke="#1971c2" stroke-width="2" fill="none"></path></g><g transform="translate(297.36282748685846 520.9375) rotate(0 122.77366438157082 24.63952760923641)"><path d="M219.25 33.61 C222.98 37.2, 228.47 40.26, 244.95 49.09 M219.25 33.61 C225.82 37.43, 230.61 40.96, 244.95 49.09" stroke="#1971c2" stroke-width="2" fill="none"></path></g></g><mask></mask><g stroke-linecap="round"><g transform="translate(690.4471548261073 580.0450445989813) rotate(0 131.12695312500006 49.55080436667075)"><path d="M0.42 0.47 C43.99 17.01, 218.78 82.52, 262.23 98.81 M-0.82 -0.32 C42.51 16.43, 217.23 83.63, 261.26 100.2" stroke="#1971c2" stroke-width="2" fill="none"></path></g><g transform="translate(690.4471548261073 580.0450445989813) rotate(0 131.12695312500006 49.55080436667075)"><path d="M231.27 99.75 C243.11 99.76, 252.89 98.02, 261.26 100.2 M231.27 99.75 C239.06 99.86, 245.49 99.39, 261.26 100.2" stroke="#1971c2" stroke-width="2" fill="none"></path></g><g transform="translate(690.4471548261073 580.0450445989813) rotate(0 131.12695312500006 49.55080436667075)"><path d="M238.58 80.57 C247.66 87.68, 254.75 93, 261.26 100.2 M238.58 80.57 C244.8 85.03, 249.58 88.9, 261.26 100.2" stroke="#1971c2" stroke-width="2" fill="none"></path></g></g><mask></mask><g stroke-linecap="round"><g transform="translate(1100.890625 668.5099661149287) rotate(0 34.26779648529089 -1.1077255162521737)"><path d="M0.73 -1.13 C12.28 -1.49, 57.29 -2.32, 68.69 -2.31 M-0.34 0.89 C11.11 0.74, 56.31 -0.21, 67.83 -0.83" stroke="#1971c2" stroke-width="2" fill="none"></path></g><g transform="translate(1100.890625 668.5099661149287) rotate(0 34.26779648529089 -1.1077255162521737)"><path d="M40.01 10.41 C45.17 7.67, 53.92 5.64, 67.83 -0.83 M40.01 10.41 C50.67 6.75, 61.08 1.36, 67.83 -0.83" stroke="#1971c2" stroke-width="2" fill="none"></path></g><g transform="translate(1100.890625 668.5099661149287) rotate(0 34.26779648529089 -1.1077255162521737)"><path d="M39.3 -10.1 C44.61 -7.67, 53.54 -4.51, 67.83 -0.83 M39.3 -10.1 C50.21 -5.64, 60.9 -2.92, 67.83 -0.83" stroke="#1971c2" stroke-width="2" fill="none"></path></g></g><mask></mask><g stroke-linecap="round" transform="translate(230.140625 612.205078125) rotate(0 63.68359375 49.44140625)"><path d="M24.72 0 C52.88 -0.38, 85.5 1.05, 102.65 0 M24.72 0 C52.41 -1.14, 82.02 -1.54, 102.65 0 M102.65 0 C120.99 -1.35, 126.13 7.74, 127.37 24.72 M102.65 0 C120.44 -1.78, 128.55 8.88, 127.37 24.72 M127.37 24.72 C129.78 44.07, 126.73 61.97, 127.37 74.16 M127.37 24.72 C127.9 34.67, 128.38 47.06, 127.37 74.16 M127.37 74.16 C126.83 91.73, 120.03 100.22, 102.65 98.88 M127.37 74.16 C125.45 89.36, 118.44 100.17, 102.65 98.88 M102.65 98.88 C85.42 99.7, 67.26 101.47, 24.72 98.88 M102.65 98.88 C86.16 99.81, 68.14 98.24, 24.72 98.88 M24.72 98.88 C7.5 98.45, 0.24 91.42, 0 74.16 M24.72 98.88 C7.78 99.57, 0.7 91.53, 0 74.16 M0 74.16 C1.42 57.34, 0.63 36.94, 0 24.72 M0 74.16 C0.17 63.42, 1.23 54.73, 0 24.72 M0 24.72 C-0.58 8.33, 9.81 -0.79, 24.72 0 M0 24.72 C0.41 8.64, 6.74 -0.39, 24.72 0" stroke="#1e1e1e" stroke-width="2" fill="none"></path></g><g transform="translate(246.27426147460938 624.146484375) rotate(0 47.549957275390625 37.5)"><text x="47.549957275390625" y="0" font-family="Virgil, Segoe UI Emoji" font-size="20px" fill="#1e1e1e" text-anchor="middle" style="white-space: pre;" direction="ltr" dominant-baseline="text-before-edge">Download</text><text x="47.549957275390625" y="25" font-family="Virgil, Segoe UI Emoji" font-size="20px" fill="#1e1e1e" text-anchor="middle" style="white-space: pre;" direction="ltr" dominant-baseline="text-before-edge">(Browser/</text><text x="47.549957275390625" y="50" font-family="Virgil, Segoe UI Emoji" font-size="20px" fill="#1e1e1e" text-anchor="middle" style="white-space: pre;" direction="ltr" dominant-baseline="text-before-edge">Device</text></g><g stroke-linecap="round" transform="translate(983.701171875 829.716796875) rotate(0 62.259765625 50.7421875)"><path d="M25.37 0 C47.43 1.08, 71.61 1.57, 99.15 0 M25.37 0 C49.54 0.29, 73.32 -0.06, 99.15 0 M99.15 0 C116.47 0.99, 123.27 8.24, 124.52 25.37 M99.15 0 C117.39 1.57, 125.84 9.9, 124.52 25.37 M124.52 25.37 C125.77 39.56, 125.02 51.81, 124.52 76.11 M124.52 25.37 C123.85 40.64, 123.65 56.33, 124.52 76.11 M124.52 76.11 C123.78 91.33, 117.07 102.88, 99.15 101.48 M124.52 76.11 C126.61 95.27, 114.75 103.64, 99.15 101.48 M99.15 101.48 C75.47 99.78, 53.43 102.82, 25.37 101.48 M99.15 101.48 C82.56 102.15, 65.75 101.77, 25.37 101.48 M25.37 101.48 C7.72 103.44, 0.91 94.43, 0 76.11 M25.37 101.48 C9.05 100.47, -1.32 92.3, 0 76.11 M0 76.11 C-0.16 63.2, 0.64 47.65, 0 25.37 M0 76.11 C0.21 58.81, 0.7 41.89, 0 25.37 M0 25.37 C-0.92 9.91, 8.22 0.7, 25.37 0 M0 25.37 C1.33 9.75, 8.09 1.61, 25.37 0" stroke="#1e1e1e" stroke-width="2" fill="none"></path></g><g transform="translate(1000.4409713745117 855.458984375) rotate(0 45.51996612548828 25)"><text x="45.51996612548828" y="0" font-family="Virgil, Segoe UI Emoji" font-size="20px" fill="#1e1e1e" text-anchor="middle" style="white-space: pre;" direction="ltr" dominant-baseline="text-before-edge">GetFile</text><text x="45.51996612548828" y="25" font-family="Virgil, Segoe UI Emoji" font-size="20px" fill="#1e1e1e" text-anchor="middle" style="white-space: pre;" direction="ltr" dominant-baseline="text-before-edge">(MD only)</text></g><g mask="url(#mask-i2zEkfgsYMxVUIUKpYG8v)" stroke-linecap="round"><g transform="translate(373.1015625 656.119140625) rotate(0 303.515625 116.611328125)"><path d="M0.3 -0.29 C101.19 38.49, 505.35 194.6, 606.37 233.55 M-1 -1.49 C100.2 36.84, 507.67 192.21, 608.74 231.61" stroke="#1e1e1e" stroke-width="2" fill="none"></path></g><g transform="translate(373.1015625 656.119140625) rotate(0 303.515625 116.611328125)"><path d="M578.74 231.06 C589.77 230.09, 602.32 230.44, 608.74 231.61 M578.74 231.06 C588.65 231.89, 596.94 231.85, 608.74 231.61" stroke="#1e1e1e" stroke-width="2" fill="none"></path></g><g transform="translate(373.1015625 656.119140625) rotate(0 303.515625 116.611328125)"><path d="M586.11 211.9 C594.45 218.31, 604.18 226.01, 608.74 231.61 M586.11 211.9 C593.5 218.89, 599.44 224.94, 608.74 231.61" stroke="#1e1e1e" stroke-width="2" fill="none"></path></g></g><mask id="mask-i2zEkfgsYMxVUIUKpYG8v"><rect x="0" y="0" fill="#fff" width="1080.1328125" height="989.341796875"></rect><rect x="582.9372711181641" y="747.73046875" fill="#000" width="187.35983276367188" height="50" opacity="1"></rect></mask><g transform="translate(582.9372711181641 747.73046875) rotate(0 94.03014356919573 24.420734039801147)"><text x="93.67991638183594" y="0" font-family="Virgil, Segoe UI Emoji" font-size="20px" fill="#1e1e1e" text-anchor="middle" style="white-space: pre;" direction="ltr" dominant-baseline="text-before-edge">Can poll or get </text><text x="93.67991638183594" y="25" font-family="Virgil, Segoe UI Emoji" font-size="20px" fill="#1e1e1e" text-anchor="middle" style="white-space: pre;" direction="ltr" dominant-baseline="text-before-edge">notified on changes</text></g><g mask="url(#mask-EONh0Il1h3FpOFhReEI_v)" stroke-linecap="round"><g transform="translate(1121.29296875 878.340074998569) rotate(0 196.48900109377416 -132.0491415856452)"><path d="M-0.89 0.59 C64.8 -43.19, 327.71 -218.76, 393.17 -263.03 M0.85 -0.15 C66.48 -44.21, 326.76 -220.59, 392.33 -264.59" stroke="#1e1e1e" stroke-width="2" fill="none"></path></g><g transform="translate(1121.29296875 878.340074998569) rotate(0 196.48900109377416 -132.0491415856452)"><path d="M374.7 -240.32 C379.59 -245.16, 384.25 -252.6, 392.33 -264.59 M374.7 -240.32 C377.54 -244.74, 382.13 -250.39, 392.33 -264.59" stroke="#1e1e1e" stroke-width="2" fill="none"></path></g><g transform="translate(1121.29296875 878.340074998569) rotate(0 196.48900109377416 -132.0491415856452)"><path d="M363.22 -257.33 C370.57 -258.38, 377.73 -262.1, 392.33 -264.59 M363.22 -257.33 C368.76 -257.87, 375.92 -259.7, 392.33 -264.59" stroke="#1e1e1e" stroke-width="2" fill="none"></path></g></g><mask id="mask-EONh0Il1h3FpOFhReEI_v"><rect x="0" y="0" fill="#fff" width="1614.2709709375483" height="1242.4383581698594"></rect><rect x="1237.3620250805907" y="733.7909334129238" fill="#000" width="160.8398895263672" height="25" opacity="1"></rect></mask><g transform="translate(1237.3620250805907 733.7909334129238) rotate(0 80.07272236347194 12.546722981738839)"><text x="80.4199447631836" y="0" font-family="Virgil, Segoe UI Emoji" font-size="20px" fill="#1e1e1e" text-anchor="middle" style="white-space: pre;" direction="ltr" dominant-baseline="text-before-edge">2. Get File Info</text></g><g mask="url(#mask-BL_LfJh5iBsSucLoppctG)" stroke-linecap="round"><g transform="translate(1114.5703125 852.146484375) rotate(0 50.849609375 -69.623046875)"><path d="M0.74 0.05 C17.72 -23.16, 85.99 -115.65, 102.85 -138.67 M-0.32 -0.97 C16.51 -24.58, 85.58 -117.35, 102.5 -140.5" stroke="#1e1e1e" stroke-width="2" fill="none"></path></g><g transform="translate(1114.5703125 852.146484375) rotate(0 50.849609375 -69.623046875)"><path d="M94.01 -111.72 C97.21 -120.87, 101.33 -133.46, 102.5 -140.5 M94.01 -111.72 C97.07 -122.44, 100.61 -134.38, 102.5 -140.5" stroke="#1e1e1e" stroke-width="2" fill="none"></path></g><g transform="translate(1114.5703125 852.146484375) rotate(0 50.849609375 -69.623046875)"><path d="M77.5 -123.91 C87.07 -128.5, 97.5 -136.42, 102.5 -140.5 M77.5 -123.91 C87.11 -129.85, 97.2 -136.95, 102.5 -140.5" stroke="#1e1e1e" stroke-width="2" fill="none"></path></g></g><mask id="mask-BL_LfJh5iBsSucLoppctG"><rect x="0" y="0" fill="#fff" width="1316.26953125" height="1091.392578125"></rect><rect x="1128.2299499511719" y="770.0234375" fill="#000" width="74.37994384765625" height="25" opacity="1"></rect></mask><g transform="translate(1128.2299499511719 770.0234375) rotate(0 37.60225940864996 11.898511140155591)"><text x="37.189971923828125" y="0" font-family="Virgil, Segoe UI Emoji" font-size="20px" fill="#1e1e1e" text-anchor="middle" style="white-space: pre;" direction="ltr" dominant-baseline="text-before-edge">1. Check</text></g><g mask="url(#mask-aTEK5tZcy-6XmyJYgYzTa)" stroke-linecap="round"><g transform="translate(1117.5390625 900.537109375) rotate(0 303.599609375 -353.064453125)"><path d="M0.27 0.92 C101.5 -31.02, 544.54 -75.13, 606.9 -192.83 C669.27 -310.52, 413.41 -619.77, 374.45 -705.26 M-1.05 0.36 C100.04 -31.82, 543.32 -76.6, 605.8 -194.52 C668.28 -312.44, 412.64 -622.15, 373.81 -707.14" stroke="#1e1e1e" stroke-width="2" fill="none"></path></g><g transform="translate(1117.5390625 900.537109375) rotate(0 303.599609375 -353.064453125)"><path d="M397.48 -688.72 C393.1 -693.9, 386.82 -697.79, 373.81 -707.14 M397.48 -688.72 C388.44 -695.29, 380.45 -701.61, 373.81 -707.14" stroke="#1e1e1e" stroke-width="2" fill="none"></path></g><g transform="translate(1117.5390625 900.537109375) rotate(0 303.599609375 -353.064453125)"><path d="M380.1 -677.81 C380.3 -685.84, 378.5 -692.54, 373.81 -707.14 M380.1 -677.81 C377.64 -688.5, 376.13 -698.88, 373.81 -707.14" stroke="#1e1e1e" stroke-width="2" fill="none"></path></g></g><mask id="mask-aTEK5tZcy-6XmyJYgYzTa"><rect x="0" y="0" fill="#fff" width="1824.73828125" height="1706.666015625"></rect><rect x="1609.828353881836" y="669.392578125" fill="#000" width="229.81985473632812" height="75" opacity="1"></rect></mask><g transform="translate(1609.828353881836 669.392578125) rotate(0 -184.49116933065307 -121.96560609404463)"><text x="114.90992736816406" y="0" font-family="Virgil, Segoe UI Emoji" font-size="20px" fill="#1e1e1e" text-anchor="middle" style="white-space: pre;" direction="ltr" dominant-baseline="text-before-edge">3. Get Signed URL</text><text x="114.90992736816406" y="25" font-family="Virgil, Segoe UI Emoji" font-size="20px" fill="#1e1e1e" text-anchor="middle" style="white-space: pre;" direction="ltr" dominant-baseline="text-before-edge">(To invalidate URL on </text><text x="114.90992736816406" y="50" font-family="Virgil, Segoe UI Emoji" font-size="20px" fill="#1e1e1e" text-anchor="middle" style="white-space: pre;" direction="ltr" dominant-baseline="text-before-edge">access changes)</text></g><g mask="url(#mask-JcoobmAvBmCyREgeHDet7)" stroke-linecap="round"><g transform="translate(972.578125 911.478515625) rotate(0 -300.064453125 -99.86328125)"><path d="M-0.89 0.61 C-66.48 2.85, -294.63 49.71, -394.63 14.18 C-494.63 -21.36, -566.8 -174.63, -600.89 -212.6 M0.84 -0.12 C-64.3 2.28, -292.67 51.5, -392.54 15.79 C-492.41 -19.91, -564.07 -176.29, -598.4 -214.33" stroke="#1e1e1e" stroke-width="2" fill="none"></path></g><g transform="translate(972.578125 911.478515625) rotate(0 -300.064453125 -99.86328125)"><path d="M-574.04 -196.82 C-578.2 -202.62, -584.05 -205.56, -598.4 -214.33 M-574.04 -196.82 C-584.71 -203.53, -593.74 -211.24, -598.4 -214.33" stroke="#1e1e1e" stroke-width="2" fill="none"></path></g><g transform="translate(972.578125 911.478515625) rotate(0 -300.064453125 -99.86328125)"><path d="M-590.99 -185.26 C-591.7 -193.35, -594.01 -198.69, -598.4 -214.33 M-590.99 -185.26 C-595.03 -196.58, -597.33 -208.87, -598.4 -214.33" stroke="#1e1e1e" stroke-width="2" fill="none"></path></g></g><mask id="mask-JcoobmAvBmCyREgeHDet7"><rect x="0" y="0" fill="#fff" width="1672.70703125" height="1239.267578125"></rect><rect x="379.99298095703125" y="888.009765625" fill="#000" width="398.2796630859375" height="75" opacity="1"></rect></mask><g transform="translate(379.99298095703125 888.009765625) rotate(0 292.56050574463325 -69.3277553082105)"><text x="199.13983154296875" y="0" font-family="Virgil, Segoe UI Emoji" font-size="20px" fill="#1e1e1e" text-anchor="middle" style="white-space: pre;" direction="ltr" dominant-baseline="text-before-edge">4. Send back DownloadURL</text><text x="199.13983154296875" y="25" font-family="Virgil, Segoe UI Emoji" font-size="20px" fill="#1e1e1e" text-anchor="middle" style="white-space: pre;" direction="ltr" dominant-baseline="text-before-edge">For owners this could be directly on S3 </text><text x="199.13983154296875" y="50" font-family="Virgil, Segoe UI Emoji" font-size="20px" fill="#1e1e1e" text-anchor="middle" style="white-space: pre;" direction="ltr" dominant-baseline="text-before-edge">for RWY</text></g></svg>