<svg version="1.1" xmlns="http://www.w3.org/2000/svg" viewBox="0 0 972.63671875 437.53515625" width="1945.2734375" height="875.0703125" filter="invert(93%) hue-rotate(180deg)">
  <!-- svg-source:excalidraw -->
  
  <defs>
    <style class="style-fonts">
      @font-face {
        font-family: "Virgil";
        src: url("https://unpkg.com/@excalidraw/excalidraw@undefined/dist/excalidraw-assets/Virgil.woff2");
      }
      @font-face {
        font-family: "Cascadia";
        src: url("https://unpkg.com/@excalidraw/excalidraw@undefined/dist/excalidraw-assets/Cascadia.woff2");
      }
      @font-face {
        font-family: "Assistant";
        src: url("https://unpkg.com/@excalidraw/excalidraw@undefined/dist/excalidraw-assets/Assistant-Regular.woff2");
      }
    </style>
    
  </defs>
  <rect x="0" y="0" width="972.63671875" height="437.53515625" fill="#ffffff"></rect><g stroke-linecap="round" transform="translate(250.796875 10) rotate(0 93.5625 73.328125)"><path d="M32 0 C62.82 -0.61, 97.07 0.48, 155.13 0 M32 0 C78.19 -0.37, 124.31 -0.82, 155.13 0 M155.13 0 C174.9 0.81, 186.14 11.61, 187.13 32 M155.13 0 C178.73 -0.06, 185.31 10.87, 187.13 32 M187.13 32 C186 64.42, 185.92 96.03, 187.13 114.66 M187.13 32 C186.38 62.96, 188.26 96.56, 187.13 114.66 M187.13 114.66 C188.89 136.21, 176.76 144.75, 155.13 146.66 M187.13 114.66 C186.69 137.57, 178.72 147.89, 155.13 146.66 M155.13 146.66 C113.95 147.5, 73.66 147.72, 32 146.66 M155.13 146.66 C115.65 146.32, 74.79 145.31, 32 146.66 M32 146.66 C10.64 145.91, 0.06 136.61, 0 114.66 M32 146.66 C9.49 147.68, -1.9 136.53, 0 114.66 M0 114.66 C-1.22 81.77, 1.88 51.73, 0 32 M0 114.66 C-0.06 91.74, 1.46 66.96, 0 32 M0 32 C-0.92 9.11, 9.94 1.64, 32 0 M0 32 C1.6 12.72, 11.57 -0.77, 32 0" stroke="#1e1e1e" stroke-width="2" fill="none"></path></g><g transform="translate(299.67940521240234 70.828125) rotate(0 44.679969787597656 12.5)"><text x="44.679969787597656" y="0" font-family="Virgil, Segoe UI Emoji" font-size="20px" fill="#1e1e1e" text-anchor="middle" style="white-space: pre;" direction="ltr" dominant-baseline="text-before-edge">a square</text></g><g stroke-linecap="round" transform="translate(187.390625 318.30859375) rotate(0 98.83203125 54.61328125)"><path d="M123.75 13.75 C143.85 24.58, 161.33 34.88, 172.91 41.25 M123.75 13.75 C142.4 23.42, 160.38 33.2, 172.91 41.25 M172.91 41.25 C198.37 53.62, 198.59 55.45, 172.91 68.75 M172.91 41.25 C195.49 52.83, 198.24 56.91, 172.91 68.75 M172.91 68.75 C161.79 74.41, 152.84 78.94, 123.75 95.48 M172.91 68.75 C156.61 77.66, 139.47 86.51, 123.75 95.48 M123.75 95.48 C98.02 110.76, 99.9 108.94, 74.25 95.48 M123.75 95.48 C97.03 109.68, 97.23 110.82, 74.25 95.48 M74.25 95.48 C54.24 84.5, 38.87 76.59, 24.75 68.75 M74.25 95.48 C54.7 85.02, 35.51 74.56, 24.75 68.75 M24.75 68.75 C1.63 53.47, 0.72 53.88, 24.75 41.25 M24.75 68.75 C-1.38 54.01, 0.57 54.4, 24.75 41.25 M24.75 41.25 C40.51 31.42, 54.87 24.09, 74.25 13.75 M24.75 41.25 C45.3 29.2, 64.96 19.8, 74.25 13.75 M74.25 13.75 C99.28 0.27, 98.54 -0.06, 123.75 13.75 M74.25 13.75 C100.87 -1.12, 99.96 1.03, 123.75 13.75" stroke="#1e1e1e" stroke-width="2" fill="none"></path></g><g transform="translate(260.4166717529297 360.615234375) rotate(0 25.889968872070312 12.5)"><text x="25.889968872070312" y="0" font-family="Virgil, Segoe UI Emoji" font-size="20px" fill="#1e1e1e" text-anchor="middle" style="white-space: pre;" direction="ltr" dominant-baseline="text-before-edge">robos</text></g><g stroke-linecap="round" transform="translate(10 207.72265625) rotate(0 119.697265625 24.5)"><path d="M162.91 1.35 C178.13 2.36, 194.34 5.55, 205.98 8.04 C217.62 10.54, 227.28 13.37, 232.75 16.34 C238.23 19.3, 239.97 22.61, 238.83 25.84 C237.69 29.07, 233.37 32.63, 225.92 35.74 C218.48 38.85, 207.02 42.36, 194.16 44.51 C181.3 46.65, 164.59 47.99, 148.78 48.59 C132.96 49.18, 115.2 48.63, 99.25 48.06 C83.31 47.49, 66.56 46.88, 53.09 45.16 C39.62 43.44, 26.98 40.67, 18.41 37.72 C9.84 34.77, 3.96 30.88, 1.67 27.44 C-0.61 24, 0.43 20.22, 4.7 17.08 C8.97 13.95, 16.85 11.08, 27.3 8.62 C37.74 6.15, 52.8 3.6, 67.39 2.29 C81.98 0.99, 97.38 0.62, 114.84 0.79 C132.3 0.95, 161.03 2.72, 172.14 3.28 C183.25 3.84, 182.2 3.95, 181.49 4.16 M118.48 0.68 C133.68 0.57, 151.72 1.96, 166.77 3.15 C181.83 4.34, 197.68 5.82, 208.81 7.82 C219.94 9.81, 228.71 12.1, 233.58 15.13 C238.45 18.16, 239.39 22.49, 238.03 25.99 C236.67 29.49, 232.99 33.11, 225.42 36.12 C217.85 39.13, 205.97 41.99, 192.62 44.05 C179.26 46.1, 161.38 47.95, 145.27 48.48 C129.16 49.01, 111.59 48.06, 95.94 47.22 C80.29 46.39, 64.67 44.93, 51.36 43.44 C38.04 41.95, 24.5 40.87, 16.03 38.28 C7.56 35.69, 2.44 31.46, 0.52 27.9 C-1.4 24.34, -0.23 20.03, 4.5 16.91 C9.23 13.79, 18.13 11.47, 28.91 9.2 C39.69 6.92, 54.57 4.61, 69.17 3.27 C83.78 1.92, 108.31 1.8, 116.56 1.14 C124.81 0.47, 118.41 -0.98, 118.67 -0.71" stroke="#1e1e1e" stroke-width="2" fill="none"></path></g><g transform="translate(104.92854304684067 219.89854011092956) rotate(0 24.629974365234375 12.5)"><text x="24.629974365234375" y="0" font-family="Virgil, Segoe UI Emoji" font-size="20px" fill="#1e1e1e" text-anchor="middle" style="white-space: pre;" direction="ltr" dominant-baseline="text-before-edge">circle</text></g><g stroke-linecap="round" transform="translate(847.171875 78.50390625) rotate(0 57.732421875 81.361328125)"><path d="M43.84 1.85 C51.14 -1.93, 60.93 -0.72, 69.12 1.74 C77.3 4.21, 86.33 9.37, 92.97 16.61 C99.61 23.85, 105.05 34.63, 108.93 45.19 C112.81 55.75, 116.19 68.24, 116.27 79.97 C116.34 91.7, 112.96 104.68, 109.38 115.57 C105.8 126.46, 101.08 137.93, 94.8 145.34 C88.51 152.74, 79.81 157.55, 71.68 160 C63.54 162.46, 54.21 162.46, 45.98 160.05 C37.74 157.65, 29.01 152.67, 22.27 145.59 C15.53 138.52, 9.08 128.11, 5.51 117.63 C1.94 107.15, 0.8 94.47, 0.84 82.7 C0.88 70.93, 2.47 57.74, 5.75 47.03 C9.03 36.31, 12.93 26.16, 20.53 18.39 C28.13 10.63, 45.47 3.11, 51.37 0.43 C57.26 -2.24, 56.01 1, 55.89 2.34 M80.34 5.46 C87.78 8.94, 95.28 18.78, 101.05 28.2 C106.82 37.61, 112.85 50.65, 114.95 61.94 C117.04 73.23, 115.44 84.83, 113.61 95.92 C111.78 107.01, 109.03 118.7, 103.96 128.47 C98.89 138.24, 90.31 148.93, 83.19 154.54 C76.06 160.15, 69.27 162, 61.19 162.14 C53.12 162.28, 42.38 159.9, 34.73 155.37 C27.08 150.84, 20.59 143.84, 15.3 134.94 C10.01 126.05, 5.6 113.26, 2.99 102.01 C0.38 90.76, -1.56 78.83, -0.37 67.45 C0.81 56.07, 4.66 43.37, 10.1 33.73 C15.53 24.1, 24.57 15.08, 32.24 9.64 C39.9 4.19, 47.87 1.3, 56.1 1.07 C64.32 0.84, 77.73 6.86, 81.59 8.25 C85.44 9.64, 79.72 8.55, 79.22 9.41" stroke="#1e1e1e" stroke-width="2" fill="none"></path></g></svg>