<svg version="1.1" xmlns="http://www.w3.org/2000/svg" viewBox="0 0 839.578125 627.21875" width="839.578125" height="627.21875" filter="invert(93%) hue-rotate(180deg)">
  <!-- svg-source:excalidraw -->
  
  <defs>
    <style class="style-fonts">
      @font-face {
        font-family: "Virgil";
        src: url("https://unpkg.com/@excalidraw/excalidraw@undefined/dist/excalidraw-assets/Virgil.woff2");
      }
      @font-face {
        font-family: "Cascadia";
        src: url("https://unpkg.com/@excalidraw/excalidraw@undefined/dist/excalidraw-assets/Cascadia.woff2");
      }
      @font-face {
        font-family: "Assistant";
        src: url("https://unpkg.com/@excalidraw/excalidraw@undefined/dist/excalidraw-assets/Assistant-Regular.woff2");
      }
    </style>
    
  </defs>
  <rect x="0" y="0" width="839.578125" height="627.21875" fill="#ffffff"></rect><g stroke-linecap="round" transform="translate(52.328125 18.53515625) rotate(0 138.09765625 99.6953125)"><path d="M32 0 C82.17 1.42, 130.45 0.03, 244.2 0 M32 0 C83.72 0.26, 136.37 0.63, 244.2 0 M244.2 0 C265.78 -0.37, 277.01 8.86, 276.2 32 M244.2 0 C266.31 -2.15, 274.08 12.69, 276.2 32 M276.2 32 C273.11 70.01, 274.97 106.12, 276.2 167.39 M276.2 32 C276.51 79.52, 276.84 127.69, 276.2 167.39 M276.2 167.39 C276.6 188.46, 267.36 200.61, 244.2 199.39 M276.2 167.39 C273.91 189.37, 266.83 198.49, 244.2 199.39 M244.2 199.39 C176.54 200.29, 107 201.99, 32 199.39 M244.2 199.39 C188.81 198.81, 134.21 199.24, 32 199.39 M32 199.39 C10.13 198.88, -1.31 188.9, 0 167.39 M32 199.39 C8.66 201.04, 0.63 190.37, 0 167.39 M0 167.39 C0.38 140.74, 0.1 109.26, 0 32 M0 167.39 C-0.05 139, -0.2 111.1, 0 32 M0 32 C1.89 9.92, 10.4 1.02, 32 0 M0 32 C1.99 8.51, 11.66 -1.04, 32 0" stroke="#1e1e1e" stroke-width="2" fill="none"></path></g><g transform="translate(138.02582550048828 105.73046875) rotate(0 52.39995574951172 12.5)"><text x="52.39995574951172" y="0" font-family="Virgil, Segoe UI Emoji" font-size="20px" fill="#1e1e1e" text-anchor="middle" style="white-space: pre;" direction="ltr" dominant-baseline="text-before-edge">Hello World</text></g><g stroke-linecap="round" transform="translate(540.06640625 10) rotate(0 144.755859375 72.4609375)"><path d="M181.25 18.25 C197.58 28.72, 214.56 36.34, 253.26 54.75 M181.25 18.25 C202.14 28.24, 221.74 38.52, 253.26 54.75 M253.26 54.75 C287.77 71.1, 287.62 73.7, 253.26 91.25 M253.26 54.75 C290.65 75.08, 288.9 71.31, 253.26 91.25 M253.26 91.25 C235.8 101.67, 216.85 110.54, 181.25 126.67 M253.26 91.25 C230.76 101.9, 210.2 112, 181.25 126.67 M181.25 126.67 C143.39 146.78, 143.02 142.98, 108.75 126.67 M181.25 126.67 C144.32 143.42, 144.17 145.35, 108.75 126.67 M108.75 126.67 C90.25 115.75, 74.15 109.84, 36.25 91.25 M108.75 126.67 C93.11 118.54, 77.48 111.23, 36.25 91.25 M36.25 91.25 C1.44 74.34, 0.6 72.2, 36.25 54.75 M36.25 91.25 C1.31 74.21, -0.24 74.41, 36.25 54.75 M36.25 54.75 C62.35 39.73, 90.85 26.79, 108.75 18.25 M36.25 54.75 C51.74 46.65, 68.15 39.96, 108.75 18.25 M108.75 18.25 C145.48 0.15, 146.73 -0.92, 181.25 18.25 M108.75 18.25 C144.41 -1.54, 143.1 1.13, 181.25 18.25" stroke="#1e1e1e" stroke-width="2" fill="none"></path></g><g stroke-linecap="round" transform="translate(494.4921875 333.60546875) rotate(0 161.017578125 118.728515625)"><path d="M32 0 C123.55 0.59, 215.59 2.56, 290.04 0 M32 0 C93.63 -2.7, 156.61 -2.45, 290.04 0 M290.04 0 C310.64 0.37, 320.9 10.93, 322.04 32 M290.04 0 C310.03 -0.94, 319.87 11.49, 322.04 32 M322.04 32 C319.21 91.11, 320.76 150.57, 322.04 205.46 M322.04 32 C323.58 91.9, 323.85 153.14, 322.04 205.46 M322.04 205.46 C321.82 228.01, 312.79 238.37, 290.04 237.46 M322.04 205.46 C324.29 226.05, 310.49 238.54, 290.04 237.46 M290.04 237.46 C214.21 234.46, 138.5 235.51, 32 237.46 M290.04 237.46 C188.84 237.24, 86.05 237.07, 32 237.46 M32 237.46 C9.02 238.44, -1.27 228.23, 0 205.46 M32 237.46 C10.28 237.25, 2.01 226.15, 0 205.46 M0 205.46 C1.55 136.46, 2.93 67.19, 0 32 M0 205.46 C0.88 161.79, 0.54 116.56, 0 32 M0 32 C-1.96 12.55, 12.05 -1.26, 32 0 M0 32 C0.8 10.08, 9.76 0.59, 32 0" stroke="#1e1e1e" stroke-width="2" fill="none"></path></g><g stroke-linecap="round" transform="translate(10 461.4375) rotate(0 132.3046875 77.890625)"><path d="M140.48 0.42 C155.56 -0.3, 172.14 3.73, 186.62 7.54 C201.1 11.35, 216.06 16.57, 227.37 23.29 C238.69 30.02, 248.24 39.1, 254.51 47.9 C260.78 56.7, 264.57 66.91, 264.98 76.1 C265.39 85.29, 262.2 94.36, 256.98 103.04 C251.76 111.73, 244.05 121.15, 233.66 128.21 C223.27 135.27, 208.74 140.99, 194.63 145.38 C180.52 149.76, 164.73 153.16, 149.01 154.52 C133.3 155.88, 115.63 155.64, 100.35 153.54 C85.07 151.44, 70.32 147.16, 57.33 141.92 C44.35 136.68, 31.54 129.97, 22.44 122.09 C13.34 114.22, 6.35 104.1, 2.74 94.66 C-0.86 85.23, -1.73 74.83, 0.8 65.49 C3.33 56.15, 9.77 46.67, 17.9 38.63 C26.03 30.6, 37.32 22.94, 49.59 17.27 C61.85 11.61, 74.81 7.25, 91.5 4.65 C108.19 2.05, 138.53 1.87, 149.73 1.69 C160.93 1.51, 158.92 2.44, 158.68 3.58 M178.35 5.54 C193.4 7.74, 209.16 14.34, 221.17 20.28 C233.19 26.21, 243.57 32.68, 250.44 41.16 C257.31 49.64, 260.64 61.79, 262.41 71.15 C264.18 80.52, 264.87 88.58, 261.04 97.33 C257.2 106.08, 249.11 115.9, 239.39 123.67 C229.68 131.45, 216.26 138.98, 202.76 143.98 C189.25 148.98, 173.67 151.75, 158.37 153.66 C143.06 155.57, 126.67 157.06, 110.94 155.42 C95.22 153.79, 77.98 148.8, 64.02 143.85 C50.07 138.89, 36.97 132.82, 27.22 125.7 C17.48 118.57, 9.93 110.13, 5.55 101.11 C1.17 92.09, -0.46 80.95, 0.95 71.57 C2.35 62.19, 6.97 53.14, 13.97 44.82 C20.96 36.5, 31.37 28, 42.9 21.65 C54.44 15.31, 68.65 10.59, 83.15 6.76 C97.64 2.94, 114.08 -0.83, 129.87 -1.32 C145.67 -1.81, 170.2 2.36, 177.95 3.81 C185.69 5.26, 177 5.97, 176.36 7.4" stroke="#1e1e1e" stroke-width="2" fill="none"></path></g></svg>