<svg version="1.1" xmlns="http://www.w3.org/2000/svg" viewBox="0 0 1556.5234375 1146.64453125" width="1556.5234375" height="1146.64453125" filter="invert(93%) hue-rotate(180deg)">
  <!-- svg-source:excalidraw -->
  
  <defs>
    <style class="style-fonts">
      @font-face {
        font-family: "Virgil";
        src: url("https://unpkg.com/@excalidraw/excalidraw@undefined/dist/excalidraw-assets/Virgil.woff2");
      }
      @font-face {
        font-family: "Cascadia";
        src: url("https://unpkg.com/@excalidraw/excalidraw@undefined/dist/excalidraw-assets/Cascadia.woff2");
      }
      @font-face {
        font-family: "Assistant";
        src: url("https://unpkg.com/@excalidraw/excalidraw@undefined/dist/excalidraw-assets/Assistant-Regular.woff2");
      }
    </style>
    
  </defs>
  <rect x="0" y="0" width="1556.5234375" height="1146.64453125" fill="#ffffff"></rect><g stroke-linecap="round" transform="translate(10 404.76171875) rotate(0 53.041015625 34.970703125)"><path d="M67.5 8.75 C71.91 12.45, 79.51 15.18, 92.58 26.25 M67.5 8.75 C77.55 14.04, 86.37 20.27, 92.58 26.25 M92.58 26.25 C104.46 34.56, 105.63 33.81, 92.58 43.75 M92.58 26.25 C106.61 33.35, 107.87 32.87, 92.58 43.75 M92.58 43.75 C84.94 50.98, 78 56.34, 67.5 61.19 M92.58 43.75 C87.79 46.85, 81.18 51.29, 67.5 61.19 M67.5 61.19 C52.79 71.22, 52.44 69.09, 40.5 61.19 M67.5 61.19 C56.28 72.11, 53.63 68.56, 40.5 61.19 M40.5 61.19 C34.01 56.21, 25.12 49.05, 13.5 43.75 M40.5 61.19 C30.6 54.32, 20.17 49.37, 13.5 43.75 M13.5 43.75 C-1.79 36.04, 1.51 36.62, 13.5 26.25 M13.5 43.75 C0.7 34.53, -1.45 36.3, 13.5 26.25 M13.5 26.25 C19.97 22.41, 26.08 17.36, 40.5 8.75 M13.5 26.25 C19.67 21.81, 26.32 16.28, 40.5 8.75 M40.5 8.75 C54.74 -0.93, 52.26 -1.66, 67.5 8.75 M40.5 8.75 C55.9 -0.77, 51.96 -0.09, 67.5 8.75" stroke="#1e1e1e" stroke-width="2" fill="none"></path></g><g transform="translate(42.62052917480469 427.2470703125) rotate(0 20.399978637695312 12.5)"><text x="20.399978637695312" y="0" font-family="Segoe UI Emoji" font-size="20px" fill="#1e1e1e" text-anchor="middle" style="white-space: pre;" direction="ltr" dominant-baseline="text-before-edge">user</text></g><g stroke-linecap="round" transform="translate(188.70703125 244.7578125) rotate(0 85.970703125 232.65234375)"><path d="M32 0 C54.75 0.38, 80.95 -0.18, 139.94 0 M32 0 C56.69 -0.1, 81.61 -0.51, 139.94 0 M139.94 0 C162.84 -1.57, 170.59 11.87, 171.94 32 M139.94 0 C160.99 -1.17, 172.92 9.34, 171.94 32 M171.94 32 C175.01 178.35, 174.33 326.34, 171.94 433.3 M171.94 32 C172.44 171.79, 172.3 311.28, 171.94 433.3 M171.94 433.3 C173.58 455.96, 160.65 464.54, 139.94 465.3 M171.94 433.3 C170.73 456.09, 161.62 465.72, 139.94 465.3 M139.94 465.3 C107.87 463.63, 75.21 464.28, 32 465.3 M139.94 465.3 C106.77 463.8, 72.8 465.63, 32 465.3 M32 465.3 C10.36 466.07, -1.38 453.96, 0 433.3 M32 465.3 C11.09 467.49, -0.06 452.55, 0 433.3 M0 433.3 C-0.73 343.13, -1.82 253.49, 0 32 M0 433.3 C1.65 280.94, 1.35 128, 0 32 M0 32 C-1.22 11.63, 8.68 -1.56, 32 0 M0 32 C-1.66 8.66, 12.55 1.96, 32 0" stroke="#1e1e1e" stroke-width="2" fill="none"></path></g><g transform="translate(214.7777862548828 402.41015625) rotate(0 59.89994812011719 75)"><text x="59.89994812011719" y="0" font-family="Segoe UI Emoji" font-size="20px" fill="#1e1e1e" text-anchor="middle" style="white-space: pre;" direction="ltr" dominant-baseline="text-before-edge">API </text><text x="59.89994812011719" y="25" font-family="Segoe UI Emoji" font-size="20px" fill="#1e1e1e" text-anchor="middle" style="white-space: pre;" direction="ltr" dominant-baseline="text-before-edge">Gateway</text><text x="59.89994812011719" y="50" font-family="Segoe UI Emoji" font-size="20px" fill="#1e1e1e" text-anchor="middle" style="white-space: pre;" direction="ltr" dominant-baseline="text-before-edge"></text><text x="59.89994812011719" y="75" font-family="Segoe UI Emoji" font-size="20px" fill="#1e1e1e" text-anchor="middle" style="white-space: pre;" direction="ltr" dominant-baseline="text-before-edge">(ratelimiting,</text><text x="59.89994812011719" y="100" font-family="Segoe UI Emoji" font-size="20px" fill="#1e1e1e" text-anchor="middle" style="white-space: pre;" direction="ltr" dominant-baseline="text-before-edge">auth,</text><text x="59.89994812011719" y="125" font-family="Segoe UI Emoji" font-size="20px" fill="#1e1e1e" text-anchor="middle" style="white-space: pre;" direction="ltr" dominant-baseline="text-before-edge">routing etc)</text></g><g stroke-linecap="round" transform="translate(636.24609375 10) rotate(0 90.64453125 120.63671875000003)"><path d="M32 0 C71.98 -0.84, 109.08 -0.01, 149.29 0 M32 0 C62.66 0.61, 93.27 -0.04, 149.29 0 M149.29 0 C169.04 0.43, 180.04 8.84, 181.29 32 M149.29 0 C168.49 -1.19, 182.51 9.07, 181.29 32 M181.29 32 C182.35 85.04, 181.17 137.25, 181.29 209.27 M181.29 32 C181.5 99.33, 181.45 166.74, 181.29 209.27 M181.29 209.27 C180.26 231.66, 169.56 241.49, 149.29 241.27 M181.29 209.27 C180.65 229.41, 170.38 239.03, 149.29 241.27 M149.29 241.27 C109.02 239.45, 73.02 241.37, 32 241.27 M149.29 241.27 C117.22 241.67, 86.64 240.39, 32 241.27 M32 241.27 C8.7 239.45, 0.57 232.19, 0 209.27 M32 241.27 C10.57 239.26, 1.5 231.53, 0 209.27 M0 209.27 C0.75 149.69, 1.14 88.77, 0 32 M0 209.27 C2 169.96, 2.6 131.07, 0 32 M0 32 C0.3 11.63, 9.44 -1.69, 32 0 M0 32 C-0.62 9.96, 11.47 -0.52, 32 0" stroke="#1e1e1e" stroke-width="2" fill="none"></path></g><g transform="translate(646.7506866455078 15) rotate(0 80.13993835449219 12.5)"><text x="80.13993835449219" y="0" font-family="Segoe UI Emoji" font-size="20px" fill="#1e1e1e" text-anchor="middle" style="white-space: pre;" direction="ltr" dominant-baseline="text-before-edge">Problems Service</text></g><g stroke-linecap="round" transform="translate(657.81640625 52.73828125) rotate(0 69.052734375 39.27734375)"><path d="M19.64 0 C44.53 -1.75, 67.69 -1.05, 118.47 0 M19.64 0 C52.51 -0.85, 83.96 -0.51, 118.47 0 M118.47 0 C129.79 -1.93, 138.63 7.95, 138.11 19.64 M118.47 0 C129.63 0.96, 140.19 7.7, 138.11 19.64 M138.11 19.64 C139.77 33.71, 137.1 45.05, 138.11 58.92 M138.11 19.64 C137.2 29.98, 136.88 40.04, 138.11 58.92 M138.11 58.92 C139.76 73.01, 132.25 79.11, 118.47 78.55 M138.11 58.92 C137.02 71.34, 129.88 80.64, 118.47 78.55 M118.47 78.55 C84.84 79.31, 50.06 80.12, 19.64 78.55 M118.47 78.55 C86.14 77.53, 54.17 78.17, 19.64 78.55 M19.64 78.55 C6.96 78.18, -0.38 70.58, 0 58.92 M19.64 78.55 C6.54 77.49, 2.1 72.06, 0 58.92 M0 58.92 C-0.03 41.79, -1.46 27.98, 0 19.64 M0 58.92 C-0.75 46.19, 0.95 31.74, 0 19.64 M0 19.64 C-1.64 5.57, 8.2 1.73, 19.64 0 M0 19.64 C1.88 8.41, 6.47 -0.62, 19.64 0" stroke="#1e1e1e" stroke-width="2" fill="none"></path></g><g transform="translate(684.5391693115234 67.015625) rotate(0 42.32997131347656 25)"><text x="42.32997131347656" y="0" font-family="Segoe UI Emoji" font-size="20px" fill="#1e1e1e" text-anchor="middle" style="white-space: pre;" direction="ltr" dominant-baseline="text-before-edge">List</text><text x="42.32997131347656" y="25" font-family="Segoe UI Emoji" font-size="20px" fill="#1e1e1e" text-anchor="middle" style="white-space: pre;" direction="ltr" dominant-baseline="text-before-edge">Problems</text></g><g stroke-linecap="round" transform="translate(659.705078125 169.98828125) rotate(0 69.052734375 30)"><path d="M15 0 C54.67 0.15, 91.23 0.01, 123.11 0 M15 0 C52.9 -0.26, 92.73 -0.91, 123.11 0 M123.11 0 C135.02 -0.53, 139.25 3.4, 138.11 15 M123.11 0 C132.49 1.85, 138.81 4.45, 138.11 15 M138.11 15 C136.66 20.05, 136.4 25.87, 138.11 45 M138.11 15 C138.71 22.11, 138.66 26.92, 138.11 45 M138.11 45 C138.53 54.19, 134.11 59.41, 123.11 60 M138.11 45 C138.3 57.17, 132.41 60.55, 123.11 60 M123.11 60 C100.74 58.84, 75.76 59.43, 15 60 M123.11 60 C82.41 58.75, 44.34 58.68, 15 60 M15 60 C3.05 61.29, 0.78 56.41, 0 45 M15 60 C3.87 59.31, -1.35 54.65, 0 45 M0 45 C0.3 33.97, 1 24.93, 0 15 M0 45 C0.7 34.61, 0.8 24.26, 0 15 M0 15 C-0.38 5.84, 3.94 1.5, 15 0 M0 15 C-0.33 4.63, 4.42 1.73, 15 0" stroke="#1e1e1e" stroke-width="2" fill="none"></path></g><g transform="translate(691.8578338623047 174.98828125) rotate(0 36.89997863769531 25)"><text x="36.89997863769531" y="0" font-family="Segoe UI Emoji" font-size="20px" fill="#1e1e1e" text-anchor="middle" style="white-space: pre;" direction="ltr" dominant-baseline="text-before-edge">Get</text><text x="36.89997863769531" y="25" font-family="Segoe UI Emoji" font-size="20px" fill="#1e1e1e" text-anchor="middle" style="white-space: pre;" direction="ltr" dominant-baseline="text-before-edge">Problem</text></g><g stroke-linecap="round" transform="translate(968.6015625 84.69921875) rotate(0 98.67578125 60.83593749999994)"><path d="M105.79 0.42 C118.42 0.04, 133.44 3.07, 145.19 6.97 C156.94 10.87, 167.96 17.14, 176.31 23.81 C184.65 30.49, 191.95 38.88, 195.26 47.01 C198.57 55.15, 198.61 64.55, 196.17 72.63 C193.72 80.71, 188.19 88.92, 180.59 95.48 C172.98 102.04, 161.81 107.75, 150.53 111.97 C139.25 116.19, 126.07 119.53, 112.91 120.81 C99.76 122.09, 84.56 121.89, 71.61 119.65 C58.66 117.41, 45.69 112.64, 35.23 107.38 C24.77 102.13, 14.75 95.53, 8.86 88.13 C2.97 80.73, -0.01 71.43, -0.12 62.97 C-0.24 54.51, 3.02 45.12, 8.18 37.39 C13.33 29.67, 21.31 22.36, 30.79 16.62 C40.26 10.89, 51.11 5.77, 65.05 2.96 C78.98 0.15, 104.92 -0.39, 114.39 -0.24 C123.86 -0.08, 122.26 2.82, 121.87 3.91 M52.28 6.99 C63.14 2.46, 79.34 -0.59, 92.56 -0.93 C105.79 -1.27, 119.25 2.1, 131.63 4.97 C144.01 7.84, 156.93 10.69, 166.82 16.3 C176.71 21.9, 186.02 30.79, 190.96 38.58 C195.9 46.37, 196.93 55.03, 196.46 63.05 C195.99 71.06, 193.81 79.12, 188.15 86.67 C182.5 94.22, 172.96 102.95, 162.54 108.33 C152.12 113.7, 138.35 116.74, 125.63 118.92 C112.92 121.1, 99.52 122.64, 86.26 121.41 C73 120.18, 57.71 116.05, 46.09 111.53 C34.46 107.01, 23.76 101.2, 16.5 94.29 C9.24 87.38, 4.93 78.37, 2.52 70.09 C0.11 61.82, -0.95 52.38, 2.04 44.63 C5.03 36.88, 11.99 29.81, 20.44 23.59 C28.9 17.36, 47.04 9.81, 52.76 7.27 C58.47 4.74, 53.85 7.5, 54.74 8.4" stroke="#1e1e1e" stroke-width="2" fill="none"></path></g><g transform="translate(1030.6030510515493 120.51765230390899) rotate(0 36.89997863769531 25)"><text x="36.89997863769531" y="0" font-family="Segoe UI Emoji" font-size="20px" fill="#1e1e1e" text-anchor="middle" style="white-space: pre;" direction="ltr" dominant-baseline="text-before-edge">Problem</text><text x="36.89997863769531" y="25" font-family="Segoe UI Emoji" font-size="20px" fill="#1e1e1e" text-anchor="middle" style="white-space: pre;" direction="ltr" dominant-baseline="text-before-edge">Store</text></g><g stroke-linecap="round"><g transform="translate(125.39863590731045 438.13653132870957) rotate(0 24.421775796344775 -3.7739318229189394)"><path d="M0.43 0.1 C8.57 -1.26, 40.33 -6.36, 48.35 -7.6 M-0.01 -0.33 C8.33 -1.36, 41.32 -5.6, 49.33 -6.92" stroke="#1e1e1e" stroke-width="2" fill="none"></path></g><g transform="translate(125.39863590731045 438.13653132870957) rotate(0 24.421775796344775 -3.7739318229189394)"><path d="M27.54 4.75 C32.39 1.23, 36.85 -0.95, 49.33 -6.92 M27.54 4.75 C35.23 1, 42.86 -3.66, 49.33 -6.92" stroke="#1e1e1e" stroke-width="2" fill="none"></path></g><g transform="translate(125.39863590731045 438.13653132870957) rotate(0 24.421775796344775 -3.7739318229189394)"><path d="M25.14 -11.98 C30.58 -11.88, 35.56 -10.44, 49.33 -6.92 M25.14 -11.98 C33.62 -10.02, 42.08 -8.96, 49.33 -6.92" stroke="#1e1e1e" stroke-width="2" fill="none"></path></g></g><mask></mask><g stroke-linecap="round"><g transform="translate(803.2955198037898 91.80107499042674) rotate(0 84.80885249320363 9.770410684184682)"><path d="M0 0 C44.63 3.36, 88.25 9.17, 169.62 19.54 M0 0 C52.76 4.75, 105.5 11.11, 169.62 19.54" stroke="#1e1e1e" stroke-width="2" fill="none"></path></g><g transform="translate(803.2955198037898 91.80107499042674) rotate(0 84.80885249320363 9.770410684184682)"><path d="M140.35 26.13 C149.2 24.19, 156.86 23.3, 169.62 19.54 M140.35 26.13 C149.07 23.38, 157.93 21.56, 169.62 19.54" stroke="#1e1e1e" stroke-width="2" fill="none"></path></g><g transform="translate(803.2955198037898 91.80107499042674) rotate(0 84.80885249320363 9.770410684184682)"><path d="M142.96 5.78 C151 9.08, 158 13.4, 169.62 19.54 M142.96 5.78 C150.99 9.4, 159.02 13.95, 169.62 19.54" stroke="#1e1e1e" stroke-width="2" fill="none"></path></g></g><mask></mask><g stroke-linecap="round"><g transform="translate(804.6567344899863 196.8189162757866) rotate(0 81.21308303330454 -14.743678676905773)"><path d="M0 0 C39.41 -6.25, 82.59 -16.29, 162.43 -29.49 M0 0 C56.52 -9.09, 112.38 -18.51, 162.43 -29.49" stroke="#1e1e1e" stroke-width="2" fill="none"></path></g><g transform="translate(804.6567344899863 196.8189162757866) rotate(0 81.21308303330454 -14.743678676905773)"><path d="M136.86 -13.79 C141.46 -16.79, 149.91 -23.33, 162.43 -29.49 M136.86 -13.79 C146.45 -19.42, 155.41 -24.12, 162.43 -29.49" stroke="#1e1e1e" stroke-width="2" fill="none"></path></g><g transform="translate(804.6567344899863 196.8189162757866) rotate(0 81.21308303330454 -14.743678676905773)"><path d="M132.75 -33.9 C138.28 -31.79, 147.78 -33.22, 162.43 -29.49 M132.75 -33.9 C143.7 -32.6, 154.07 -30.41, 162.43 -29.49" stroke="#1e1e1e" stroke-width="2" fill="none"></path></g></g><mask></mask><g stroke-linecap="round" transform="translate(1188.1171875 393) rotate(0 98.67578125 113)"><path d="M69.87 4.61 C80.45 -0.69, 95.19 -1.11, 107.09 0.05 C119 1.22, 130.54 5.66, 141.29 11.59 C152.04 17.52, 163.6 25.66, 171.61 35.62 C179.62 45.58, 185.13 58.65, 189.35 71.35 C193.57 84.05, 196.71 98.2, 196.92 111.83 C197.14 125.46, 194.58 140.49, 190.65 153.12 C186.71 165.75, 181 177.57, 173.31 187.61 C165.63 197.65, 155.28 207.08, 144.51 213.34 C133.75 219.6, 120.6 223.76, 108.72 225.19 C96.85 226.62, 84.7 225.3, 73.25 221.93 C61.79 218.56, 49.65 213.14, 39.98 204.97 C30.31 196.8, 21.64 184.45, 15.22 172.9 C8.81 161.36, 3.78 149.06, 1.51 135.69 C-0.76 122.33, -0.6 106.23, 1.58 92.72 C3.77 79.21, 8.44 66.22, 14.6 54.62 C20.77 43.02, 28.41 31.64, 38.57 23.1 C48.72 14.55, 68.77 6.34, 75.54 3.35 C82.32 0.37, 78.82 3.39, 79.22 5.19 M56 11.47 C65.18 4.28, 78.63 1.48, 90.52 0.16 C102.4 -1.15, 115.97 -0.63, 127.31 3.58 C138.66 7.79, 149.18 17.05, 158.6 25.45 C168.03 33.85, 177.59 42.74, 183.86 53.98 C190.14 65.23, 194.24 79.3, 196.24 92.93 C198.24 106.56, 198.25 122.41, 195.85 135.77 C193.44 149.14, 188.44 161.89, 181.82 173.1 C175.21 184.31, 165.75 194.62, 156.18 203.02 C146.6 211.43, 135.94 219.92, 124.36 223.53 C112.77 227.15, 98.48 226.35, 86.67 224.71 C74.86 223.07, 63.86 219.75, 53.49 213.71 C43.13 207.66, 32.27 198.55, 24.5 188.43 C16.72 178.32, 10.83 165.77, 6.82 153.03 C2.8 140.3, 0.29 125.81, 0.41 112.04 C0.53 98.27, 3.02 83.01, 7.54 70.4 C12.06 57.78, 19.16 46.52, 27.52 36.35 C35.88 26.19, 52.71 13.14, 57.7 9.4 C62.68 5.65, 57.09 11.74, 57.41 13.89" stroke="#1e1e1e" stroke-width="2" fill="none"></path></g><g transform="translate(1222.3586968035024 431.09693372592017) rotate(0 64.65995788574219 75)"><text x="64.65995788574219" y="0" font-family="Segoe UI Emoji" font-size="20px" fill="#1e1e1e" text-anchor="middle" style="white-space: pre;" direction="ltr" dominant-baseline="text-before-edge">Submission</text><text x="64.65995788574219" y="25" font-family="Segoe UI Emoji" font-size="20px" fill="#1e1e1e" text-anchor="middle" style="white-space: pre;" direction="ltr" dominant-baseline="text-before-edge">Store</text><text x="64.65995788574219" y="50" font-family="Segoe UI Emoji" font-size="20px" fill="#1e1e1e" text-anchor="middle" style="white-space: pre;" direction="ltr" dominant-baseline="text-before-edge"></text><text x="64.65995788574219" y="75" font-family="Segoe UI Emoji" font-size="20px" fill="#1e1e1e" text-anchor="middle" style="white-space: pre;" direction="ltr" dominant-baseline="text-before-edge">Keep outputs</text><text x="64.65995788574219" y="100" font-family="Segoe UI Emoji" font-size="20px" fill="#1e1e1e" text-anchor="middle" style="white-space: pre;" direction="ltr" dominant-baseline="text-before-edge">here or in</text><text x="64.65995788574219" y="125" font-family="Segoe UI Emoji" font-size="20px" fill="#1e1e1e" text-anchor="middle" style="white-space: pre;" direction="ltr" dominant-baseline="text-before-edge">blob store</text></g><g stroke-linecap="round" transform="translate(593.591796875 457.6953125) rotate(0 69.052734375 30)"><path d="M15 0 C55.46 -1.16, 94.09 0.74, 123.11 0 M15 0 C53.77 1.31, 91.91 -0.12, 123.11 0 M123.11 0 C131.59 -0.93, 140.03 4.3, 138.11 15 M123.11 0 C134.37 0.4, 138.19 5.88, 138.11 15 M138.11 15 C136.72 24.32, 138.23 39.09, 138.11 45 M138.11 15 C138.67 23.42, 138.04 30.2, 138.11 45 M138.11 45 C137.23 54.4, 135.01 59.94, 123.11 60 M138.11 45 C139.51 53.41, 132.54 59.89, 123.11 60 M123.11 60 C101.57 59.02, 79.16 57.67, 15 60 M123.11 60 C99.99 60.81, 78.3 61.27, 15 60 M15 60 C3.63 60.91, 1.49 54.46, 0 45 M15 60 C5.38 60.32, 0.06 54.6, 0 45 M0 45 C0.24 33.21, 1.47 22.97, 0 15 M0 45 C-0.59 36.42, 0.41 29.86, 0 15 M0 15 C-1.94 3.59, 6.48 -1.03, 15 0 M0 15 C0.33 6.34, 2.73 -0.93, 15 0" stroke="#1e1e1e" stroke-width="2" fill="none"></path></g><g transform="translate(611.7645797729492 462.6953125) rotate(0 50.87995147705078 25)"><text x="50.87995147705078" y="0" font-family="Segoe UI Emoji" font-size="20px" fill="#1e1e1e" text-anchor="middle" style="white-space: pre;" direction="ltr" dominant-baseline="text-before-edge">Create</text><text x="50.87995147705078" y="25" font-family="Segoe UI Emoji" font-size="20px" fill="#1e1e1e" text-anchor="middle" style="white-space: pre;" direction="ltr" dominant-baseline="text-before-edge">Submission</text></g><g mask="url(#mask-hYMZDEuFV5uMVnUWRtDzI)" stroke-linecap="round"><g transform="translate(735.1811065124173 490.2574420464009) rotate(0 228.76773097254284 38.28212012118797)"><path d="M0 0 C82.01 -0.1, 166.54 0.62, 221.48 -0.68 M0 0 C51.62 1.75, 105.04 1.73, 221.48 -0.68 M221.48 -0.68 C288.3 21.94, 355.16 43.89, 457.54 77.25 M221.48 -0.68 C296.73 25.96, 371.56 50.38, 457.54 77.25" stroke="#1e1e1e" stroke-width="2" fill="none"></path></g><g transform="translate(735.1811065124173 490.2574420464009) rotate(0 228.76773097254284 38.28212012118797)"><path d="M427.56 78.52 C437.16 77.83, 449.67 78.48, 457.54 77.25 M427.56 78.52 C433.93 78.9, 442.38 78.76, 457.54 77.25" stroke="#1e1e1e" stroke-width="2" fill="none"></path></g><g transform="translate(735.1811065124173 490.2574420464009) rotate(0 228.76773097254284 38.28212012118797)"><path d="M433.76 58.96 C440.97 65.63, 451.15 73.65, 457.54 77.25 M433.76 58.96 C438.84 63.9, 445.83 68.37, 457.54 77.25" stroke="#1e1e1e" stroke-width="2" fill="none"></path></g></g><mask id="mask-hYMZDEuFV5uMVnUWRtDzI"><rect x="0" y="0" fill="#fff" width="1292.716568457503" height="668.1881288815787"></rect><rect x="870.4963150024414" y="464.57421875" fill="#000" width="172.3198699951172" height="50" opacity="1"></rect></mask><g transform="translate(870.4963150024414 464.57421875) rotate(0 93.4525224825187 63.96534341758888)"><text x="86.1599349975586" y="0" font-family="Segoe UI Emoji" font-size="20px" fill="#1e1e1e" text-anchor="middle" style="white-space: pre;" direction="ltr" dominant-baseline="text-before-edge">1. Create </text><text x="86.1599349975586" y="25" font-family="Segoe UI Emoji" font-size="20px" fill="#1e1e1e" text-anchor="middle" style="white-space: pre;" direction="ltr" dominant-baseline="text-before-edge">Submission  Entry</text></g><g stroke-linecap="round" transform="translate(481.82421875 733.64453125) rotate(0 206.890625 201.5)"><path d="M113.15 22.65 C127.29 11.71, 147.97 6.54, 166.26 3.02 C184.54 -0.49, 204.07 0.11, 222.86 1.57 C241.64 3.03, 261.56 5.62, 278.94 11.78 C296.32 17.94, 312.05 27.71, 327.13 38.52 C342.22 49.33, 357.64 62.45, 369.44 76.66 C381.24 90.86, 390.94 107.06, 397.95 123.76 C404.96 140.47, 409.11 158.95, 411.5 176.89 C413.89 194.83, 414.81 213.58, 412.29 231.39 C409.77 249.21, 404.07 267.25, 396.36 283.79 C388.66 300.32, 378.07 316.69, 366.08 330.59 C354.1 344.5, 339.9 356.86, 324.45 367.21 C309 377.57, 290.81 386.82, 273.39 392.74 C255.98 398.65, 238.45 401.86, 219.98 402.71 C201.51 403.56, 180.73 401.85, 162.56 397.83 C144.38 393.81, 127.28 386.93, 110.92 378.58 C94.57 370.24, 77.89 360.03, 64.41 347.75 C50.94 335.47, 39.67 320.41, 30.07 304.91 C20.48 289.42, 11.89 272.34, 6.84 254.78 C1.79 237.23, -0.49 217.83, -0.23 199.59 C0.03 181.34, 3.18 162.57, 8.4 145.3 C13.62 128.03, 21.23 111.19, 31.08 95.95 C40.94 80.71, 53.32 66.43, 67.52 53.85 C81.73 41.26, 107.39 25.65, 116.31 20.44 C125.24 15.23, 119.6 19.53, 121.08 22.59 M282.46 14.09 C300.23 17.61, 316.66 30.1, 331.4 40.98 C346.13 51.85, 359.36 64.88, 370.86 79.32 C382.37 93.75, 393.73 111.01, 400.44 127.6 C407.15 144.19, 409.48 161.19, 411.14 178.84 C412.79 196.49, 413.41 215.23, 410.36 233.49 C407.31 251.75, 400.83 272.02, 392.85 288.4 C384.87 304.78, 374.44 318.48, 362.48 331.76 C350.52 345.04, 336.65 358.03, 321.07 368.07 C305.48 378.11, 286.7 386.46, 268.99 392.01 C251.28 397.56, 233.34 400.4, 214.83 401.35 C196.32 402.29, 175.92 401.54, 157.94 397.68 C139.96 393.81, 122.88 386.92, 106.95 378.16 C91.01 369.4, 75.83 358.05, 62.34 345.13 C48.84 332.21, 35.58 316.51, 25.97 300.66 C16.37 284.81, 9.2 267.45, 4.71 250.02 C0.22 232.6, -1.81 213.98, -0.96 196.11 C-0.11 178.25, 4.14 160.11, 9.82 142.82 C15.5 125.54, 23.07 108.07, 33.09 92.4 C43.12 76.72, 56.22 60.68, 69.98 48.79 C83.74 36.9, 99.08 28.73, 115.64 21.06 C132.2 13.39, 150.86 6.36, 169.35 2.77 C187.83 -0.82, 207.6 -2.43, 226.55 -0.48 C245.5 1.46, 274.25 11.53, 283.06 14.46 C291.86 17.39, 280.92 14, 279.4 17.08" stroke="#1e1e1e" stroke-width="2" fill="none"></path></g><g transform="translate(551.6711866601004 797.6625148409107) rotate(0 137.24989318847656 137.5)"><text x="137.24989318847656" y="0" font-family="Segoe UI Emoji" font-size="20px" fill="#1e1e1e" text-anchor="middle" style="white-space: pre;" direction="ltr" dominant-baseline="text-before-edge">Runners/</text><text x="137.24989318847656" y="25" font-family="Segoe UI Emoji" font-size="20px" fill="#1e1e1e" text-anchor="middle" style="white-space: pre;" direction="ltr" dominant-baseline="text-before-edge">Workers/</text><text x="137.24989318847656" y="50" font-family="Segoe UI Emoji" font-size="20px" fill="#1e1e1e" text-anchor="middle" style="white-space: pre;" direction="ltr" dominant-baseline="text-before-edge">Serverless Funcs/</text><text x="137.24989318847656" y="75" font-family="Segoe UI Emoji" font-size="20px" fill="#1e1e1e" text-anchor="middle" style="white-space: pre;" direction="ltr" dominant-baseline="text-before-edge">Docker Containers</text><text x="137.24989318847656" y="100" font-family="Segoe UI Emoji" font-size="20px" fill="#1e1e1e" text-anchor="middle" style="white-space: pre;" direction="ltr" dominant-baseline="text-before-edge"></text><text x="137.24989318847656" y="125" font-family="Segoe UI Emoji" font-size="20px" fill="#1e1e1e" text-anchor="middle" style="white-space: pre;" direction="ltr" dominant-baseline="text-before-edge"></text><text x="137.24989318847656" y="150" font-family="Segoe UI Emoji" font-size="20px" fill="#1e1e1e" text-anchor="middle" style="white-space: pre;" direction="ltr" dominant-baseline="text-before-edge">[Java][Python][C]</text><text x="137.24989318847656" y="175" font-family="Segoe UI Emoji" font-size="20px" fill="#1e1e1e" text-anchor="middle" style="white-space: pre;" direction="ltr" dominant-baseline="text-before-edge">[Other Langs/Envs]</text><text x="137.24989318847656" y="200" font-family="Segoe UI Emoji" font-size="20px" fill="#1e1e1e" text-anchor="middle" style="white-space: pre;" direction="ltr" dominant-baseline="text-before-edge"></text><text x="137.24989318847656" y="225" font-family="Segoe UI Emoji" font-size="20px" fill="#1e1e1e" text-anchor="middle" style="white-space: pre;" direction="ltr" dominant-baseline="text-before-edge">Ensure Horizontal Scaling as</text><text x="137.24989318847656" y="250" font-family="Segoe UI Emoji" font-size="20px" fill="#1e1e1e" text-anchor="middle" style="white-space: pre;" direction="ltr" dominant-baseline="text-before-edge">CPU bound</text></g><g mask="url(#mask-8Sgn6lGOLhl9KN7qnkEId)" stroke-linecap="round"><g transform="translate(681.9677271346716 526.7385663460427) rotate(0 22.67039809750588 99.55109962785576)"><path d="M0 0 C12.8 46.22, 22.63 89.32, 45.34 199.1 M0 0 C16.38 71.32, 32.64 142.84, 45.34 199.1" stroke="#1e1e1e" stroke-width="2" fill="none"></path></g><g transform="translate(681.9677271346716 526.7385663460427) rotate(0 22.67039809750588 99.55109962785576)"><path d="M29.11 173.87 C34.17 180.41, 37.33 183.73, 45.34 199.1 M29.11 173.87 C34.71 182.74, 40.54 191.93, 45.34 199.1" stroke="#1e1e1e" stroke-width="2" fill="none"></path></g><g transform="translate(681.9677271346716 526.7385663460427) rotate(0 22.67039809750588 99.55109962785576)"><path d="M49.13 169.34 C49.67 176.71, 48.29 181.07, 45.34 199.1 M49.13 169.34 C47.56 179.76, 46.21 190.57, 45.34 199.1" stroke="#1e1e1e" stroke-width="2" fill="none"></path></g></g><mask id="mask-8Sgn6lGOLhl9KN7qnkEId"><rect x="0" y="0" fill="#fff" width="827.3085233296833" height="825.8407656017542"></rect><rect x="607.6481807741695" y="576.2896659738985" fill="#000" width="193.97988891601562" height="100" opacity="1"></rect></mask><g transform="translate(607.6481807741698 576.2896659738987) rotate(0 96.98994445800781 49.99999999999994)"><text x="96.98994445800781" y="0" font-family="Segoe UI Emoji" font-size="20px" fill="#1e1e1e" text-anchor="middle" style="white-space: pre;" direction="ltr" dominant-baseline="text-before-edge">2. Submit to worker</text><text x="96.98994445800781" y="25" font-family="Segoe UI Emoji" font-size="20px" fill="#1e1e1e" text-anchor="middle" style="white-space: pre;" direction="ltr" dominant-baseline="text-before-edge">or Wait Sync</text><text x="96.98994445800781" y="50" font-family="Segoe UI Emoji" font-size="20px" fill="#1e1e1e" text-anchor="middle" style="white-space: pre;" direction="ltr" dominant-baseline="text-before-edge"></text><text x="96.98994445800781" y="75" font-family="Segoe UI Emoji" font-size="20px" fill="#1e1e1e" text-anchor="middle" style="white-space: pre;" direction="ltr" dominant-baseline="text-before-edge">V3 - Use queue</text></g><g mask="url(#mask-HN3sN66R9jTB1_uS6_hcw)" stroke-linecap="round"><g transform="translate(897.0746457669075 884.1063234641654) rotate(0 157.66452376675124 -142.52821556982082)"><path d="M0 0 C76.83 -69.92, 154.92 -138, 315.33 -285.06 M0 0 C94.21 -85.85, 188.75 -170.84, 315.33 -285.06" stroke="#1e1e1e" stroke-width="2" fill="none"></path></g><g transform="translate(897.0746457669075 884.1063234641654) rotate(0 157.66452376675124 -142.52821556982082)"><path d="M301.27 -258.56 C302.92 -266.49, 308.95 -270.5, 315.33 -285.06 M301.27 -258.56 C304.69 -265.86, 310.41 -274.24, 315.33 -285.06" stroke="#1e1e1e" stroke-width="2" fill="none"></path></g><g transform="translate(897.0746457669075 884.1063234641654) rotate(0 157.66452376675124 -142.52821556982082)"><path d="M287.52 -273.79 C292.4 -278, 301.78 -278.3, 315.33 -285.06 M287.52 -273.79 C294.93 -276.7, 304.74 -280.54, 315.33 -285.06" stroke="#1e1e1e" stroke-width="2" fill="none"></path></g></g><mask id="mask-HN3sN66R9jTB1_uS6_hcw"><rect x="0" y="0" fill="#fff" width="1312.40369330041" height="1269.1627546038071"></rect><rect x="979.7892488793618" y="704.0781078943446" fill="#000" width="149.89984130859375" height="75" opacity="1"></rect></mask><g transform="translate(979.7892488793618 704.0781078943446) rotate(0 74.94992065429688 37.49999999999994)"><text x="74.94992065429688" y="0" font-family="Segoe UI Emoji" font-size="20px" fill="#1e1e1e" text-anchor="middle" style="white-space: pre;" direction="ltr" dominant-baseline="text-before-edge">3</text><text x="74.94992065429688" y="25" font-family="Segoe UI Emoji" font-size="20px" fill="#1e1e1e" text-anchor="middle" style="white-space: pre;" direction="ltr" dominant-baseline="text-before-edge">Update</text><text x="74.94992065429688" y="50" font-family="Segoe UI Emoji" font-size="20px" fill="#1e1e1e" text-anchor="middle" style="white-space: pre;" direction="ltr" dominant-baseline="text-before-edge">Success/Failure</text></g><g mask="url(#mask-k1N3dzeIY9jifkTgJUze8)" stroke-linecap="round"><g transform="translate(705.249908982571 524.828125) rotate(0 241.6579538517509 36.1640625)"><path d="M-0.1 -0.56 C43.78 11.57, 182.11 63.93, 262.87 72.57 C343.64 81.22, 447.56 54.98, 484.48 51.3 M-1.61 1.76 C42.2 13.52, 181.27 62.66, 262.26 70.58 C343.25 78.49, 447.77 52.44, 484.32 49.25" stroke="#1e1e1e" stroke-width="2" fill="none"></path></g><g transform="translate(705.249908982571 524.828125) rotate(0 241.6579538517509 36.1640625)"><path d="M458.02 63.68 C464.08 60.93, 472.4 57.98, 484.32 49.25 M458.02 63.68 C467.58 57.8, 475.45 52.89, 484.32 49.25" stroke="#1e1e1e" stroke-width="2" fill="none"></path></g><g transform="translate(705.249908982571 524.828125) rotate(0 241.6579538517509 36.1640625)"><path d="M454.89 43.4 C461.76 46.03, 470.9 48.46, 484.32 49.25 M454.89 43.4 C465.72 44.56, 474.67 46.68, 484.32 49.25" stroke="#1e1e1e" stroke-width="2" fill="none"></path></g></g><mask id="mask-k1N3dzeIY9jifkTgJUze8"><rect x="0" y="0" fill="#fff" width="1288.5658166860728" height="697.15625"></rect><rect x="866.432243347168" y="572.15625" fill="#000" width="202.11988830566406" height="50" opacity="1"></rect></mask><g transform="translate(866.432243347168 572.15625) rotate(0 80.24890369119265 -10.45231089722921)"><text x="101.05994415283203" y="0" font-family="Segoe UI Emoji" font-size="20px" fill="#1e1e1e" text-anchor="middle" style="white-space: pre;" direction="ltr" dominant-baseline="text-before-edge">4</text><text x="101.05994415283203" y="25" font-family="Segoe UI Emoji" font-size="20px" fill="#1e1e1e" text-anchor="middle" style="white-space: pre;" direction="ltr" dominant-baseline="text-before-edge">Poll Status/Timeout</text></g><g mask="url(#mask-3-CjscRlQRsa9NVTEC-4C)" stroke-linecap="round"><g transform="translate(369.40234375 489.4170694313931) rotate(0 107.8193359375 1.3046034386692327)"><path d="M-0.33 0.82 C35.61 1.32, 179.91 1.62, 215.79 1.82 M1.7 0.21 C37.48 0.95, 178.96 2.47, 214.92 2.94" stroke="#1e1e1e" stroke-width="2" fill="none"></path></g><g transform="translate(369.40234375 489.4170694313931) rotate(0 107.8193359375 1.3046034386692327)"><path d="M186.61 12.87 C196.97 10.07, 203.18 5.54, 214.92 2.94 M186.61 12.87 C193.73 11.18, 200.85 6.75, 214.92 2.94" stroke="#1e1e1e" stroke-width="2" fill="none"></path></g><g transform="translate(369.40234375 489.4170694313931) rotate(0 107.8193359375 1.3046034386692327)"><path d="M186.85 -7.65 C196.93 -4, 203.07 -2.09, 214.92 2.94 M186.85 -7.65 C193.78 -4.17, 200.84 -3.43, 214.92 2.94" stroke="#1e1e1e" stroke-width="2" fill="none"></path></g></g><mask id="mask-3-CjscRlQRsa9NVTEC-4C"><rect x="0" y="0" fill="#fff" width="685.041015625" height="592.0262763087316"></rect><rect x="470.58168029785156" y="478.2216728700622" fill="#000" width="13.279998779296875" height="25" opacity="1"></rect></mask><g transform="translate(470.58168029785156 478.2216728700623) rotate(0 6.5508281864226205 12.77160550747999)"><text x="6.6399993896484375" y="0" font-family="Segoe UI Emoji" font-size="20px" fill="#1e1e1e" text-anchor="middle" style="white-space: pre;" direction="ltr" dominant-baseline="text-before-edge">0</text></g><g mask="url(#mask-HfY4baJq-7qMIP3DGshQl)" stroke-linecap="round"><g transform="translate(585.3125 509.87496403111606) rotate(0 -105.9140625 59.496804266759284)"><path d="M-0.49 0.93 C-35.62 20.84, -175.47 99.2, -210.83 118.85 M1.45 0.37 C-33.75 20.53, -175.97 100.36, -211.25 120.32" stroke="#1e1e1e" stroke-width="2" fill="none"></path></g><g transform="translate(585.3125 509.87496403111606) rotate(0 -105.9140625 59.496804266759284)"><path d="M-191.73 97.54 C-196.09 105.88, -203.66 109.56, -211.25 120.32 M-191.73 97.54 C-198.46 103.32, -203.36 111.45, -211.25 120.32" stroke="#1e1e1e" stroke-width="2" fill="none"></path></g><g transform="translate(585.3125 509.87496403111606) rotate(0 -105.9140625 59.496804266759284)"><path d="M-181.65 115.42 C-188.91 118.42, -199.47 116.79, -211.25 120.32 M-181.65 115.42 C-191.14 115.96, -198.96 118.91, -211.25 120.32" stroke="#1e1e1e" stroke-width="2" fill="none"></path></g></g><mask id="mask-HfY4baJq-7qMIP3DGshQl"><rect x="0" y="0" fill="#fff" width="897.140625" height="728.8685725646346"></rect><rect x="424.5184860229492" y="519.3717682978755" fill="#000" width="109.75990295410156" height="100" opacity="1"></rect></mask><g transform="translate(424.5184860229492 519.3717682978754) rotate(0 55.892646636730035 50.848052878463534)"><text x="54.87995147705078" y="0" font-family="Segoe UI Emoji" font-size="20px" fill="#1e1e1e" text-anchor="middle" style="white-space: pre;" direction="ltr" dominant-baseline="text-before-edge">5</text><text x="54.87995147705078" y="25" font-family="Segoe UI Emoji" font-size="20px" fill="#1e1e1e" text-anchor="middle" style="white-space: pre;" direction="ltr" dominant-baseline="text-before-edge">Return </text><text x="54.87995147705078" y="50" font-family="Segoe UI Emoji" font-size="20px" fill="#1e1e1e" text-anchor="middle" style="white-space: pre;" direction="ltr" dominant-baseline="text-before-edge">Submission </text><text x="54.87995147705078" y="75" font-family="Segoe UI Emoji" font-size="20px" fill="#1e1e1e" text-anchor="middle" style="white-space: pre;" direction="ltr" dominant-baseline="text-before-edge">Result</text></g><g stroke-linecap="round" transform="translate(610.0546875 279.193359375) rotate(0 130.94921875 69.68750000000003)"><path d="M32 0 C107.46 1.63, 185.08 0.74, 229.9 0 M32 0 C72.63 -1.95, 114.7 -2.51, 229.9 0 M229.9 0 C252.03 -1.91, 259.97 10.24, 261.9 32 M229.9 0 C251.8 -0.25, 262.71 10.17, 261.9 32 M261.9 32 C263.45 47.94, 262.14 64.66, 261.9 107.38 M261.9 32 C261.8 47.67, 260.63 62.9, 261.9 107.38 M261.9 107.38 C260.46 128.11, 252.97 137.64, 229.9 139.38 M261.9 107.38 C261.03 129.4, 253.3 139.21, 229.9 139.38 M229.9 139.38 C166.85 140.18, 100.69 138.13, 32 139.38 M229.9 139.38 C178.46 139.53, 125.15 139.9, 32 139.38 M32 139.38 C11.2 140.87, 0.78 130.18, 0 107.38 M32 139.38 C11.49 140.56, -1.13 126.82, 0 107.38 M0 107.38 C-1.9 85.15, 0.54 60.34, 0 32 M0 107.38 C-0.15 90.98, 0.55 74.81, 0 32 M0 32 C1.36 10.1, 9.72 0.22, 32 0 M0 32 C-1.58 12.31, 11.32 -2.14, 32 0" stroke="#1e1e1e" stroke-width="2" fill="none"></path></g><g transform="translate(643.6139907836914 284.193359375) rotate(0 97.3899154663086 12.5)"><text x="97.3899154663086" y="0" font-family="Segoe UI Emoji" font-size="20px" fill="#1e1e1e" text-anchor="middle" style="white-space: pre;" direction="ltr" dominant-baseline="text-before-edge">Leaderboard Service</text></g><g stroke-linecap="round" transform="translate(639.439453125 325.72265625) rotate(0 99.09765625 39.27734375)"><path d="M19.64 0 C74.12 -0.16, 127.55 0.28, 178.56 0 M19.64 0 C56.74 1.44, 93.27 1.04, 178.56 0 M178.56 0 C193.33 -0.1, 196.57 5.83, 198.2 19.64 M178.56 0 C191.01 1.83, 196.9 7.63, 198.2 19.64 M198.2 19.64 C197.59 28.41, 196.38 35.95, 198.2 58.92 M198.2 19.64 C198.75 30, 197.62 41.97, 198.2 58.92 M198.2 58.92 C199.08 71.45, 192.68 79.19, 178.56 78.55 M198.2 58.92 C196.86 70, 190.08 77.14, 178.56 78.55 M178.56 78.55 C116.78 77.22, 54.02 79.2, 19.64 78.55 M178.56 78.55 C122.23 78.52, 63.71 77.26, 19.64 78.55 M19.64 78.55 C7.51 79.47, -1.24 70.25, 0 58.92 M19.64 78.55 C4.77 76.37, 0.65 71.4, 0 58.92 M0 58.92 C-1.24 47.15, 1.58 35.24, 0 19.64 M0 58.92 C-1.08 51.1, -0.85 41.66, 0 19.64 M0 19.64 C1.25 7.13, 4.91 -1.94, 19.64 0 M0 19.64 C1.36 4.46, 6.88 0.64, 19.64 0" stroke="#1e1e1e" stroke-width="2" fill="none"></path></g><g transform="translate(656.2571716308594 352.5) rotate(0 82.27993774414062 12.5)"><text x="82.27993774414062" y="0" font-family="Segoe UI Emoji" font-size="20px" fill="#1e1e1e" text-anchor="middle" style="white-space: pre;" direction="ltr" dominant-baseline="text-before-edge">Get Leaderboard</text></g><g stroke-linecap="round" transform="translate(1223.58203125 156.4296875) rotate(0 98.67578125 78)"><path d="M73.49 2.98 C84.49 -0.57, 99.49 -0.89, 112.07 0.49 C124.66 1.86, 137.94 6.09, 148.99 11.21 C160.05 16.34, 170.74 23.4, 178.39 31.25 C186.03 39.1, 191.81 48.74, 194.86 58.3 C197.91 67.86, 198.69 78.66, 196.69 88.62 C194.68 98.57, 189.36 109.28, 182.81 118.04 C176.26 126.79, 167.51 135.09, 157.4 141.15 C147.28 147.22, 134.33 152.09, 122.13 154.41 C109.92 156.73, 96.54 156.48, 84.17 155.06 C71.79 153.65, 58.82 151.12, 47.9 145.91 C36.97 140.7, 26.22 131.81, 18.61 123.78 C11 115.75, 5.14 107.2, 2.23 97.73 C-0.67 88.27, -0.87 76.82, 1.2 67.01 C3.27 57.2, 8.36 47.32, 14.65 38.86 C20.94 30.4, 26.84 22.76, 38.95 16.24 C51.07 9.73, 77.1 2.2, 87.35 -0.24 C97.6 -2.67, 100.3 0.15, 100.44 1.65 M130.99 4.25 C142.81 6.42, 154.45 12.58, 163.69 19.48 C172.92 26.38, 181.02 36.48, 186.4 45.65 C191.78 54.83, 195.17 64.68, 195.97 74.52 C196.77 84.37, 194.91 95.27, 191.19 104.74 C187.48 114.2, 181.81 124.24, 173.67 131.33 C165.54 138.42, 154.19 143.02, 142.38 147.3 C130.58 151.59, 115.4 156.49, 102.85 157.04 C90.31 157.59, 78.84 154.32, 67.11 150.6 C55.38 146.88, 42.27 141.05, 32.48 134.72 C22.68 128.38, 13.58 121.48, 8.34 112.57 C3.11 103.66, 1.61 91.17, 1.05 81.24 C0.5 71.31, 1.16 62.3, 5.01 53.01 C8.87 43.72, 15.88 32.86, 24.16 25.5 C32.44 18.14, 43.35 13.28, 54.7 8.86 C66.05 4.43, 79.67 -0.38, 92.26 -1.06 C104.84 -1.74, 123.85 3.74, 130.21 4.78 C136.58 5.83, 130.76 4.11, 130.45 5.22" stroke="#1e1e1e" stroke-width="2" fill="none"></path></g><g transform="translate(1257.6235436052602 184.2753585674493) rotate(0 64.85995483398438 50)"><text x="64.85995483398438" y="0" font-family="Segoe UI Emoji" font-size="20px" fill="#1e1e1e" text-anchor="middle" style="white-space: pre;" direction="ltr" dominant-baseline="text-before-edge">Competition</text><text x="64.85995483398438" y="25" font-family="Segoe UI Emoji" font-size="20px" fill="#1e1e1e" text-anchor="middle" style="white-space: pre;" direction="ltr" dominant-baseline="text-before-edge">Store</text><text x="64.85995483398438" y="50" font-family="Segoe UI Emoji" font-size="20px" fill="#1e1e1e" text-anchor="middle" style="white-space: pre;" direction="ltr" dominant-baseline="text-before-edge">Competitions,</text><text x="64.85995483398438" y="75" font-family="Segoe UI Emoji" font-size="20px" fill="#1e1e1e" text-anchor="middle" style="white-space: pre;" direction="ltr" dominant-baseline="text-before-edge">Participants</text></g><g stroke-linecap="round"><g transform="translate(365.984375 415.44140625) rotate(0 129.8708067637068 -30.224390026682187)"><path d="M-1.07 1.1 C42.19 -9.03, 216.3 -50.1, 259.67 -60.55 M0.57 0.63 C43.66 -9.32, 215.77 -48.81, 258.69 -59.07" stroke="#1e1e1e" stroke-width="2" fill="none"></path></g><g transform="translate(365.984375 415.44140625) rotate(0 129.8708067637068 -30.224390026682187)"><path d="M233.57 -42.67 C243.07 -47.58, 248.76 -53.48, 258.69 -59.07 M233.57 -42.67 C238.53 -46.11, 243.13 -49.75, 258.69 -59.07" stroke="#1e1e1e" stroke-width="2" fill="none"></path></g><g transform="translate(365.984375 415.44140625) rotate(0 129.8708067637068 -30.224390026682187)"><path d="M228.9 -62.65 C239.87 -61.4, 246.99 -61.18, 258.69 -59.07 M228.9 -62.65 C234.92 -62.02, 240.45 -61.62, 258.69 -59.07" stroke="#1e1e1e" stroke-width="2" fill="none"></path></g></g><mask></mask><g transform="translate(130.71484375 734.03125) rotate(0 109.6923828125 37.5)"><text x="0" y="0" font-family="Segoe UI Emoji" font-size="20px" fill="#1e1e1e" text-anchor="start" style="white-space: pre;" direction="ltr" dominant-baseline="text-before-edge">Serverless Funcs Cons</text><text x="0" y="25" font-family="Segoe UI Emoji" font-size="20px" fill="#1e1e1e" text-anchor="start" style="white-space: pre;" direction="ltr" dominant-baseline="text-before-edge">- Cold starts,</text><text x="0" y="50" font-family="Segoe UI Emoji" font-size="20px" fill="#1e1e1e" text-anchor="start" style="white-space: pre;" direction="ltr" dominant-baseline="text-before-edge">- Managing limits carefully</text></g><g transform="translate(132.69557189941406 935.84375) rotate(0 109.6923828125 50)"><text x="0" y="0" font-family="Segoe UI Emoji" font-size="20px" fill="#1e1e1e" text-anchor="start" style="white-space: pre;" direction="ltr" dominant-baseline="text-before-edge">Docker Cons</text><text x="0" y="25" font-family="Segoe UI Emoji" font-size="20px" fill="#1e1e1e" text-anchor="start" style="white-space: pre;" direction="ltr" dominant-baseline="text-before-edge">- More complicated</text><text x="0" y="50" font-family="Segoe UI Emoji" font-size="20px" fill="#1e1e1e" text-anchor="start" style="white-space: pre;" direction="ltr" dominant-baseline="text-before-edge">- Security tightening</text><text x="0" y="75" font-family="Segoe UI Emoji" font-size="20px" fill="#1e1e1e" text-anchor="start" style="white-space: pre;" direction="ltr" dominant-baseline="text-before-edge">- Managing limits carefully</text></g><g transform="translate(140.68775939941406 823.421875) rotate(0 87.1875 50)"><text x="0" y="0" font-family="Segoe UI Emoji" font-size="20px" fill="#1e1e1e" text-anchor="start" style="white-space: pre;" direction="ltr" dominant-baseline="text-before-edge">VM Cons</text><text x="0" y="25" font-family="Segoe UI Emoji" font-size="20px" fill="#1e1e1e" text-anchor="start" style="white-space: pre;" direction="ltr" dominant-baseline="text-before-edge">- Resource intensive</text><text x="0" y="50" font-family="Segoe UI Emoji" font-size="20px" fill="#1e1e1e" text-anchor="start" style="white-space: pre;" direction="ltr" dominant-baseline="text-before-edge">- Managing lifecycles</text><text x="0" y="75" font-family="Segoe UI Emoji" font-size="20px" fill="#1e1e1e" text-anchor="start" style="white-space: pre;" direction="ltr" dominant-baseline="text-before-edge">- Multi tenancy</text></g><g mask="url(#mask-VWFqGnh9OR5hFlJD7R0yz)" stroke-linecap="round"><g transform="translate(848.1311879132923 359.97464287644203) rotate(0 111.1320481625039 -29.049865945213952)"><path d="M0.65 1.07 C37.63 -8.69, 185.99 -47.71, 223.12 -57.67 M-0.47 0.59 C36.32 -9.62, 185.33 -49.85, 222.62 -59.56" stroke="#1e1e1e" stroke-width="2" fill="none"></path></g><g transform="translate(848.1311879132923 359.97464287644203) rotate(0 111.1320481625039 -29.049865945213952)"><path d="M198.01 -42.4 C209.51 -47.97, 218.28 -54.34, 222.62 -59.56 M198.01 -42.4 C203.82 -47.35, 210.85 -51.4, 222.62 -59.56" stroke="#1e1e1e" stroke-width="2" fill="none"></path></g><g transform="translate(848.1311879132923 359.97464287644203) rotate(0 111.1320481625039 -29.049865945213952)"><path d="M192.74 -62.23 C206.49 -59.9, 217.37 -58.34, 222.62 -59.56 M192.74 -62.23 C199.67 -62.26, 208.03 -61.34, 222.62 -59.56" stroke="#1e1e1e" stroke-width="2" fill="none"></path></g></g><mask id="mask-VWFqGnh9OR5hFlJD7R0yz"><rect x="0" y="0" fill="#fff" width="1170.3952842383" height="518.0743747668699"></rect><rect x="946.3432379068508" y="318.424776931228" fill="#000" width="25.839996337890625" height="25" opacity="1"></rect></mask><g transform="translate(946.3432379068508 318.42477693122805) rotate(0 13.109500177255768 12.30496285351461)"><text x="12.919998168945312" y="0" font-family="Segoe UI Emoji" font-size="20px" fill="#1e1e1e" text-anchor="middle" style="white-space: pre;" direction="ltr" dominant-baseline="text-before-edge">V2</text></g><g stroke-linecap="round"><g transform="translate(369.06640625 351.04296875) rotate(0 143.009765625 -81.0057404997739)"><path d="M-0.18 0.19 C47.29 -26.97, 237.3 -135.28, 285.11 -162.13 M-1.74 -0.75 C46.08 -27.8, 239.34 -133.68, 287.35 -160.65" stroke="#1e1e1e" stroke-width="2" fill="none"></path></g><g transform="translate(369.06640625 351.04296875) rotate(0 143.009765625 -81.0057404997739)"><path d="M267.66 -138.01 C274.23 -146.86, 280.12 -151.54, 287.35 -160.65 M267.66 -138.01 C275.05 -147.48, 283.57 -156.73, 287.35 -160.65" stroke="#1e1e1e" stroke-width="2" fill="none"></path></g><g transform="translate(369.06640625 351.04296875) rotate(0 143.009765625 -81.0057404997739)"><path d="M257.72 -155.96 C267.65 -158.95, 276.78 -157.79, 287.35 -160.65 M257.72 -155.96 C268.88 -158.35, 281.35 -160.47, 287.35 -160.65" stroke="#1e1e1e" stroke-width="2" fill="none"></path></g></g><mask></mask><g stroke-linecap="round"><g transform="translate(366.91015625 275.828125) rotate(0 140.142578125 -100.75597447529518)"><path d="M0 0 C100.25 -70.19, 199.89 -141.92, 280.29 -201.51 M0 0 C104.62 -76.53, 210.86 -152.48, 280.29 -201.51" stroke="#1e1e1e" stroke-width="2" fill="none"></path></g><g transform="translate(366.91015625 275.828125) rotate(0 140.142578125 -100.75597447529518)"><path d="M263.24 -176.83 C270.57 -183.61, 276.57 -192.49, 280.29 -201.51 M263.24 -176.83 C268.82 -186.3, 276.4 -195.77, 280.29 -201.51" stroke="#1e1e1e" stroke-width="2" fill="none"></path></g><g transform="translate(366.91015625 275.828125) rotate(0 140.142578125 -100.75597447529518)"><path d="M251.36 -193.56 C262.95 -194.38, 273.18 -197.31, 280.29 -201.51 M251.36 -193.56 C261.46 -196.77, 273.5 -199.95, 280.29 -201.51" stroke="#1e1e1e" stroke-width="2" fill="none"></path></g></g><mask></mask><g mask="url(#mask-HPr94c51nklpfYZzjWHRC)" stroke-linecap="round"><g transform="translate(846.7837090617884 379.53003056999916) rotate(0 173.76093532016955 34.81109002858713)"><path d="M0.22 0.2 C58.03 11.72, 289.76 57.76, 347.72 69.25 M-1.12 -0.74 C56.48 10.94, 288.78 58.77, 346.88 70.59" stroke="#1e1e1e" stroke-width="2" fill="none"></path></g><g transform="translate(846.7837090617884 379.53003056999916) rotate(0 173.76093532016955 34.81109002858713)"><path d="M317.2 74.98 C328.53 73.63, 338.56 72.45, 346.88 70.59 M317.2 74.98 C323.96 73.47, 331.6 73.43, 346.88 70.59" stroke="#1e1e1e" stroke-width="2" fill="none"></path></g><g transform="translate(846.7837090617884 379.53003056999916) rotate(0 173.76093532016955 34.81109002858713)"><path d="M321.32 54.88 C331.13 60.99, 339.64 67.25, 346.88 70.59 M321.32 54.88 C327.15 58.51, 333.74 63.61, 346.88 70.59" stroke="#1e1e1e" stroke-width="2" fill="none"></path></g></g><mask id="mask-HPr94c51nklpfYZzjWHRC"><rect x="0" y="0" fill="#fff" width="1294.3055797021275" height="549.1522106271734"></rect><rect x="907.4547243380125" y="389.3411205985862" fill="#000" width="226.17984008789062" height="50" opacity="1"></rect></mask><g transform="translate(907.4547243380125 389.34112059858626) rotate(0 112.63013922277389 25.109858794892233)"><text x="113.08992004394531" y="0" font-family="Segoe UI Emoji" font-size="20px" fill="#1e1e1e" text-anchor="middle" style="white-space: pre;" direction="ltr" dominant-baseline="text-before-edge">V1 - Full Join Query per</text><text x="113.08992004394531" y="25" font-family="Segoe UI Emoji" font-size="20px" fill="#1e1e1e" text-anchor="middle" style="white-space: pre;" direction="ltr" dominant-baseline="text-before-edge">Call</text></g><g stroke-linecap="round" transform="translate(1072.62890625 242.8203125) rotate(0 51.841796875 41.23046875)"><path d="M70.8 3.51 C79.26 5.57, 88.08 11.16, 93.44 17.22 C98.79 23.27, 102.32 32.36, 102.93 39.84 C103.54 47.32, 101.62 55.71, 97.1 62.1 C92.57 68.5, 84.17 74.8, 75.76 78.19 C67.35 81.59, 55.97 83.25, 46.63 82.48 C37.3 81.71, 27.01 78.12, 19.76 73.58 C12.52 69.04, 6.35 62.19, 3.18 55.23 C0.01 48.28, -1.56 39.22, 0.73 31.87 C3.03 24.52, 10.16 16.45, 16.95 11.14 C23.73 5.84, 31.6 1.04, 41.44 0.04 C51.28 -0.96, 69.44 3.96, 75.99 5.14 C82.53 6.33, 81.24 6.51, 80.73 7.16 M74.33 4.14 C82.46 6.43, 89.71 13.06, 94.44 19.41 C99.18 25.77, 102.68 34.81, 102.74 42.29 C102.8 49.78, 99.96 58.07, 94.8 64.31 C89.63 70.54, 80.36 76.66, 71.76 79.71 C63.15 82.75, 52.4 83.83, 43.16 82.58 C33.92 81.32, 23 77.41, 16.32 72.16 C9.64 66.9, 5.33 58.4, 3.08 51.04 C0.84 43.67, 0.09 34.69, 2.83 27.98 C5.57 21.27, 12.59 15.15, 19.53 10.79 C26.46 6.43, 35.46 3.14, 44.45 1.82 C53.43 0.49, 68.69 2.59, 73.43 2.85 C78.16 3.11, 73.12 2.35, 72.88 3.36" stroke="#1e1e1e" stroke-width="2" fill="none"></path></g><g transform="translate(1096.1830426405575 271.396437205375) rotate(0 28.129974365234375 12.5)"><text x="28.129974365234375" y="0" font-family="Segoe UI Emoji" font-size="20px" fill="#1e1e1e" text-anchor="middle" style="white-space: pre;" direction="ltr" dominant-baseline="text-before-edge">Cache</text></g><g stroke-linecap="round"><g transform="translate(1184.08203125 277.50390625) rotate(0 20.3984375 -8.923828125)"><path d="M0 0 C9.65 -4.91, 18.98 -7.87, 40.8 -17.85 M0 0 C15.16 -6.68, 29.51 -12.96, 40.8 -17.85" stroke="#1e1e1e" stroke-width="2" fill="none"></path></g><g transform="translate(1184.08203125 277.50390625) rotate(0 20.3984375 -8.923828125)"><path d="M24.64 -2.52 C28.32 -6.79, 31.68 -9.15, 40.8 -17.85 M24.64 -2.52 C30.9 -8.41, 36.36 -13.78, 40.8 -17.85" stroke="#1e1e1e" stroke-width="2" fill="none"></path></g><g transform="translate(1184.08203125 277.50390625) rotate(0 20.3984375 -8.923828125)"><path d="M18.57 -16.49 C23.73 -17.38, 28.56 -16.35, 40.8 -17.85 M18.57 -16.49 C26.96 -17.31, 34.61 -17.64, 40.8 -17.85" stroke="#1e1e1e" stroke-width="2" fill="none"></path></g></g><mask></mask><g transform="translate(1248.22265625 755.390625) rotate(0 149.150390625 150)"><text x="0" y="0" font-family="Segoe UI Emoji" font-size="20px" fill="#1e1e1e" text-anchor="start" style="white-space: pre;" direction="ltr" dominant-baseline="text-before-edge">CreateSubmission for a </text><text x="0" y="25" font-family="Segoe UI Emoji" font-size="20px" fill="#1e1e1e" text-anchor="start" style="white-space: pre;" direction="ltr" dominant-baseline="text-before-edge">competition problem:</text><text x="0" y="50" font-family="Segoe UI Emoji" font-size="20px" fill="#1e1e1e" text-anchor="start" style="white-space: pre;" direction="ltr" dominant-baseline="text-before-edge">1. Run a submission as usual</text><text x="0" y="75" font-family="Segoe UI Emoji" font-size="20px" fill="#1e1e1e" text-anchor="start" style="white-space: pre;" direction="ltr" dominant-baseline="text-before-edge">2. Get the participant</text><text x="0" y="100" font-family="Segoe UI Emoji" font-size="20px" fill="#1e1e1e" text-anchor="start" style="white-space: pre;" direction="ltr" dominant-baseline="text-before-edge">3. Update the totalSubmissions, </text><text x="0" y="125" font-family="Segoe UI Emoji" font-size="20px" fill="#1e1e1e" text-anchor="start" style="white-space: pre;" direction="ltr" dominant-baseline="text-before-edge">   numSuccessful, totalRuntime</text><text x="0" y="150" font-family="Segoe UI Emoji" font-size="20px" fill="#1e1e1e" text-anchor="start" style="white-space: pre;" direction="ltr" dominant-baseline="text-before-edge">4. Save - Index on this should kick in</text><text x="0" y="175" font-family="Segoe UI Emoji" font-size="20px" fill="#1e1e1e" text-anchor="start" style="white-space: pre;" direction="ltr" dominant-baseline="text-before-edge">5. Alternatively in cache, </text><text x="0" y="200" font-family="Segoe UI Emoji" font-size="20px" fill="#1e1e1e" text-anchor="start" style="white-space: pre;" direction="ltr" dominant-baseline="text-before-edge">   leaderboard[compId] = list of</text><text x="0" y="225" font-family="Segoe UI Emoji" font-size="20px" fill="#1e1e1e" text-anchor="start" style="white-space: pre;" direction="ltr" dominant-baseline="text-before-edge">   participants ranked - since always</text><text x="0" y="250" font-family="Segoe UI Emoji" font-size="20px" fill="#1e1e1e" text-anchor="start" style="white-space: pre;" direction="ltr" dominant-baseline="text-before-edge">   sorted only need to insert in right</text><text x="0" y="275" font-family="Segoe UI Emoji" font-size="20px" fill="#1e1e1e" text-anchor="start" style="white-space: pre;" direction="ltr" dominant-baseline="text-before-edge">   order - say top 10</text></g></svg>