<svg version="1.1" xmlns="http://www.w3.org/2000/svg" viewBox="0 0 1105.146484375 579.203125" width="1105.146484375" height="579.203125">
  <!-- svg-source:excalidraw -->
  
  <defs>
    <style class="style-fonts">
      @font-face {
        font-family: "Virgil";
        src: url("https://unpkg.com/@excalidraw/excalidraw@undefined/dist/excalidraw-assets/Virgil.woff2");
      }
      @font-face {
        font-family: "Cascadia";
        src: url("https://unpkg.com/@excalidraw/excalidraw@undefined/dist/excalidraw-assets/Cascadia.woff2");
      }
      @font-face {
        font-family: "Assistant";
        src: url("https://unpkg.com/@excalidraw/excalidraw@undefined/dist/excalidraw-assets/Assistant-Regular.woff2");
      }
    </style>
    
  </defs>
  <rect x="0" y="0" width="1105.146484375" height="579.203125" fill="#ffffff"></rect><g stroke-linecap="round" transform="translate(10 189.9765625) rotate(0 113.041015625 47.8359375)"><path d="M23.92 0 C87.6 -0.02, 154.19 -2.67, 202.16 0 M23.92 0 C60.26 0.44, 97.11 -1.12, 202.16 0 M202.16 0 C219.47 1.97, 225.86 6.45, 226.08 23.92 M202.16 0 C218.26 1.38, 225.81 7.61, 226.08 23.92 M226.08 23.92 C224.42 34.51, 225.78 47.28, 226.08 71.75 M226.08 23.92 C225.73 40.28, 226 55.56, 226.08 71.75 M226.08 71.75 C227.4 87.9, 219.61 95.83, 202.16 95.67 M226.08 71.75 C224.77 85.96, 218.4 94.67, 202.16 95.67 M202.16 95.67 C161.48 93.61, 117.44 96.68, 23.92 95.67 M202.16 95.67 C158.72 94.9, 112.8 93.3, 23.92 95.67 M23.92 95.67 C9.46 94.79, -1.43 86.82, 0 71.75 M23.92 95.67 C8.79 93.7, -1.5 86.07, 0 71.75 M0 71.75 C-0.59 55.6, -1.09 40.13, 0 23.92 M0 71.75 C-0.42 59.82, -0.51 50.13, 0 23.92 M0 23.92 C1.16 6.41, 8.28 1.46, 23.92 0 M0 23.92 C-0.91 9.06, 6.75 0.6, 23.92 0" stroke="#1e1e1e" stroke-width="2" fill="none"></path></g><g transform="translate(48.461082458496094 225.3125) rotate(0 74.5799331665039 12.5)"><text x="74.5799331665039" y="0" font-family="Virgil, Segoe UI Emoji" font-size="20px" fill="#1e1e1e" text-anchor="middle" style="white-space: pre;" direction="ltr" dominant-baseline="text-before-edge">Browser/Device</text></g><g stroke-linecap="round" transform="translate(425.703125 76.98046875) rotate(0 115.93359375 51.314453125)"><path d="M25.66 0 C77.15 1.65, 130.42 1.7, 206.21 0 M25.66 0 C69.24 0.28, 112.83 0.27, 206.21 0 M206.21 0 C224.45 -0.02, 231.02 7.89, 231.87 25.66 M206.21 0 C225.35 -1.52, 230.78 8, 231.87 25.66 M231.87 25.66 C233.84 42, 232.24 58.43, 231.87 76.97 M231.87 25.66 C231.98 44.03, 232.49 60.93, 231.87 76.97 M231.87 76.97 C230.9 95.05, 221.33 101.64, 206.21 102.63 M231.87 76.97 C230.63 92.34, 223.87 101.84, 206.21 102.63 M206.21 102.63 C152.2 102.94, 103.54 102.92, 25.66 102.63 M206.21 102.63 C147.19 101.92, 87.73 103.51, 25.66 102.63 M25.66 102.63 C6.92 101.42, -0.37 93.28, 0 76.97 M25.66 102.63 C10.32 103.55, -1.03 94.39, 0 76.97 M0 76.97 C1.25 58.23, 0.99 41.71, 0 25.66 M0 76.97 C-0.12 65.73, 0.75 55.66, 0 25.66 M0 25.66 C0.08 8.96, 8.13 -1.19, 25.66 0 M0 25.66 C-0.34 6.9, 7.83 -0.54, 25.66 0" stroke="#1e1e1e" stroke-width="2" fill="none"></path></g><g transform="translate(492.4067611694336 115.794921875) rotate(0 49.229957580566406 12.5)"><text x="49.229957580566406" y="0" font-family="Virgil, Segoe UI Emoji" font-size="20px" fill="#1e1e1e" text-anchor="middle" style="white-space: pre;" direction="ltr" dominant-baseline="text-before-edge">Serve Ads</text></g><g stroke-linecap="round"><g transform="translate(242.02734375 217.05078125) rotate(0 88.453125 -47.275390625)"><path d="M0.3 -1.08 C29.66 -16.86, 146.46 -79.38, 175.95 -94.9 M-1 0.97 C28.74 -14.62, 148.55 -77.33, 178.16 -93.55" stroke="#1e1e1e" stroke-width="2" fill="none"></path></g><g transform="translate(242.02734375 217.05078125) rotate(0 88.453125 -47.275390625)"><path d="M20.31 -23.42 C12.84 -18.68, 8.42 -10.27, 0.3 -1.08 M20.31 -23.42 C13.7 -15.65, 6.2 -8.07, 0.3 -1.08" stroke="#1e1e1e" stroke-width="2" fill="none"></path></g><g transform="translate(242.02734375 217.05078125) rotate(0 88.453125 -47.275390625)"><path d="M29.99 -5.33 C19.83 -5.66, 12.67 -2.34, 0.3 -1.08 M29.99 -5.33 C20.29 -3.52, 9.59 -1.91, 0.3 -1.08" stroke="#1e1e1e" stroke-width="2" fill="none"></path></g><g transform="translate(242.02734375 217.05078125) rotate(0 88.453125 -47.275390625)"><path d="M158.12 -71.22 C162 -79.16, 168.86 -83.33, 178.16 -93.55 M158.12 -71.22 C164.93 -78.14, 170.63 -85.28, 178.16 -93.55" stroke="#1e1e1e" stroke-width="2" fill="none"></path></g><g transform="translate(242.02734375 217.05078125) rotate(0 88.453125 -47.275390625)"><path d="M148.46 -89.33 C155.03 -92.19, 164.61 -91.26, 178.16 -93.55 M148.46 -89.33 C158.36 -90.27, 167.24 -91.45, 178.16 -93.55" stroke="#1e1e1e" stroke-width="2" fill="none"></path></g></g><mask></mask><g stroke-linecap="round" transform="translate(422.41796875 290.44140625) rotate(0 121.48046875 44.794921875)"><path d="M22.4 0 C86.91 -3.72, 150.44 -2.85, 220.56 0 M22.4 0 C76.76 -0.36, 131.84 -0.02, 220.56 0 M220.56 0 C233.84 1.83, 241.52 6.57, 242.96 22.4 M220.56 0 C237.29 0.73, 242.02 8.59, 242.96 22.4 M242.96 22.4 C242.23 33.7, 242.82 46.14, 242.96 67.19 M242.96 22.4 C243.3 38.24, 242.78 54.83, 242.96 67.19 M242.96 67.19 C241.67 82.48, 234.44 88.73, 220.56 89.59 M242.96 67.19 C242.22 80.58, 235.83 90.63, 220.56 89.59 M220.56 89.59 C147.35 86.16, 74.47 89.4, 22.4 89.59 M220.56 89.59 C153.59 89.43, 84.3 88.49, 22.4 89.59 M22.4 89.59 C9.05 87.64, 1.67 83.83, 0 67.19 M22.4 89.59 C8.61 87.57, -1.38 82.89, 0 67.19 M0 67.19 C-0.66 51.08, -0.6 35.63, 0 22.4 M0 67.19 C-0.41 57.82, 1.22 47.66, 0 22.4 M0 22.4 C1.16 5.68, 9.45 1.5, 22.4 0 M0 22.4 C1.05 8.98, 5.68 1.52, 22.4 0" stroke="#1e1e1e" stroke-width="2" fill="none"></path></g><g transform="translate(472.3985137939453 297.736328125) rotate(0 71.49992370605469 37.5)"><text x="71.49992370605469" y="0" font-family="Virgil, Segoe UI Emoji" font-size="20px" fill="#1e1e1e" text-anchor="middle" style="white-space: pre;" direction="ltr" dominant-baseline="text-before-edge">ProcessClick</text><text x="71.49992370605469" y="25" font-family="Virgil, Segoe UI Emoji" font-size="20px" fill="#1e1e1e" text-anchor="middle" style="white-space: pre;" direction="ltr" dominant-baseline="text-before-edge"></text><text x="71.49992370605469" y="50" font-family="Virgil, Segoe UI Emoji" font-size="20px" fill="#1e1e1e" text-anchor="middle" style="white-space: pre;" direction="ltr" dominant-baseline="text-before-edge">(redirect user)</text></g><g stroke-linecap="round"><g transform="translate(245.72265625 246.9765625) rotate(0 86.013671875 43.3203125)"><path d="M1 -0.49 C29.74 14.04, 144.5 73.09, 172.86 87.74 M0.06 -1.8 C28.68 12.38, 143.42 71.64, 172.34 86.2" stroke="#1e1e1e" stroke-width="2" fill="none"></path></g><g transform="translate(245.72265625 246.9765625) rotate(0 86.013671875 43.3203125)"><path d="M30.76 3.24 C20.02 3.62, 12.78 -0.45, 1 -0.49 M30.76 3.24 C19.82 2.55, 8.55 -0.12, 1 -0.49" stroke="#1e1e1e" stroke-width="2" fill="none"></path></g><g transform="translate(245.72265625 246.9765625) rotate(0 86.013671875 43.3203125)"><path d="M21.4 21.5 C13.69 15.73, 9.56 5.58, 1 -0.49 M21.4 21.5 C14.07 14.04, 6.24 4.65, 1 -0.49" stroke="#1e1e1e" stroke-width="2" fill="none"></path></g><g transform="translate(245.72265625 246.9765625) rotate(0 86.013671875 43.3203125)"><path d="M142.57 82.52 C151.67 84.88, 164.24 83.27, 172.34 86.2 M142.57 82.52 C153.46 84.22, 164.09 84.27, 172.34 86.2" stroke="#1e1e1e" stroke-width="2" fill="none"></path></g><g transform="translate(245.72265625 246.9765625) rotate(0 86.013671875 43.3203125)"><path d="M151.9 64.24 C157.97 72.76, 167.44 77.23, 172.34 86.2 M151.9 64.24 C159.19 72.72, 166.39 79.49, 172.34 86.2" stroke="#1e1e1e" stroke-width="2" fill="none"></path></g></g><mask></mask><g stroke-linecap="round" transform="translate(869.40625 10) rotate(0 95.728515625 57.958984375)"><path d="M54.13 6.02 C64.6 2.03, 80.44 0.39, 93.72 0.06 C107 -0.27, 121.68 0.88, 133.81 4.05 C145.94 7.21, 157.72 13.4, 166.5 19.06 C175.28 24.72, 182.45 30.79, 186.49 38 C190.52 45.21, 191.85 54.49, 190.72 62.32 C189.59 70.15, 185.77 78.13, 179.71 84.98 C173.65 91.83, 164.59 98.48, 154.35 103.42 C144.12 108.36, 131.05 112.87, 118.28 114.62 C105.52 116.37, 90.59 115.41, 77.77 113.91 C64.95 112.42, 52.1 110.05, 41.36 105.64 C30.62 101.22, 20 94.32, 13.33 87.43 C6.65 80.54, 2.84 72.15, 1.3 64.3 C-0.23 56.46, 0.32 47.67, 4.13 40.38 C7.94 33.09, 14.9 26.52, 24.17 20.57 C33.44 14.61, 52.55 7.38, 59.76 4.65 C66.97 1.93, 66.55 3.44, 67.41 4.23 M72.41 0.12 C84.16 -2.49, 100 -1.18, 113.11 0.67 C126.23 2.53, 140.34 6.56, 151.09 11.26 C161.84 15.95, 171.02 22.26, 177.61 28.87 C184.2 35.48, 189.05 43.43, 190.61 50.91 C192.18 58.4, 190.52 66.51, 186.99 73.78 C183.47 81.05, 177.64 88.55, 169.47 94.52 C161.3 100.49, 149.79 105.93, 137.96 109.61 C126.13 113.3, 111.53 116.12, 98.48 116.64 C85.43 117.16, 71.73 115.71, 59.67 112.74 C47.61 109.77, 34.95 104.7, 26.11 98.81 C17.27 92.92, 10.68 84.98, 6.62 77.41 C2.56 69.84, 0.75 61.08, 1.74 53.4 C2.73 45.72, 6.52 38.1, 12.58 31.33 C18.65 24.56, 28.05 17.55, 38.13 12.77 C48.21 7.99, 67.31 4.37, 73.07 2.66 C78.82 0.96, 72.06 1.58, 72.66 2.56" stroke="#1e1e1e" stroke-width="2" fill="none"></path></g><g transform="translate(927.1945059618238 55.47579349275236) rotate(0 37.749977111816406 12.5)"><text x="37.749977111816406" y="0" font-family="Virgil, Segoe UI Emoji" font-size="20px" fill="#1e1e1e" text-anchor="middle" style="white-space: pre;" direction="ltr" dominant-baseline="text-before-edge">Ads DB</text></g><g stroke-linecap="round"><g transform="translate(667.76171875 112.859375) rotate(0 96.455078125 -19.921875)"><path d="M-0.64 -0.4 C31.64 -6.98, 160.68 -33.85, 192.8 -40.29 M1.22 -1.66 C33.41 -8, 159.57 -32.44, 191.8 -38.98" stroke="#1e1e1e" stroke-width="2" fill="none"></path></g><g transform="translate(667.76171875 112.859375) rotate(0 96.455078125 -19.921875)"><path d="M24.89 -16.16 C18.33 -12.91, 12.48 -10.51, -0.64 -0.4 M24.89 -16.16 C16.4 -10.74, 5.5 -3.6, -0.64 -0.4" stroke="#1e1e1e" stroke-width="2" fill="none"></path></g><g transform="translate(667.76171875 112.859375) rotate(0 96.455078125 -19.921875)"><path d="M29.04 3.94 C21.68 2.62, 14.89 0.47, -0.64 -0.4 M29.04 3.94 C18.93 1.96, 6.5 1.71, -0.64 -0.4" stroke="#1e1e1e" stroke-width="2" fill="none"></path></g><g transform="translate(667.76171875 112.859375) rotate(0 96.455078125 -19.921875)"><path d="M166.13 -23.45 C171.38 -27.01, 177.12 -31.69, 191.8 -38.98 M166.13 -23.45 C176.36 -29.64, 184.31 -34.02, 191.8 -38.98" stroke="#1e1e1e" stroke-width="2" fill="none"></path></g><g transform="translate(667.76171875 112.859375) rotate(0 96.455078125 -19.921875)"><path d="M162.15 -43.58 C168.16 -42.56, 174.8 -42.69, 191.8 -38.98 M162.15 -43.58 C173.94 -42.37, 183.35 -39.33, 191.8 -38.98" stroke="#1e1e1e" stroke-width="2" fill="none"></path></g></g><mask></mask><g stroke-linecap="round" transform="translate(429.408203125 479.154296875) rotate(0 121.48046875 44.794921875)"><path d="M22.4 0 C87.04 -1.51, 155.02 -0.91, 220.56 0 M22.4 0 C84.58 -2, 147.84 -1.02, 220.56 0 M220.56 0 C234.56 -0.25, 244.68 7.56, 242.96 22.4 M220.56 0 C233.31 -1.25, 241.62 7.95, 242.96 22.4 M242.96 22.4 C245.09 38.27, 242.98 54.03, 242.96 67.19 M242.96 22.4 C243.53 30.44, 243.09 40.07, 242.96 67.19 M242.96 67.19 C243.2 83.44, 234.18 91.36, 220.56 89.59 M242.96 67.19 C241.54 81.38, 233.94 87.48, 220.56 89.59 M220.56 89.59 C176.34 91.69, 133.35 91.76, 22.4 89.59 M220.56 89.59 C177.34 88.63, 132.78 88.49, 22.4 89.59 M22.4 89.59 C6.38 87.72, 1.79 82.89, 0 67.19 M22.4 89.59 C9.37 87.56, -1.44 83.25, 0 67.19 M0 67.19 C0.81 50.57, -0.65 34.42, 0 22.4 M0 67.19 C-0.23 53.93, 0.39 40.39, 0 22.4 M0 22.4 C1.19 6.41, 9.19 -0.55, 22.4 0 M0 22.4 C0.22 7.86, 6.85 -1.31, 22.4 0" stroke="#1e1e1e" stroke-width="2" fill="none"></path></g><g transform="translate(488.3687210083008 511.44921875) rotate(0 62.51995086669922 12.5)"><text x="62.51995086669922" y="0" font-family="Virgil, Segoe UI Emoji" font-size="20px" fill="#1e1e1e" text-anchor="middle" style="white-space: pre;" direction="ltr" dominant-baseline="text-before-edge">GetAnalytics</text></g><g stroke-linecap="round" transform="translate(905.994140625 284.80859375) rotate(0 94.576171875 46.7734375)"><path d="M101 0.14 C113.92 -0.35, 128.46 1.69, 140.26 5.16 C152.06 8.64, 163.78 15.48, 171.78 21 C179.78 26.53, 185.97 31.76, 188.24 38.32 C190.5 44.87, 189.48 53.7, 185.38 60.34 C181.29 66.98, 172.88 73.03, 163.64 78.14 C154.4 83.25, 142.57 88.41, 129.95 90.99 C117.33 93.56, 101.51 94.07, 87.94 93.58 C74.37 93.09, 60.31 91.55, 48.54 88.06 C36.78 84.57, 25.27 78.16, 17.33 72.65 C9.39 67.13, 3.01 61.41, 0.89 54.98 C-1.23 48.54, 0.76 40.71, 4.6 34.05 C8.44 27.39, 14.77 20.2, 23.93 15.01 C33.1 9.82, 44.87 5.37, 59.58 2.9 C74.29 0.43, 101.56 0.29, 112.22 0.19 C122.88 0.09, 123.78 1.36, 123.52 2.3 M62.57 3 C74.48 0.31, 91.54 0.26, 105.56 1.14 C119.59 2.02, 135.2 4.6, 146.72 8.28 C158.25 11.96, 167.59 17.54, 174.71 23.23 C181.82 28.92, 188.04 35.71, 189.41 42.4 C190.79 49.08, 187.77 56.91, 182.95 63.34 C178.12 69.76, 169.99 76.3, 160.45 80.96 C150.92 85.63, 138.7 89.19, 125.72 91.33 C112.74 93.46, 96.32 94.77, 82.59 93.76 C68.86 92.74, 54.71 89.04, 43.34 85.24 C31.98 81.44, 21.37 76.5, 14.38 70.95 C7.4 65.4, 3.04 58.44, 1.43 51.96 C-0.18 45.48, 0.26 38.39, 4.72 32.07 C9.18 25.75, 18.31 18.85, 28.19 14.04 C38.08 9.22, 57.89 4.88, 64.04 3.17 C70.2 1.45, 64.56 3.08, 65.12 3.73" stroke="#1e1e1e" stroke-width="2" fill="none"></path></g><g transform="translate(942.0749183170972 319.0082164143448) rotate(0 58.61994171142578 12.5)"><text x="58.61994171142578" y="0" font-family="Virgil, Segoe UI Emoji" font-size="20px" fill="#1e1e1e" text-anchor="middle" style="white-space: pre;" direction="ltr" dominant-baseline="text-before-edge">Clicks Store</text></g><g stroke-linecap="round"><g transform="translate(676.923828125 329.4296875) rotate(0 108.47265625 1.189453125)"><path d="M0.86 0.6 C37.12 1.02, 181.95 2.96, 218.1 3.31 M-0.15 -0.13 C36.01 -0.11, 181.5 1.56, 217.75 1.68" stroke="#1e1e1e" stroke-width="2" fill="none"></path></g><g transform="translate(676.923828125 329.4296875) rotate(0 108.47265625 1.189453125)"><path d="M189.48 11.72 C200.12 9.99, 210.38 5.93, 217.75 1.68 M189.48 11.72 C198.22 7.72, 207.44 4.3, 217.75 1.68" stroke="#1e1e1e" stroke-width="2" fill="none"></path></g><g transform="translate(676.923828125 329.4296875) rotate(0 108.47265625 1.189453125)"><path d="M189.64 -8.8 C200.36 -3.48, 210.56 -0.5, 217.75 1.68 M189.64 -8.8 C198.14 -6.05, 207.31 -2.72, 217.75 1.68" stroke="#1e1e1e" stroke-width="2" fill="none"></path></g></g><mask></mask><g stroke-linecap="round"><g transform="translate(678.927734375 531.00390625) rotate(0 120.517578125 -80.595703125)"><path d="M-0.88 -0.53 C39.57 -27.48, 201.33 -135.17, 241.83 -162.09 M0.85 1.81 C41.29 -24.98, 201.12 -133.86, 241.31 -161.02" stroke="#1e1e1e" stroke-width="2" fill="none"></path></g><g transform="translate(678.927734375 531.00390625) rotate(0 120.517578125 -80.595703125)"><path d="M223.74 -136.7 C226.94 -140.77, 230.32 -145.76, 241.31 -161.02 M223.74 -136.7 C228.22 -142.62, 231.88 -147.11, 241.31 -161.02" stroke="#1e1e1e" stroke-width="2" fill="none"></path></g><g transform="translate(678.927734375 531.00390625) rotate(0 120.517578125 -80.595703125)"><path d="M212.22 -153.68 C217.98 -153.8, 223.99 -154.93, 241.31 -161.02 M212.22 -153.68 C219.51 -155.62, 225.85 -156.16, 241.31 -161.02" stroke="#1e1e1e" stroke-width="2" fill="none"></path></g></g><mask></mask><g stroke-linecap="round" transform="translate(22.76171875 473.53125) rotate(0 113.041015625 47.8359375)"><path d="M23.92 0 C91.21 -0.46, 162.05 0.08, 202.16 0 M23.92 0 C59 -0.23, 95.34 -1.23, 202.16 0 M202.16 0 C216.31 -1.68, 225.98 6.19, 226.08 23.92 M202.16 0 C218.1 0.23, 224.69 10.13, 226.08 23.92 M226.08 23.92 C226.06 42.75, 226.81 59.14, 226.08 71.75 M226.08 23.92 C227.05 38.37, 225.8 50.96, 226.08 71.75 M226.08 71.75 C226.7 87.58, 217.32 95.97, 202.16 95.67 M226.08 71.75 C226.66 88.55, 218.05 96.94, 202.16 95.67 M202.16 95.67 C133.3 94.72, 64.36 94.08, 23.92 95.67 M202.16 95.67 C154.59 95.44, 107.34 95.59, 23.92 95.67 M23.92 95.67 C8.07 94.23, -0.14 88.19, 0 71.75 M23.92 95.67 C10.19 97.5, -0.63 85.91, 0 71.75 M0 71.75 C-1.66 55.73, -1.39 44.5, 0 23.92 M0 71.75 C-0.84 59.86, -0.69 46.53, 0 23.92 M0 23.92 C-0.24 8.22, 8.14 1.69, 23.92 0 M0 23.92 C-0.05 7.3, 6.31 -0.96, 23.92 0" stroke="#1e1e1e" stroke-width="2" fill="none"></path></g><g transform="translate(85.51278686523438 508.8671875) rotate(0 50.289947509765625 12.5)"><text x="50.289947509765625" y="0" font-family="Virgil, Segoe UI Emoji" font-size="20px" fill="#1e1e1e" text-anchor="middle" style="white-space: pre;" direction="ltr" dominant-baseline="text-before-edge">Advertiser</text></g><g stroke-linecap="round"><g transform="translate(263.228515625 533.78515625) rotate(0 79.05078125 -1.576171875)"><path d="M0.39 -0.88 C26.83 -1.33, 131.65 -2.21, 157.89 -2.5 M-0.86 1.27 C25.47 0.45, 130.53 -3.29, 156.83 -4.28" stroke="#1e1e1e" stroke-width="2" fill="none"></path></g><g transform="translate(263.228515625 533.78515625) rotate(0 79.05078125 -1.576171875)"><path d="M28.47 -11.44 C20.42 -9.22, 16.38 -6.85, 0.39 -0.88 M28.47 -11.44 C18.26 -7.86, 9.52 -3.37, 0.39 -0.88" stroke="#1e1e1e" stroke-width="2" fill="none"></path></g><g transform="translate(263.228515625 533.78515625) rotate(0 79.05078125 -1.576171875)"><path d="M28.69 9.08 C20.55 6.48, 16.46 4.02, 0.39 -0.88 M28.69 9.08 C18.37 5.58, 9.56 2.98, 0.39 -0.88" stroke="#1e1e1e" stroke-width="2" fill="none"></path></g><g transform="translate(263.228515625 533.78515625) rotate(0 79.05078125 -1.576171875)"><path d="M129.03 7 C134.07 3.9, 143.16 1.14, 156.83 -4.28 M129.03 7 C138.08 2.49, 148.64 -0.56, 156.83 -4.28" stroke="#1e1e1e" stroke-width="2" fill="none"></path></g><g transform="translate(263.228515625 533.78515625) rotate(0 79.05078125 -1.576171875)"><path d="M128.28 -13.51 C133.54 -11.79, 142.81 -9.73, 156.83 -4.28 M128.28 -13.51 C137.62 -10.94, 148.44 -6.91, 156.83 -4.28" stroke="#1e1e1e" stroke-width="2" fill="none"></path></g></g><mask></mask></svg>