<svg version="1.1" xmlns="http://www.w3.org/2000/svg" viewBox="0 0 1553.8232421875 642.75390625" width="3107.646484375" height="1285.5078125">
  <!-- svg-source:excalidraw -->
  
  <defs>
    <style class="style-fonts">
      @font-face {
        font-family: "Virgil";
        src: url("https://unpkg.com/@excalidraw/excalidraw@undefined/dist/excalidraw-assets/Virgil.woff2");
      }
      @font-face {
        font-family: "Cascadia";
        src: url("https://unpkg.com/@excalidraw/excalidraw@undefined/dist/excalidraw-assets/Cascadia.woff2");
      }
      @font-face {
        font-family: "Assistant";
        src: url("https://unpkg.com/@excalidraw/excalidraw@undefined/dist/excalidraw-assets/Assistant-Regular.woff2");
      }
    </style>
    
  </defs>
  <rect x="0" y="0" width="1553.8232421875" height="642.75390625" fill="#ffffff"></rect><g stroke-linecap="round" transform="translate(10 244.04296875) rotate(0 113.041015625 47.8359375)"><path d="M23.92 0 C87.6 -0.02, 154.19 -2.67, 202.16 0 M23.92 0 C60.26 0.44, 97.11 -1.12, 202.16 0 M202.16 0 C219.47 1.97, 225.86 6.45, 226.08 23.92 M202.16 0 C218.26 1.38, 225.81 7.61, 226.08 23.92 M226.08 23.92 C224.42 34.51, 225.78 47.28, 226.08 71.75 M226.08 23.92 C225.73 40.28, 226 55.56, 226.08 71.75 M226.08 71.75 C227.4 87.9, 219.61 95.83, 202.16 95.67 M226.08 71.75 C224.77 85.96, 218.4 94.67, 202.16 95.67 M202.16 95.67 C161.48 93.61, 117.44 96.68, 23.92 95.67 M202.16 95.67 C158.72 94.9, 112.8 93.3, 23.92 95.67 M23.92 95.67 C9.46 94.79, -1.43 86.82, 0 71.75 M23.92 95.67 C8.79 93.7, -1.5 86.07, 0 71.75 M0 71.75 C-0.59 55.6, -1.09 40.13, 0 23.92 M0 71.75 C-0.42 59.82, -0.51 50.13, 0 23.92 M0 23.92 C1.16 6.41, 8.28 1.46, 23.92 0 M0 23.92 C-0.91 9.06, 6.75 0.6, 23.92 0" stroke="#1e1e1e" stroke-width="2" fill="none"></path></g><g transform="translate(100.70101547241211 279.37890625) rotate(0 22.34000015258789 12.5)"><text x="22.34000015258789" y="0" font-family="Virgil, Segoe UI Emoji" font-size="20px" fill="#1e1e1e" text-anchor="middle" style="white-space: pre;" direction="ltr" dominant-baseline="text-before-edge">User</text></g><g stroke-linecap="round"><g transform="translate(244.52734375 328.6171875) rotate(0 68.078125 34.474609375)"><path d="M0.3 -1.08 C22.87 10.39, 112.5 56.87, 135.2 68.6 M-1 0.97 C21.95 12.63, 114.6 58.92, 137.41 69.95" stroke="#2f9e44" stroke-width="2" fill="none"></path></g><g transform="translate(244.52734375 328.6171875) rotate(0 68.078125 34.474609375)"><path d="M30.05 2.73 C19.88 0.14, 12.71 1.18, 0.3 -1.08 M30.05 2.73 C20.37 1.89, 9.65 0.84, 0.3 -1.08" stroke="#2f9e44" stroke-width="2" fill="none"></path></g><g transform="translate(244.52734375 328.6171875) rotate(0 68.078125 34.474609375)"><path d="M20.64 20.97 C13.15 13.21, 8.63 9.12, 0.3 -1.08 M20.64 20.97 C14.15 14.12, 6.54 7.07, 0.3 -1.08" stroke="#2f9e44" stroke-width="2" fill="none"></path></g><g transform="translate(244.52734375 328.6171875) rotate(0 68.078125 34.474609375)"><path d="M107.58 66.69 C114.18 65.94, 123.79 68.97, 137.41 69.95 M107.58 66.69 C117.49 68.21, 126.41 69.5, 137.41 69.95" stroke="#2f9e44" stroke-width="2" fill="none"></path></g><g transform="translate(244.52734375 328.6171875) rotate(0 68.078125 34.474609375)"><path d="M116.66 48.28 C120.67 52.74, 127.73 60.96, 137.41 69.95 M116.66 48.28 C123.48 55.86, 129.41 63.22, 137.41 69.95" stroke="#2f9e44" stroke-width="2" fill="none"></path></g></g><mask></mask><g stroke-linecap="round"><g transform="translate(238.22265625 256.04296875) rotate(0 71.763671875 -2.1796875)"><path d="M1 -0.49 C24.99 -1.13, 120.75 -2.75, 144.36 -3.26 M0.06 -1.8 C23.93 -2.79, 119.67 -4.19, 143.84 -4.8" stroke="#1e1e1e" stroke-width="2" fill="none"></path></g><g transform="translate(238.22265625 256.04296875) rotate(0 71.763671875 -2.1796875)"><path d="M28.98 -11.3 C18.89 -6.09, 12.25 -5.33, 1 -0.49 M28.98 -11.3 C18.56 -6.64, 7.94 -3.97, 1 -0.49" stroke="#1e1e1e" stroke-width="2" fill="none"></path></g><g transform="translate(238.22265625 256.04296875) rotate(0 71.763671875 -2.1796875)"><path d="M29.38 9.22 C19.07 7.6, 12.29 1.54, 1 -0.49 M29.38 9.22 C19 6.33, 8.24 1.45, 1 -0.49" stroke="#1e1e1e" stroke-width="2" fill="none"></path></g><g transform="translate(238.22265625 256.04296875) rotate(0 71.763671875 -2.1796875)"><path d="M115.86 6.01 C124.3 3.56, 136.27 -2.87, 143.84 -4.8 M115.86 6.01 C126.23 2.39, 136.2 -2.89, 143.84 -4.8" stroke="#1e1e1e" stroke-width="2" fill="none"></path></g><g transform="translate(238.22265625 256.04296875) rotate(0 71.763671875 -2.1796875)"><path d="M115.46 -14.51 C124.12 -10.13, 136.23 -9.73, 143.84 -4.8 M115.46 -14.51 C125.78 -10.58, 135.9 -8.32, 143.84 -4.8" stroke="#1e1e1e" stroke-width="2" fill="none"></path></g></g><mask></mask><g stroke-linecap="round" transform="translate(398.76171875 134.59765625) rotate(0 113.041015625 223.3359375)"><path d="M32 0 C93.03 -0.31, 157.61 0.23, 194.08 0 M32 0 C63.81 -0.21, 96.88 -1.21, 194.08 0 M194.08 0 C213.61 -1.68, 225.98 8.89, 226.08 32 M194.08 0 C215.41 0.23, 224.69 12.82, 226.08 32 M226.08 32 C225.98 180.6, 226.43 327.74, 226.08 414.67 M226.08 32 C227.46 140.59, 226.72 248.08, 226.08 414.67 M226.08 414.67 C226.7 435.89, 214.63 446.97, 194.08 446.67 M226.08 414.67 C226.66 436.86, 215.35 447.94, 194.08 446.67 M194.08 446.67 C131.54 445.69, 68.94 445.05, 32 446.67 M194.08 446.67 C150.78 446.4, 107.81 446.55, 32 446.67 M32 446.67 C10.76 445.23, -0.14 436.5, 0 414.67 M32 446.67 C12.88 448.5, -0.63 434.22, 0 414.67 M0 414.67 C-0.33 296.95, -0.17 182.08, 0 32 M0 414.67 C-0.25 317.13, -0.17 218.74, 0 32 M0 32 C-0.24 10.91, 10.83 1.69, 32 0 M0 32 C-0.05 10, 9.01 -0.96, 32 0" stroke="#1e1e1e" stroke-width="2" fill="none"></path></g><g transform="translate(445.05272674560547 332.93359375) rotate(0 66.75000762939453 25)"><text x="66.75000762939453" y="0" font-family="Virgil, Segoe UI Emoji" font-size="20px" fill="#1e1e1e" text-anchor="middle" style="white-space: pre;" direction="ltr" dominant-baseline="text-before-edge">API Gateway</text><text x="66.75000762939453" y="25" font-family="Virgil, Segoe UI Emoji" font-size="20px" fill="#1e1e1e" text-anchor="middle" style="white-space: pre;" direction="ltr" dominant-baseline="text-before-edge">/LB</text></g><g stroke-linecap="round" transform="translate(773.0322265625 472.08203125) rotate(0 154.041015625 80.3359375)"><path d="M32 0 C115.11 0.97, 200.08 0.14, 276.08 0 M32 0 C109.93 0.5, 188 0.07, 276.08 0 M276.08 0 C295.74 -1.54, 307.97 11.36, 308.08 32 M276.08 0 C299.15 -1.59, 309.54 10.59, 308.08 32 M308.08 32 C309.28 58.34, 307.22 81.46, 308.08 128.67 M308.08 32 C308.77 61.59, 308.55 91.42, 308.08 128.67 M308.08 128.67 C306.69 149.76, 299.09 159.49, 276.08 160.67 M308.08 128.67 C309.69 150.09, 298.4 159.37, 276.08 160.67 M276.08 160.67 C180.82 158.21, 85.58 158.74, 32 160.67 M276.08 160.67 C188.81 159.15, 102.55 159.31, 32 160.67 M32 160.67 C12.21 162.65, -1.72 148.25, 0 128.67 M32 160.67 C10.97 158.47, -0.2 150.27, 0 128.67 M0 128.67 C-0.45 96.31, -1.65 63.27, 0 32 M0 128.67 C0.54 93.35, 0.02 58.46, 0 32 M0 32 C1.84 9.11, 8.74 -1.76, 32 0 M0 32 C-1.25 9.64, 8.53 -1.21, 32 0" stroke="#1e1e1e" stroke-width="2" fill="none"></path></g><g transform="translate(860.1432418823242 477.08203125) rotate(0 66.93000030517578 12.5)"><text x="66.93000030517578" y="0" font-family="Virgil, Segoe UI Emoji" font-size="20px" fill="#1e1e1e" text-anchor="middle" style="white-space: pre;" direction="ltr" dominant-baseline="text-before-edge">Follow Service</text></g><g stroke-linecap="round" transform="translate(775.0322265625 232.33203125) rotate(0 154.041015625 86.83593750000001)"><path d="M32 0 C110.45 -0.21, 192.5 1.85, 276.08 0 M32 0 C91.03 -0.03, 150.67 -0.55, 276.08 0 M276.08 0 C299.38 -1.75, 306.83 9.67, 308.08 32 M276.08 0 C299.06 -0.93, 307.99 12.11, 308.08 32 M308.08 32 C307.76 68.16, 307.64 107, 308.08 141.67 M308.08 32 C307.7 67.71, 308.81 102.3, 308.08 141.67 M308.08 141.67 C307.11 164.46, 296.44 172.28, 276.08 173.67 M308.08 141.67 C309.4 165.21, 296.51 172.87, 276.08 173.67 M276.08 173.67 C214.16 174.62, 153.1 172.42, 32 173.67 M276.08 173.67 C184.9 174.89, 94.59 174.95, 32 173.67 M32 173.67 C10.82 175.43, 0.63 161.19, 0 141.67 M32 173.67 C11.93 174.8, -1.11 162.76, 0 141.67 M0 141.67 C-1.74 112.48, -0.5 85.15, 0 32 M0 141.67 C-0.38 110.76, -1.11 78.33, 0 32 M0 32 C-0.07 8.77, 9.04 -1.16, 32 0 M0 32 C1.8 8.83, 8.8 0.47, 32 0" stroke="#1e1e1e" stroke-width="2" fill="none"></path></g><g transform="translate(867.943244934082 376.00390625) rotate(0 61.12999725341797 12.5)"><text x="61.12999725341797" y="0" font-family="Virgil, Segoe UI Emoji" font-size="20px" fill="#1e1e1e" text-anchor="middle" style="white-space: pre;" direction="ltr" dominant-baseline="text-before-edge">Feed Service</text></g><g stroke-linecap="round" transform="translate(809.5732421875 548.66796875) rotate(0 121.05555555555554 30.5)"><path d="M15.25 0 C59.12 1.5, 104.96 1, 226.86 0 M15.25 0 C90.79 0.98, 166.21 -0.31, 226.86 0 M226.86 0 C237.47 -0.51, 240.88 4.48, 242.11 15.25 M226.86 0 C236.98 1.76, 243.81 4.04, 242.11 15.25 M242.11 15.25 C243.87 23.94, 240.71 30.57, 242.11 45.75 M242.11 15.25 C241.52 20.71, 241.46 28.1, 242.11 45.75 M242.11 45.75 C240.18 56.63, 236.35 59.98, 226.86 61 M242.11 45.75 C240.77 56.84, 239.11 61.32, 226.86 61 M226.86 61 C160.38 61.76, 92.3 59.32, 15.25 61 M226.86 61 C153.96 62.53, 80.19 61.71, 15.25 61 M15.25 61 C6.29 62.83, -0.51 54.68, 0 45.75 M15.25 61 C7 62.39, 1.06 55.84, 0 45.75 M0 45.75 C2 41.16, 0.81 33.61, 0 15.25 M0 45.75 C0.5 39.94, 0.76 32.67, 0 15.25 M0 15.25 C1.54 4.87, 6.44 0.91, 15.25 0 M0 15.25 C-0.33 4.38, 2.8 -1.85, 15.25 0" stroke="#1e1e1e" stroke-width="2" fill="none"></path></g><g transform="translate(858.3587934705947 566.66796875) rotate(0 72.27000427246094 12.5)"><text x="72.27000427246094" y="0" font-family="Virgil, Segoe UI Emoji" font-size="20px" fill="#1e1e1e" text-anchor="middle" style="white-space: pre;" direction="ltr" dominant-baseline="text-before-edge">Follow/Unfollow</text></g><g stroke-linecap="round" transform="translate(1264.0732421875 375.16796875) rotate(0 100.5 64.5)"><path d="M128.69 3.58 C141.3 4.96, 154.26 10.26, 164.81 15.86 C175.36 21.47, 185.84 29.44, 192 37.22 C198.15 45.01, 201.56 53.77, 201.73 62.59 C201.9 71.41, 198.33 82.07, 193.02 90.14 C187.71 98.2, 179.68 105.2, 169.86 110.98 C160.04 116.77, 147.1 121.74, 134.1 124.82 C121.11 127.9, 105.62 129.91, 91.89 129.46 C78.16 129.02, 63.65 126.3, 51.71 122.14 C39.78 117.97, 28.49 111.64, 20.28 104.47 C12.07 97.3, 5.6 87.84, 2.47 79.12 C-0.66 70.4, -1.01 60.81, 1.48 52.16 C3.98 43.51, 9.61 34.32, 17.45 27.2 C25.28 20.09, 37.01 14.02, 48.5 9.48 C59.99 4.94, 72.19 1.09, 86.38 -0.01 C100.57 -1.12, 124.9 1.97, 133.64 2.87 C142.39 3.77, 139.36 4.36, 138.85 5.39 M116.86 1.8 C129.94 2.29, 143.56 6.84, 154.73 11.64 C165.9 16.44, 176.45 23.21, 183.89 30.61 C191.33 38, 197.22 47.76, 199.37 56.03 C201.53 64.29, 200.51 72.07, 196.81 80.21 C193.12 88.34, 185.82 97.79, 177.22 104.85 C168.61 111.91, 156.95 118.66, 145.2 122.55 C133.45 126.44, 120.35 127.93, 106.73 128.2 C93.1 128.47, 76.6 127.18, 63.45 124.18 C50.3 121.18, 37.53 116.24, 27.81 110.21 C18.09 104.18, 9.78 96.47, 5.12 87.99 C0.45 79.52, -1.01 67.97, -0.17 59.37 C0.67 50.76, 3.76 43.75, 10.16 36.39 C16.56 29.02, 27.65 21.1, 38.24 15.19 C48.84 9.28, 60.62 3.49, 73.73 0.92 C86.84 -1.64, 110.06 -0.55, 116.92 -0.21 C123.79 0.13, 115.32 1.59, 114.92 2.96" stroke="#1e1e1e" stroke-width="2" fill="none"></path></g><g transform="translate(1316.2690089997852 427.0595813634677) rotate(0 48.2400016784668 12.5)"><text x="48.2400016784668" y="0" font-family="Virgil, Segoe UI Emoji" font-size="20px" fill="#1e1e1e" text-anchor="middle" style="white-space: pre;" direction="ltr" dominant-baseline="text-before-edge">Follow DB</text></g><g stroke-linecap="round"><g transform="translate(1061.9343532986113 582.8350717623754) rotate(0 99.86762833169428 -66.41272385065966)"><path d="M0.42 0.11 C33.77 -21.65, 166.43 -109.7, 199.57 -131.68 M-0.82 -0.87 C32.41 -22.85, 165.36 -111.09, 198.53 -133.2" stroke="#1e1e1e" stroke-width="2" fill="none"></path></g><g transform="translate(1061.9343532986113 582.8350717623754) rotate(0 99.86762833169428 -66.41272385065966)"><path d="M180.74 -109.05 C185.66 -115.51, 191.89 -122.17, 198.53 -133.2 M180.74 -109.05 C188.36 -117.74, 193.73 -128.39, 198.53 -133.2" stroke="#1e1e1e" stroke-width="2" fill="none"></path></g><g transform="translate(1061.9343532986113 582.8350717623754) rotate(0 99.86762833169428 -66.41272385065966)"><path d="M169.38 -126.14 C177.02 -128.31, 186.13 -130.64, 198.53 -133.2 M169.38 -126.14 C181.3 -128.17, 191.08 -132.19, 198.53 -133.2" stroke="#1e1e1e" stroke-width="2" fill="none"></path></g></g><mask></mask><g stroke-linecap="round"><g transform="translate(640.84375 468.30875814929186) rotate(0 80.17806520481963 56.72877899371281)"><path d="M0.44 1.09 C27.12 20.15, 133.89 95.11, 160.66 113.7 M-0.79 0.62 C25.71 19.34, 132.96 92.89, 159.88 111.7" stroke="#2f9e44" stroke-width="2" fill="none"></path></g><g transform="translate(640.84375 468.30875814929186) rotate(0 80.17806520481963 56.72877899371281)"><path d="M130.86 104.1 C142.67 107.14, 151.3 110.5, 159.88 111.7 M130.86 104.1 C138.31 106.67, 144.5 108.43, 159.88 111.7" stroke="#2f9e44" stroke-width="2" fill="none"></path></g><g transform="translate(640.84375 468.30875814929186) rotate(0 80.17806520481963 56.72877899371281)"><path d="M142.53 87.23 C150.22 96.14, 154.8 105.34, 159.88 111.7 M142.53 87.23 C147.27 93.72, 150.77 99.36, 159.88 111.7" stroke="#2f9e44" stroke-width="2" fill="none"></path></g></g><mask></mask><g stroke-linecap="round" transform="translate(832.8232421875 59.91796875) rotate(0 88.5 32)"><path d="M16 0 C65.38 2.65, 111.75 1.28, 161 0 M16 0 C59.59 -0.48, 103.73 -0.02, 161 0 M161 0 C173.06 0.05, 177.4 6.67, 177 16 M161 0 C169.55 -2.23, 178.93 3.51, 177 16 M177 16 C176.82 24.3, 176.83 30.52, 177 48 M177 16 C177.13 26.24, 176.48 37.9, 177 48 M177 48 C176.1 58.02, 170.71 64.7, 161 64 M177 48 C175.82 56.91, 170.09 64.86, 161 64 M161 64 C120.43 63.77, 79.71 64.04, 16 64 M161 64 C121.3 64.14, 82.22 64.13, 16 64 M16 64 C4.11 65.33, 1.03 58.92, 0 48 M16 64 C7.36 61.97, 1.93 57.5, 0 48 M0 48 C1.23 39.51, 1.39 28.78, 0 16 M0 48 C0.67 37.79, 0.08 25.46, 0 16 M0 16 C1.21 4.66, 3.9 1.58, 16 0 M0 16 C1.02 5.77, 3.14 -1.32, 16 0" stroke="#1e1e1e" stroke-width="2" fill="none"></path></g><g transform="translate(864.0932388305664 79.41796875) rotate(0 57.230003356933594 12.5)"><text x="57.230003356933594" y="0" font-family="Virgil, Segoe UI Emoji" font-size="20px" fill="#1e1e1e" text-anchor="middle" style="white-space: pre;" direction="ltr" dominant-baseline="text-before-edge">CreatePost</text></g><g stroke-linecap="round" transform="translate(840.5732421875 268.16796875) rotate(0 88.5 32)"><path d="M16 0 C44.25 0.66, 76.65 -0.27, 161 0 M16 0 C51.6 1.66, 84.89 0.48, 161 0 M161 0 C173.39 0.37, 176.97 7.11, 177 16 M161 0 C170.41 -1.1, 177.01 3.6, 177 16 M177 16 C175.51 25.2, 175.71 29.74, 177 48 M177 16 C175.96 25.63, 177.73 34.59, 177 48 M177 48 C178.77 57.61, 169.89 63.41, 161 64 M177 48 C178.27 57.63, 172.66 64.01, 161 64 M161 64 C126.32 64.18, 93.67 63.46, 16 64 M161 64 C119.23 65.44, 76.67 64.27, 16 64 M16 64 C3.52 63.02, 1.4 59.21, 0 48 M16 64 C6.22 63.47, -0.03 60.27, 0 48 M0 48 C0.85 39.84, 0.75 35.03, 0 16 M0 48 C-1.1 38.7, -0.61 31.44, 0 16 M0 16 C1.83 5.13, 3.35 -1.69, 16 0 M0 16 C-1.36 6.12, 6.95 -0.62, 16 0" stroke="#1e1e1e" stroke-width="2" fill="none"></path></g><g transform="translate(887.693244934082 287.66796875) rotate(0 41.37999725341797 12.5)"><text x="41.37999725341797" y="0" font-family="Virgil, Segoe UI Emoji" font-size="20px" fill="#1e1e1e" text-anchor="middle" style="white-space: pre;" direction="ltr" dominant-baseline="text-before-edge">GetFeed</text></g><g stroke-linecap="round"><g transform="translate(640.5732421875 197.58532140127664) rotate(0 91.83822453632888 -49.95867632563832)"><path d="M-0.79 1.07 C30.05 -15.55, 153.65 -82.83, 184.23 -99.48 M0.99 0.59 C31.8 -16.41, 152.89 -84.51, 183.58 -101.37" stroke="#1e1e1e" stroke-width="2" fill="none"></path></g><g transform="translate(640.5732421875 197.58532140127664) rotate(0 91.83822453632888 -49.95867632563832)"><path d="M163.93 -78.7 C170.17 -82.83, 173.61 -90.54, 183.58 -101.37 M163.93 -78.7 C172.05 -87.58, 178.68 -96.13, 183.58 -101.37" stroke="#1e1e1e" stroke-width="2" fill="none"></path></g><g transform="translate(640.5732421875 197.58532140127664) rotate(0 91.83822453632888 -49.95867632563832)"><path d="M153.95 -96.63 C162.5 -96.59, 168.23 -100.2, 183.58 -101.37 M153.95 -96.63 C165.99 -98.57, 176.54 -100.09, 183.58 -101.37" stroke="#1e1e1e" stroke-width="2" fill="none"></path></g></g><mask></mask><g stroke-linecap="round"><g transform="translate(645.5732421875 319.69582484344477) rotate(0 92.64297753059839 -5.013928046722377)"><path d="M0.13 -0.9 C30.98 -2.58, 154.96 -9.14, 185.96 -10.65 M-1.26 1.25 C29.41 -0.23, 154.18 -7.8, 185.36 -9.44" stroke="#1e1e1e" stroke-width="2" fill="none"></path></g><g transform="translate(645.5732421875 319.69582484344477) rotate(0 92.64297753059839 -5.013928046722377)"><path d="M157.8 2.41 C166.64 -0.93, 177.38 -5.06, 185.36 -9.44 M157.8 2.41 C166.1 -0.48, 175.49 -6.06, 185.36 -9.44" stroke="#1e1e1e" stroke-width="2" fill="none"></path></g><g transform="translate(645.5732421875 319.69582484344477) rotate(0 92.64297753059839 -5.013928046722377)"><path d="M156.63 -18.08 C165.81 -13.77, 176.99 -10.26, 185.36 -9.44 M156.63 -18.08 C165.29 -14.73, 175.04 -14.06, 185.36 -9.44" stroke="#1e1e1e" stroke-width="2" fill="none"></path></g></g><mask></mask><g stroke-linecap="round" transform="translate(1230.8232421875 44.16796875) rotate(0 156.5 107.5)"><path d="M193.46 2.44 C209.66 3.44, 227.3 10.98, 241.74 17.34 C256.18 23.71, 269.68 31.53, 280.11 40.64 C290.53 49.76, 298.81 60.97, 304.28 72.02 C309.75 83.07, 312.84 95.25, 312.91 106.96 C312.99 118.66, 309.97 131.15, 304.74 142.24 C299.51 153.33, 291.84 164.41, 281.54 173.48 C271.24 182.55, 257.37 190.3, 242.95 196.66 C228.53 203.01, 211.41 208.48, 195.04 211.6 C178.66 214.73, 161.54 216.4, 144.72 215.43 C127.89 214.46, 109.76 210.35, 94.1 205.79 C78.45 201.23, 63.12 195.97, 50.77 188.08 C38.43 180.19, 28.28 168.68, 20.04 158.44 C11.79 148.2, 4.22 137.9, 1.33 126.65 C-1.56 115.4, 0 102.6, 2.69 90.95 C5.38 79.31, 9.71 67.02, 17.45 56.76 C25.19 46.5, 36.62 37.39, 49.1 29.39 C61.58 21.39, 76.8 13.63, 92.35 8.77 C107.9 3.91, 123.03 0.64, 142.39 0.24 C161.74 -0.16, 195.63 4.39, 208.51 6.38 C221.39 8.36, 220.57 10.39, 219.67 12.15 M96.39 8.76 C110.41 2.8, 129.35 -0.02, 146.14 -0.92 C162.93 -1.82, 180.74 -0.02, 197.12 3.34 C213.51 6.69, 230.4 12.45, 244.45 19.21 C258.5 25.97, 271.37 34.5, 281.42 43.88 C291.46 53.26, 299.35 64.68, 304.72 75.5 C310.09 86.32, 313.93 97.59, 313.62 108.81 C313.31 120.02, 308.55 131.51, 302.86 142.78 C297.18 154.04, 289.9 167.13, 279.49 176.38 C269.08 185.64, 255.03 192.27, 240.41 198.29 C225.79 204.32, 208.3 210.07, 191.77 212.54 C175.24 215.02, 158.18 214.14, 141.22 213.14 C124.27 212.14, 105.38 211.07, 90.03 206.54 C74.69 202.01, 61.44 194.28, 49.17 185.95 C36.9 177.63, 24.35 166.79, 16.41 156.59 C8.46 146.38, 3.65 136.37, 1.51 124.7 C-0.63 113.04, 0.24 98.47, 3.57 86.61 C6.9 74.76, 13.3 63.23, 21.48 53.58 C29.67 43.93, 40.43 36.33, 52.67 28.72 C64.92 21.12, 87.62 11.23, 94.96 7.95 C102.3 4.66, 95.48 7.23, 96.72 9.02" stroke="#1e1e1e" stroke-width="2" fill="none"></path></g><g transform="translate(1360.1210319236266 126.65398977244615) rotate(0 27.03999900817871 25)"><text x="27.03999900817871" y="0" font-family="Virgil, Segoe UI Emoji" font-size="20px" fill="#1e1e1e" text-anchor="middle" style="white-space: pre;" direction="ltr" dominant-baseline="text-before-edge">Post</text><text x="27.03999900817871" y="25" font-family="Virgil, Segoe UI Emoji" font-size="20px" fill="#1e1e1e" text-anchor="middle" style="white-space: pre;" direction="ltr" dominant-baseline="text-before-edge">Store</text></g><g stroke-linecap="round"><g transform="translate(1020.8232421875 92.01281382829075) rotate(0 99.30251128167424 22.72252591542061)"><path d="M-0.33 -0.39 C32.39 7.37, 164.33 37.95, 197.54 45.7 M1.69 -1.63 C34.67 5.81, 166.93 36.08, 199.7 43.7" stroke="#1e1e1e" stroke-width="2" fill="none"></path></g><g transform="translate(1020.8232421875 92.01281382829075) rotate(0 99.30251128167424 22.72252591542061)"><path d="M169.92 47.37 C181.21 44.22, 194.17 45.06, 199.7 43.7 M169.92 47.37 C180.72 45.66, 190.92 44.1, 199.7 43.7" stroke="#1e1e1e" stroke-width="2" fill="none"></path></g><g transform="translate(1020.8232421875 92.01281382829075) rotate(0 99.30251128167424 22.72252591542061)"><path d="M174.53 27.38 C183.84 32.2, 194.95 41.03, 199.7 43.7 M174.53 27.38 C183.79 32.79, 192.35 38.35, 199.7 43.7" stroke="#1e1e1e" stroke-width="2" fill="none"></path></g></g><mask></mask><g stroke-linecap="round"><g transform="translate(1021.0732421875 287.59719042027973) rotate(0 112.18924119809662 -37.461314376032576)"><path d="M0.93 -0.55 C38.2 -13.09, 186.56 -63.2, 223.66 -75.74 M-0.04 1.78 C37.62 -10.59, 188.32 -61.85, 226 -74.63" stroke="#1e1e1e" stroke-width="2" fill="none"></path></g><g transform="translate(1021.0732421875 287.59719042027973) rotate(0 112.18924119809662 -37.461314376032576)"><path d="M202.6 -55.85 C208.81 -62.88, 215.42 -68.69, 226 -74.63 M202.6 -55.85 C208.09 -59.26, 213.6 -65.23, 226 -74.63" stroke="#1e1e1e" stroke-width="2" fill="none"></path></g><g transform="translate(1021.0732421875 287.59719042027973) rotate(0 112.18924119809662 -37.461314376032576)"><path d="M196.01 -75.28 C204.13 -76.51, 212.72 -76.47, 226 -74.63 M196.01 -75.28 C202.86 -74.18, 209.88 -75.67, 226 -74.63" stroke="#1e1e1e" stroke-width="2" fill="none"></path></g></g><mask></mask><g stroke-linecap="round" transform="translate(760.37060546875 10) rotate(0 154.041015625 86.83593750000001)"><path d="M32 0 C124.2 -0.99, 219.11 -2.66, 276.08 0 M32 0 C102.64 -0.21, 173.72 -0.36, 276.08 0 M276.08 0 C296.7 1.76, 307.24 10.26, 308.08 32 M276.08 0 C296.81 0.5, 309.6 10.34, 308.08 32 M308.08 32 C308.53 57.77, 306.68 84.49, 308.08 141.67 M308.08 32 C308.9 63.98, 307.59 95.57, 308.08 141.67 M308.08 141.67 C307.15 163.62, 298.99 172.71, 276.08 173.67 M308.08 141.67 C307.25 161.28, 298.51 172.44, 276.08 173.67 M276.08 173.67 C223.44 172.52, 169.69 173.87, 32 173.67 M276.08 173.67 C195.81 172.93, 113.63 173.18, 32 173.67 M32 173.67 C11.75 174.4, 0.05 161.38, 0 141.67 M32 173.67 C10.4 172.55, -1.38 165.3, 0 141.67 M0 141.67 C-1.92 117.14, -0.87 90.07, 0 32 M0 141.67 C-1.57 108.34, -0.4 74.52, 0 32 M0 32 C0.35 9.52, 10.62 0.93, 32 0 M0 32 C1.6 8.58, 11.82 -1.98, 32 0" stroke="#1e1e1e" stroke-width="2" fill="none"></path></g><g transform="translate(852.4216232299805 153.67187500000003) rotate(0 61.98999786376953 12.5)"><text x="61.98999786376953" y="0" font-family="Virgil, Segoe UI Emoji" font-size="20px" fill="#1e1e1e" text-anchor="middle" style="white-space: pre;" direction="ltr" dominant-baseline="text-before-edge">Post Service</text></g><g stroke-linecap="round"><g transform="translate(1025.66162109375 315.5859375) rotate(0 117.5 47.5)"><path d="M0.35 -1.02 C39.54 14.73, 195.08 77.93, 234.27 93.81 M-0.93 1.06 C38.73 16.97, 197.28 79.03, 236.6 94.72" stroke="#1e1e1e" stroke-width="2" fill="none"></path></g><g transform="translate(1025.66162109375 315.5859375) rotate(0 117.5 47.5)"><path d="M206.61 93.91 C211.7 92.79, 218.2 94.98, 236.6 94.72 M206.61 93.91 C214.12 94.3, 221.63 94.93, 236.6 94.72" stroke="#1e1e1e" stroke-width="2" fill="none"></path></g><g transform="translate(1025.66162109375 315.5859375) rotate(0 117.5 47.5)"><path d="M214.14 74.83 C217.42 78.05, 222.22 84.56, 236.6 94.72 M214.14 74.83 C219.98 79.73, 225.69 84.92, 236.6 94.72" stroke="#1e1e1e" stroke-width="2" fill="none"></path></g></g><mask></mask></svg>