<svg version="1.1" xmlns="http://www.w3.org/2000/svg" viewBox="0 0 1580.0756704170494 735.5555555555557" width="3160.151340834099" height="1471.1111111111113">
  <!-- svg-source:excalidraw -->
  
  <defs>
    <style class="style-fonts">
      @font-face {
        font-family: "Virgil";
        src: url("https://unpkg.com/@excalidraw/excalidraw@undefined/dist/excalidraw-assets/Virgil.woff2");
      }
      @font-face {
        font-family: "Cascadia";
        src: url("https://unpkg.com/@excalidraw/excalidraw@undefined/dist/excalidraw-assets/Cascadia.woff2");
      }
      @font-face {
        font-family: "Assistant";
        src: url("https://unpkg.com/@excalidraw/excalidraw@undefined/dist/excalidraw-assets/Assistant-Regular.woff2");
      }
    </style>
    
  </defs>
  <rect x="0" y="0" width="1580.0756704170494" height="735.5555555555557" fill="#ffffff"></rect><g stroke-linecap="round" transform="translate(10 316.5416666666667) rotate(0 113.041015625 47.8359375)"><path d="M23.92 0 C87.6 -0.02, 154.19 -2.67, 202.16 0 M23.92 0 C60.26 0.44, 97.11 -1.12, 202.16 0 M202.16 0 C219.47 1.97, 225.86 6.45, 226.08 23.92 M202.16 0 C218.26 1.38, 225.81 7.61, 226.08 23.92 M226.08 23.92 C224.42 34.51, 225.78 47.28, 226.08 71.75 M226.08 23.92 C225.73 40.28, 226 55.56, 226.08 71.75 M226.08 71.75 C227.4 87.9, 219.61 95.83, 202.16 95.67 M226.08 71.75 C224.77 85.96, 218.4 94.67, 202.16 95.67 M202.16 95.67 C161.48 93.61, 117.44 96.68, 23.92 95.67 M202.16 95.67 C158.72 94.9, 112.8 93.3, 23.92 95.67 M23.92 95.67 C9.46 94.79, -1.43 86.82, 0 71.75 M23.92 95.67 C8.79 93.7, -1.5 86.07, 0 71.75 M0 71.75 C-0.59 55.6, -1.09 40.13, 0 23.92 M0 71.75 C-0.42 59.82, -0.51 50.13, 0 23.92 M0 23.92 C1.16 6.41, 8.28 1.46, 23.92 0 M0 23.92 C-0.91 9.06, 6.75 0.6, 23.92 0" stroke="#1e1e1e" stroke-width="2" fill="none"></path></g><g transform="translate(100.70101547241211 351.8776041666667) rotate(0 22.34000015258789 12.5)"><text x="22.34000015258789" y="0" font-family="Virgil, Segoe UI Emoji" font-size="20px" fill="#1e1e1e" text-anchor="middle" style="white-space: pre;" direction="ltr" dominant-baseline="text-before-edge">User</text></g><g stroke-linecap="round"><g transform="translate(244.52734375 401.1158854166667) rotate(0 68.078125 34.474609375)"><path d="M0.3 -1.08 C22.87 10.39, 112.5 56.87, 135.2 68.6 M-1 0.97 C21.95 12.63, 114.6 58.92, 137.41 69.95" stroke="#2f9e44" stroke-width="2" fill="none"></path></g><g transform="translate(244.52734375 401.1158854166667) rotate(0 68.078125 34.474609375)"><path d="M30.05 2.73 C19.88 0.14, 12.71 1.18, 0.3 -1.08 M30.05 2.73 C20.37 1.89, 9.65 0.84, 0.3 -1.08" stroke="#2f9e44" stroke-width="2" fill="none"></path></g><g transform="translate(244.52734375 401.1158854166667) rotate(0 68.078125 34.474609375)"><path d="M20.64 20.97 C13.15 13.21, 8.63 9.12, 0.3 -1.08 M20.64 20.97 C14.15 14.12, 6.54 7.07, 0.3 -1.08" stroke="#2f9e44" stroke-width="2" fill="none"></path></g><g transform="translate(244.52734375 401.1158854166667) rotate(0 68.078125 34.474609375)"><path d="M107.58 66.69 C114.18 65.94, 123.79 68.97, 137.41 69.95 M107.58 66.69 C117.49 68.21, 126.41 69.5, 137.41 69.95" stroke="#2f9e44" stroke-width="2" fill="none"></path></g><g transform="translate(244.52734375 401.1158854166667) rotate(0 68.078125 34.474609375)"><path d="M116.66 48.28 C120.67 52.74, 127.73 60.96, 137.41 69.95 M116.66 48.28 C123.48 55.86, 129.41 63.22, 137.41 69.95" stroke="#2f9e44" stroke-width="2" fill="none"></path></g></g><mask></mask><g stroke-linecap="round"><g transform="translate(238.22265625 328.5416666666667) rotate(0 71.763671875 -2.1796875)"><path d="M1 -0.49 C24.99 -1.13, 120.75 -2.75, 144.36 -3.26 M0.06 -1.8 C23.93 -2.79, 119.67 -4.19, 143.84 -4.8" stroke="#1e1e1e" stroke-width="2" fill="none"></path></g><g transform="translate(238.22265625 328.5416666666667) rotate(0 71.763671875 -2.1796875)"><path d="M28.98 -11.3 C18.89 -6.09, 12.25 -5.33, 1 -0.49 M28.98 -11.3 C18.56 -6.64, 7.94 -3.97, 1 -0.49" stroke="#1e1e1e" stroke-width="2" fill="none"></path></g><g transform="translate(238.22265625 328.5416666666667) rotate(0 71.763671875 -2.1796875)"><path d="M29.38 9.22 C19.07 7.6, 12.29 1.54, 1 -0.49 M29.38 9.22 C19 6.33, 8.24 1.45, 1 -0.49" stroke="#1e1e1e" stroke-width="2" fill="none"></path></g><g transform="translate(238.22265625 328.5416666666667) rotate(0 71.763671875 -2.1796875)"><path d="M115.86 6.01 C124.3 3.56, 136.27 -2.87, 143.84 -4.8 M115.86 6.01 C126.23 2.39, 136.2 -2.89, 143.84 -4.8" stroke="#1e1e1e" stroke-width="2" fill="none"></path></g><g transform="translate(238.22265625 328.5416666666667) rotate(0 71.763671875 -2.1796875)"><path d="M115.46 -14.51 C124.12 -10.13, 136.23 -9.73, 143.84 -4.8 M115.46 -14.51 C125.78 -10.58, 135.9 -8.32, 143.84 -4.8" stroke="#1e1e1e" stroke-width="2" fill="none"></path></g></g><mask></mask><g stroke-linecap="round" transform="translate(398.76171875 207.09635416666669) rotate(0 113.041015625 223.3359375)"><path d="M32 0 C93.03 -0.31, 157.61 0.23, 194.08 0 M32 0 C63.81 -0.21, 96.88 -1.21, 194.08 0 M194.08 0 C213.61 -1.68, 225.98 8.89, 226.08 32 M194.08 0 C215.41 0.23, 224.69 12.82, 226.08 32 M226.08 32 C225.98 180.6, 226.43 327.74, 226.08 414.67 M226.08 32 C227.46 140.59, 226.72 248.08, 226.08 414.67 M226.08 414.67 C226.7 435.89, 214.63 446.97, 194.08 446.67 M226.08 414.67 C226.66 436.86, 215.35 447.94, 194.08 446.67 M194.08 446.67 C131.54 445.69, 68.94 445.05, 32 446.67 M194.08 446.67 C150.78 446.4, 107.81 446.55, 32 446.67 M32 446.67 C10.76 445.23, -0.14 436.5, 0 414.67 M32 446.67 C12.88 448.5, -0.63 434.22, 0 414.67 M0 414.67 C-0.33 296.95, -0.17 182.08, 0 32 M0 414.67 C-0.25 317.13, -0.17 218.74, 0 32 M0 32 C-0.24 10.91, 10.83 1.69, 32 0 M0 32 C-0.05 10, 9.01 -0.96, 32 0" stroke="#1e1e1e" stroke-width="2" fill="none"></path></g><g transform="translate(445.05272674560547 405.4322916666667) rotate(0 66.75000762939453 25)"><text x="66.75000762939453" y="0" font-family="Virgil, Segoe UI Emoji" font-size="20px" fill="#1e1e1e" text-anchor="middle" style="white-space: pre;" direction="ltr" dominant-baseline="text-before-edge">API Gateway</text><text x="66.75000762939453" y="25" font-family="Virgil, Segoe UI Emoji" font-size="20px" fill="#1e1e1e" text-anchor="middle" style="white-space: pre;" direction="ltr" dominant-baseline="text-before-edge">/LB</text></g><g stroke-linecap="round" transform="translate(773.0322265625 544.5807291666667) rotate(0 154.041015625 80.3359375)"><path d="M32 0 C115.11 0.97, 200.08 0.14, 276.08 0 M32 0 C109.93 0.5, 188 0.07, 276.08 0 M276.08 0 C295.74 -1.54, 307.97 11.36, 308.08 32 M276.08 0 C299.15 -1.59, 309.54 10.59, 308.08 32 M308.08 32 C309.28 58.34, 307.22 81.46, 308.08 128.67 M308.08 32 C308.77 61.59, 308.55 91.42, 308.08 128.67 M308.08 128.67 C306.69 149.76, 299.09 159.49, 276.08 160.67 M308.08 128.67 C309.69 150.09, 298.4 159.37, 276.08 160.67 M276.08 160.67 C180.82 158.21, 85.58 158.74, 32 160.67 M276.08 160.67 C188.81 159.15, 102.55 159.31, 32 160.67 M32 160.67 C12.21 162.65, -1.72 148.25, 0 128.67 M32 160.67 C10.97 158.47, -0.2 150.27, 0 128.67 M0 128.67 C-0.45 96.31, -1.65 63.27, 0 32 M0 128.67 C0.54 93.35, 0.02 58.46, 0 32 M0 32 C1.84 9.11, 8.74 -1.76, 32 0 M0 32 C-1.25 9.64, 8.53 -1.21, 32 0" stroke="#1e1e1e" stroke-width="2" fill="none"></path></g><g transform="translate(860.1432418823242 549.5807291666667) rotate(0 66.93000030517578 12.5)"><text x="66.93000030517578" y="0" font-family="Virgil, Segoe UI Emoji" font-size="20px" fill="#1e1e1e" text-anchor="middle" style="white-space: pre;" direction="ltr" dominant-baseline="text-before-edge">Follow Service</text></g><g stroke-linecap="round" transform="translate(775.0322265625 304.8307291666667) rotate(0 154.041015625 86.83593750000001)"><path d="M32 0 C110.45 -0.21, 192.5 1.85, 276.08 0 M32 0 C91.03 -0.03, 150.67 -0.55, 276.08 0 M276.08 0 C299.38 -1.75, 306.83 9.67, 308.08 32 M276.08 0 C299.06 -0.93, 307.99 12.11, 308.08 32 M308.08 32 C307.76 68.16, 307.64 107, 308.08 141.67 M308.08 32 C307.7 67.71, 308.81 102.3, 308.08 141.67 M308.08 141.67 C307.11 164.46, 296.44 172.28, 276.08 173.67 M308.08 141.67 C309.4 165.21, 296.51 172.87, 276.08 173.67 M276.08 173.67 C214.16 174.62, 153.1 172.42, 32 173.67 M276.08 173.67 C184.9 174.89, 94.59 174.95, 32 173.67 M32 173.67 C10.82 175.43, 0.63 161.19, 0 141.67 M32 173.67 C11.93 174.8, -1.11 162.76, 0 141.67 M0 141.67 C-1.74 112.48, -0.5 85.15, 0 32 M0 141.67 C-0.38 110.76, -1.11 78.33, 0 32 M0 32 C-0.07 8.77, 9.04 -1.16, 32 0 M0 32 C1.8 8.83, 8.8 0.47, 32 0" stroke="#1e1e1e" stroke-width="2" fill="none"></path></g><g transform="translate(867.943244934082 448.5026041666667) rotate(0 61.12999725341797 12.5)"><text x="61.12999725341797" y="0" font-family="Virgil, Segoe UI Emoji" font-size="20px" fill="#1e1e1e" text-anchor="middle" style="white-space: pre;" direction="ltr" dominant-baseline="text-before-edge">Feed Service</text></g><g stroke-linecap="round" transform="translate(809.5732421875 621.1666666666667) rotate(0 121.05555555555554 30.5)"><path d="M15.25 0 C59.12 1.5, 104.96 1, 226.86 0 M15.25 0 C90.79 0.98, 166.21 -0.31, 226.86 0 M226.86 0 C237.47 -0.51, 240.88 4.48, 242.11 15.25 M226.86 0 C236.98 1.76, 243.81 4.04, 242.11 15.25 M242.11 15.25 C243.87 23.94, 240.71 30.57, 242.11 45.75 M242.11 15.25 C241.52 20.71, 241.46 28.1, 242.11 45.75 M242.11 45.75 C240.18 56.63, 236.35 59.98, 226.86 61 M242.11 45.75 C240.77 56.84, 239.11 61.32, 226.86 61 M226.86 61 C160.38 61.76, 92.3 59.32, 15.25 61 M226.86 61 C153.96 62.53, 80.19 61.71, 15.25 61 M15.25 61 C6.29 62.83, -0.51 54.68, 0 45.75 M15.25 61 C7 62.39, 1.06 55.84, 0 45.75 M0 45.75 C2 41.16, 0.81 33.61, 0 15.25 M0 45.75 C0.5 39.94, 0.76 32.67, 0 15.25 M0 15.25 C1.54 4.87, 6.44 0.91, 15.25 0 M0 15.25 C-0.33 4.38, 2.8 -1.85, 15.25 0" stroke="#1e1e1e" stroke-width="2" fill="none"></path></g><g transform="translate(858.3587934705947 639.1666666666667) rotate(0 72.27000427246094 12.5)"><text x="72.27000427246094" y="0" font-family="Virgil, Segoe UI Emoji" font-size="20px" fill="#1e1e1e" text-anchor="middle" style="white-space: pre;" direction="ltr" dominant-baseline="text-before-edge">Follow/Unfollow</text></g><g stroke-linecap="round" transform="translate(1287.4065755208333 596.5555555555557) rotate(0 100.5 64.5)"><path d="M128.69 3.58 C141.3 4.96, 154.26 10.26, 164.81 15.86 C175.36 21.47, 185.84 29.44, 192 37.22 C198.15 45.01, 201.56 53.77, 201.73 62.59 C201.9 71.41, 198.33 82.07, 193.02 90.14 C187.71 98.2, 179.68 105.2, 169.86 110.98 C160.04 116.77, 147.1 121.74, 134.1 124.82 C121.11 127.9, 105.62 129.91, 91.89 129.46 C78.16 129.02, 63.65 126.3, 51.71 122.14 C39.78 117.97, 28.49 111.64, 20.28 104.47 C12.07 97.3, 5.6 87.84, 2.47 79.12 C-0.66 70.4, -1.01 60.81, 1.48 52.16 C3.98 43.51, 9.61 34.32, 17.45 27.2 C25.28 20.09, 37.01 14.02, 48.5 9.48 C59.99 4.94, 72.19 1.09, 86.38 -0.01 C100.57 -1.12, 124.9 1.97, 133.64 2.87 C142.39 3.77, 139.36 4.36, 138.85 5.39 M116.86 1.8 C129.94 2.29, 143.56 6.84, 154.73 11.64 C165.9 16.44, 176.45 23.21, 183.89 30.61 C191.33 38, 197.22 47.76, 199.37 56.03 C201.53 64.29, 200.51 72.07, 196.81 80.21 C193.12 88.34, 185.82 97.79, 177.22 104.85 C168.61 111.91, 156.95 118.66, 145.2 122.55 C133.45 126.44, 120.35 127.93, 106.73 128.2 C93.1 128.47, 76.6 127.18, 63.45 124.18 C50.3 121.18, 37.53 116.24, 27.81 110.21 C18.09 104.18, 9.78 96.47, 5.12 87.99 C0.45 79.52, -1.01 67.97, -0.17 59.37 C0.67 50.76, 3.76 43.75, 10.16 36.39 C16.56 29.02, 27.65 21.1, 38.24 15.19 C48.84 9.28, 60.62 3.49, 73.73 0.92 C86.84 -1.64, 110.06 -0.55, 116.92 -0.21 C123.79 0.13, 115.32 1.59, 114.92 2.96" stroke="#1e1e1e" stroke-width="2" fill="none"></path></g><g transform="translate(1339.6023423331185 648.4471681690234) rotate(0 48.2400016784668 12.5)"><text x="48.2400016784668" y="0" font-family="Virgil, Segoe UI Emoji" font-size="20px" fill="#1e1e1e" text-anchor="middle" style="white-space: pre;" direction="ltr" dominant-baseline="text-before-edge">Follow DB</text></g><g stroke-linecap="round"><g transform="translate(1061.9343532986113 671.4483570971988) rotate(0 114.95299851053187 -18.32282709752519)"><path d="M0.42 0.11 C38.8 -5.62, 191.57 -29.55, 229.74 -35.5 M-0.82 -0.87 C37.44 -6.82, 190.5 -30.94, 228.71 -37.02" stroke="#1e1e1e" stroke-width="2" fill="none"></path></g><g transform="translate(1061.9343532986113 671.4483570971988) rotate(0 114.95299851053187 -18.32282709752519)"><path d="M202.47 -22.48 C209.44 -26.54, 217.81 -30.76, 228.71 -37.02 M202.47 -22.48 C213.3 -27.42, 221.95 -34.34, 228.71 -37.02" stroke="#1e1e1e" stroke-width="2" fill="none"></path></g><g transform="translate(1061.9343532986113 671.4483570971988) rotate(0 114.95299851053187 -18.32282709752519)"><path d="M199.26 -42.75 C206.86 -41.68, 216.04 -40.77, 228.71 -37.02 M199.26 -42.75 C211.21 -39.82, 221.1 -38.88, 228.71 -37.02" stroke="#1e1e1e" stroke-width="2" fill="none"></path></g></g><mask></mask><g stroke-linecap="round"><g transform="translate(640.84375 540.8074560659586) rotate(0 80.17806520481963 56.72877899371281)"><path d="M0.44 1.09 C27.12 20.15, 133.89 95.11, 160.66 113.7 M-0.79 0.62 C25.71 19.34, 132.96 92.89, 159.88 111.7" stroke="#2f9e44" stroke-width="2" fill="none"></path></g><g transform="translate(640.84375 540.8074560659586) rotate(0 80.17806520481963 56.72877899371281)"><path d="M130.86 104.1 C142.67 107.14, 151.3 110.5, 159.88 111.7 M130.86 104.1 C138.31 106.67, 144.5 108.43, 159.88 111.7" stroke="#2f9e44" stroke-width="2" fill="none"></path></g><g transform="translate(640.84375 540.8074560659586) rotate(0 80.17806520481963 56.72877899371281)"><path d="M142.53 87.23 C150.22 96.14, 154.8 105.34, 159.88 111.7 M142.53 87.23 C147.27 93.72, 150.77 99.36, 159.88 111.7" stroke="#2f9e44" stroke-width="2" fill="none"></path></g></g><mask></mask><g stroke-linecap="round" transform="translate(832.8232421875 132.41666666666669) rotate(0 88.5 32)"><path d="M16 0 C65.38 2.65, 111.75 1.28, 161 0 M16 0 C59.59 -0.48, 103.73 -0.02, 161 0 M161 0 C173.06 0.05, 177.4 6.67, 177 16 M161 0 C169.55 -2.23, 178.93 3.51, 177 16 M177 16 C176.82 24.3, 176.83 30.52, 177 48 M177 16 C177.13 26.24, 176.48 37.9, 177 48 M177 48 C176.1 58.02, 170.71 64.7, 161 64 M177 48 C175.82 56.91, 170.09 64.86, 161 64 M161 64 C120.43 63.77, 79.71 64.04, 16 64 M161 64 C121.3 64.14, 82.22 64.13, 16 64 M16 64 C4.11 65.33, 1.03 58.92, 0 48 M16 64 C7.36 61.97, 1.93 57.5, 0 48 M0 48 C1.23 39.51, 1.39 28.78, 0 16 M0 48 C0.67 37.79, 0.08 25.46, 0 16 M0 16 C1.21 4.66, 3.9 1.58, 16 0 M0 16 C1.02 5.77, 3.14 -1.32, 16 0" stroke="#1e1e1e" stroke-width="2" fill="none"></path></g><g transform="translate(864.0932388305664 151.91666666666669) rotate(0 57.230003356933594 12.5)"><text x="57.230003356933594" y="0" font-family="Virgil, Segoe UI Emoji" font-size="20px" fill="#1e1e1e" text-anchor="middle" style="white-space: pre;" direction="ltr" dominant-baseline="text-before-edge">CreatePost</text></g><g stroke-linecap="round" transform="translate(840.5732421875 340.6666666666667) rotate(0 88.5 32)"><path d="M16 0 C44.25 0.66, 76.65 -0.27, 161 0 M16 0 C51.6 1.66, 84.89 0.48, 161 0 M161 0 C173.39 0.37, 176.97 7.11, 177 16 M161 0 C170.41 -1.1, 177.01 3.6, 177 16 M177 16 C175.51 25.2, 175.71 29.74, 177 48 M177 16 C175.96 25.63, 177.73 34.59, 177 48 M177 48 C178.77 57.61, 169.89 63.41, 161 64 M177 48 C178.27 57.63, 172.66 64.01, 161 64 M161 64 C126.32 64.18, 93.67 63.46, 16 64 M161 64 C119.23 65.44, 76.67 64.27, 16 64 M16 64 C3.52 63.02, 1.4 59.21, 0 48 M16 64 C6.22 63.47, -0.03 60.27, 0 48 M0 48 C0.85 39.84, 0.75 35.03, 0 16 M0 48 C-1.1 38.7, -0.61 31.44, 0 16 M0 16 C1.83 5.13, 3.35 -1.69, 16 0 M0 16 C-1.36 6.12, 6.95 -0.62, 16 0" stroke="#1e1e1e" stroke-width="2" fill="none"></path></g><g transform="translate(887.693244934082 360.1666666666667) rotate(0 41.37999725341797 12.5)"><text x="41.37999725341797" y="0" font-family="Virgil, Segoe UI Emoji" font-size="20px" fill="#1e1e1e" text-anchor="middle" style="white-space: pre;" direction="ltr" dominant-baseline="text-before-edge">GetFeed</text></g><g stroke-linecap="round"><g transform="translate(640.5732421875 270.08401931794333) rotate(0 91.83822453632888 -49.95867632563832)"><path d="M-0.79 1.07 C30.05 -15.55, 153.65 -82.83, 184.23 -99.48 M0.99 0.59 C31.8 -16.41, 152.89 -84.51, 183.58 -101.37" stroke="#1e1e1e" stroke-width="2" fill="none"></path></g><g transform="translate(640.5732421875 270.08401931794333) rotate(0 91.83822453632888 -49.95867632563832)"><path d="M163.93 -78.7 C170.17 -82.83, 173.61 -90.54, 183.58 -101.37 M163.93 -78.7 C172.05 -87.58, 178.68 -96.13, 183.58 -101.37" stroke="#1e1e1e" stroke-width="2" fill="none"></path></g><g transform="translate(640.5732421875 270.08401931794333) rotate(0 91.83822453632888 -49.95867632563832)"><path d="M153.95 -96.63 C162.5 -96.59, 168.23 -100.2, 183.58 -101.37 M153.95 -96.63 C165.99 -98.57, 176.54 -100.09, 183.58 -101.37" stroke="#1e1e1e" stroke-width="2" fill="none"></path></g></g><mask></mask><g stroke-linecap="round"><g transform="translate(645.5732421875 392.19452276011145) rotate(0 92.64297753059839 -5.013928046722377)"><path d="M0.13 -0.9 C30.98 -2.58, 154.96 -9.14, 185.96 -10.65 M-1.26 1.25 C29.41 -0.23, 154.18 -7.8, 185.36 -9.44" stroke="#1e1e1e" stroke-width="2" fill="none"></path></g><g transform="translate(645.5732421875 392.19452276011145) rotate(0 92.64297753059839 -5.013928046722377)"><path d="M157.8 2.41 C166.64 -0.93, 177.38 -5.06, 185.36 -9.44 M157.8 2.41 C166.1 -0.48, 175.49 -6.06, 185.36 -9.44" stroke="#1e1e1e" stroke-width="2" fill="none"></path></g><g transform="translate(645.5732421875 392.19452276011145) rotate(0 92.64297753059839 -5.013928046722377)"><path d="M156.63 -18.08 C165.81 -13.77, 176.99 -10.26, 185.36 -9.44 M156.63 -18.08 C165.29 -14.73, 175.04 -14.06, 185.36 -9.44" stroke="#1e1e1e" stroke-width="2" fill="none"></path></g></g><mask></mask><g stroke-linecap="round" transform="translate(1320.8284768742355 10) rotate(0 103.7196048788544 53.177918270833345)"><path d="M128.09 0.87 C141.43 1.73, 156.57 6.93, 167.88 11.42 C179.18 15.91, 189.36 21.49, 195.93 27.83 C202.5 34.16, 206.41 42.17, 207.29 49.44 C208.17 56.7, 206.04 64.57, 201.23 71.42 C196.42 78.27, 188.01 85.29, 178.44 90.55 C168.86 95.81, 156.77 100.42, 143.76 102.98 C130.75 105.54, 114.74 106.22, 100.38 105.92 C86.02 105.61, 70.25 104.09, 57.61 101.14 C44.96 98.2, 33.52 93.83, 24.52 88.24 C15.51 82.64, 7.57 74.44, 3.55 67.55 C-0.47 60.67, -1.72 54.15, 0.39 46.93 C2.5 39.71, 8.86 30.43, 16.2 24.25 C23.54 18.08, 32.77 13.73, 44.42 9.89 C56.07 6.05, 70.23 2.34, 86.08 1.22 C101.93 0.11, 128.82 2.14, 139.51 3.18 C150.21 4.22, 150.76 6.68, 150.25 7.45 M100.79 -1.36 C114.22 -2.46, 130.11 1.43, 143.24 4.17 C156.38 6.91, 170.08 10.02, 179.61 15.1 C189.15 20.18, 195.81 27.59, 200.47 34.64 C205.13 41.68, 208.45 50.28, 207.58 57.35 C206.71 64.42, 201.98 70.82, 195.25 77.05 C188.52 83.28, 178.25 89.98, 167.2 94.73 C156.14 99.47, 142.53 103.56, 128.9 105.52 C115.27 107.49, 99.41 107.72, 85.43 106.55 C71.45 105.37, 56.51 102.75, 45 98.46 C33.48 94.18, 23.8 87.38, 16.33 80.84 C8.86 74.3, 2.05 66.04, 0.18 59.22 C-1.68 52.4, 1.03 46.67, 5.14 39.93 C9.24 33.19, 16.06 24.48, 24.82 18.79 C33.58 13.09, 45.11 9.11, 57.72 5.77 C70.32 2.42, 93.55 -0.74, 100.44 -1.3 C107.32 -1.86, 98.93 1.21, 99.04 2.41" stroke="#1e1e1e" stroke-width="2" fill="none"></path></g><g transform="translate(1397.667246793084 38.0754516521431) rotate(0 27.03999900817871 25)"><text x="27.03999900817871" y="0" font-family="Virgil, Segoe UI Emoji" font-size="20px" fill="#1e1e1e" text-anchor="middle" style="white-space: pre;" direction="ltr" dominant-baseline="text-before-edge">Post</text><text x="27.03999900817871" y="25" font-family="Virgil, Segoe UI Emoji" font-size="20px" fill="#1e1e1e" text-anchor="middle" style="white-space: pre;" direction="ltr" dominant-baseline="text-before-edge">Store</text></g><g stroke-linecap="round"><g transform="translate(1020.7649424476999 131.28565145194239) rotate(0 148.71465700067915 -20.747750439469144)"><path d="M-0.33 -0.39 C48.86 -7.12, 246.69 -34.5, 296.37 -41.24 M1.69 -1.63 C51.14 -8.68, 249.28 -36.37, 298.52 -43.24" stroke="#1e1e1e" stroke-width="2" fill="none"></path></g><g transform="translate(1020.7649424476999 131.28565145194239) rotate(0 148.71465700067915 -20.747750439469144)"><path d="M272.02 -29.18 C282.07 -36.49, 293.72 -39.81, 298.52 -43.24 M272.02 -29.18 C281.6 -34.58, 290.63 -39.83, 298.52 -43.24" stroke="#1e1e1e" stroke-width="2" fill="none"></path></g><g transform="translate(1020.7649424476999 131.28565145194239) rotate(0 148.71465700067915 -20.747750439469144)"><path d="M269.18 -49.5 C280.22 -48.68, 293.01 -43.88, 298.52 -43.24 M269.18 -49.5 C279.87 -47.68, 289.92 -45.7, 298.52 -43.24" stroke="#1e1e1e" stroke-width="2" fill="none"></path></g></g><mask></mask><g mask="url(#mask-L72J386JWwccKPn0qEwc-)" stroke-linecap="round"><g transform="translate(1020.6354208517291 360.8146088007624) rotate(0 168.91200336929205 28.389041963279034)"><path d="M0.93 -0.55 C57.11 8.86, 281.09 46.55, 337.11 55.96 M-0.04 1.78 C56.53 11.36, 282.86 47.9, 339.45 57.07" stroke="#1e1e1e" stroke-width="2" fill="none"></path></g><g transform="translate(1020.6354208517291 360.8146088007624) rotate(0 168.91200336929205 28.389041963279034)"><path d="M309.98 62.7 C317.96 59.58, 326.4 57.73, 339.45 57.07 M309.98 62.7 C316.76 62.35, 323.66 59.41, 339.45 57.07" stroke="#1e1e1e" stroke-width="2" fill="none"></path></g><g transform="translate(1020.6354208517291 360.8146088007624) rotate(0 168.91200336929205 28.389041963279034)"><path d="M313.26 42.44 C320.17 45.46, 327.62 49.71, 339.45 57.07 M313.26 42.44 C319.11 46.75, 325.26 48.49, 339.45 57.07" stroke="#1e1e1e" stroke-width="2" fill="none"></path></g></g><mask id="mask-L72J386JWwccKPn0qEwc-"><rect x="0" y="0" fill="#fff" width="1458.4594275903132" height="517.5926927273205"></rect><rect x="1182.427424335462" y="376.70365076404147" fill="#000" width="14.239999771118164" height="25" opacity="1"></rect></mask><g transform="translate(1182.4274243354623 376.70365076404147) rotate(0 7.909858317496287 12.373390923677949)"><text x="7.119999885559082" y="0" font-family="Virgil, Segoe UI Emoji" font-size="20px" fill="#1e1e1e" text-anchor="middle" style="white-space: pre;" direction="ltr" dominant-baseline="text-before-edge">2</text></g><g stroke-linecap="round" transform="translate(760.37060546875 82.49869791666669) rotate(0 154.041015625 86.83593750000001)"><path d="M32 0 C124.2 -0.99, 219.11 -2.66, 276.08 0 M32 0 C102.64 -0.21, 173.72 -0.36, 276.08 0 M276.08 0 C296.7 1.76, 307.24 10.26, 308.08 32 M276.08 0 C296.81 0.5, 309.6 10.34, 308.08 32 M308.08 32 C308.53 57.77, 306.68 84.49, 308.08 141.67 M308.08 32 C308.9 63.98, 307.59 95.57, 308.08 141.67 M308.08 141.67 C307.15 163.62, 298.99 172.71, 276.08 173.67 M308.08 141.67 C307.25 161.28, 298.51 172.44, 276.08 173.67 M276.08 173.67 C223.44 172.52, 169.69 173.87, 32 173.67 M276.08 173.67 C195.81 172.93, 113.63 173.18, 32 173.67 M32 173.67 C11.75 174.4, 0.05 161.38, 0 141.67 M32 173.67 C10.4 172.55, -1.38 165.3, 0 141.67 M0 141.67 C-1.92 117.14, -0.87 90.07, 0 32 M0 141.67 C-1.57 108.34, -0.4 74.52, 0 32 M0 32 C0.35 9.52, 10.62 0.93, 32 0 M0 32 C1.6 8.58, 11.82 -1.98, 32 0" stroke="#1e1e1e" stroke-width="2" fill="none"></path></g><g transform="translate(852.4216232299805 226.1705729166667) rotate(0 61.98999786376953 12.5)"><text x="61.98999786376953" y="0" font-family="Virgil, Segoe UI Emoji" font-size="20px" fill="#1e1e1e" text-anchor="middle" style="white-space: pre;" direction="ltr" dominant-baseline="text-before-edge">Post Service</text></g><g mask="url(#mask-JfYtMkaPdx058NbBFgjxu)" stroke-linecap="round"><g transform="translate(1024.4125207001575 408.98478463140225) rotate(0 138.08797682699378 102.09708378892218)"><path d="M0.35 -1.02 C46.4 32.93, 229.39 168.92, 275.44 203 M-0.93 1.06 C45.59 35.17, 231.6 170.03, 277.77 203.92" stroke="#1e1e1e" stroke-width="2" fill="none"></path></g><g transform="translate(1024.4125207001575 408.98478463140225) rotate(0 138.08797682699378 102.09708378892218)"><path d="M248.95 195.6 C253.73 196.18, 259.97 200.07, 277.77 203.92 M248.95 195.6 C256.23 197.78, 263.46 200.2, 277.77 203.92" stroke="#1e1e1e" stroke-width="2" fill="none"></path></g><g transform="translate(1024.4125207001575 408.98478463140225) rotate(0 138.08797682699378 102.09708378892218)"><path d="M261.03 179.02 C262.99 183.39, 266.49 191.03, 277.77 203.92 M261.03 179.02 C265.54 185.08, 269.88 191.47, 277.77 203.92" stroke="#1e1e1e" stroke-width="2" fill="none"></path></g></g><mask id="mask-JfYtMkaPdx058NbBFgjxu"><rect x="0" y="0" fill="#fff" width="1400.588474354145" height="713.1789522092466"></rect><rect x="1159.7904974890043" y="498.58186842032444" fill="#000" width="5.420000076293945" height="25" opacity="1"></rect></mask><g transform="translate(1159.7904974890043 498.58186842032444) rotate(0 3.044610318634682 11.85278967997992)"><text x="2.7100000381469727" y="0" font-family="Virgil, Segoe UI Emoji" font-size="20px" fill="#1e1e1e" text-anchor="middle" style="white-space: pre;" direction="ltr" dominant-baseline="text-before-edge">1</text></g><g stroke-linecap="round" transform="translate(1362.6364606593404 391.8088438819444) rotate(0 103.71960487885451 53.177918270833345)"><path d="M62.29 3.89 C73.76 0.5, 90.04 0.16, 104.23 0.18 C118.42 0.19, 134.37 1.05, 147.43 3.97 C160.48 6.9, 173.49 12.16, 182.55 17.73 C191.62 23.29, 197.84 30.53, 201.82 37.38 C205.8 44.23, 207.96 51.79, 206.41 58.84 C204.87 65.89, 199.62 73.51, 192.53 79.68 C185.45 85.86, 175.19 91.57, 163.9 95.87 C152.61 100.16, 138.52 103.9, 124.79 105.47 C111.06 107.04, 95.2 106.84, 81.51 105.28 C67.82 103.72, 53.88 100.51, 42.68 96.13 C31.48 91.76, 21.41 85.39, 14.3 79.02 C7.19 72.64, 1.63 65.17, 0.03 57.87 C-1.57 50.56, 0.14 42.08, 4.7 35.18 C9.25 28.29, 15.23 22.18, 27.36 16.49 C39.49 10.79, 66.27 3.57, 77.47 1.03 C88.68 -1.52, 94.02 0.27, 94.59 1.21 M60.09 5.27 C71.54 1.82, 87.17 0.28, 101.29 0.03 C115.41 -0.22, 131.61 0.68, 144.79 3.76 C157.97 6.85, 170.91 13.08, 180.39 18.55 C189.88 24.02, 197.46 29.82, 201.69 36.57 C205.93 43.32, 207.06 52.16, 205.79 59.07 C204.51 65.98, 200.86 71.97, 194.06 78.05 C187.25 84.12, 176.34 90.99, 164.97 95.53 C153.6 100.07, 139.23 103.54, 125.83 105.28 C112.44 107.02, 98.43 107.27, 84.59 105.96 C70.74 104.66, 54.56 101.53, 42.77 97.46 C30.98 93.38, 20.78 87.66, 13.86 81.53 C6.94 75.4, 2.73 67.89, 1.25 60.66 C-0.22 53.43, 1.12 45.49, 5.02 38.17 C8.91 30.84, 15.34 22.36, 24.61 16.69 C33.89 11.02, 54.35 5.91, 60.67 4.14 C66.99 2.37, 61.65 4.91, 62.53 6.06" stroke="#1e1e1e" stroke-width="2" fill="none"></path></g><g transform="translate(1439.4752305781888 419.8842955340875) rotate(0 27.03999900817871 25)"><text x="27.03999900817871" y="0" font-family="Virgil, Segoe UI Emoji" font-size="20px" fill="#1e1e1e" text-anchor="middle" style="white-space: pre;" direction="ltr" dominant-baseline="text-before-edge">Feed</text><text x="27.03999900817871" y="25" font-family="Virgil, Segoe UI Emoji" font-size="20px" fill="#1e1e1e" text-anchor="middle" style="white-space: pre;" direction="ltr" dominant-baseline="text-before-edge">Store</text></g><g stroke-linecap="round"><g transform="translate(1416.3560655381943 127.20898437500003) rotate(0 5 27.222222222222243)"><path d="M1.06 0.02 C2.84 9.15, 8.82 44.92, 10.25 54.13 M0.15 -1.01 C1.84 8.35, 8.01 46.43, 9.43 55.5" stroke="#1e1e1e" stroke-width="2" fill="none"></path></g><g transform="translate(1416.3560655381943 127.20898437500003) rotate(0 5 27.222222222222243)"><path d="M-4.03 31.32 C-0.6 37.93, 2.36 43.23, 9.43 55.5 M-4.03 31.32 C1.57 41.08, 5.41 49.35, 9.43 55.5" stroke="#1e1e1e" stroke-width="2" fill="none"></path></g><g transform="translate(1416.3560655381943 127.20898437500003) rotate(0 5 27.222222222222243)"><path d="M14.67 28.32 C13.19 35.89, 11.26 41.97, 9.43 55.5 M14.67 28.32 C13.32 39.08, 10.22 48.46, 9.43 55.5" stroke="#1e1e1e" stroke-width="2" fill="none"></path></g></g><mask></mask><g stroke-linecap="round" transform="translate(1335.2449544270833 183.8756510416667) rotate(0 97.22222222222229 42.5)"><path d="M21.25 0 C77.48 1.09, 133.53 -0.06, 173.19 0 M21.25 0 C56.82 2.02, 90.66 0.92, 173.19 0 M173.19 0 C188 -0.97, 194.24 5.17, 194.44 21.25 M173.19 0 C187.15 0.88, 193.43 7.67, 194.44 21.25 M194.44 21.25 C193.92 29.68, 195.62 40.29, 194.44 63.75 M194.44 21.25 C195.01 33.62, 193.29 47.03, 194.44 63.75 M194.44 63.75 C195.48 79.77, 186.08 83.37, 173.19 85 M194.44 63.75 C196.14 76.16, 185.25 87.15, 173.19 85 M173.19 85 C141.72 85.95, 106.36 86.18, 21.25 85 M173.19 85 C120.87 82.76, 67.12 83.97, 21.25 85 M21.25 85 C6.65 85.09, 0.42 77.69, 0 63.75 M21.25 85 C7.99 84.61, 0.77 78, 0 63.75 M0 63.75 C1.78 47.99, -1.48 33.89, 0 21.25 M0 63.75 C-0.57 54.93, -0.16 45.86, 0 21.25 M0 21.25 C-0.59 6.3, 7.5 0.41, 21.25 0 M0 21.25 C-0.95 5.4, 8.79 -1.34, 21.25 0" stroke="#1e1e1e" stroke-width="2" fill="none"></path></g><g transform="translate(1364.1171781751846 188.8756510416667) rotate(0 68.3499984741211 37.5)"><text x="68.3499984741211" y="0" font-family="Virgil, Segoe UI Emoji" font-size="20px" fill="#1e1e1e" text-anchor="middle" style="white-space: pre;" direction="ltr" dominant-baseline="text-before-edge">Update Feeds</text><text x="68.3499984741211" y="25" font-family="Virgil, Segoe UI Emoji" font-size="20px" fill="#1e1e1e" text-anchor="middle" style="white-space: pre;" direction="ltr" dominant-baseline="text-before-edge">(For non </text><text x="68.3499984741211" y="50" font-family="Virgil, Segoe UI Emoji" font-size="20px" fill="#1e1e1e" text-anchor="middle" style="white-space: pre;" direction="ltr" dominant-baseline="text-before-edge">influencers)</text></g><g stroke-linecap="round"><g transform="translate(1442.0586066119827 260.54231770833337) rotate(0 5.0809666018780035 61.906653682412625)"><path d="M0 -1.07 C1.55 19.55, 7.35 103.81, 9.21 124.73 M-1.45 0.98 C0.47 21.79, 9.36 102.85, 11.42 123.09" stroke="#1e1e1e" stroke-width="2" fill="none"></path></g><g transform="translate(1442.0586066119827 260.54231770833337) rotate(0 5.0809666018780035 61.906653682412625)"><path d="M-1.76 96.14 C0.53 102.41, 7.69 113.52, 11.42 123.09 M-1.76 96.14 C3.55 105.47, 8.1 115.48, 11.42 123.09" stroke="#1e1e1e" stroke-width="2" fill="none"></path></g><g transform="translate(1442.0586066119827 260.54231770833337) rotate(0 5.0809666018780035 61.906653682412625)"><path d="M18.65 93.98 C15 100.88, 16.21 112.62, 11.42 123.09 M18.65 93.98 C16.75 103.94, 14.08 114.72, 11.42 123.09" stroke="#1e1e1e" stroke-width="2" fill="none"></path></g></g><mask></mask><g mask="url(#mask-1DUeLkZ-nFHchRqadR8Qu)" stroke-linecap="round"><g transform="translate(1027.2600574307469 347.77777777777777) rotate(0 156.66666666666663 -124.44444444444443)"><path d="M-0.82 -0.16 C51.28 -41.63, 260.87 -206.52, 313.09 -248.13 M0.95 -1.29 C52.82 -43.16, 259.69 -208.57, 312.01 -249.86" stroke="#1e1e1e" stroke-width="2" fill="none"></path></g><g transform="translate(1027.2600574307469 347.77777777777777) rotate(0 156.66666666666663 -124.44444444444443)"><path d="M296.33 -224.28 C301.29 -233.34, 308.18 -243.14, 312.01 -249.86 M296.33 -224.28 C299.07 -230.78, 303.62 -235.23, 312.01 -249.86" stroke="#1e1e1e" stroke-width="2" fill="none"></path></g><g transform="translate(1027.2600574307469 347.77777777777777) rotate(0 156.66666666666663 -124.44444444444443)"><path d="M283.56 -240.34 C292.97 -243.82, 304.24 -248.13, 312.01 -249.86 M283.56 -240.34 C289.1 -243.27, 296.46 -244.2, 312.01 -249.86" stroke="#1e1e1e" stroke-width="2" fill="none"></path></g></g><mask id="mask-1DUeLkZ-nFHchRqadR8Qu"><rect x="0" y="0" fill="#fff" width="1440.5933907640801" height="696.6666666666666"></rect><rect x="1097.886715552492" y="210.83333333333334" fill="#000" width="172.08001708984375" height="25" opacity="1"></rect></mask><g transform="translate(1097.8867155524918 210.83333333333334) rotate(0 85.50689956210545 11.933286939356478)"><text x="86.04000854492188" y="0" font-family="Virgil, Segoe UI Emoji" font-size="20px" fill="#1e1e1e" text-anchor="middle" style="white-space: pre;" direction="ltr" dominant-baseline="text-before-edge">3 For Influencers</text></g></svg>