<svg version="1.1" xmlns="http://www.w3.org/2000/svg" viewBox="0 0 236.80859375 150.0546875" width="236.80859375" height="150.0546875" filter="invert(93%) hue-rotate(180deg)">
  <!-- svg-source:excalidraw -->
  
  <defs>
    <style class="style-fonts">
      @font-face {
        font-family: "Virgil";
        src: url("https://unpkg.com/@excalidraw/excalidraw@undefined/dist/excalidraw-assets/Virgil.woff2");
      }
      @font-face {
        font-family: "Cascadia";
        src: url("https://unpkg.com/@excalidraw/excalidraw@undefined/dist/excalidraw-assets/Cascadia.woff2");
      }
      @font-face {
        font-family: "Assistant";
        src: url("https://unpkg.com/@excalidraw/excalidraw@undefined/dist/excalidraw-assets/Assistant-Regular.woff2");
      }
    </style>
    
  </defs>
  <rect x="0" y="0" width="236.80859375" height="150.0546875" fill="#ffffff"></rect><g stroke-linecap="round" transform="translate(10 10) rotate(0 108.404296875 65.02734375)"><path d="M32 0 C67.66 0.73, 103.86 0.97, 184.81 0 M32 0 C87.87 -1.41, 144.24 -1.39, 184.81 0 M184.81 0 C204.85 -0.47, 218.26 11.34, 216.81 32 M184.81 0 C207.04 -1.48, 216.59 8.95, 216.81 32 M216.81 32 C218.12 57.03, 215.84 80.04, 216.81 98.05 M216.81 32 C217.07 49.01, 216.84 66.88, 216.81 98.05 M216.81 98.05 C218.25 119.8, 205.98 131.06, 184.81 130.05 M216.81 98.05 C217.61 120.76, 208.23 131.14, 184.81 130.05 M184.81 130.05 C124.83 131.41, 63.78 129.42, 32 130.05 M184.81 130.05 C141.59 129.92, 98.66 130.42, 32 130.05 M32 130.05 C9.87 128.78, 1.49 117.85, 0 98.05 M32 130.05 C12.4 131.26, -1.3 119.87, 0 98.05 M0 98.05 C-2.02 79.35, -0.59 61.3, 0 32 M0 98.05 C1.42 80.74, 1.23 63.69, 0 32 M0 32 C-0.72 9.74, 11.66 1.69, 32 0 M0 32 C-0.61 8.99, 9.86 0.52, 32 0" stroke="#1e1e1e" stroke-width="2" fill="none"></path></g></svg>