<svg version="1.1" xmlns="http://www.w3.org/2000/svg" viewBox="0 0 1573.8232421875 466.671875" width="3147.646484375" height="933.34375">
  <!-- svg-source:excalidraw -->
  
  <defs>
    <style class="style-fonts">
      @font-face {
        font-family: "Virgil";
        src: url("https://unpkg.com/@excalidraw/excalidraw@undefined/dist/excalidraw-assets/Virgil.woff2");
      }
      @font-face {
        font-family: "Cascadia";
        src: url("https://unpkg.com/@excalidraw/excalidraw@undefined/dist/excalidraw-assets/Cascadia.woff2");
      }
      @font-face {
        font-family: "Assistant";
        src: url("https://unpkg.com/@excalidraw/excalidraw@undefined/dist/excalidraw-assets/Assistant-Regular.woff2");
      }
    </style>
    
  </defs>
  <rect x="0" y="0" width="1573.8232421875" height="466.671875" fill="#ffffff"></rect><g stroke-linecap="round" transform="translate(780.37060546875 15.40234375) rotate(0 154.041015625 188.50260416666669)"><path d="M32 0 C124.2 -0.99, 219.11 -2.66, 276.08 0 M32 0 C102.64 -0.21, 173.72 -0.36, 276.08 0 M276.08 0 C296.7 1.76, 307.24 10.26, 308.08 32 M276.08 0 C296.81 0.5, 309.6 10.34, 308.08 32 M308.08 32 C308.8 104.48, 307.48 177.63, 308.08 345.01 M308.08 32 C308.43 122.12, 307.5 211.95, 308.08 345.01 M308.08 345.01 C307.15 366.96, 298.99 376.04, 276.08 377.01 M308.08 345.01 C307.25 364.62, 298.51 375.77, 276.08 377.01 M276.08 377.01 C223.44 375.86, 169.69 377.21, 32 377.01 M276.08 377.01 C195.81 376.26, 113.63 376.51, 32 377.01 M32 377.01 C11.75 377.73, 0.05 364.72, 0 345.01 M32 377.01 C10.4 375.88, -1.38 368.64, 0 345.01 M0 345.01 C-2.75 270.73, -2 194.63, 0 32 M0 345.01 C-2.33 248.31, -1.5 151.28, 0 32 M0 32 C0.35 9.52, 10.62 0.93, 32 0 M0 32 C1.6 8.58, 11.82 -1.98, 32 0" stroke="#1e1e1e" stroke-width="2" fill="none"></path></g><g transform="translate(860.2216186523438 362.40755208333337) rotate(0 74.19000244140625 12.5)"><text x="74.19000244140625" y="0" font-family="Virgil, Segoe UI Emoji" font-size="20px" fill="#1e1e1e" text-anchor="middle" style="white-space: pre;" direction="ltr" dominant-baseline="text-before-edge">CommentService</text></g><g stroke-linecap="round" transform="translate(10 102.77864583333331) rotate(0 113.041015625 47.8359375)"><path d="M23.92 0 C87.6 -0.02, 154.19 -2.67, 202.16 0 M23.92 0 C60.26 0.44, 97.11 -1.12, 202.16 0 M202.16 0 C219.47 1.97, 225.86 6.45, 226.08 23.92 M202.16 0 C218.26 1.38, 225.81 7.61, 226.08 23.92 M226.08 23.92 C224.42 34.51, 225.78 47.28, 226.08 71.75 M226.08 23.92 C225.73 40.28, 226 55.56, 226.08 71.75 M226.08 71.75 C227.4 87.9, 219.61 95.83, 202.16 95.67 M226.08 71.75 C224.77 85.96, 218.4 94.67, 202.16 95.67 M202.16 95.67 C161.48 93.61, 117.44 96.68, 23.92 95.67 M202.16 95.67 C158.72 94.9, 112.8 93.3, 23.92 95.67 M23.92 95.67 C9.46 94.79, -1.43 86.82, 0 71.75 M23.92 95.67 C8.79 93.7, -1.5 86.07, 0 71.75 M0 71.75 C-0.59 55.6, -1.09 40.13, 0 23.92 M0 71.75 C-0.42 59.82, -0.51 50.13, 0 23.92 M0 23.92 C1.16 6.41, 8.28 1.46, 23.92 0 M0 23.92 C-0.91 9.06, 6.75 0.6, 23.92 0" stroke="#1e1e1e" stroke-width="2" fill="none"></path></g><g transform="translate(100.70101547241211 138.11458333333331) rotate(0 22.34000015258789 12.5)"><text x="22.34000015258789" y="0" font-family="Virgil, Segoe UI Emoji" font-size="20px" fill="#1e1e1e" text-anchor="middle" style="white-space: pre;" direction="ltr" dominant-baseline="text-before-edge">User</text></g><g stroke-linecap="round"><g transform="translate(245.2211950819169 155.74693085454282) rotate(0 63.26440245904155 15.083405233183008)"><path d="M1 -0.49 C22.16 4.63, 106.58 26.02, 127.36 31.27 M0.06 -1.8 C21.1 2.97, 105.5 24.58, 126.84 29.73" stroke="#1e1e1e" stroke-width="2" fill="none"></path></g><g transform="translate(245.2211950819169 155.74693085454282) rotate(0 63.26440245904155 15.083405233183008)"><path d="M30.84 -3.59 C20.1 -0.93, 12.83 -2.73, 1 -0.49 M30.84 -3.59 C19.8 -1.76, 8.5 -1.92, 1 -0.49" stroke="#1e1e1e" stroke-width="2" fill="none"></path></g><g transform="translate(245.2211950819169 155.74693085454282) rotate(0 63.26440245904155 15.083405233183008)"><path d="M25.84 16.32 C16.68 12.31, 11.07 3.88, 1 -0.49 M25.84 16.32 C16.83 10.79, 7.37 3.31, 1 -0.49" stroke="#1e1e1e" stroke-width="2" fill="none"></path></g><g transform="translate(245.2211950819169 155.74693085454282) rotate(0 63.26440245904155 15.083405233183008)"><path d="M97.01 32.87 C106.1 32.95, 118.69 29.08, 126.84 29.73 M97.01 32.87 C107.99 32.05, 118.64 29.6, 126.84 29.73" stroke="#1e1e1e" stroke-width="2" fill="none"></path></g><g transform="translate(245.2211950819169 155.74693085454282) rotate(0 63.26440245904155 15.083405233183008)"><path d="M101.97 12.95 C109.5 19.71, 120.44 22.46, 126.84 29.73 M101.97 12.95 C110.94 19.5, 119.76 24.36, 126.84 29.73" stroke="#1e1e1e" stroke-width="2" fill="none"></path></g></g><mask></mask><g stroke-linecap="round" transform="translate(386.5394965277778 10) rotate(0 113.041015625 223.3359375)"><path d="M32 0 C93.03 -0.31, 157.61 0.23, 194.08 0 M32 0 C63.81 -0.21, 96.88 -1.21, 194.08 0 M194.08 0 C213.61 -1.68, 225.98 8.89, 226.08 32 M194.08 0 C215.41 0.23, 224.69 12.82, 226.08 32 M226.08 32 C225.98 180.6, 226.43 327.74, 226.08 414.67 M226.08 32 C227.46 140.59, 226.72 248.08, 226.08 414.67 M226.08 414.67 C226.7 435.89, 214.63 446.97, 194.08 446.67 M226.08 414.67 C226.66 436.86, 215.35 447.94, 194.08 446.67 M194.08 446.67 C131.54 445.69, 68.94 445.05, 32 446.67 M194.08 446.67 C150.78 446.4, 107.81 446.55, 32 446.67 M32 446.67 C10.76 445.23, -0.14 436.5, 0 414.67 M32 446.67 C12.88 448.5, -0.63 434.22, 0 414.67 M0 414.67 C-0.33 296.95, -0.17 182.08, 0 32 M0 414.67 C-0.25 317.13, -0.17 218.74, 0 32 M0 32 C-0.24 10.91, 10.83 1.69, 32 0 M0 32 C-0.05 10, 9.01 -0.96, 32 0" stroke="#1e1e1e" stroke-width="2" fill="none"></path></g><g transform="translate(432.8305045233833 208.3359375) rotate(0 66.75000762939453 25)"><text x="66.75000762939453" y="0" font-family="Virgil, Segoe UI Emoji" font-size="20px" fill="#1e1e1e" text-anchor="middle" style="white-space: pre;" direction="ltr" dominant-baseline="text-before-edge">API Gateway</text><text x="66.75000762939453" y="25" font-family="Virgil, Segoe UI Emoji" font-size="20px" fill="#1e1e1e" text-anchor="middle" style="white-space: pre;" direction="ltr" dominant-baseline="text-before-edge">/LB</text></g><g stroke-linecap="round" transform="translate(852.8232421875 65.3203125) rotate(0 88.5 32)"><path d="M16 0 C65.38 2.65, 111.75 1.28, 161 0 M16 0 C59.59 -0.48, 103.73 -0.02, 161 0 M161 0 C173.06 0.05, 177.4 6.67, 177 16 M161 0 C169.55 -2.23, 178.93 3.51, 177 16 M177 16 C176.82 24.3, 176.83 30.52, 177 48 M177 16 C177.13 26.24, 176.48 37.9, 177 48 M177 48 C176.1 58.02, 170.71 64.7, 161 64 M177 48 C175.82 56.91, 170.09 64.86, 161 64 M161 64 C120.43 63.77, 79.71 64.04, 16 64 M161 64 C121.3 64.14, 82.22 64.13, 16 64 M16 64 C4.11 65.33, 1.03 58.92, 0 48 M16 64 C7.36 61.97, 1.93 57.5, 0 48 M0 48 C1.23 39.51, 1.39 28.78, 0 16 M0 48 C0.67 37.79, 0.08 25.46, 0 16 M0 16 C1.21 4.66, 3.9 1.58, 16 0 M0 16 C1.02 5.77, 3.14 -1.32, 16 0" stroke="#1e1e1e" stroke-width="2" fill="none"></path></g><g transform="translate(866.8932418823242 84.8203125) rotate(0 74.43000030517578 12.5)"><text x="74.43000030517578" y="0" font-family="Virgil, Segoe UI Emoji" font-size="20px" fill="#1e1e1e" text-anchor="middle" style="white-space: pre;" direction="ltr" dominant-baseline="text-before-edge">CreateComment</text></g><g stroke-linecap="round" transform="translate(856.1287977430557 251.34809027777777) rotate(0 88.5 32)"><path d="M16 0 C44.25 0.66, 76.65 -0.27, 161 0 M16 0 C51.6 1.66, 84.89 0.48, 161 0 M161 0 C173.39 0.37, 176.97 7.11, 177 16 M161 0 C170.41 -1.1, 177.01 3.6, 177 16 M177 16 C175.51 25.2, 175.71 29.74, 177 48 M177 16 C175.96 25.63, 177.73 34.59, 177 48 M177 48 C178.77 57.61, 169.89 63.41, 161 64 M177 48 C178.27 57.63, 172.66 64.01, 161 64 M161 64 C126.32 64.18, 93.67 63.46, 16 64 M161 64 C119.23 65.44, 76.67 64.27, 16 64 M16 64 C3.52 63.02, 1.4 59.21, 0 48 M16 64 C6.22 63.47, -0.03 60.27, 0 48 M0 48 C0.85 39.84, 0.75 35.03, 0 16 M0 48 C-1.1 38.7, -0.61 31.44, 0 16 M0 16 C1.83 5.13, 3.35 -1.69, 16 0 M0 16 C-1.36 6.12, 6.95 -0.62, 16 0" stroke="#1e1e1e" stroke-width="2" fill="none"></path></g><g transform="translate(879.5087949964736 270.84809027777777) rotate(0 65.12000274658203 12.5)"><text x="65.12000274658203" y="0" font-family="Virgil, Segoe UI Emoji" font-size="20px" fill="#1e1e1e" text-anchor="middle" style="white-space: pre;" direction="ltr" dominant-baseline="text-before-edge">ListComments</text></g><g stroke-linecap="round"><g transform="translate(628.3510199652778 130.0448266563653) rotate(0 107.94933564743997 -21.3052913940587)"><path d="M-0.79 1.07 C35.42 -5.99, 180.5 -35.08, 216.45 -42.17 M0.99 0.59 C37.17 -6.86, 179.74 -36.76, 215.8 -44.07" stroke="#1e1e1e" stroke-width="2" fill="none"></path></g><g transform="translate(628.3510199652778 130.0448266563653) rotate(0 107.94933564743997 -21.3052913940587)"><path d="M190.27 -28.31 C197.86 -30.82, 202.65 -36.95, 215.8 -44.07 M190.27 -28.31 C200.69 -34.54, 209.64 -40.37, 215.8 -44.07" stroke="#1e1e1e" stroke-width="2" fill="none"></path></g><g transform="translate(628.3510199652778 130.0448266563653) rotate(0 107.94933564743997 -21.3052913940587)"><path d="M186.11 -48.41 C194.69 -46.29, 200.43 -47.82, 215.8 -44.07 M186.11 -48.41 C198.19 -46.78, 208.76 -44.73, 215.8 -44.07" stroke="#1e1e1e" stroke-width="2" fill="none"></path></g></g><mask></mask><g stroke-linecap="round"><g transform="translate(633.3510199652778 226.83179605424428) rotate(0 106.5318664194873 21.27586880486796)"><path d="M0.13 -0.9 C35.61 6.19, 178.1 34.68, 213.73 41.93 M-1.26 1.25 C34.04 8.53, 177.33 36.02, 213.14 43.14" stroke="#1e1e1e" stroke-width="2" fill="none"></path></g><g transform="translate(633.3510199652778 226.83179605424428) rotate(0 106.5318664194873 21.27586880486796)"><path d="M183.5 47.81 C193.09 47.15, 204.6 45.7, 213.14 43.14 M183.5 47.81 C192.44 47.09, 202.46 43.71, 213.14 43.14" stroke="#1e1e1e" stroke-width="2" fill="none"></path></g><g transform="translate(633.3510199652778 226.83179605424428) rotate(0 106.5318664194873 21.27586880486796)"><path d="M187.43 27.67 C195.45 34.53, 205.5 40.59, 213.14 43.14 M187.43 27.67 C195.17 33.13, 204 35.89, 213.14 43.14" stroke="#1e1e1e" stroke-width="2" fill="none"></path></g></g><mask></mask><g stroke-linecap="round" transform="translate(1250.8232421875 49.5703125) rotate(0 156.5 107.5)"><path d="M193.46 2.44 C209.66 3.44, 227.3 10.98, 241.74 17.34 C256.18 23.71, 269.68 31.53, 280.11 40.64 C290.53 49.76, 298.81 60.97, 304.28 72.02 C309.75 83.07, 312.84 95.25, 312.91 106.96 C312.99 118.66, 309.97 131.15, 304.74 142.24 C299.51 153.33, 291.84 164.41, 281.54 173.48 C271.24 182.55, 257.37 190.3, 242.95 196.66 C228.53 203.01, 211.41 208.48, 195.04 211.6 C178.66 214.73, 161.54 216.4, 144.72 215.43 C127.89 214.46, 109.76 210.35, 94.1 205.79 C78.45 201.23, 63.12 195.97, 50.77 188.08 C38.43 180.19, 28.28 168.68, 20.04 158.44 C11.79 148.2, 4.22 137.9, 1.33 126.65 C-1.56 115.4, 0 102.6, 2.69 90.95 C5.38 79.31, 9.71 67.02, 17.45 56.76 C25.19 46.5, 36.62 37.39, 49.1 29.39 C61.58 21.39, 76.8 13.63, 92.35 8.77 C107.9 3.91, 123.03 0.64, 142.39 0.24 C161.74 -0.16, 195.63 4.39, 208.51 6.38 C221.39 8.36, 220.57 10.39, 219.67 12.15 M96.39 8.76 C110.41 2.8, 129.35 -0.02, 146.14 -0.92 C162.93 -1.82, 180.74 -0.02, 197.12 3.34 C213.51 6.69, 230.4 12.45, 244.45 19.21 C258.5 25.97, 271.37 34.5, 281.42 43.88 C291.46 53.26, 299.35 64.68, 304.72 75.5 C310.09 86.32, 313.93 97.59, 313.62 108.81 C313.31 120.02, 308.55 131.51, 302.86 142.78 C297.18 154.04, 289.9 167.13, 279.49 176.38 C269.08 185.64, 255.03 192.27, 240.41 198.29 C225.79 204.32, 208.3 210.07, 191.77 212.54 C175.24 215.02, 158.18 214.14, 141.22 213.14 C124.27 212.14, 105.38 211.07, 90.03 206.54 C74.69 202.01, 61.44 194.28, 49.17 185.95 C36.9 177.63, 24.35 166.79, 16.41 156.59 C8.46 146.38, 3.65 136.37, 1.51 124.7 C-0.63 113.04, 0.24 98.47, 3.57 86.61 C6.9 74.76, 13.3 63.23, 21.48 53.58 C29.67 43.93, 40.43 36.33, 52.67 28.72 C64.92 21.12, 87.62 11.23, 94.96 7.95 C102.3 4.66, 95.48 7.23, 96.72 9.02" stroke="#1e1e1e" stroke-width="2" fill="none"></path></g><g transform="translate(1366.7310306266295 132.05633352244615) rotate(0 40.43000030517578 25)"><text x="40.43000030517578" y="0" font-family="Virgil, Segoe UI Emoji" font-size="20px" fill="#1e1e1e" text-anchor="middle" style="white-space: pre;" direction="ltr" dominant-baseline="text-before-edge">Comment</text><text x="40.43000030517578" y="25" font-family="Virgil, Segoe UI Emoji" font-size="20px" fill="#1e1e1e" text-anchor="middle" style="white-space: pre;" direction="ltr" dominant-baseline="text-before-edge">Store</text></g><g stroke-linecap="round"><g transform="translate(1040.8232421875 97.41515757829075) rotate(0 99.30251128167424 22.72252591542061)"><path d="M-0.33 -0.39 C32.39 7.37, 164.33 37.95, 197.54 45.7 M1.69 -1.63 C34.67 5.81, 166.93 36.08, 199.7 43.7" stroke="#1e1e1e" stroke-width="2" fill="none"></path></g><g transform="translate(1040.8232421875 97.41515757829075) rotate(0 99.30251128167424 22.72252591542061)"><path d="M169.92 47.37 C181.21 44.22, 194.17 45.06, 199.7 43.7 M169.92 47.37 C180.72 45.66, 190.92 44.1, 199.7 43.7" stroke="#1e1e1e" stroke-width="2" fill="none"></path></g><g transform="translate(1040.8232421875 97.41515757829075) rotate(0 99.30251128167424 22.72252591542061)"><path d="M174.53 27.38 C183.84 32.2, 194.95 41.03, 199.7 43.7 M174.53 27.38 C183.79 32.79, 192.35 38.35, 199.7 43.7" stroke="#1e1e1e" stroke-width="2" fill="none"></path></g></g><mask></mask><g stroke-linecap="round"><g transform="translate(1036.6287977430557 274.2828132216628) rotate(0 111.79671865469038 -31.355352533685853)"><path d="M0.93 -0.55 C38.07 -11.06, 185.9 -53.03, 222.88 -63.52 M-0.04 1.78 C37.49 -8.56, 187.67 -51.67, 225.22 -62.41" stroke="#1e1e1e" stroke-width="2" fill="none"></path></g><g transform="translate(1036.6287977430557 274.2828132216628) rotate(0 111.79671865469038 -31.355352533685853)"><path d="M200.94 -44.79 C207.41 -51.48, 214.28 -56.95, 225.22 -62.41 M200.94 -44.79 C206.62 -47.93, 212.33 -53.63, 225.22 -62.41" stroke="#1e1e1e" stroke-width="2" fill="none"></path></g><g transform="translate(1036.6287977430557 274.2828132216628) rotate(0 111.79671865469038 -31.355352533685853)"><path d="M195.29 -64.52 C203.38 -65.31, 211.96 -64.83, 225.22 -62.41 M195.29 -64.52 C202.11 -63.08, 209.12 -64.24, 225.22 -62.41" stroke="#1e1e1e" stroke-width="2" fill="none"></path></g></g><mask></mask></svg>