<svg version="1.1" xmlns="http://www.w3.org/2000/svg" viewBox="0 0 1732.490409501529 981.54296875" width="1732.490409501529" height="981.54296875" filter="invert(93%) hue-rotate(180deg)">
  <!-- svg-source:excalidraw -->
  
  <defs>
    <style class="style-fonts">
      @font-face {
        font-family: "Virgil";
        src: url("https://unpkg.com/@excalidraw/excalidraw@undefined/dist/excalidraw-assets/Virgil.woff2");
      }
      @font-face {
        font-family: "Cascadia";
        src: url("https://unpkg.com/@excalidraw/excalidraw@undefined/dist/excalidraw-assets/Cascadia.woff2");
      }
      @font-face {
        font-family: "Assistant";
        src: url("https://unpkg.com/@excalidraw/excalidraw@undefined/dist/excalidraw-assets/Assistant-Regular.woff2");
      }
    </style>
    
  </defs>
  <rect x="0" y="0" width="1732.490409501529" height="981.54296875" fill="#ffffff"></rect><g stroke-linecap="round" transform="translate(336.923828125 313.47265625) rotate(0 59.82421875 269.7734375)"><path d="M29.91 0 C44.36 -1.24, 62.23 -0.15, 89.74 0 M29.91 0 C52.16 -0.37, 74.34 -0.82, 89.74 0 M89.74 0 C108.12 0.81, 118.67 10.91, 119.65 29.91 M89.74 0 C111.95 -0.06, 117.83 10.17, 119.65 29.91 M119.65 29.91 C120.25 210.8, 120.21 391.34, 119.65 509.63 M119.65 29.91 C119.63 214.12, 120.44 399.47, 119.65 509.63 M119.65 509.63 C121.41 529.8, 109.97 537.64, 89.74 539.55 M119.65 509.63 C119.22 531.15, 111.94 540.78, 89.74 539.55 M89.74 539.55 C69.15 540.32, 49.44 540.54, 29.91 539.55 M89.74 539.55 C70.69 539.81, 50.24 538.8, 29.91 539.55 M29.91 539.55 C9.94 538.8, 0.06 530.2, 0 509.63 M29.91 539.55 C8.79 540.58, -1.9 530.11, 0 509.63 M0 509.63 C0.19 323.99, 1.54 139.58, 0 29.91 M0 509.63 C1.45 372.92, 2.11 235.4, 0 29.91 M0 29.91 C-0.92 8.41, 9.25 1.64, 29.91 0 M0 29.91 C1.6 12.02, 10.87 -0.77, 29.91 0" stroke="#1e1e1e" stroke-width="2" fill="none"></path></g><g transform="translate(343.9880905151367 533.24609375) rotate(0 52.75995635986328 50)"><text x="52.75995635986328" y="0" font-family="Virgil, Segoe UI Emoji" font-size="20px" fill="#1e1e1e" text-anchor="middle" style="white-space: pre;" direction="ltr" dominant-baseline="text-before-edge">API </text><text x="52.75995635986328" y="25" font-family="Virgil, Segoe UI Emoji" font-size="20px" fill="#1e1e1e" text-anchor="middle" style="white-space: pre;" direction="ltr" dominant-baseline="text-before-edge">Gateway</text><text x="52.75995635986328" y="50" font-family="Virgil, Segoe UI Emoji" font-size="20px" fill="#1e1e1e" text-anchor="middle" style="white-space: pre;" direction="ltr" dominant-baseline="text-before-edge">Routing/Au</text><text x="52.75995635986328" y="75" font-family="Virgil, Segoe UI Emoji" font-size="20px" fill="#1e1e1e" text-anchor="middle" style="white-space: pre;" direction="ltr" dominant-baseline="text-before-edge">th/LB</text></g><g stroke-linecap="round" transform="translate(1290.810546875 484.8125) rotate(0 75.890625 95.5)"><path d="M57.79 2.23 C66.81 -2.03, 78.77 -0.83, 88.92 1.5 C99.06 3.84, 110.13 8.89, 118.65 16.23 C127.18 23.57, 134.54 34.51, 140.09 45.56 C145.64 56.62, 150.63 69.78, 151.95 82.58 C153.28 95.38, 150.99 109.73, 148.02 122.38 C145.05 135.04, 140.66 148.68, 134.15 158.49 C127.65 168.31, 118.32 175.98, 109.01 181.26 C99.7 186.54, 88.67 189.75, 78.3 190.17 C67.94 190.6, 56.5 188.61, 46.83 183.81 C37.17 179.01, 27.25 170.73, 20.31 161.39 C13.36 152.05, 8.45 140, 5.15 127.79 C1.85 115.58, -0.04 101.09, 0.51 88.11 C1.07 75.14, 3.44 61.4, 8.48 49.95 C13.52 38.5, 21.32 27.48, 30.75 19.42 C40.18 11.35, 58.04 4.51, 65.05 1.56 C72.06 -1.38, 72.4 0.22, 72.82 1.74 M53.81 3.67 C63.19 -0.74, 77.07 0.64, 87.22 2.25 C97.38 3.85, 106.22 7.01, 114.74 13.31 C123.25 19.61, 132.58 29.05, 138.31 40.05 C144.04 51.04, 146.99 66.39, 149.13 79.26 C151.26 92.13, 153.27 104.96, 151.14 117.27 C149 129.59, 142.59 142.7, 136.32 153.17 C130.05 163.65, 122.42 173.89, 113.51 180.11 C104.61 186.33, 93.63 189.37, 82.9 190.51 C72.17 191.64, 59.23 191.09, 49.14 186.94 C39.05 182.79, 29.37 174.72, 22.37 165.62 C15.36 156.52, 10.78 144.28, 7.12 132.34 C3.46 120.4, 0.25 106.77, 0.4 94 C0.55 81.24, 3.87 67.43, 8.03 55.74 C12.19 44.06, 17.63 32.7, 25.34 23.91 C33.06 15.13, 49.54 5.86, 54.3 3.02 C59.05 0.19, 53.44 5.31, 53.87 6.89" stroke="#1e1e1e" stroke-width="2" fill="none"></path></g><g transform="translate(1319.478429267999 542.7838023966847) rotate(0 47.059967041015625 37.499999999999986)"><text x="47.059967041015625" y="0" font-family="Virgil, Segoe UI Emoji" font-size="20px" fill="#1e1e1e" text-anchor="middle" style="white-space: pre;" direction="ltr" dominant-baseline="text-before-edge">File and </text><text x="47.059967041015625" y="25" font-family="Virgil, Segoe UI Emoji" font-size="20px" fill="#1e1e1e" text-anchor="middle" style="white-space: pre;" direction="ltr" dominant-baseline="text-before-edge">Chunk MD</text><text x="47.059967041015625" y="50" font-family="Virgil, Segoe UI Emoji" font-size="20px" fill="#1e1e1e" text-anchor="middle" style="white-space: pre;" direction="ltr" dominant-baseline="text-before-edge">Store</text></g><g stroke-linecap="round" transform="translate(760.25 501.041015625) rotate(0 62.259765625 50.7421875)"><path d="M25.37 0 C41.98 0.8, 61.94 0.99, 99.15 0 M25.37 0 C43.86 -0.54, 61.32 -0.26, 99.15 0 M99.15 0 C116.49 -0.69, 124.52 8.38, 124.52 25.37 M99.15 0 C115.84 0.93, 125.82 9.18, 124.52 25.37 M124.52 25.37 C122.8 43.31, 124.12 58.08, 124.52 76.11 M124.52 25.37 C124.01 38.17, 125.09 50.99, 124.52 76.11 M124.52 76.11 C123.12 93.57, 114.68 102.28, 99.15 101.48 M124.52 76.11 C125.44 93.83, 116.98 99.82, 99.15 101.48 M99.15 101.48 C71.53 100.69, 46.45 102.95, 25.37 101.48 M99.15 101.48 C78.74 101.1, 56.51 101.56, 25.37 101.48 M25.37 101.48 C7.94 99.65, -0.24 91.71, 0 76.11 M25.37 101.48 C6.45 99.32, 1.12 91.17, 0 76.11 M0 76.11 C-0.66 59.85, -1.71 40.3, 0 25.37 M0 76.11 C0.83 63.89, 0.66 52.91, 0 25.37 M0 25.37 C1.86 8.68, 10.03 0.26, 25.37 0 M0 25.37 C1.93 6.57, 6.81 0.04, 25.37 0" stroke="#1e1e1e" stroke-width="2" fill="none"></path></g><g transform="translate(772.4798126220703 539.283203125) rotate(0 50.02995300292969 12.5)"><text x="50.02995300292969" y="0" font-family="Virgil, Segoe UI Emoji" font-size="20px" fill="#1e1e1e" text-anchor="middle" style="white-space: pre;" direction="ltr" dominant-baseline="text-before-edge">CreateFile</text></g><g stroke-linecap="round" transform="translate(1115.740234375 10) rotate(0 81.6796875 81.361328125)"><path d="M65.07 2.34 C75.32 -1.18, 88.55 -0.96, 99.48 1.4 C110.41 3.76, 121.76 10.02, 130.63 16.49 C139.49 22.96, 147.33 30.84, 152.67 40.22 C158.01 49.6, 161.58 61.7, 162.67 72.79 C163.76 83.89, 162.54 96.23, 159.23 106.77 C155.92 117.31, 150.42 127.7, 142.84 136.04 C135.25 144.39, 123.97 152.41, 113.72 156.82 C103.47 161.24, 92.37 162.61, 81.36 162.53 C70.35 162.45, 57.89 160.87, 47.65 156.37 C37.41 151.87, 27.2 144.1, 19.91 135.54 C12.61 126.99, 7.04 115.46, 3.88 105.03 C0.72 94.61, -0.35 83.85, 0.93 73 C2.2 62.14, 6.15 49.49, 11.52 39.9 C16.89 30.32, 23.84 21.92, 33.14 15.49 C42.44 9.07, 61.11 3.41, 67.33 1.35 C73.55 -0.7, 70.26 1.69, 70.45 3.16 M53.81 5.65 C63.33 0.73, 76.09 -1.23, 87.21 -0.71 C98.34 -0.19, 110.72 3.2, 120.56 8.8 C130.41 14.39, 139.66 24.13, 146.28 32.88 C152.9 41.63, 157.54 50.69, 160.31 61.29 C163.08 71.88, 164.61 85.42, 162.89 96.43 C161.17 107.44, 156.25 118.14, 149.97 127.34 C143.7 136.55, 135.12 145.95, 125.26 151.65 C115.4 157.34, 101.97 160.23, 90.8 161.52 C79.63 162.81, 68.89 162.43, 58.24 159.38 C47.59 156.32, 35.49 150.51, 26.91 143.19 C18.32 135.87, 11.32 125.53, 6.74 115.43 C2.16 105.32, -0.57 93.26, -0.55 82.56 C-0.54 71.86, 2.64 61.44, 6.85 51.23 C11.07 41.03, 16.71 28.88, 24.71 21.32 C32.7 13.77, 49.85 8.42, 54.83 5.91 C59.81 3.4, 54.06 5.33, 54.57 6.27" stroke="#1e1e1e" stroke-width="2" fill="none"></path></g><g transform="translate(1145.9937085659737 53.830181281468725) rotate(0 51.669952392578125 37.5)"><text x="51.669952392578125" y="0" font-family="Virgil, Segoe UI Emoji" font-size="20px" fill="#1e1e1e" text-anchor="middle" style="white-space: pre;" direction="ltr" dominant-baseline="text-before-edge">Content</text><text x="51.669952392578125" y="25" font-family="Virgil, Segoe UI Emoji" font-size="20px" fill="#1e1e1e" text-anchor="middle" style="white-space: pre;" direction="ltr" dominant-baseline="text-before-edge">Store (eg </text><text x="51.669952392578125" y="50" font-family="Virgil, Segoe UI Emoji" font-size="20px" fill="#1e1e1e" text-anchor="middle" style="white-space: pre;" direction="ltr" dominant-baseline="text-before-edge">S3)</text></g><g stroke-linecap="round" transform="translate(16.73828125 417.427734375) rotate(0 63.68359375 49.44140625)"><path d="M24.72 0 C49.37 0.63, 74.81 2.01, 102.65 0 M24.72 0 C42.2 -1.19, 58.28 0.17, 102.65 0 M102.65 0 C117.29 0.29, 127.77 8.84, 127.37 24.72 M102.65 0 C121.18 -0.79, 129.03 8.62, 127.37 24.72 M127.37 24.72 C127.54 43.97, 126.14 60.26, 127.37 74.16 M127.37 24.72 C127.19 36.26, 128.02 48.71, 127.37 74.16 M127.37 74.16 C128.45 89.57, 121.04 98.79, 102.65 98.88 M127.37 74.16 C125.95 88.45, 117.31 98.6, 102.65 98.88 M102.65 98.88 C83.26 99.88, 66.63 100.08, 24.72 98.88 M102.65 98.88 C79.45 98.43, 54.95 98.57, 24.72 98.88 M24.72 98.88 C7.62 97.74, -0.07 92.58, 0 74.16 M24.72 98.88 C9.69 97.91, 2.05 89.66, 0 74.16 M0 74.16 C1.29 64.05, 0.79 51.12, 0 24.72 M0 74.16 C0.07 55.89, -0.03 37.83, 0 24.72 M0 24.72 C-1.4 8.96, 6.87 -1.28, 24.72 0 M0 24.72 C0.07 10.42, 9.34 1.47, 24.72 0" stroke="#1e1e1e" stroke-width="2" fill="none"></path></g><g transform="translate(32.871917724609375 429.369140625) rotate(0 47.549957275390625 37.5)"><text x="47.549957275390625" y="0" font-family="Virgil, Segoe UI Emoji" font-size="20px" fill="#1e1e1e" text-anchor="middle" style="white-space: pre;" direction="ltr" dominant-baseline="text-before-edge">User</text><text x="47.549957275390625" y="25" font-family="Virgil, Segoe UI Emoji" font-size="20px" fill="#1e1e1e" text-anchor="middle" style="white-space: pre;" direction="ltr" dominant-baseline="text-before-edge">(Browser/</text><text x="47.549957275390625" y="50" font-family="Virgil, Segoe UI Emoji" font-size="20px" fill="#1e1e1e" text-anchor="middle" style="white-space: pre;" direction="ltr" dominant-baseline="text-before-edge">Device</text></g><g mask="url(#mask-ohuvl8ayWY-9N_ZZYZfBI)" stroke-linecap="round"><g transform="translate(466.262443127202 481.68039898290124) rotate(0 144.585575311399 26.186306347657634)"><path d="M0.67 -0.33 C49.05 8.24, 242.13 43.23, 290.26 52.14 M-0.43 -1.55 C47.88 7.14, 241.67 44.77, 289.88 53.55" stroke="#1e1e1e" stroke-width="2" fill="none"></path></g><g transform="translate(466.262443127202 481.68039898290124) rotate(0 144.585575311399 26.186306347657634)"><path d="M260.28 58.4 C268.59 58.59, 277.63 55.8, 289.88 53.55 M260.28 58.4 C271.41 57.38, 281.15 55.51, 289.88 53.55" stroke="#1e1e1e" stroke-width="2" fill="none"></path></g><g transform="translate(466.262443127202 481.68039898290124) rotate(0 144.585575311399 26.186306347657634)"><path d="M264.09 38.24 C271.36 44.5, 279.27 47.77, 289.88 53.55 M264.09 38.24 C273.72 44.42, 282.09 49.77, 289.88 53.55" stroke="#1e1e1e" stroke-width="2" fill="none"></path></g></g><mask id="mask-ohuvl8ayWY-9N_ZZYZfBI"><rect x="0" y="0" fill="#fff" width="855.43359375" height="634.0530116782165"></rect><rect x="569.9180562803979" y="495.36670533055883" fill="#000" width="81.85992431640625" height="25" opacity="1"></rect></mask><g transform="translate(569.9180562803979 495.36670533055894) rotate(0 41.25873232942536 12.311472806399678)"><text x="40.929962158203125" y="0" font-family="Virgil, Segoe UI Emoji" font-size="20px" fill="#1e1e1e" text-anchor="middle" style="white-space: pre;" direction="ltr" dominant-baseline="text-before-edge">Creation</text></g><g mask="url(#mask-G3zeV6yhfTepqLzdjXDa-)" stroke-linecap="round"><g transform="translate(896.34375 548.0036002536308) rotate(0 195.7322392868 19.671498717015055)"><path d="M0.51 -1.03 C65.78 5.53, 325.49 33.23, 390.64 40.01 M-0.67 1.05 C65.05 7.2, 327.71 31.56, 392.92 38.24" stroke="#1e1e1e" stroke-width="2" fill="none"></path></g><g transform="translate(896.34375 548.0036002536308) rotate(0 195.7322392868 19.671498717015055)"><path d="M363.88 45.74 C368.56 42.58, 377.82 42.2, 392.92 38.24 M363.88 45.74 C373.38 43.67, 383.62 40.14, 392.92 38.24" stroke="#1e1e1e" stroke-width="2" fill="none"></path></g><g transform="translate(896.34375 548.0036002536308) rotate(0 195.7322392868 19.671498717015055)"><path d="M365.85 25.31 C370.21 26.69, 379.04 30.84, 392.92 38.24 M365.85 25.31 C374.68 29.9, 384.28 33.04, 392.92 38.24" stroke="#1e1e1e" stroke-width="2" fill="none"></path></g></g><mask id="mask-G3zeV6yhfTepqLzdjXDa-"><rect x="0" y="0" fill="#fff" width="1387.8082285736" height="687.346597687661"></rect><rect x="1042.626022856136" y="542.6750989706459" fill="#000" width="98.89993286132812" height="50" opacity="1"></rect></mask><g transform="translate(1042.626022856136 542.6750989706459) rotate(0 49.842912992918855 24.821374392509497)"><text x="49.44996643066406" y="0" font-family="Virgil, Segoe UI Emoji" font-size="20px" fill="#1e1e1e" text-anchor="middle" style="white-space: pre;" direction="ltr" dominant-baseline="text-before-edge">1. Create </text><text x="49.44996643066406" y="25" font-family="Virgil, Segoe UI Emoji" font-size="20px" fill="#1e1e1e" text-anchor="middle" style="white-space: pre;" direction="ltr" dominant-baseline="text-before-edge">File Entry</text></g><g mask="url(#mask-EKQbmf4rJJblHSnUYkklf)" stroke-linecap="round"><g transform="translate(896.6451633978966 359.829458250025) rotate(0 152.51347532203408 -84.28985913646943)"><path d="M0.82 0.23 C51.77 -27.83, 254.93 -139.59, 305.76 -167.59 M-0.21 -0.69 C50.64 -29.15, 254.25 -141.03, 305.2 -169.19" stroke="#1e1e1e" stroke-width="2" fill="none"></path></g><g transform="translate(896.6451633978966 359.829458250025) rotate(0 152.51347532203408 -84.28985913646943)"><path d="M285.46 -146.6 C291.73 -152.41, 299.02 -159.21, 305.2 -169.19 M285.46 -146.6 C293.22 -154.88, 299.55 -162.39, 305.2 -169.19" stroke="#1e1e1e" stroke-width="2" fill="none"></path></g><g transform="translate(896.6451633978966 359.829458250025) rotate(0 152.51347532203408 -84.28985913646943)"><path d="M275.56 -164.57 C284.97 -164.96, 295.29 -166.27, 305.2 -169.19 M275.56 -164.57 C286.85 -166.12, 296.86 -166.97, 305.2 -169.19" stroke="#1e1e1e" stroke-width="2" fill="none"></path></g></g><mask id="mask-EKQbmf4rJJblHSnUYkklf"><rect x="0" y="0" fill="#fff" width="1301.6721140419647" height="628.4091765229639"></rect><rect x="974.0687110465908" y="238.0395991135556" fill="#000" width="150.1798553466797" height="75" opacity="1"></rect></mask><g transform="translate(974.068711046591 238.0395991135556) rotate(0 75.3535754118534 37.310937860417155)"><text x="75.08992767333984" y="0" font-family="Virgil, Segoe UI Emoji" font-size="20px" fill="#1e1e1e" text-anchor="middle" style="white-space: pre;" direction="ltr" dominant-baseline="text-before-edge">2. Obtain</text><text x="75.08992767333984" y="25" font-family="Virgil, Segoe UI Emoji" font-size="20px" fill="#1e1e1e" text-anchor="middle" style="white-space: pre;" direction="ltr" dominant-baseline="text-before-edge">Upload URL</text><text x="75.08992767333984" y="50" font-family="Virgil, Segoe UI Emoji" font-size="20px" fill="#1e1e1e" text-anchor="middle" style="white-space: pre;" direction="ltr" dominant-baseline="text-before-edge">(signed/authed)</text></g><g mask="url(#mask-x34PV3SqD_o-xi4byvLMq)" stroke-linecap="round"><g transform="translate(747.4984347822674 341.58306143763787) rotate(0 -142.0792955161337 29.159039772186937)"><path d="M-0.3 -0.42 C-47.55 9.08, -236.1 48.01, -283.51 57.68 M1.74 -1.68 C-45.6 7.91, -236.18 48.85, -284.12 58.88" stroke="#e03131" stroke-width="2" fill="none"></path></g><g transform="translate(747.4984347822674 341.58306143763787) rotate(0 -142.0792955161337 29.159039772186937)"><path d="M-258.67 42.99 C-266.84 48.73, -274.77 51.35, -284.12 58.88 M-258.67 42.99 C-265.26 47.8, -270.68 49.79, -284.12 58.88" stroke="#e03131" stroke-width="2" fill="none"></path></g><g transform="translate(747.4984347822674 341.58306143763787) rotate(0 -142.0792955161337 29.159039772186937)"><path d="M-254.41 63.06 C-263.96 62.83, -273.15 59.49, -284.12 58.88 M-254.41 63.06 C-261.85 63.09, -268.29 60.29, -284.12 58.88" stroke="#e03131" stroke-width="2" fill="none"></path></g></g><mask id="mask-x34PV3SqD_o-xi4byvLMq"><rect x="0" y="0" fill="#fff" width="1131.6570258145348" height="499.9011409820117"></rect><rect x="518.4291871787314" y="345.7421012098248" fill="#000" width="173.9799041748047" height="50" opacity="1"></rect></mask><g transform="translate(518.4291871787314 345.7421012098248) rotate(0 87.881833757842 24.44011379069648)"><text x="86.98995208740234" y="0" font-family="Virgil, Segoe UI Emoji" font-size="20px" fill="#e03131" text-anchor="middle" style="white-space: pre;" direction="ltr" dominant-baseline="text-before-edge">3. Send FileID + </text><text x="86.98995208740234" y="25" font-family="Virgil, Segoe UI Emoji" font-size="20px" fill="#e03131" text-anchor="middle" style="white-space: pre;" direction="ltr" dominant-baseline="text-before-edge">UploadURL</text></g><g mask="url(#mask-JtZZA-CAtI93USMqLC-xV)" stroke-linecap="round"><g transform="translate(142.20245684978443 407.513671875) rotate(0 482.6548271951959 -156.03289834518986)"><path d="M0.14 -1.17 C66.29 -31.86, 236.97 -131.81, 397.67 -183.73 C558.38 -235.64, 869.8 -291.34, 964.37 -312.65 M-1.25 0.83 C64.65 -30.26, 235.22 -133.46, 396.55 -185.54 C557.89 -237.62, 871.99 -290.25, 966.77 -311.63" stroke="#1e1e1e" stroke-width="2" fill="none"></path></g><g transform="translate(142.20245684978443 407.513671875) rotate(0 482.6548271951959 -156.03289834518986)"><path d="M941.13 -296.05 C948.43 -302.3, 960.67 -308.97, 966.77 -311.63 M941.13 -296.05 C947.74 -300.95, 954.33 -304.95, 966.77 -311.63" stroke="#1e1e1e" stroke-width="2" fill="none"></path></g><g transform="translate(142.20245684978443 407.513671875) rotate(0 482.6548271951959 -156.03289834518986)"><path d="M937.11 -316.18 C945.95 -315.12, 959.65 -314.48, 966.77 -311.63 M937.11 -316.18 C944.69 -316.03, 952.3 -314.96, 966.77 -311.63" stroke="#1e1e1e" stroke-width="2" fill="none"></path></g></g><mask id="mask-JtZZA-CAtI93USMqLC-xV"><rect x="0" y="0" fill="#fff" width="1207.5121112401762" height="819.5794685653798"></rect><rect x="395.20103454589844" y="210.701171875" fill="#000" width="290.0198059082031" height="25" opacity="1"></rect></mask><g transform="translate(395.20103454589844 210.701171875) rotate(0 229.7622616293964 40.90446280545018)"><text x="145.00990295410156" y="0" font-family="Virgil, Segoe UI Emoji" font-size="20px" fill="#1e1e1e" text-anchor="middle" style="white-space: pre;" direction="ltr" dominant-baseline="text-before-edge">4. Upload File to upload URL</text></g><g mask="url(#mask-OFynjk8RSAS9rfKQoHeS9)" stroke-linecap="round"><g transform="translate(1238.5856848204962 172.43591201938483) rotate(0 57.95264660795294 154.2139091949781)"><path d="M-0.3 0.03 C2.64 30.35, -1 130.19, 18.24 181.55 C37.48 232.91, 98.66 286.85, 115.12 308.19 M1.74 -1 C4.51 29.49, -1.75 130.94, 17.56 182.67 C36.87 234.4, 101.5 288.55, 117.6 309.38" stroke="#1e1e1e" stroke-width="2" fill="none"></path></g><g transform="translate(1238.5856848204962 172.43591201938483) rotate(0 57.95264660795294 154.2139091949781)"><path d="M90.84 295.81 C100.2 301.46, 108.21 304.05, 117.6 309.38 M90.84 295.81 C97.51 299.19, 105.25 304.04, 117.6 309.38" stroke="#1e1e1e" stroke-width="2" fill="none"></path></g><g transform="translate(1238.5856848204962 172.43591201938483) rotate(0 57.95264660795294 154.2139091949781)"><path d="M105.83 281.78 C109.9 292.3, 112.67 299.8, 117.6 309.38 M105.83 281.78 C108.43 289.23, 111.97 298.01, 117.6 309.38" stroke="#1e1e1e" stroke-width="2" fill="none"></path></g></g><mask id="mask-OFynjk8RSAS9rfKQoHeS9"><rect x="0" y="0" fill="#fff" width="1454.490978036402" height="580.8637304093411"></rect><rect x="1147.5402908325195" y="267.2646484375" fill="#000" width="217.559814453125" height="175" opacity="1"></rect></mask><g transform="translate(1147.5402908325198 267.2646484375) rotate(0 149.6926708833356 59.35831176330703)"><text x="108.7799072265625" y="0" font-family="Virgil, Segoe UI Emoji" font-size="20px" fill="#1e1e1e" text-anchor="middle" style="white-space: pre;" direction="ltr" dominant-baseline="text-before-edge">5. On Chunk UPload -</text><text x="108.7799072265625" y="25" font-family="Virgil, Segoe UI Emoji" font-size="20px" fill="#1e1e1e" text-anchor="middle" style="white-space: pre;" direction="ltr" dominant-baseline="text-before-edge"> update chunk status</text><text x="108.7799072265625" y="50" font-family="Virgil, Segoe UI Emoji" font-size="20px" fill="#1e1e1e" text-anchor="middle" style="white-space: pre;" direction="ltr" dominant-baseline="text-before-edge">notification.</text><text x="108.7799072265625" y="75" font-family="Virgil, Segoe UI Emoji" font-size="20px" fill="#1e1e1e" text-anchor="middle" style="white-space: pre;" direction="ltr" dominant-baseline="text-before-edge">5b On All chunks </text><text x="108.7799072265625" y="100" font-family="Virgil, Segoe UI Emoji" font-size="20px" fill="#1e1e1e" text-anchor="middle" style="white-space: pre;" direction="ltr" dominant-baseline="text-before-edge">uploaded can mark or</text><text x="108.7799072265625" y="125" font-family="Virgil, Segoe UI Emoji" font-size="20px" fill="#1e1e1e" text-anchor="middle" style="white-space: pre;" direction="ltr" dominant-baseline="text-before-edge">do this on read and </text><text x="108.7799072265625" y="150" font-family="Virgil, Segoe UI Emoji" font-size="20px" fill="#1e1e1e" text-anchor="middle" style="white-space: pre;" direction="ltr" dominant-baseline="text-before-edge">keep in file</text></g><g stroke-linecap="round" transform="translate(755.341796875 312.1328125) rotate(0 60.66796875 50.7421875)"><path d="M25.37 0 C45.49 -1.22, 67.19 -2.05, 95.96 0 M25.37 0 C50.18 -0.1, 74.3 0.92, 95.96 0 M95.96 0 C114.54 0.47, 121.54 7.32, 121.34 25.37 M95.96 0 C111.96 1.58, 122.27 8.19, 121.34 25.37 M121.34 25.37 C123.28 37.99, 120.82 48.98, 121.34 76.11 M121.34 25.37 C120.61 41.24, 119.92 58.6, 121.34 76.11 M121.34 76.11 C122.45 91.11, 111.56 101.71, 95.96 101.48 M121.34 76.11 C121.63 91, 111 100.95, 95.96 101.48 M95.96 101.48 C72.46 102.2, 49.31 102.21, 25.37 101.48 M95.96 101.48 C81.37 102.13, 65.57 100.75, 25.37 101.48 M25.37 101.48 C9.44 103.44, -0.75 93.63, 0 76.11 M25.37 101.48 C7.54 100.06, -0.29 92.4, 0 76.11 M0 76.11 C-1.16 64.46, -1.88 50.44, 0 25.37 M0 76.11 C-0.11 58.99, 0.09 39.73, 0 25.37 M0 25.37 C0.65 9.97, 9.14 0.05, 25.37 0 M0 25.37 C-2.07 10.29, 6.71 0.95, 25.37 0" stroke="#1e1e1e" stroke-width="2" fill="none"></path></g><g transform="translate(767.3798065185547 350.375) rotate(0 48.62995910644531 12.5)"><text x="48.62995910644531" y="0" font-family="Virgil, Segoe UI Emoji" font-size="20px" fill="#1e1e1e" text-anchor="middle" style="white-space: pre;" direction="ltr" dominant-baseline="text-before-edge">UploadFile</text></g><g mask="url(#mask-3eeMWb5jIdFKsLZwIYyKS)" stroke-linecap="round"><g transform="translate(464.9270892037779 440.20035488742775) rotate(0 141.17382812499994 -23.25311277690922)"><path d="M-0.79 0.88 C46.38 -6.98, 236.12 -38.9, 283.3 -46.82 M1 0.3 C48.07 -7.41, 236.1 -37.83, 282.85 -45.45" stroke="#1e1e1e" stroke-width="2" fill="none"></path></g><g transform="translate(464.9270892037779 440.20035488742775) rotate(0 141.17382812499994 -23.25311277690922)"><path d="M256.67 -30.81 C266.57 -33.78, 273.05 -40.16, 282.85 -45.45 M256.67 -30.81 C265.06 -33.82, 270.86 -38.69, 282.85 -45.45" stroke="#1e1e1e" stroke-width="2" fill="none"></path></g><g transform="translate(464.9270892037779 440.20035488742775) rotate(0 141.17382812499994 -23.25311277690922)"><path d="M253.38 -51.06 C264.4 -47.46, 271.94 -47.28, 282.85 -45.45 M253.38 -51.06 C262.68 -48.27, 269.41 -47.37, 282.85 -45.45" stroke="#1e1e1e" stroke-width="2" fill="none"></path></g></g><mask id="mask-3eeMWb5jIdFKsLZwIYyKS"><rect x="0" y="0" fill="#fff" width="847.2747454537778" height="586.7065804412462"></rect><rect x="573.5009417428402" y="404.4472421105185" fill="#000" width="65.199951171875" height="25" opacity="1"></rect></mask><g transform="translate(573.5009417428403 404.4472421105186) rotate(0 32.682863497734104 12.78239033222198)"><text x="32.5999755859375" y="0" font-family="Virgil, Segoe UI Emoji" font-size="20px" fill="#1e1e1e" text-anchor="middle" style="white-space: pre;" direction="ltr" dominant-baseline="text-before-edge">Upload</text></g><g stroke-linecap="round"><g transform="translate(331.0078125000001 414.24818061459644) rotate(0 -88.26953125000006 17.282890818928905)"><path d="M-0.26 0.46 C-29.63 6.5, -146.95 30.01, -176.37 35.66 M1.81 -0.34 C-27.7 5.43, -147.31 28.13, -177.23 34.11" stroke="#e03131" stroke-width="2" fill="none"></path></g><g transform="translate(331.0078125000001 414.24818061459644) rotate(0 -88.26953125000006 17.282890818928905)"><path d="M-151.51 18.66 C-158.25 23.35, -164.65 27.11, -177.23 34.11 M-151.51 18.66 C-159.12 22.19, -165.46 26.39, -177.23 34.11" stroke="#e03131" stroke-width="2" fill="none"></path></g><g transform="translate(331.0078125000001 414.24818061459644) rotate(0 -88.26953125000006 17.282890818928905)"><path d="M-147.6 38.81 C-155.38 37.66, -162.91 35.6, -177.23 34.11 M-147.6 38.81 C-156.5 36.65, -163.94 35.2, -177.23 34.11" stroke="#e03131" stroke-width="2" fill="none"></path></g></g><mask></mask><g mask="url(#mask-UTrTA7xTJGqGeiBuEJUB0)" stroke-linecap="round"><g transform="translate(153.2265625 480.488104546766) rotate(0 90.447265625 -2.490608455627296)"><path d="M-0.94 0.74 C29.08 -0.08, 150.12 -3.83, 180.56 -4.81 M0.77 0.09 C30.56 -0.53, 149.34 -2.53, 179.43 -3.19" stroke="#1e1e1e" stroke-width="2" fill="none"></path></g><g transform="translate(153.2265625 480.488104546766) rotate(0 90.447265625 -2.490608455627296)"><path d="M151.44 7.61 C162.17 3.6, 170.71 1.81, 179.43 -3.19 M151.44 7.61 C160.18 4.39, 166.7 1.28, 179.43 -3.19" stroke="#1e1e1e" stroke-width="2" fill="none"></path></g><g transform="translate(153.2265625 480.488104546766) rotate(0 90.447265625 -2.490608455627296)"><path d="M151.05 -12.91 C161.93 -9.95, 170.61 -4.77, 179.43 -3.19 M151.05 -12.91 C159.97 -10.22, 166.61 -7.43, 179.43 -3.19" stroke="#1e1e1e" stroke-width="2" fill="none"></path></g></g><mask id="mask-UTrTA7xTJGqGeiBuEJUB0"><rect x="0" y="0" fill="#fff" width="434.12109375" height="585.4693214580207"></rect><rect x="204.67385864257812" y="452.99749609113877" fill="#000" width="77.99993896484375" height="50" opacity="1"></rect></mask><g transform="translate(204.67385864257812 452.9974960911387) rotate(0 38.36203067302705 25.455731701850894)"><text x="38.999969482421875" y="0" font-family="Virgil, Segoe UI Emoji" font-size="20px" fill="#1e1e1e" text-anchor="middle" style="white-space: pre;" direction="ltr" dominant-baseline="text-before-edge">Create/</text><text x="38.999969482421875" y="25" font-family="Virgil, Segoe UI Emoji" font-size="20px" fill="#1e1e1e" text-anchor="middle" style="white-space: pre;" direction="ltr" dominant-baseline="text-before-edge">Upload</text></g><g stroke-linecap="round" transform="translate(127.67578125 18.533203125) rotate(0 81.6796875 81.361328125)"><path d="M74.52 0.72 C84.93 -1.29, 99.22 0.84, 109.61 4.54 C120.01 8.24, 128.98 15.17, 136.9 22.91 C144.81 30.66, 152.56 40.88, 157.13 51.01 C161.69 61.13, 164.45 72.78, 164.3 83.64 C164.15 94.49, 161.16 106.19, 156.23 116.14 C151.3 126.09, 143.2 136.27, 134.72 143.33 C126.25 150.4, 116.01 155.37, 105.37 158.54 C94.74 161.71, 82.08 163.58, 70.91 162.35 C59.74 161.11, 47.84 157, 38.33 151.12 C28.82 145.24, 19.91 136.27, 13.87 127.08 C7.82 117.88, 3.87 106.75, 2.05 95.94 C0.24 85.14, 0.67 72.84, 2.96 62.26 C5.26 51.68, 9.15 41.2, 15.85 32.47 C22.54 23.73, 32.42 15.36, 43.12 9.85 C53.83 4.34, 72.9 0.81, 80.07 -0.57 C87.25 -1.95, 85.92 0.2, 86.16 1.59 M78.73 0.54 C89 -1.07, 101.68 1.82, 112.19 6.1 C122.7 10.39, 133.99 18.39, 141.78 26.24 C149.56 34.08, 155.55 42.74, 158.92 53.16 C162.28 63.58, 162.83 77.37, 161.97 88.75 C161.11 100.13, 158.63 112.03, 153.75 121.42 C148.86 130.82, 141.37 138.64, 132.64 145.11 C123.91 151.59, 112.43 157.35, 101.37 160.27 C90.31 163.18, 77.1 164.38, 66.28 162.59 C55.46 160.79, 45.72 156.07, 36.46 149.5 C27.19 142.93, 16.68 132.56, 10.7 123.15 C4.72 113.75, 1.91 104.03, 0.59 93.06 C-0.73 82.09, -0.4 68.05, 2.78 57.33 C5.96 46.62, 12.22 37.19, 19.66 28.77 C27.1 20.36, 37.44 11.51, 47.42 6.83 C57.41 2.15, 74.09 1.8, 79.58 0.71 C85.07 -0.37, 80.41 -0.94, 80.37 0.32" stroke="#1e1e1e" stroke-width="2" fill="none"></path></g><g transform="translate(188.9192227871652 87.36338440646875) rotate(0 20.67998504638672 12.5)"><text x="20.67998504638672" y="0" font-family="Virgil, Segoe UI Emoji" font-size="20px" fill="#1e1e1e" text-anchor="middle" style="white-space: pre;" direction="ltr" dominant-baseline="text-before-edge">CDN</text></g><g mask="url(#mask-ALPj7h32NS9ERq2ghutHx)" stroke-linecap="round"><g transform="translate(104.85786060927899 413.01171875) rotate(0 32.23797605732855 -115.23002909591592)"><path d="M-0.63 -0.47 C10.1 -38.63, 53.82 -191.27, 64.56 -229.72 M1.24 -1.76 C11.81 -40.2, 53.41 -193.38, 63.65 -231.46" stroke="#1e1e1e" stroke-width="2" fill="none"></path></g><g transform="translate(104.85786060927899 413.01171875) rotate(0 32.23797605732855 -115.23002909591592)"><path d="M66.19 -201.56 C64.8 -210.81, 66.01 -221.45, 63.65 -231.46 M66.19 -201.56 C65.15 -208.47, 65.69 -215.78, 63.65 -231.46" stroke="#1e1e1e" stroke-width="2" fill="none"></path></g><g transform="translate(104.85786060927899 413.01171875) rotate(0 32.23797605732855 -115.23002909591592)"><path d="M46.38 -206.92 C51.16 -214.39, 58.58 -223.34, 63.65 -231.46 M46.38 -206.92 C50.17 -212.65, 55.52 -218.66, 63.65 -231.46" stroke="#1e1e1e" stroke-width="2" fill="none"></path></g></g><mask id="mask-ALPj7h32NS9ERq2ghutHx"><rect x="0" y="0" fill="#fff" width="269.3338127239361" height="743.4717769418319"></rect><rect x="92.46586993076767" y="285.28168965408406" fill="#000" width="89.25993347167969" height="25" opacity="1"></rect></mask><g transform="translate(92.46586993076767 285.28168965408406) rotate(0 44.35440037250521 11.768596408176236)"><text x="44.629966735839844" y="0" font-family="Virgil, Segoe UI Emoji" font-size="20px" fill="#1e1e1e" text-anchor="middle" style="white-space: pre;" direction="ltr" dominant-baseline="text-before-edge">Download</text></g><g mask="url(#mask-NhOaJCQYE3j6AW0A1TD_7)" stroke-linecap="round"><g transform="translate(1113.4573411740928 43.98538171417988) rotate(0 -404.8216121304809 19.317254032635148)"><path d="M-0.66 -0.52 C-135.79 6.02, -675.82 31.44, -810.58 38.07 M1.19 1.82 C-133.58 8.63, -673.2 33.4, -808.36 39.3" stroke="#1e1e1e" stroke-width="2" fill="none"></path></g><g transform="translate(1113.4573411740928 43.98538171417988) rotate(0 -404.8216121304809 19.317254032635148)"><path d="M-780.66 27.79 C-790.33 29.68, -799.1 35.54, -808.36 39.3 M-780.66 27.79 C-791.11 31.76, -799.95 35.37, -808.36 39.3" stroke="#1e1e1e" stroke-width="2" fill="none"></path></g><g transform="translate(1113.4573411740928 43.98538171417988) rotate(0 -404.8216121304809 19.317254032635148)"><path d="M-779.74 48.29 C-789.49 43.74, -798.55 43.17, -808.36 39.3 M-779.74 48.29 C-790.33 45.04, -799.5 41.44, -808.36 39.3" stroke="#1e1e1e" stroke-width="2" fill="none"></path></g></g><mask id="mask-NhOaJCQYE3j6AW0A1TD_7"><rect x="0" y="0" fill="#fff" width="2023.1005654350547" height="182.61988977945018"></rect><rect x="620.0257894684166" y="50.80263574681504" fill="#000" width="177.21987915039062" height="25" opacity="1"></rect></mask><g transform="translate(620.0257894684166 50.80263574681504) rotate(0 88.73396741074032 12.57576782922726)"><text x="88.60993957519531" y="0" font-family="Virgil, Segoe UI Emoji" font-size="20px" fill="#1e1e1e" text-anchor="middle" style="white-space: pre;" direction="ltr" dominant-baseline="text-before-edge">6. Upload to CDN</text></g><g stroke-linecap="round" transform="translate(954.970703125 624.892578125) rotate(0 77.15234375 44.728515625)"><path d="M105.74 2.51 C116.76 4.36, 127.64 10.01, 135.35 15.44 C143.07 20.87, 149.39 28.36, 152.03 35.1 C154.66 41.83, 154.22 49.21, 151.16 55.84 C148.11 62.47, 141.55 69.61, 133.69 74.89 C125.83 80.18, 115.11 85.01, 104 87.53 C92.9 90.05, 78.93 91.23, 67.06 90.02 C55.2 88.81, 42.62 84.28, 32.8 80.28 C22.99 76.27, 13.74 72, 8.17 65.99 C2.59 59.97, -0.71 51.12, -0.66 44.19 C-0.61 37.26, 2.82 30.51, 8.45 24.42 C14.09 18.33, 23.05 11.52, 33.16 7.64 C43.27 3.75, 56.28 1.58, 69.11 1.12 C81.93 0.65, 102.59 4.02, 110.13 4.85 C117.66 5.69, 115.02 5.53, 114.33 6.11 M89.66 0.29 C101.32 0.73, 114.6 6.24, 124.2 10.58 C133.81 14.92, 142.11 20.47, 147.3 26.35 C152.5 32.22, 155.81 38.79, 155.37 45.85 C154.92 52.91, 150.94 62.69, 144.64 68.71 C138.33 74.73, 127.95 78.73, 117.54 81.99 C107.13 85.25, 93.78 87.7, 82.17 88.29 C70.57 88.89, 58.67 88.04, 47.91 85.56 C37.14 83.08, 25.47 78.84, 17.58 73.41 C9.7 67.97, 3.13 59.83, 0.58 52.96 C-1.97 46.08, -1.5 38.85, 2.28 32.14 C6.05 25.44, 14.73 17.89, 23.24 12.7 C31.74 7.52, 42.08 2.94, 53.3 1.03 C64.52 -0.87, 84.3 1.27, 90.57 1.26 C96.83 1.24, 91.29 0.07, 90.89 0.94" stroke="#1e1e1e" stroke-width="2" fill="none"></path></g><g transform="translate(983.9081587979863 644.4932570391541) rotate(0 48.159942626953125 25)"><text x="48.159942626953125" y="0" font-family="Virgil, Segoe UI Emoji" font-size="20px" fill="#1e1e1e" text-anchor="middle" style="white-space: pre;" direction="ltr" dominant-baseline="text-before-edge">Permission</text><text x="48.159942626953125" y="25" font-family="Virgil, Segoe UI Emoji" font-size="20px" fill="#1e1e1e" text-anchor="middle" style="white-space: pre;" direction="ltr" dominant-baseline="text-before-edge">Store</text></g><g stroke-linecap="round" transform="translate(744.771484375 644.17578125) rotate(0 62.259765625 50.7421875)"><path d="M25.37 0 C44.85 0.56, 61.29 -0.13, 99.15 0 M25.37 0 C42.49 0.45, 58.96 0.78, 99.15 0 M99.15 0 C114.5 -1.33, 126.13 7.18, 124.52 25.37 M99.15 0 C114.64 1.09, 126.59 9.04, 124.52 25.37 M124.52 25.37 C124.26 44.95, 125.97 63.23, 124.52 76.11 M124.52 25.37 C124.86 41.65, 124.49 57.74, 124.52 76.11 M124.52 76.11 C124.65 91.28, 114.58 100.72, 99.15 101.48 M124.52 76.11 C124.53 94.11, 116.24 102.52, 99.15 101.48 M99.15 101.48 C73.29 100.81, 45.26 100.41, 25.37 101.48 M99.15 101.48 C80.47 100.63, 60.92 101.13, 25.37 101.48 M25.37 101.48 C10.2 101.7, -0.79 93.84, 0 76.11 M25.37 101.48 C9.38 100.11, 1.94 90.84, 0 76.11 M0 76.11 C-0.6 59.95, 1.27 48.14, 0 25.37 M0 76.11 C-0.19 62.3, 0.75 47.81, 0 25.37 M0 25.37 C-0.93 7.41, 6.59 1.21, 25.37 0 M0 25.37 C-2.07 8.08, 6.23 0.71, 25.37 0" stroke="#1e1e1e" stroke-width="2" fill="none"></path></g><g transform="translate(763.5412902832031 682.41796875) rotate(0 43.489959716796875 12.5)"><text x="43.489959716796875" y="0" font-family="Virgil, Segoe UI Emoji" font-size="20px" fill="#1e1e1e" text-anchor="middle" style="white-space: pre;" direction="ltr" dominant-baseline="text-before-edge">ShareFile</text></g><g stroke-linecap="round"><g transform="translate(157.265625 522.3828125) rotate(0 82.751953125 24.681640625)"><path d="M0.74 -1.07 C28.53 7.06, 138.27 39.99, 165.73 48.23 M-0.33 0.98 C27.41 9.27, 137.38 41.14, 164.91 49.18" stroke="#1971c2" stroke-width="2" fill="none"></path></g><g transform="translate(157.265625 522.3828125) rotate(0 82.751953125 24.681640625)"><path d="M134.97 51.16 C139.7 50.92, 146.11 50.19, 164.91 49.18 M134.97 51.16 C142.5 51.08, 148.23 50.75, 164.91 49.18" stroke="#1971c2" stroke-width="2" fill="none"></path></g><g transform="translate(157.265625 522.3828125) rotate(0 82.751953125 24.681640625)"><path d="M140.7 31.45 C144.1 35.54, 149.26 39.08, 164.91 49.18 M140.7 31.45 C146.94 35.78, 151.4 39.8, 164.91 49.18" stroke="#1971c2" stroke-width="2" fill="none"></path></g></g><mask></mask><g stroke-linecap="round"><g transform="translate(470.3065298261073 588.5782477239813) rotate(0 131.12695312500006 49.55080436667075)"><path d="M0.42 0.47 C43.99 17.01, 218.78 82.52, 262.23 98.81 M-0.82 -0.32 C42.51 16.43, 217.23 83.63, 261.26 100.2" stroke="#1971c2" stroke-width="2" fill="none"></path></g><g transform="translate(470.3065298261073 588.5782477239813) rotate(0 131.12695312500006 49.55080436667075)"><path d="M231.27 99.75 C243.11 99.76, 252.89 98.02, 261.26 100.2 M231.27 99.75 C239.06 99.86, 245.49 99.39, 261.26 100.2" stroke="#1971c2" stroke-width="2" fill="none"></path></g><g transform="translate(470.3065298261073 588.5782477239813) rotate(0 131.12695312500006 49.55080436667075)"><path d="M238.58 80.57 C247.66 87.68, 254.75 93, 261.26 100.2 M238.58 80.57 C244.8 85.03, 249.58 88.9, 261.26 100.2" stroke="#1971c2" stroke-width="2" fill="none"></path></g></g><mask></mask><g stroke-linecap="round"><g transform="translate(880.75 677.0431692399287) rotate(0 34.26779648529089 -1.1077255162521737)"><path d="M0.73 -1.13 C12.28 -1.49, 57.29 -2.32, 68.69 -2.31 M-0.34 0.89 C11.11 0.74, 56.31 -0.21, 67.83 -0.83" stroke="#1971c2" stroke-width="2" fill="none"></path></g><g transform="translate(880.75 677.0431692399287) rotate(0 34.26779648529089 -1.1077255162521737)"><path d="M40.01 10.41 C45.17 7.67, 53.92 5.64, 67.83 -0.83 M40.01 10.41 C50.67 6.75, 61.08 1.36, 67.83 -0.83" stroke="#1971c2" stroke-width="2" fill="none"></path></g><g transform="translate(880.75 677.0431692399287) rotate(0 34.26779648529089 -1.1077255162521737)"><path d="M39.3 -10.1 C44.61 -7.67, 53.54 -4.51, 67.83 -0.83 M39.3 -10.1 C50.21 -5.64, 60.9 -2.92, 67.83 -0.83" stroke="#1971c2" stroke-width="2" fill="none"></path></g></g><mask></mask><g stroke-linecap="round" transform="translate(10 620.73828125) rotate(0 63.68359375 49.44140625)"><path d="M24.72 0 C52.88 -0.38, 85.5 1.05, 102.65 0 M24.72 0 C52.41 -1.14, 82.02 -1.54, 102.65 0 M102.65 0 C120.99 -1.35, 126.13 7.74, 127.37 24.72 M102.65 0 C120.44 -1.78, 128.55 8.88, 127.37 24.72 M127.37 24.72 C129.78 44.07, 126.73 61.97, 127.37 74.16 M127.37 24.72 C127.9 34.67, 128.38 47.06, 127.37 74.16 M127.37 74.16 C126.83 91.73, 120.03 100.22, 102.65 98.88 M127.37 74.16 C125.45 89.36, 118.44 100.17, 102.65 98.88 M102.65 98.88 C85.42 99.7, 67.26 101.47, 24.72 98.88 M102.65 98.88 C86.16 99.81, 68.14 98.24, 24.72 98.88 M24.72 98.88 C7.5 98.45, 0.24 91.42, 0 74.16 M24.72 98.88 C7.78 99.57, 0.7 91.53, 0 74.16 M0 74.16 C1.42 57.34, 0.63 36.94, 0 24.72 M0 74.16 C0.17 63.42, 1.23 54.73, 0 24.72 M0 24.72 C-0.58 8.33, 9.81 -0.79, 24.72 0 M0 24.72 C0.41 8.64, 6.74 -0.39, 24.72 0" stroke="#1e1e1e" stroke-width="2" fill="none"></path></g><g transform="translate(26.133636474609375 632.6796875) rotate(0 47.549957275390625 37.5)"><text x="47.549957275390625" y="0" font-family="Virgil, Segoe UI Emoji" font-size="20px" fill="#1e1e1e" text-anchor="middle" style="white-space: pre;" direction="ltr" dominant-baseline="text-before-edge">Download</text><text x="47.549957275390625" y="25" font-family="Virgil, Segoe UI Emoji" font-size="20px" fill="#1e1e1e" text-anchor="middle" style="white-space: pre;" direction="ltr" dominant-baseline="text-before-edge">(Browser/</text><text x="47.549957275390625" y="50" font-family="Virgil, Segoe UI Emoji" font-size="20px" fill="#1e1e1e" text-anchor="middle" style="white-space: pre;" direction="ltr" dominant-baseline="text-before-edge">Device</text></g><g stroke-linecap="round" transform="translate(763.560546875 838.25) rotate(0 62.259765625 50.7421875)"><path d="M25.37 0 C47.43 1.08, 71.61 1.57, 99.15 0 M25.37 0 C49.54 0.29, 73.32 -0.06, 99.15 0 M99.15 0 C116.47 0.99, 123.27 8.24, 124.52 25.37 M99.15 0 C117.39 1.57, 125.84 9.9, 124.52 25.37 M124.52 25.37 C125.77 39.56, 125.02 51.81, 124.52 76.11 M124.52 25.37 C123.85 40.64, 123.65 56.33, 124.52 76.11 M124.52 76.11 C123.78 91.33, 117.07 102.88, 99.15 101.48 M124.52 76.11 C126.61 95.27, 114.75 103.64, 99.15 101.48 M99.15 101.48 C75.47 99.78, 53.43 102.82, 25.37 101.48 M99.15 101.48 C82.56 102.15, 65.75 101.77, 25.37 101.48 M25.37 101.48 C7.72 103.44, 0.91 94.43, 0 76.11 M25.37 101.48 C9.05 100.47, -1.32 92.3, 0 76.11 M0 76.11 C-0.16 63.2, 0.64 47.65, 0 25.37 M0 76.11 C0.21 58.81, 0.7 41.89, 0 25.37 M0 25.37 C-0.92 9.91, 8.22 0.7, 25.37 0 M0 25.37 C1.33 9.75, 8.09 1.61, 25.37 0" stroke="#1e1e1e" stroke-width="2" fill="none"></path></g><g transform="translate(780.3003463745117 863.9921875) rotate(0 45.51996612548828 25)"><text x="45.51996612548828" y="0" font-family="Virgil, Segoe UI Emoji" font-size="20px" fill="#1e1e1e" text-anchor="middle" style="white-space: pre;" direction="ltr" dominant-baseline="text-before-edge">GetFile</text><text x="45.51996612548828" y="25" font-family="Virgil, Segoe UI Emoji" font-size="20px" fill="#1e1e1e" text-anchor="middle" style="white-space: pre;" direction="ltr" dominant-baseline="text-before-edge">(MD only)</text></g><g mask="url(#mask-i2zEkfgsYMxVUIUKpYG8v)" stroke-linecap="round"><g transform="translate(152.9609375 664.65234375) rotate(0 303.515625 116.611328125)"><path d="M0.3 -0.29 C101.19 38.49, 505.35 194.6, 606.37 233.55 M-1 -1.49 C100.2 36.84, 507.67 192.21, 608.74 231.61" stroke="#1e1e1e" stroke-width="2" fill="none"></path></g><g transform="translate(152.9609375 664.65234375) rotate(0 303.515625 116.611328125)"><path d="M578.74 231.06 C589.77 230.09, 602.32 230.44, 608.74 231.61 M578.74 231.06 C588.65 231.89, 596.94 231.85, 608.74 231.61" stroke="#1e1e1e" stroke-width="2" fill="none"></path></g><g transform="translate(152.9609375 664.65234375) rotate(0 303.515625 116.611328125)"><path d="M586.11 211.9 C594.45 218.31, 604.18 226.01, 608.74 231.61 M586.11 211.9 C593.5 218.89, 599.44 224.94, 608.74 231.61" stroke="#1e1e1e" stroke-width="2" fill="none"></path></g></g><mask id="mask-i2zEkfgsYMxVUIUKpYG8v"><rect x="0" y="0" fill="#fff" width="859.9921875" height="997.875"></rect><rect x="362.79664611816406" y="756.263671875" fill="#000" width="187.35983276367188" height="50" opacity="1"></rect></mask><g transform="translate(362.79664611816406 756.263671875) rotate(0 94.03014356919573 24.420734039801147)"><text x="93.67991638183594" y="0" font-family="Virgil, Segoe UI Emoji" font-size="20px" fill="#1e1e1e" text-anchor="middle" style="white-space: pre;" direction="ltr" dominant-baseline="text-before-edge">Can poll or get </text><text x="93.67991638183594" y="25" font-family="Virgil, Segoe UI Emoji" font-size="20px" fill="#1e1e1e" text-anchor="middle" style="white-space: pre;" direction="ltr" dominant-baseline="text-before-edge">notified on changes</text></g><g mask="url(#mask-EONh0Il1h3FpOFhReEI_v)" stroke-linecap="round"><g transform="translate(901.15234375 889.4101436972253) rotate(0 198.50949887215234 -121.7311394675358)"><path d="M-0.89 0.59 C65.48 -39.76, 331.08 -201.57, 397.21 -242.39 M0.85 -0.15 C67.16 -40.77, 330.13 -203.39, 396.37 -243.96" stroke="#1e1e1e" stroke-width="2" fill="none"></path></g><g transform="translate(901.15234375 889.4101436972253) rotate(0 198.50949887215234 -121.7311394675358)"><path d="M377.74 -220.44 C382.85 -225.11, 387.72 -232.38, 396.37 -243.96 M377.74 -220.44 C380.82 -224.68, 385.63 -230.17, 396.37 -243.96" stroke="#1e1e1e" stroke-width="2" fill="none"></path></g><g transform="translate(901.15234375 889.4101436972253) rotate(0 198.50949887215234 -121.7311394675358)"><path d="M366.98 -237.91 C374.39 -238.69, 381.61 -242.15, 396.37 -243.96 M366.98 -237.91 C372.59 -238.18, 379.82 -239.74, 396.37 -243.96" stroke="#1e1e1e" stroke-width="2" fill="none"></path></g></g><mask id="mask-EONh0Il1h3FpOFhReEI_v"><rect x="0" y="0" fill="#fff" width="1398.1713414943047" height="1232.872422632297"></rect><rect x="1019.2418978589685" y="755.1790042296896" fill="#000" width="160.8398895263672" height="25" opacity="1"></rect></mask><g transform="translate(1019.2418978589685 755.1790042296896) rotate(0 80.07272236347205 12.546722981738839)"><text x="80.4199447631836" y="0" font-family="Virgil, Segoe UI Emoji" font-size="20px" fill="#1e1e1e" text-anchor="middle" style="white-space: pre;" direction="ltr" dominant-baseline="text-before-edge">2. Get File Info</text></g><g mask="url(#mask-BL_LfJh5iBsSucLoppctG)" stroke-linecap="round"><g transform="translate(894.4296875 860.6796875) rotate(0 50.849609375 -69.623046875)"><path d="M0.74 0.05 C17.72 -23.16, 85.99 -115.65, 102.85 -138.67 M-0.32 -0.97 C16.51 -24.58, 85.58 -117.35, 102.5 -140.5" stroke="#1e1e1e" stroke-width="2" fill="none"></path></g><g transform="translate(894.4296875 860.6796875) rotate(0 50.849609375 -69.623046875)"><path d="M94.01 -111.72 C97.21 -120.87, 101.33 -133.46, 102.5 -140.5 M94.01 -111.72 C97.07 -122.44, 100.61 -134.38, 102.5 -140.5" stroke="#1e1e1e" stroke-width="2" fill="none"></path></g><g transform="translate(894.4296875 860.6796875) rotate(0 50.849609375 -69.623046875)"><path d="M77.5 -123.91 C87.07 -128.5, 97.5 -136.42, 102.5 -140.5 M77.5 -123.91 C87.11 -129.85, 97.2 -136.95, 102.5 -140.5" stroke="#1e1e1e" stroke-width="2" fill="none"></path></g></g><mask id="mask-BL_LfJh5iBsSucLoppctG"><rect x="0" y="0" fill="#fff" width="1096.12890625" height="1099.92578125"></rect><rect x="908.0893249511719" y="778.556640625" fill="#000" width="74.37994384765625" height="25" opacity="1"></rect></mask><g transform="translate(908.0893249511719 778.556640625) rotate(0 37.60225940864996 11.898511140155591)"><text x="37.189971923828125" y="0" font-family="Virgil, Segoe UI Emoji" font-size="20px" fill="#1e1e1e" text-anchor="middle" style="white-space: pre;" direction="ltr" dominant-baseline="text-before-edge">1. Check</text></g><g mask="url(#mask-aTEK5tZcy-6XmyJYgYzTa)" stroke-linecap="round"><g transform="translate(897.3984375 909.0703125) rotate(0 355.0910223166825 -387.28895170040073)"><path d="M0.27 0.92 C118.67 -40.42, 645.58 -120.13, 709.89 -249.23 C774.19 -378.33, 440.28 -686.21, 386.1 -773.71 M-1.05 0.36 C117.21 -41.22, 644.37 -121.6, 708.78 -250.92 C773.2 -380.25, 439.51 -688.59, 385.45 -775.59" stroke="#1e1e1e" stroke-width="2" fill="none"></path></g><g transform="translate(897.3984375 909.0703125) rotate(0 355.0910223166825 -387.28895170040073)"><path d="M411.37 -760.48 C406.37 -764.81, 399.53 -767.83, 385.45 -775.59 M411.37 -760.48 C401.46 -765.81, 392.64 -770.89, 385.45 -775.59" stroke="#1e1e1e" stroke-width="2" fill="none"></path></g><g transform="translate(897.3984375 909.0703125) rotate(0 355.0910223166825 -387.28895170040073)"><path d="M395.59 -747.35 C394.79 -755.1, 392.01 -761.51, 385.45 -775.59 M395.59 -747.35 C391.69 -757.62, 388.75 -767.6, 385.45 -775.59" stroke="#1e1e1e" stroke-width="2" fill="none"></path></g></g><mask id="mask-aTEK5tZcy-6XmyJYgYzTa"><rect x="0" y="0" fill="#fff" width="1707.580482133365" height="1783.6482159008015"></rect><rect x="1492.670554765201" y="621.5234375" fill="#000" width="229.81985473632812" height="75" opacity="1"></rect></mask><g transform="translate(1492.670554765201 621.5234375) rotate(0 -236.7610954969814 -99.78776091944536)"><text x="114.90992736816406" y="0" font-family="Virgil, Segoe UI Emoji" font-size="20px" fill="#1e1e1e" text-anchor="middle" style="white-space: pre;" direction="ltr" dominant-baseline="text-before-edge">3. Get Signed URLs</text><text x="114.90992736816406" y="25" font-family="Virgil, Segoe UI Emoji" font-size="20px" fill="#1e1e1e" text-anchor="middle" style="white-space: pre;" direction="ltr" dominant-baseline="text-before-edge">(To invalidate URL on </text><text x="114.90992736816406" y="50" font-family="Virgil, Segoe UI Emoji" font-size="20px" fill="#1e1e1e" text-anchor="middle" style="white-space: pre;" direction="ltr" dominant-baseline="text-before-edge">access changes)</text></g><g mask="url(#mask-JcoobmAvBmCyREgeHDet7)" stroke-linecap="round"><g transform="translate(752.4375 920.01171875) rotate(0 -300.064453125 -99.86328125)"><path d="M-0.89 0.61 C-66.48 2.85, -294.63 49.71, -394.63 14.18 C-494.63 -21.36, -566.8 -174.63, -600.89 -212.6 M0.84 -0.12 C-64.3 2.28, -292.67 51.5, -392.54 15.79 C-492.41 -19.91, -564.07 -176.29, -598.4 -214.33" stroke="#1e1e1e" stroke-width="2" fill="none"></path></g><g transform="translate(752.4375 920.01171875) rotate(0 -300.064453125 -99.86328125)"><path d="M-574.04 -196.82 C-578.2 -202.62, -584.05 -205.56, -598.4 -214.33 M-574.04 -196.82 C-584.71 -203.53, -593.74 -211.24, -598.4 -214.33" stroke="#1e1e1e" stroke-width="2" fill="none"></path></g><g transform="translate(752.4375 920.01171875) rotate(0 -300.064453125 -99.86328125)"><path d="M-590.99 -185.26 C-591.7 -193.35, -594.01 -198.69, -598.4 -214.33 M-590.99 -185.26 C-595.03 -196.58, -597.33 -208.87, -598.4 -214.33" stroke="#1e1e1e" stroke-width="2" fill="none"></path></g></g><mask id="mask-JcoobmAvBmCyREgeHDet7"><rect x="0" y="0" fill="#fff" width="1452.56640625" height="1247.80078125"></rect><rect x="159.85235595703125" y="896.54296875" fill="#000" width="398.2796630859375" height="75" opacity="1"></rect></mask><g transform="translate(159.85235595703125 896.54296875) rotate(0 292.56050574463325 -69.3277553082105)"><text x="199.13983154296875" y="0" font-family="Virgil, Segoe UI Emoji" font-size="20px" fill="#1e1e1e" text-anchor="middle" style="white-space: pre;" direction="ltr" dominant-baseline="text-before-edge">4. Send back DownloadURL</text><text x="199.13983154296875" y="25" font-family="Virgil, Segoe UI Emoji" font-size="20px" fill="#1e1e1e" text-anchor="middle" style="white-space: pre;" direction="ltr" dominant-baseline="text-before-edge">For owners this could be directly on S3 </text><text x="199.13983154296875" y="50" font-family="Virgil, Segoe UI Emoji" font-size="20px" fill="#1e1e1e" text-anchor="middle" style="white-space: pre;" direction="ltr" dominant-baseline="text-before-edge">for RWY</text></g></svg>