<svg version="1.1" xmlns="http://www.w3.org/2000/svg" viewBox="0 0 2897.9118676603434 1523.70658262174" width="2897.9118676603434" height="1523.70658262174">
  <!-- svg-source:excalidraw -->
  
  <defs>
    <style class="style-fonts">
      @font-face {
        font-family: "Virgil";
        src: url("https://excalidraw.com/Virgil.woff2");
      }
      @font-face {
        font-family: "Cascadia";
        src: url("https://excalidraw.com/Cascadia.woff2");
      }
      @font-face {
        font-family: "Assistant";
        src: url("https://excalidraw.com/Assistant-Regular.woff2");
      }
    </style>
    
  </defs>
  <rect x="0" y="0" width="2897.9118676603434" height="1523.70658262174" fill="#ffffff"></rect><g stroke-linecap="round" transform="translate(144.74166191134873 1213.876541199588) rotate(0 206.83128447776267 117.49999999999989)"><path d="M32 0 C148.4 -1.92, 264.85 -0.92, 381.66 0 M32 0 C171.37 1.31, 309.86 1.92, 381.66 0 M381.66 0 C403.76 -1.28, 412.33 9.25, 413.66 32 M381.66 0 C402.19 -2.06, 413.43 12.81, 413.66 32 M413.66 32 C414.69 68.26, 413.48 106.83, 413.66 203 M413.66 32 C411.82 92.63, 412.65 152.87, 413.66 203 M413.66 203 C413.94 224.6, 401.28 236.44, 381.66 235 M413.66 203 C411.41 224.17, 404.86 235.27, 381.66 235 M381.66 235 C296.8 238.07, 211.44 238.04, 32 235 M381.66 235 C263.36 232.9, 144.39 233.15, 32 235 M32 235 C8.86 234.24, -0.14 223.12, 0 203 M32 235 C11.86 235.15, 1.87 222.59, 0 203 M0 203 C2.04 168.23, -0.28 132.81, 0 32 M0 203 C0.04 153.18, 0.23 104.33, 0 32 M0 32 C-2 10.73, 9.05 0.17, 32 0 M0 32 C-1.09 8.79, 11.49 0.49, 32 0" stroke="#1e1e1e" stroke-width="2" fill="none"></path></g><g transform="translate(168.06308921137725 1231.3765411995878) rotate(0 183.50985717773438 100)"><text x="183.50985717773438" y="0" font-family="Virgil, Segoe UI Emoji" font-size="20px" fill="#1e1e1e" text-anchor="middle" style="white-space: pre;" direction="ltr" dominant-baseline="text-before-edge">TradesDB</text><text x="183.50985717773438" y="25" font-family="Virgil, Segoe UI Emoji" font-size="20px" fill="#1e1e1e" text-anchor="middle" style="white-space: pre;" direction="ltr" dominant-baseline="text-before-edge">id - primaryKey</text><text x="183.50985717773438" y="50" font-family="Virgil, Segoe UI Emoji" font-size="20px" fill="#1e1e1e" text-anchor="middle" style="white-space: pre;" direction="ltr" dominant-baseline="text-before-edge">UserId - secondaryIndex</text><text x="183.50985717773438" y="75" font-family="Virgil, Segoe UI Emoji" font-size="20px" fill="#1e1e1e" text-anchor="middle" style="white-space: pre;" direction="ltr" dominant-baseline="text-before-edge">CreatedAt</text><text x="183.50985717773438" y="100" font-family="Virgil, Segoe UI Emoji" font-size="20px" fill="#1e1e1e" text-anchor="middle" style="white-space: pre;" direction="ltr" dominant-baseline="text-before-edge">updatedAt</text><text x="183.50985717773438" y="125" font-family="Virgil, Segoe UI Emoji" font-size="20px" fill="#1e1e1e" text-anchor="middle" style="white-space: pre;" direction="ltr" dominant-baseline="text-before-edge">exchangeId string </text><text x="183.50985717773438" y="150" font-family="Virgil, Segoe UI Emoji" font-size="20px" fill="#1e1e1e" text-anchor="middle" style="white-space: pre;" direction="ltr" dominant-baseline="text-before-edge">(to connect with exchange's tradeId)</text><text x="183.50985717773438" y="175" font-family="Virgil, Segoe UI Emoji" font-size="20px" fill="#1e1e1e" text-anchor="middle" style="white-space: pre;" direction="ltr" dominant-baseline="text-before-edge">details (price, quanitty etc)</text></g><g stroke-linecap="round" transform="translate(1299.5733298759897 1226.403551743289) rotate(0 156.0595619167873 91.96809481228684)"><path d="M32 0 C88.35 -0.95, 146.28 -1.89, 280.12 0 M32 0 C90.8 0.26, 149.43 -0.56, 280.12 0 M280.12 0 C300.11 1.31, 313.3 12.18, 312.12 32 M280.12 0 C300.58 0.36, 311.23 9.84, 312.12 32 M312.12 32 C310.95 66.89, 309.98 104.22, 312.12 151.94 M312.12 32 C312.18 69.76, 311.78 106.38, 312.12 151.94 M312.12 151.94 C311.94 172, 302.47 183.52, 280.12 183.94 M312.12 151.94 C311.19 174.26, 300.27 182.86, 280.12 183.94 M280.12 183.94 C185.29 184.79, 90.84 184.92, 32 183.94 M280.12 183.94 C216 184.17, 151.23 182.84, 32 183.94 M32 183.94 C12.12 185.1, -0.53 172.42, 0 151.94 M32 183.94 C11.69 184.09, 0.74 173.79, 0 151.94 M0 151.94 C2.54 112.24, 1.24 73.05, 0 32 M0 151.94 C-0.76 112.38, -0.35 72.76, 0 32 M0 32 C0.27 11.06, 12.31 1.5, 32 0 M0 32 C0.64 12.05, 10.99 -1.58, 32 0" stroke="#1e1e1e" stroke-width="2" fill="none"></path></g><g transform="translate(1325.7630034871127 1243.3716465555758) rotate(0 129.86988830566406 75)"><text x="129.86988830566406" y="0" font-family="Virgil, Segoe UI Emoji" font-size="20px" fill="#1e1e1e" text-anchor="middle" style="white-space: pre;" direction="ltr" dominant-baseline="text-before-edge">SymbolStore (Possibly </text><text x="129.86988830566406" y="25" font-family="Virgil, Segoe UI Emoji" font-size="20px" fill="#1e1e1e" text-anchor="middle" style="white-space: pre;" direction="ltr" dominant-baseline="text-before-edge">InMemory)</text><text x="129.86988830566406" y="50" font-family="Virgil, Segoe UI Emoji" font-size="20px" fill="#1e1e1e" text-anchor="middle" style="white-space: pre;" direction="ltr" dominant-baseline="text-before-edge">id - primaryKey</text><text x="129.86988830566406" y="75" font-family="Virgil, Segoe UI Emoji" font-size="20px" fill="#1e1e1e" text-anchor="middle" style="white-space: pre;" direction="ltr" dominant-baseline="text-before-edge">lastUpdatedAt Timestamp</text><text x="129.86988830566406" y="100" font-family="Virgil, Segoe UI Emoji" font-size="20px" fill="#1e1e1e" text-anchor="middle" style="white-space: pre;" direction="ltr" dominant-baseline="text-before-edge">lastPrice float64</text><text x="129.86988830566406" y="125" font-family="Virgil, Segoe UI Emoji" font-size="20px" fill="#1e1e1e" text-anchor="middle" style="white-space: pre;" direction="ltr" dominant-baseline="text-before-edge">other details</text></g><g stroke-linecap="round" transform="translate(1483.7821638746514 963.4942097511207) rotate(0 181.11008779358622 80.04248532068652)"><path d="M32 0 C106.43 -4.33, 186 -3.06, 330.22 0 C351.73 2.65, 365.05 12.41, 362.22 32 C362.67 66.21, 363.73 102.9, 362.22 128.08 C360.1 147.97, 353.11 162.07, 330.22 160.08 C244.03 160.19, 159.48 159.98, 32 160.08 C13.66 159.48, 0.05 151.48, 0 128.08 C0.09 91.81, 2.29 60.44, 0 32 C-1.57 9.07, 10.15 1.63, 32 0" stroke="none" stroke-width="0" fill="#ffec99"></path><path d="M32 0 C147.14 -0.25, 261.69 -1.78, 330.22 0 M32 0 C143.89 1.62, 256.29 1.55, 330.22 0 M330.22 0 C350.6 1.72, 363.98 11.13, 362.22 32 M330.22 0 C349.41 -1.51, 364.47 9.69, 362.22 32 M362.22 32 C363.21 58.98, 362.89 87.12, 362.22 128.08 M362.22 32 C361.95 52.45, 361.27 74.23, 362.22 128.08 M362.22 128.08 C360.96 150.6, 350.93 160.55, 330.22 160.08 M362.22 128.08 C364.43 151.57, 349.61 159.36, 330.22 160.08 M330.22 160.08 C239.3 160.51, 150.39 159.55, 32 160.08 M330.22 160.08 C251.82 160.99, 174.39 159.71, 32 160.08 M32 160.08 C12.4 159.45, 1.92 149.73, 0 128.08 M32 160.08 C11.51 159.33, 1.37 149.04, 0 128.08 M0 128.08 C0.84 106.41, -0.17 83.05, 0 32 M0 128.08 C0.55 98.29, -0.14 66.76, 0 32 M0 32 C-1.48 11.73, 9.3 -1.35, 32 0 M0 32 C-1.31 10.99, 10.98 -1.74, 32 0" stroke="#1e1e1e" stroke-width="2" fill="none"></path></g><g transform="translate(1519.1823670246831 1006.0366950718073) rotate(0 145.7098846435547 37.5)"><text x="145.7098846435547" y="0" font-family="Virgil, Segoe UI Emoji" font-size="20px" fill="#1e1e1e" text-anchor="middle" style="white-space: pre;" direction="ltr" dominant-baseline="text-before-edge">UpdateSymbol</text><text x="145.7098846435547" y="25" font-family="Virgil, Segoe UI Emoji" font-size="20px" fill="#1e1e1e" text-anchor="middle" style="white-space: pre;" direction="ltr" dominant-baseline="text-before-edge">1. Upsert into SymbolDB with </text><text x="145.7098846435547" y="50" font-family="Virgil, Segoe UI Emoji" font-size="20px" fill="#1e1e1e" text-anchor="middle" style="white-space: pre;" direction="ltr" dominant-baseline="text-before-edge">lastUpdated = now()</text></g><g stroke-linecap="round" transform="translate(2220.854363600604 428.5107374753952) rotate(0 228.17563657407436 148.0541087962963)"><path d="M32 0 C151.17 0.93, 267.4 0.15, 424.35 0 C442.1 0.62, 455.47 11.88, 456.35 32 C453.73 80.03, 454.46 128.58, 456.35 264.11 C456.51 288.84, 443.74 293.03, 424.35 296.11 C338.88 295.45, 251.27 292.69, 32 296.11 C8.25 295.81, 0.32 288.26, 0 264.11 C-0.76 173.16, 0.88 84.82, 0 32 C0.37 12.73, 9.66 -0.98, 32 0" stroke="none" stroke-width="0" fill="#a5d8ff"></path><path d="M32 0 C173.21 -2.97, 313.15 -0.99, 424.35 0 M32 0 C182.38 2.26, 331.43 1.83, 424.35 0 M424.35 0 C445.2 -1.88, 457.57 9.68, 456.35 32 M424.35 0 C446.14 1.27, 454.99 12.01, 456.35 32 M456.35 32 C457.62 86.4, 455.81 136.35, 456.35 264.11 M456.35 32 C457.07 84.46, 456.62 136.45, 456.35 264.11 M456.35 264.11 C454.67 286.7, 446.86 297.35, 424.35 296.11 M456.35 264.11 C457.79 285.63, 447 297.34, 424.35 296.11 M424.35 296.11 C305.48 296.05, 188.63 295.32, 32 296.11 M424.35 296.11 C302.25 298.09, 180.59 298.4, 32 296.11 M32 296.11 C10.81 295.52, -0.1 284.88, 0 264.11 M32 296.11 C8.9 298.4, -0.71 286.99, 0 264.11 M0 264.11 C-0.78 181.89, -1.65 102.02, 0 32 M0 264.11 C1.74 180.66, 2.27 95.52, 0 32 M0 32 C-0.61 10.02, 12.49 -1.74, 32 0 M0 32 C1.4 12.32, 10.82 1.5, 32 0" stroke="#1e1e1e" stroke-width="2" fill="none"></path></g><g transform="translate(2227.0901808387403 476.5648462716915) rotate(0 221.9398193359375 100)"><text x="221.9398193359375" y="0" font-family="Virgil, Segoe UI Emoji" font-size="20px" fill="#1e1e1e" text-anchor="middle" style="white-space: pre;" direction="ltr" dominant-baseline="text-before-edge">Exchange</text><text x="221.9398193359375" y="25" font-family="Virgil, Segoe UI Emoji" font-size="20px" fill="#1e1e1e" text-anchor="middle" style="white-space: pre;" direction="ltr" dominant-baseline="text-before-edge"></text><text x="221.9398193359375" y="50" font-family="Virgil, Segoe UI Emoji" font-size="20px" fill="#1e1e1e" text-anchor="middle" style="white-space: pre;" direction="ltr" dominant-baseline="text-before-edge"></text><text x="221.9398193359375" y="75" font-family="Virgil, Segoe UI Emoji" font-size="20px" fill="#1e1e1e" text-anchor="middle" style="white-space: pre;" direction="ltr" dominant-baseline="text-before-edge">* startSubscription(symbol, callback) connId</text><text x="221.9398193359375" y="100" font-family="Virgil, Segoe UI Emoji" font-size="20px" fill="#1e1e1e" text-anchor="middle" style="white-space: pre;" direction="ltr" dominant-baseline="text-before-edge">* stopSubscription(connId, symbol or "*")</text><text x="221.9398193359375" y="125" font-family="Virgil, Segoe UI Emoji" font-size="20px" fill="#1e1e1e" text-anchor="middle" style="white-space: pre;" direction="ltr" dominant-baseline="text-before-edge">* createTrade(userTrade) ExchangeTradeId</text><text x="221.9398193359375" y="150" font-family="Virgil, Segoe UI Emoji" font-size="20px" fill="#1e1e1e" text-anchor="middle" style="white-space: pre;" direction="ltr" dominant-baseline="text-before-edge">or Error</text><text x="221.9398193359375" y="175" font-family="Virgil, Segoe UI Emoji" font-size="20px" fill="#1e1e1e" text-anchor="middle" style="white-space: pre;" direction="ltr" dominant-baseline="text-before-edge">* getTrade(exchangeTradeId) status</text></g><g stroke-linecap="round"><g transform="translate(2207.9595209329095 593.7593419275718) rotate(0 -107.36539588200526 6.715537903815175)"><path d="M-0.63 -0.41 C-36.53 1.78, -179.3 11.89, -214.98 14.27 M1.24 -1.66 C-34.88 0.7, -179.93 10.35, -216.05 12.59" stroke="#1e1e1e" stroke-width="2" fill="none"></path></g><g transform="translate(2207.9595209329095 593.7593419275718) rotate(0 -107.36539588200526 6.715537903815175)"><path d="M-193.16 2.54 C-201.39 5.37, -206.97 9.16, -216.05 12.59 M-193.16 2.54 C-201.72 5, -209.01 9.1, -216.05 12.59" stroke="#1e1e1e" stroke-width="2" fill="none"></path></g><g transform="translate(2207.9595209329095 593.7593419275718) rotate(0 -107.36539588200526 6.715537903815175)"><path d="M-192.06 19.61 C-200.83 16.73, -206.77 14.81, -216.05 12.59 M-192.06 19.61 C-200.87 16.27, -208.52 14.58, -216.05 12.59" stroke="#1e1e1e" stroke-width="2" fill="none"></path></g></g><mask></mask><g stroke-linecap="round"><g transform="translate(2213.548756156631 666.5231814823476) rotate(0 -115.03657191294042 -0.6929801812502774)"><path d="M-0.99 0.99 C-39.49 0.6, -192.72 -1.46, -230.86 -1.97 M0.69 0.47 C-37.43 0.19, -190.04 -0.48, -228.56 -0.74" stroke="#1e1e1e" stroke-width="2" fill="none"></path></g><g transform="translate(2213.548756156631 666.5231814823476) rotate(0 -115.03657191294042 -0.6929801812502774)"><path d="M-205.02 -9.17 C-210.63 -8.06, -220.54 -3.68, -228.56 -0.74 M-205.02 -9.17 C-210.38 -6.84, -217.01 -4.31, -228.56 -0.74" stroke="#1e1e1e" stroke-width="2" fill="none"></path></g><g transform="translate(2213.548756156631 666.5231814823476) rotate(0 -115.03657191294042 -0.6929801812502774)"><path d="M-205.11 7.94 C-210.74 3.75, -220.63 2.84, -228.56 -0.74 M-205.11 7.94 C-210.37 6.11, -216.99 4.5, -228.56 -0.74" stroke="#1e1e1e" stroke-width="2" fill="none"></path></g></g><mask></mask><g stroke-linecap="round"><g transform="translate(2300.077983553294 739.0481674053792) rotate(0 -153.17020096652118 -7.807920007171447)"><path d="M-0.12 -0.87 C-50.9 -3.45, -254.28 -12.55, -305.23 -14.95 M-1.64 1.28 C-52.43 -1.68, -254.82 -14.21, -305.6 -16.72" stroke="#1e1e1e" stroke-width="2" fill="none"></path></g><g transform="translate(2300.077983553294 739.0481674053792) rotate(0 -153.17020096652118 -7.807920007171447)"><path d="M-281.66 -23.93 C-289.15 -20.28, -292.64 -19.44, -305.6 -16.72 M-281.66 -23.93 C-289.82 -22.28, -297.2 -19.68, -305.6 -16.72" stroke="#1e1e1e" stroke-width="2" fill="none"></path></g><g transform="translate(2300.077983553294 739.0481674053792) rotate(0 -153.17020096652118 -7.807920007171447)"><path d="M-282.62 -6.86 C-289.94 -7.53, -293.19 -11.02, -305.6 -16.72 M-282.62 -6.86 C-290.55 -10.81, -297.62 -13.8, -305.6 -16.72" stroke="#1e1e1e" stroke-width="2" fill="none"></path></g></g><mask></mask><g transform="translate(2025.412826973603 753.0031377814905) rotate(0.674354429769855 110.27989959716797 12.5)"><text x="0" y="0" font-family="Virgil, Segoe UI Emoji" font-size="20px" fill="#1e1e1e" text-anchor="start" style="white-space: pre;" direction="ltr" dominant-baseline="text-before-edge">Websocket Connections</text></g><g stroke-linecap="round"><g transform="translate(1620.0258652326088 1128.0259146341461) rotate(0 -76.27667682926858 43.76905487804879)"><path d="M-0.33 -1.07 C-25.54 13.47, -126.24 73.49, -151.58 88.44 M1.7 0.98 C-23.56 15.71, -126.23 72.48, -152.01 86.8" stroke="#1e1e1e" stroke-width="2" fill="none"></path></g><g transform="translate(1620.0258652326088 1128.0259146341461) rotate(0 -76.27667682926858 43.76905487804879)"><path d="M-135.61 67.93 C-141.72 74.7, -142.94 78.63, -152.01 86.8 M-135.61 67.93 C-142.04 75.44, -148.53 83.68, -152.01 86.8" stroke="#1e1e1e" stroke-width="2" fill="none"></path></g><g transform="translate(1620.0258652326088 1128.0259146341461) rotate(0 -76.27667682926858 43.76905487804879)"><path d="M-127.32 82.88 C-135.86 85.52, -139.35 85.34, -152.01 86.8 M-127.32 82.88 C-137.02 84.56, -146.77 86.92, -152.01 86.8" stroke="#1e1e1e" stroke-width="2" fill="none"></path></g></g><mask></mask><g stroke-linecap="round" transform="translate(1057.0243902439006 960.2642982158989) rotate(0 181.11008779358622 80.04248532068652)"><path d="M32 0 C128.19 -0.73, 224.37 -1.03, 330.22 0 M32 0 C130.55 -0.66, 230.28 -0.98, 330.22 0 M330.22 0 C352.89 -0.7, 360.82 10.82, 362.22 32 M330.22 0 C353.05 0.85, 361.42 10.87, 362.22 32 M362.22 32 C361.04 65.59, 362.62 97.34, 362.22 128.08 M362.22 32 C363.33 59.62, 363.13 88.18, 362.22 128.08 M362.22 128.08 C364.14 150.24, 352.68 160.16, 330.22 160.08 M362.22 128.08 C364.1 148.94, 351.56 157.87, 330.22 160.08 M330.22 160.08 C241.02 162.4, 149.7 161.57, 32 160.08 M330.22 160.08 C236.72 158.21, 142.48 158.83, 32 160.08 M32 160.08 C11.95 160.25, 0.69 150.9, 0 128.08 M32 160.08 C12.85 159.74, -0.98 150.81, 0 128.08 M0 128.08 C-0.41 96.66, 0.18 61.7, 0 32 M0 128.08 C0.9 105.36, 0.58 80.58, 0 32 M0 32 C1.06 9.38, 12.39 0.56, 32 0 M0 32 C-0.4 9.22, 10.32 1.64, 32 0" stroke="#1e1e1e" stroke-width="2" fill="none"></path></g><g transform="translate(1068.794634287487 977.8067835365855) rotate(0 169.33984375 62.5)"><text x="169.33984375" y="0" font-family="Virgil, Segoe UI Emoji" font-size="20px" fill="#1e1e1e" text-anchor="middle" style="white-space: pre;" direction="ltr" dominant-baseline="text-before-edge">GetSymbol</text><text x="169.33984375" y="25" font-family="Virgil, Segoe UI Emoji" font-size="20px" fill="#1e1e1e" text-anchor="middle" style="white-space: pre;" direction="ltr" dominant-baseline="text-before-edge">GetLiveSymbols</text><text x="169.33984375" y="50" font-family="Virgil, Segoe UI Emoji" font-size="20px" fill="#1e1e1e" text-anchor="middle" style="white-space: pre;" direction="ltr" dominant-baseline="text-before-edge"></text><text x="169.33984375" y="75" font-family="Virgil, Segoe UI Emoji" font-size="20px" fill="#1e1e1e" text-anchor="middle" style="white-space: pre;" direction="ltr" dominant-baseline="text-before-edge">1. Ensure exchange subscription is </text><text x="169.33984375" y="100" font-family="Virgil, Segoe UI Emoji" font-size="20px" fill="#1e1e1e" text-anchor="middle" style="white-space: pre;" direction="ltr" dominant-baseline="text-before-edge">active</text></g><g stroke-linecap="round" transform="translate(1519.651295731705 514.7987236085119) rotate(0 228.17563657407413 104.12578710608727)"><path d="M32 0 C122.7 1.76, 213.76 -0.9, 424.35 0 C449.08 1.57, 453.19 8.87, 456.35 32 C459.53 60.9, 460.71 89.17, 456.35 176.25 C456.36 196.56, 445.3 210.52, 424.35 208.25 C307.32 210.42, 189.55 211.86, 32 208.25 C14.21 206.67, -1.41 199.75, 0 176.25 C1.64 121.24, -4.56 67.47, 0 32 C1.43 11.78, 9.29 -1.86, 32 0" stroke="none" stroke-width="0" fill="#ffec99"></path><path d="M32 0 C176.49 -2.52, 318.49 -2.37, 424.35 0 M32 0 C182.21 0.21, 333.47 0.35, 424.35 0 M424.35 0 C443.98 0.9, 457.05 9.75, 456.35 32 M424.35 0 C444.02 1.14, 456.46 12.32, 456.35 32 M456.35 32 C457.18 86.76, 454.77 143.17, 456.35 176.25 M456.35 32 C457 86.73, 455.47 142.26, 456.35 176.25 M456.35 176.25 C456.96 199.42, 444.52 206.94, 424.35 208.25 M456.35 176.25 C457.39 198.19, 444.02 208.05, 424.35 208.25 M424.35 208.25 C308.37 207.49, 189.98 207.66, 32 208.25 M424.35 208.25 C339.95 207.13, 254.51 207.83, 32 208.25 M32 208.25 C11.73 207.92, -1.43 198.08, 0 176.25 M32 208.25 C9.58 206.56, 2.09 198.58, 0 176.25 M0 176.25 C0.46 128.69, -1.01 77.3, 0 32 M0 176.25 C-0.28 146.85, 0.32 115.83, 0 32 M0 32 C-0.87 9.46, 9.7 -0.86, 32 0 M0 32 C-1.73 10.9, 8.87 -1.6, 32 0" stroke="#1e1e1e" stroke-width="2" fill="none"></path></g><g transform="translate(1526.1371282286304 543.9245107145991) rotate(0 221.68980407714844 75)"><text x="221.68980407714844" y="0" font-family="Virgil, Segoe UI Emoji" font-size="20px" fill="#1e1e1e" text-anchor="middle" style="white-space: pre;" direction="ltr" dominant-baseline="text-before-edge">ConnectionManager</text><text x="221.68980407714844" y="25" font-family="Virgil, Segoe UI Emoji" font-size="20px" fill="#1e1e1e" text-anchor="middle" style="white-space: pre;" direction="ltr" dominant-baseline="text-before-edge"></text><text x="221.68980407714844" y="50" font-family="Virgil, Segoe UI Emoji" font-size="20px" fill="#1e1e1e" text-anchor="middle" style="white-space: pre;" direction="ltr" dominant-baseline="text-before-edge">* Manages the lifecycles of subscriptions WS</text><text x="221.68980407714844" y="75" font-family="Virgil, Segoe UI Emoji" font-size="20px" fill="#1e1e1e" text-anchor="middle" style="white-space: pre;" direction="ltr" dominant-baseline="text-before-edge">for various with Exchanges by ensuring </text><text x="221.68980407714844" y="100" font-family="Virgil, Segoe UI Emoji" font-size="20px" fill="#1e1e1e" text-anchor="middle" style="white-space: pre;" direction="ltr" dominant-baseline="text-before-edge">symbols updates are happening (and garbage</text><text x="221.68980407714844" y="125" font-family="Virgil, Segoe UI Emoji" font-size="20px" fill="#1e1e1e" text-anchor="middle" style="white-space: pre;" direction="ltr" dominant-baseline="text-before-edge">collecetd)</text></g><g mask="url(#mask-852AP6SEUkk54kRr6SUzz)" stroke-linecap="round"><g transform="translate(1302.7636069734658 945.2515243902437) rotate(0 141.27565033422525 -107.75533536585363)"><path d="M-0.72 1.02 C46.21 -34.89, 234.36 -178.3, 281.62 -214.37 M1.11 0.5 C48.4 -35.19, 236.99 -180.14, 283.84 -215.89" stroke="#1e1e1e" stroke-width="2" fill="none"></path></g><g transform="translate(1302.7636069734658 945.2515243902437) rotate(0 141.27565033422525 -107.75533536585363)"><path d="M270.39 -194.81 C275.98 -202.69, 280.28 -207.1, 283.84 -215.89 M270.39 -194.81 C274.44 -200.73, 278.95 -208.23, 283.84 -215.89" stroke="#1e1e1e" stroke-width="2" fill="none"></path></g><g transform="translate(1302.7636069734658 945.2515243902437) rotate(0 141.27565033422525 -107.75533536585363)"><path d="M259.99 -208.39 C268.86 -212.08, 276.31 -212.37, 283.84 -215.89 M259.99 -208.39 C267.32 -209.99, 275.08 -213.26, 283.84 -215.89" stroke="#1e1e1e" stroke-width="2" fill="none"></path></g></g><mask id="mask-852AP6SEUkk54kRr6SUzz"><rect x="0" y="0" fill="#fff" width="1685.3149076419163" height="1260.762195121951"></rect><rect x="1372.0493204790773" y="812.4961890243901" fill="#000" width="143.97987365722656" height="50" opacity="1"></rect></mask><g transform="translate(1372.0493204790778 812.4961890243903) rotate(0 72.27477160953913 25.319710073387228)"><text x="71.98993682861328" y="0" font-family="Virgil, Segoe UI Emoji" font-size="20px" fill="#1e1e1e" text-anchor="middle" style="white-space: pre;" direction="ltr" dominant-baseline="text-before-edge">Ensure symbol </text><text x="71.98993682861328" y="25" font-family="Virgil, Segoe UI Emoji" font-size="20px" fill="#1e1e1e" text-anchor="middle" style="white-space: pre;" direction="ltr" dominant-baseline="text-before-edge">subscriptions</text></g><g mask="url(#mask-G6--mCW4dtg4xOJTVgQkX)" stroke-linecap="round"><g transform="translate(1984.8505603545595 547.6408567273352) rotate(0 112.86680640243958 -8.150758240138998)"><path d="M-0.41 -0.4 C37.34 -3.23, 189.04 -13.24, 226.58 -15.85 M1.58 -1.66 C39.23 -4.34, 188.46 -15.57, 226.08 -17.73" stroke="#1e1e1e" stroke-width="2" fill="none"></path></g><g transform="translate(1984.8505603545595 547.6408567273352) rotate(0 112.86680640243958 -8.150758240138998)"><path d="M203.22 -7.62 C209.55 -9.26, 218.06 -15.24, 226.08 -17.73 M203.22 -7.62 C210.3 -10.46, 218.09 -13.05, 226.08 -17.73" stroke="#1e1e1e" stroke-width="2" fill="none"></path></g><g transform="translate(1984.8505603545595 547.6408567273352) rotate(0 112.86680640243958 -8.150758240138998)"><path d="M202.07 -24.68 C208.91 -21.03, 217.78 -21.72, 226.08 -17.73 M202.07 -24.68 C209.57 -22.06, 217.72 -19.2, 226.08 -17.73" stroke="#1e1e1e" stroke-width="2" fill="none"></path></g></g><mask id="mask-G6--mCW4dtg4xOJTVgQkX"><rect x="0" y="0" fill="#fff" width="2310.5841731594387" height="663.9423732076132"></rect><rect x="2001.8174491544596" y="514.4900984871961" fill="#000" width="191.79983520507812" height="50" opacity="1"></rect></mask><g transform="translate(2001.81744915446 514.4900984871961) rotate(0 96.12129330225298 24.084215152925026)"><text x="95.89991760253906" y="0" font-family="Virgil, Segoe UI Emoji" font-size="20px" fill="#1e1e1e" text-anchor="middle" style="white-space: pre;" direction="ltr" dominant-baseline="text-before-edge">Start/Stop Symbol </text><text x="95.89991760253906" y="25" font-family="Virgil, Segoe UI Emoji" font-size="20px" fill="#1e1e1e" text-anchor="middle" style="white-space: pre;" direction="ltr" dominant-baseline="text-before-edge">updates</text></g><g stroke-linecap="round" transform="translate(2105.78223319387 164.72588384624964) rotate(0 156.05956191678706 91.96809481228684)"><path d="M32 0 C123.93 4.57, 211.97 1.53, 280.12 0 C303.79 -2.6, 313.17 11.56, 312.12 32 C314.78 75.87, 317.14 129.95, 312.12 151.94 C310.5 174.36, 299.79 182.08, 280.12 183.94 C207.37 185.49, 130.04 185.97, 32 183.94 C12.45 181.05, 0.81 172.74, 0 151.94 C-1.07 115.69, 1.13 79.31, 0 32 C-3.07 7.26, 11.97 2.91, 32 0" stroke="none" stroke-width="0" fill="#ffec99"></path><path d="M32 0 C80.79 1.62, 131.52 2.49, 280.12 0 M32 0 C124.68 2.54, 215.93 2.67, 280.12 0 M280.12 0 C299.79 0.65, 312.22 12.64, 312.12 32 M280.12 0 C300.92 -0.13, 313.93 12.64, 312.12 32 M312.12 32 C313.77 63.34, 310.87 99.59, 312.12 151.94 M312.12 32 C312.5 74.39, 312.14 118.17, 312.12 151.94 M312.12 151.94 C310.52 173.73, 302.4 184.7, 280.12 183.94 M312.12 151.94 C311.3 174.41, 301.89 185.97, 280.12 183.94 M280.12 183.94 C225.67 186.47, 173.08 184.55, 32 183.94 M280.12 183.94 C203.91 181.62, 127.56 182.27, 32 183.94 M32 183.94 C10.56 181.99, -1.36 172.12, 0 151.94 M32 183.94 C8.82 183.47, 1.26 173.6, 0 151.94 M0 151.94 C-0.22 110.58, -0.34 70.7, 0 32 M0 151.94 C-0.84 115, -1.23 77.41, 0 32 M0 32 C1.4 10.84, 10.05 1.96, 32 0 M0 32 C-1.14 11.93, 10.79 1.17, 32 0" stroke="#1e1e1e" stroke-width="2" fill="none"></path></g><g transform="translate(2181.4918576716923 206.69397865853648) rotate(0 80.34993743896484 50)"><text x="80.34993743896484" y="0" font-family="Virgil, Segoe UI Emoji" font-size="20px" fill="#1e1e1e" text-anchor="middle" style="white-space: pre;" direction="ltr" dominant-baseline="text-before-edge">ConnectionsDB</text><text x="80.34993743896484" y="25" font-family="Virgil, Segoe UI Emoji" font-size="20px" fill="#1e1e1e" text-anchor="middle" style="white-space: pre;" direction="ltr" dominant-baseline="text-before-edge"></text><text x="80.34993743896484" y="50" font-family="Virgil, Segoe UI Emoji" font-size="20px" fill="#1e1e1e" text-anchor="middle" style="white-space: pre;" direction="ltr" dominant-baseline="text-before-edge">connId -&gt; Symbol</text><text x="80.34993743896484" y="75" font-family="Virgil, Segoe UI Emoji" font-size="20px" fill="#1e1e1e" text-anchor="middle" style="white-space: pre;" direction="ltr" dominant-baseline="text-before-edge">Symbol -&gt; connId</text></g><g stroke-linecap="round"><g transform="translate(1814.1845815229158 504.27813728285696) rotate(0 141.48771502557793 -130.05258916464277)"><path d="M-0.1 -0.87 C47.18 -44.41, 235.43 -218.17, 282.58 -261.23 M-1.61 1.29 C45.58 -42.15, 234.17 -216.55, 281.42 -260.28" stroke="#1e1e1e" stroke-width="2" fill="none"></path></g><g transform="translate(1814.1845815229158 504.27813728285696) rotate(0 141.48771502557793 -130.05258916464277)"><path d="M269.98 -238.06 C270.9 -243.31, 272.83 -247.6, 281.42 -260.28 M269.98 -238.06 C275.11 -246.17, 278.69 -254.15, 281.42 -260.28" stroke="#1e1e1e" stroke-width="2" fill="none"></path></g><g transform="translate(1814.1845815229158 504.27813728285696) rotate(0 141.48771502557793 -130.05258916464277)"><path d="M258.37 -250.61 C261.69 -253.26, 266.03 -254.95, 281.42 -260.28 M258.37 -250.61 C267.91 -254.03, 275.82 -257.33, 281.42 -260.28" stroke="#1e1e1e" stroke-width="2" fill="none"></path></g></g><mask></mask><g stroke-linecap="round"><g transform="translate(1238.1410365416573 1124.338795731707) rotate(0 61.99691686331835 46.427210365853625)"><path d="M0.51 0.84 C21.34 16.16, 104.16 76.5, 124.62 92.02 M-0.68 0.23 C20.08 15.67, 103.53 77.79, 124 93.12" stroke="#1e1e1e" stroke-width="2" fill="none"></path></g><g transform="translate(1238.1410365416573 1124.338795731707) rotate(0 61.99691686331835 46.427210365853625)"><path d="M100.06 85.92 C107.91 88.81, 111.58 88.54, 124 93.12 M100.06 85.92 C110.02 88.75, 119.41 92.21, 124 93.12" stroke="#1e1e1e" stroke-width="2" fill="none"></path></g><g transform="translate(1238.1410365416573 1124.338795731707) rotate(0 61.99691686331835 46.427210365853625)"><path d="M110.29 72.22 C115.4 78.84, 116.31 82.27, 124 93.12 M110.29 72.22 C116.14 80.43, 121.48 89.31, 124 93.12" stroke="#1e1e1e" stroke-width="2" fill="none"></path></g></g><mask></mask><g stroke-linecap="round" transform="translate(598.7862042682932 958.1396793134595) rotate(0 181.11008779358622 142.5)"><path d="M32 0 C119.79 2.19, 206.15 0.6, 330.22 0 M32 0 C108.92 1.59, 185.34 1.08, 330.22 0 M330.22 0 C349.67 -1.87, 362.97 12.07, 362.22 32 M330.22 0 C353.37 -0.74, 362.57 9.26, 362.22 32 M362.22 32 C360.04 99.4, 361.18 166.39, 362.22 253 M362.22 32 C362.78 81.62, 361.97 132.37, 362.22 253 M362.22 253 C363.72 276.05, 352.34 284.92, 330.22 285 M362.22 253 C363.84 272.66, 352.45 286.11, 330.22 285 M330.22 285 C232.9 285.21, 134.55 285.09, 32 285 M330.22 285 C221.27 282.48, 113.15 283.12, 32 285 M32 285 C11.61 285.94, 0.23 272.47, 0 253 M32 285 C12.55 285.7, -0.87 274.83, 0 253 M0 253 C-0.63 207.18, 0.2 161.64, 0 32 M0 253 C-0.58 165.89, -0.38 78.87, 0 32 M0 32 C1.1 9.3, 12.2 -1.31, 32 0 M0 32 C0.98 9.15, 9.19 1.66, 32 0" stroke="#1e1e1e" stroke-width="2" fill="none"></path></g><g transform="translate(607.966451973989 963.1396793134595) rotate(0 171.92984008789062 137.5)"><text x="171.92984008789062" y="0" font-family="Virgil, Segoe UI Emoji" font-size="20px" fill="#1e1e1e" text-anchor="middle" style="white-space: pre;" direction="ltr" dominant-baseline="text-before-edge">CreateTrade</text><text x="171.92984008789062" y="25" font-family="Virgil, Segoe UI Emoji" font-size="20px" fill="#1e1e1e" text-anchor="middle" style="white-space: pre;" direction="ltr" dominant-baseline="text-before-edge"></text><text x="171.92984008789062" y="50" font-family="Virgil, Segoe UI Emoji" font-size="20px" fill="#1e1e1e" text-anchor="middle" style="white-space: pre;" direction="ltr" dominant-baseline="text-before-edge">* Create a local entry first </text><text x="171.92984008789062" y="75" font-family="Virgil, Segoe UI Emoji" font-size="20px" fill="#1e1e1e" text-anchor="middle" style="white-space: pre;" direction="ltr" dominant-baseline="text-before-edge">(status = "initiated")</text><text x="171.92984008789062" y="100" font-family="Virgil, Segoe UI Emoji" font-size="20px" fill="#1e1e1e" text-anchor="middle" style="white-space: pre;" direction="ltr" dominant-baseline="text-before-edge">* Submit to exchange</text><text x="171.92984008789062" y="125" font-family="Virgil, Segoe UI Emoji" font-size="20px" fill="#1e1e1e" text-anchor="middle" style="white-space: pre;" direction="ltr" dominant-baseline="text-before-edge">* return local trade (with ID)</text><text x="171.92984008789062" y="150" font-family="Virgil, Segoe UI Emoji" font-size="20px" fill="#1e1e1e" text-anchor="middle" style="white-space: pre;" direction="ltr" dominant-baseline="text-before-edge">* either poll exchange for trade </text><text x="171.92984008789062" y="175" font-family="Virgil, Segoe UI Emoji" font-size="20px" fill="#1e1e1e" text-anchor="middle" style="white-space: pre;" direction="ltr" dominant-baseline="text-before-edge">status or via sub update trades </text><text x="171.92984008789062" y="200" font-family="Virgil, Segoe UI Emoji" font-size="20px" fill="#1e1e1e" text-anchor="middle" style="white-space: pre;" direction="ltr" dominant-baseline="text-before-edge">for user</text><text x="171.92984008789062" y="225" font-family="Virgil, Segoe UI Emoji" font-size="20px" fill="#1e1e1e" text-anchor="middle" style="white-space: pre;" direction="ltr" dominant-baseline="text-before-edge"></text><text x="171.92984008789062" y="250" font-family="Virgil, Segoe UI Emoji" font-size="20px" fill="#1e1e1e" text-anchor="middle" style="white-space: pre;" direction="ltr" dominant-baseline="text-before-edge"></text></g><g mask="url(#mask-zkb0fZj8CuTSbI_MswcRh)" stroke-linecap="round"><g transform="translate(848.9035329155377 1267.8506097560971) rotate(0 847.6288172763823 -173.38665675463517)"><path d="M-0.21 0.9 C42.14 29.33, 22.38 155.58, 253.76 170.91 C485.14 186.25, 1147.5 209.83, 1388.05 92.91 C1628.59 -24, 1645.58 -426.82, 1697.03 -530.58 M-1.77 0.32 C40.39 28.39, 21.03 154.03, 252.52 169.17 C484.01 184.3, 1146.47 207.61, 1387.18 91.14 C1627.9 -25.33, 1644.95 -426.29, 1696.81 -529.64" stroke="#1e1e1e" stroke-width="2" fill="none"></path></g><g transform="translate(848.9035329155377 1267.8506097560971) rotate(0 847.6288172763823 -173.38665675463517)"><path d="M1698.69 -504.71 C1699.61 -512.48, 1698.79 -518.7, 1696.81 -529.64 M1698.69 -504.71 C1697.16 -513.93, 1696.74 -525.07, 1696.81 -529.64" stroke="#1e1e1e" stroke-width="2" fill="none"></path></g><g transform="translate(848.9035329155377 1267.8506097560971) rotate(0 847.6288172763823 -173.38665675463517)"><path d="M1682.23 -509.33 C1687.67 -515.8, 1691.37 -520.76, 1696.81 -529.64 M1682.23 -509.33 C1687.08 -516.71, 1693.08 -526.05, 1696.81 -529.64" stroke="#1e1e1e" stroke-width="2" fill="none"></path></g></g><mask id="mask-zkb0fZj8CuTSbI_MswcRh"><rect x="0" y="0" fill="#fff" width="2646.8265512082203" height="2068.326981707317"></rect><rect x="1525.6396979713259" y="1436.1449664121637" fill="#000" width="325.17974853515625" height="25" opacity="1"></rect></mask><g transform="translate(1525.6396979713263 1436.1449664121637) rotate(0 170.89265222059407 -341.6810134107018)"><text x="162.58987426757812" y="0" font-family="Virgil, Segoe UI Emoji" font-size="20px" fill="#1e1e1e" text-anchor="middle" style="white-space: pre;" direction="ltr" dominant-baseline="text-before-edge">Create a trade on the exchange</text></g><g stroke-linecap="round" transform="translate(10 931.0670731707321) rotate(0 181.11008779358622 99.95998475609747)"><path d="M32 0 C109.5 0.15, 186.41 1.63, 330.22 0 M32 0 C138.34 -0.87, 243.48 -1.15, 330.22 0 M330.22 0 C351.88 0.11, 360.84 10.13, 362.22 32 M330.22 0 C349.81 -1.16, 360.55 9.27, 362.22 32 M362.22 32 C364.7 78.17, 362.43 127.39, 362.22 167.92 M362.22 32 C364.44 58.93, 363.46 88.02, 362.22 167.92 M362.22 167.92 C363.98 189.62, 352.67 201.48, 330.22 199.92 M362.22 167.92 C360.09 191.18, 351.61 198.1, 330.22 199.92 M330.22 199.92 C246 200.35, 161.24 198.97, 32 199.92 M330.22 199.92 C247.82 200.87, 165.66 200.72, 32 199.92 M32 199.92 C9.37 200.51, -0.1 189.25, 0 167.92 M32 199.92 C9.87 201.51, -1.42 188.06, 0 167.92 M0 167.92 C-1.72 114.28, -1.31 60.9, 0 32 M0 167.92 C-1.32 138.57, -0.97 109.2, 0 32 M0 32 C-0.02 11.94, 10.69 1.96, 32 0 M0 32 C-0.06 8.67, 10.98 2.16, 32 0" stroke="#1e1e1e" stroke-width="2" fill="none"></path></g><g transform="translate(39.21021596741434 993.5270579268297) rotate(0 151.89987182617188 37.5)"><text x="151.89987182617188" y="0" font-family="Virgil, Segoe UI Emoji" font-size="20px" fill="#1e1e1e" text-anchor="middle" style="white-space: pre;" direction="ltr" dominant-baseline="text-before-edge">ListTrade</text><text x="151.89987182617188" y="25" font-family="Virgil, Segoe UI Emoji" font-size="20px" fill="#1e1e1e" text-anchor="middle" style="white-space: pre;" direction="ltr" dominant-baseline="text-before-edge"></text><text x="151.89987182617188" y="50" font-family="Virgil, Segoe UI Emoji" font-size="20px" fill="#1e1e1e" text-anchor="middle" style="white-space: pre;" direction="ltr" dominant-baseline="text-before-edge">* FOr a user get their trades</text></g><g stroke-linecap="round"><g transform="translate(700.7994932813908 1247.3189786585363) rotate(0 -62.90491615853648 56.43102134146352)"><path d="M0.23 1.05 C-20.77 19.66, -105.08 93.19, -126.13 112 M-1.1 0.55 C-22.28 19.26, -106.27 94.49, -127.24 113.08" stroke="#1e1e1e" stroke-width="2" fill="none"></path></g><g transform="translate(700.7994932813908 1247.3189786585363) rotate(0 -62.90491615853648 56.43102134146352)"><path d="M-115.4 91.07 C-117.03 96.96, -123.66 103.49, -127.24 113.08 M-115.4 91.07 C-119.79 99.86, -123.51 108.78, -127.24 113.08" stroke="#1e1e1e" stroke-width="2" fill="none"></path></g><g transform="translate(700.7994932813908 1247.3189786585363) rotate(0 -62.90491615853648 56.43102134146352)"><path d="M-104.02 103.83 C-108.99 106.03, -118.93 108.86, -127.24 113.08 M-104.02 103.83 C-112.91 107.81, -121.01 111.81, -127.24 113.08" stroke="#1e1e1e" stroke-width="2" fill="none"></path></g></g><mask></mask><g stroke-linecap="round"><g transform="translate(240.31931035456182 1146.4900914634143) rotate(0 81.57393292682923 25.638338414634177)"><path d="M-0.74 0.72 C26.51 9.21, 136.6 43.28, 163.92 51.76 M1.07 0.05 C28.19 8.11, 136.49 41.05, 163.38 49.89" stroke="#1e1e1e" stroke-width="2" fill="none"></path></g><g transform="translate(240.31931035456182 1146.4900914634143) rotate(0 81.57393292682923 25.638338414634177)"><path d="M138.4 51 C147.97 52.07, 155.95 50.41, 163.38 49.89 M138.4 51 C145.66 49.71, 154.61 49.13, 163.38 49.89" stroke="#1e1e1e" stroke-width="2" fill="none"></path></g><g transform="translate(240.31931035456182 1146.4900914634143) rotate(0 81.57393292682923 25.638338414634177)"><path d="M143.53 34.69 C151.49 41.19, 157.75 45.01, 163.38 49.89 M143.53 34.69 C149.19 38.75, 156.47 43.48, 163.38 49.89" stroke="#1e1e1e" stroke-width="2" fill="none"></path></g></g><mask></mask><g stroke-linecap="round" transform="translate(577.1398628048778 277.27284094269294) rotate(0 228.17563657407413 104.12578710608727)"><path d="M32 0 C129.06 -1.56, 225.22 -2.54, 424.35 0 C444.11 -0.93, 454.67 13.24, 456.35 32 C456.74 59.27, 457.05 94.61, 456.35 176.25 C457.46 194.29, 448.65 209.18, 424.35 208.25 C340.76 210.49, 255.12 212.36, 32 208.25 C12.9 209.01, -0.72 196.52, 0 176.25 C-0.76 135.41, 3.37 90.79, 0 32 C3.08 11.61, 13.32 1.66, 32 0" stroke="none" stroke-width="0" fill="#ffc9c9"></path><path d="M32 0 C177.63 -1.43, 321.64 -0.83, 424.35 0 M32 0 C139.07 2.28, 245.78 2.67, 424.35 0 M424.35 0 C446.69 0.14, 454.64 9.24, 456.35 32 M424.35 0 C446.33 -1.77, 456.96 12.42, 456.35 32 M456.35 32 C455.22 88.07, 455.47 145.15, 456.35 176.25 M456.35 32 C456.02 78.56, 456.85 126.27, 456.35 176.25 M456.35 176.25 C458.34 198.4, 443.9 208.63, 424.35 208.25 M456.35 176.25 C455.94 198.37, 447.88 210.45, 424.35 208.25 M424.35 208.25 C338.07 207.76, 250.4 206.78, 32 208.25 M424.35 208.25 C343.23 209.53, 261.61 209.11, 32 208.25 M32 208.25 C10.59 206.86, 1.7 195.88, 0 176.25 M32 208.25 C12.55 207.22, -0.94 199.52, 0 176.25 M0 176.25 C-0.19 129.9, 0.66 85.02, 0 32 M0 176.25 C0.5 145.23, 0.75 113.5, 0 32 M0 32 C1.95 11.92, 12.08 -0.81, 32 0 M0 32 C1.13 11.07, 9.45 2.26, 32 0" stroke="#1e1e1e" stroke-width="2" fill="none"></path></g><g transform="translate(711.8655329482876 363.8986280487802) rotate(0 93.44996643066406 17.5)"><text x="93.44996643066406" y="0" font-family="Virgil, Segoe UI Emoji" font-size="28px" fill="#1e1e1e" text-anchor="middle" style="white-space: pre;" direction="ltr" dominant-baseline="text-before-edge">API Gateway</text></g><g stroke-linecap="round"><g transform="translate(731.8398896228546 495.8803353658536) rotate(0 -259.375 216.08708079268285)"><path d="M-0.93 -0.59 C-87 71.6, -431.4 361.11, -517.59 433.29 M0.78 1.72 C-85.24 73.58, -431.38 359.71, -517.93 431.75" stroke="#1e1e1e" stroke-width="2" fill="none"></path></g><g transform="translate(731.8398896228546 495.8803353658536) rotate(0 -259.375 216.08708079268285)"><path d="M-505.3 410.17 C-508.8 416.37, -508.52 419.94, -517.93 431.75 M-505.3 410.17 C-509.58 416.96, -513.18 423.4, -517.93 431.75" stroke="#1e1e1e" stroke-width="2" fill="none"></path></g><g transform="translate(731.8398896228546 495.8803353658536) rotate(0 -259.375 216.08708079268285)"><path d="M-494.38 423.33 C-500.11 426.79, -502.04 427.7, -517.93 431.75 M-494.38 423.33 C-502.11 425.84, -509.26 428, -517.93 431.75" stroke="#1e1e1e" stroke-width="2" fill="none"></path></g></g><mask></mask><g stroke-linecap="round"><g transform="translate(807.5068103545618 495.3753810975609) rotate(0 -6.116615853658686 229.99237804878044)"><path d="M-1.08 1.17 C-3.25 77.99, -11.52 384.29, -13.26 460.83 M0.55 0.73 C-1.23 77.24, -9.02 382.9, -11.08 459.15" stroke="#1e1e1e" stroke-width="2" fill="none"></path></g><g transform="translate(807.5068103545618 495.3753810975609) rotate(0 -6.116615853658686 229.99237804878044)"><path d="M-19.02 435.44 C-14.88 440.42, -13.21 450, -11.08 459.15 M-19.02 435.44 C-16.36 442.4, -13.29 450.44, -11.08 459.15" stroke="#1e1e1e" stroke-width="2" fill="none"></path></g><g transform="translate(807.5068103545618 495.3753810975609) rotate(0 -6.116615853658686 229.99237804878044)"><path d="M-1.92 435.89 C-2.56 440.59, -5.66 450.05, -11.08 459.15 M-1.92 435.89 C-4.95 442.7, -7.55 450.6, -11.08 459.15" stroke="#1e1e1e" stroke-width="2" fill="none"></path></g></g><mask></mask><g stroke-linecap="round"><g transform="translate(835.1268560862691 494.1463414634145) rotate(0 202.1341463414633 229.53029725609747)"><path d="M-1.11 0.86 C66.23 77.35, 336.56 382.21, 404.25 458.62 M0.51 0.26 C67.67 76.95, 335.93 383.17, 403.29 459.92" stroke="#1e1e1e" stroke-width="2" fill="none"></path></g><g transform="translate(835.1268560862691 494.1463414634145) rotate(0 202.1341463414633 229.53029725609747)"><path d="M381.38 447.89 C389.73 451.88, 394.52 457.02, 403.29 459.92 M381.38 447.89 C387.84 450.83, 396.43 456.21, 403.29 459.92" stroke="#1e1e1e" stroke-width="2" fill="none"></path></g><g transform="translate(835.1268560862691 494.1463414634145) rotate(0 202.1341463414633 229.53029725609747)"><path d="M394.23 436.62 C398.48 444.07, 399.18 452.78, 403.29 459.92 M394.23 436.62 C396.57 443.25, 401.02 452.26, 403.29 459.92" stroke="#1e1e1e" stroke-width="2" fill="none"></path></g></g><mask></mask><g stroke-linecap="round" transform="translate(2525.6916920731705 1203.2469512195116) rotate(0 181.11008779358644 98.77858231707319)"><path d="M32 0 C97.38 3.41, 156.42 0.62, 330.22 0 C349.34 1.7, 359.5 7.14, 362.22 32 C365.48 73.25, 364.02 123.37, 362.22 165.56 C359.69 190.15, 349.03 199.26, 330.22 197.56 C272.85 195.71, 209.52 196.41, 32 197.56 C13.97 198.06, 1.09 186.52, 0 165.56 C0.63 124.14, -1.7 82.65, 0 32 C-0.52 11.09, 12.61 1.36, 32 0" stroke="none" stroke-width="0" fill="#ffec99"></path><path d="M32 0 C121.75 -1.75, 208.25 -0.55, 330.22 0 M32 0 C107.37 -1.29, 181.89 -0.75, 330.22 0 M330.22 0 C351.22 -1.88, 364.17 12.58, 362.22 32 M330.22 0 C353.69 1.75, 362.66 8.76, 362.22 32 M362.22 32 C362.64 78.06, 361.42 121.95, 362.22 165.56 M362.22 32 C360.98 61.26, 361.42 91.11, 362.22 165.56 M362.22 165.56 C362.06 187.29, 350.53 196.54, 330.22 197.56 M362.22 165.56 C360.94 185.83, 353.68 197.69, 330.22 197.56 M330.22 197.56 C256.34 197.39, 179.89 198.06, 32 197.56 M330.22 197.56 C265.63 196.6, 201.89 196.64, 32 197.56 M32 197.56 C9.49 197.09, 0.25 188.43, 0 165.56 M32 197.56 C11.17 197.2, -0.13 188.65, 0 165.56 M0 165.56 C-0.02 121.37, 0.06 74.5, 0 32 M0 165.56 C-1.6 117.82, -1.02 68.74, 0 32 M0 32 C-0.44 8.97, 12.24 -1.89, 32 0 M0 32 C-0.59 8.72, 9.49 -1.58, 32 0" stroke="#1e1e1e" stroke-width="2" fill="none"></path></g><g transform="translate(2533.571921468319 1239.525533536585) rotate(0 173.2298583984375 62.5)"><text x="173.2298583984375" y="0" font-family="Virgil, Segoe UI Emoji" font-size="20px" fill="#1e1e1e" text-anchor="middle" style="white-space: pre;" direction="ltr" dominant-baseline="text-before-edge">UpdateTrade</text><text x="173.2298583984375" y="25" font-family="Virgil, Segoe UI Emoji" font-size="20px" fill="#1e1e1e" text-anchor="middle" style="white-space: pre;" direction="ltr" dominant-baseline="text-before-edge"></text><text x="173.2298583984375" y="50" font-family="Virgil, Segoe UI Emoji" font-size="20px" fill="#1e1e1e" text-anchor="middle" style="white-space: pre;" direction="ltr" dominant-baseline="text-before-edge">* Either poll or sub to updates on</text><text x="173.2298583984375" y="75" font-family="Virgil, Segoe UI Emoji" font-size="20px" fill="#1e1e1e" text-anchor="middle" style="white-space: pre;" direction="ltr" dominant-baseline="text-before-edge">trades from exchange and update </text><text x="173.2298583984375" y="100" font-family="Virgil, Segoe UI Emoji" font-size="20px" fill="#1e1e1e" text-anchor="middle" style="white-space: pre;" direction="ltr" dominant-baseline="text-before-edge">our DB</text></g><g mask="url(#mask-1YA5oSy8HjyTgh2kf979u)" stroke-linecap="round"><g transform="translate(2624.312273713918 738.3917682926826) rotate(0 40.71224591333157 225.12862042682934)"><path d="M-0.7 1.1 C12.86 76.16, 68.6 375.9, 82.39 450.7 M1.13 0.63 C14.54 75.29, 68.54 373.75, 81.95 448.81" stroke="#1e1e1e" stroke-width="2" fill="none"></path></g><g transform="translate(2624.312273713918 738.3917682926826) rotate(0 40.71224591333157 225.12862042682934)"><path d="M69.38 427.2 C76.1 437.16, 79.81 444.87, 81.95 448.81 M69.38 427.2 C73.49 432.55, 76.68 438.13, 81.95 448.81" stroke="#1e1e1e" stroke-width="2" fill="none"></path></g><g transform="translate(2624.312273713918 738.3917682926826) rotate(0 40.71224591333157 225.12862042682934)"><path d="M86.21 424.18 C86.49 435.2, 83.77 444.07, 81.95 448.81 M86.21 424.18 C85.8 430.23, 84.46 436.61, 81.95 448.81" stroke="#1e1e1e" stroke-width="2" fill="none"></path></g></g><mask id="mask-1YA5oSy8HjyTgh2kf979u"><rect x="0" y="0" fill="#fff" width="2805.736765540581" height="1288.6490091463413"></rect><rect x="2588.8745791365272" y="951.0203887195121" fill="#000" width="152.2998809814453" height="25" opacity="1"></rect></mask><g transform="translate(2588.8745791365272 951.0203887195121) rotate(0 76.28315448574722 13.039226457401924)"><text x="76.14994049072266" y="0" font-family="Virgil, Segoe UI Emoji" font-size="20px" fill="#1e1e1e" text-anchor="middle" style="white-space: pre;" direction="ltr" dominant-baseline="text-before-edge">Trade Updates</text></g><g stroke-linecap="round"><g transform="translate(2752.251863765229 1401.9874237804875) rotate(0 -1138.759721827285 54.93044969512198)"><path d="M0.83 -0.02 C-179.91 18.26, -704.64 99.71, -1084.54 110.26 C-1464.44 120.81, -2079.78 71, -2278.54 63.26 M-0.19 -1.08 C-181.09 16.78, -706.2 97.44, -1085.53 108.35 C-1464.86 119.25, -2077.67 71.56, -2276.18 64.33" stroke="#1e1e1e" stroke-width="2" fill="none"></path></g><g transform="translate(2752.251863765229 1401.9874237804875) rotate(0 -1138.759721827285 54.93044969512198)"><path d="M-2252.26 57.06 C-2259.26 59.23, -2265.57 59.79, -2276.18 64.33 M-2252.26 57.06 C-2258.02 59.43, -2264.28 61.81, -2276.18 64.33" stroke="#1e1e1e" stroke-width="2" fill="none"></path></g><g transform="translate(2752.251863765229 1401.9874237804875) rotate(0 -1138.759721827285 54.93044969512198)"><path d="M-2253.19 74.14 C-2260 71.3, -2266.03 66.86, -2276.18 64.33 M-2253.19 74.14 C-2258.76 72.03, -2264.79 69.95, -2276.18 64.33" stroke="#1e1e1e" stroke-width="2" fill="none"></path></g></g><mask></mask><g stroke-linecap="round" transform="translate(632.9641274277324 9.999999999999886) rotate(0 173.2469512195123 64.33879573170731)"><path d="M255.26 6.58 C272.11 9.03, 286.89 15.68, 299.63 21.08 C312.38 26.49, 323.91 32.83, 331.73 39.01 C339.55 45.19, 344.95 51.31, 346.57 58.16 C348.19 65.01, 346 73.34, 341.45 80.11 C336.9 86.87, 329.39 93.13, 319.28 98.76 C309.18 104.4, 295.44 109.42, 280.82 113.91 C266.2 118.4, 249.11 123.33, 231.57 125.69 C214.03 128.04, 194.49 128.13, 175.57 128.06 C156.66 127.99, 136.16 127.42, 118.05 125.25 C99.95 123.08, 81.71 119.07, 66.95 115.02 C52.19 110.97, 39.68 106.52, 29.49 100.94 C19.31 95.36, 10.78 88.3, 5.83 81.55 C0.87 74.8, -1.72 67.48, -0.23 60.45 C1.25 53.42, 7.21 46.07, 14.75 39.36 C22.28 32.64, 32.47 25.4, 44.98 20.16 C57.5 14.92, 73.43 11.12, 89.84 7.92 C106.24 4.72, 124.84 2.28, 143.42 0.97 C161.99 -0.34, 181.09 -1.57, 201.3 0.04 C221.51 1.65, 252.78 8.62, 264.67 10.64 C276.55 12.67, 274.23 11.4, 272.63 12.2 M140.96 2.28 C158.14 -0.29, 179.24 -1.04, 197.75 -0.52 C216.26 0.01, 235.2 2, 252.01 5.44 C268.83 8.87, 285.67 14.95, 298.64 20.07 C311.6 25.18, 321.83 30.11, 329.79 36.11 C337.75 42.12, 344.54 49.14, 346.41 56.08 C348.27 63.03, 345.27 70.56, 340.97 77.78 C336.68 85.01, 330.21 93.36, 320.65 99.42 C311.09 105.47, 298.27 110.01, 283.64 114.12 C269.01 118.22, 250.31 121.58, 232.87 124.04 C215.42 126.49, 197.68 128.74, 178.97 128.86 C160.26 128.97, 138.56 126.76, 120.62 124.73 C102.67 122.7, 86.3 120.4, 71.29 116.67 C56.28 112.94, 41.13 108.24, 30.55 102.33 C19.98 96.43, 12.94 88.39, 7.84 81.25 C2.74 74.1, -0.77 66.22, -0.05 59.44 C0.67 52.66, 5.14 46.9, 12.16 40.57 C19.18 34.25, 29.73 27.04, 42.07 21.5 C54.41 15.97, 70 10.75, 86.19 7.37 C102.37 3.98, 129.96 1.93, 139.18 1.2 C148.4 0.46, 140.79 1.73, 141.5 2.97" stroke="none" stroke-width="0" fill="#b2f2bb"></path><path d="M148.33 0.52 C165.82 -1.73, 188.13 -1.14, 206.66 0.17 C225.18 1.48, 243.33 4.88, 259.47 8.4 C275.62 11.91, 291.02 15.86, 303.51 21.27 C316 26.67, 327.26 34.11, 334.42 40.8 C341.58 47.49, 345.68 54.65, 346.48 61.43 C347.28 68.2, 344.17 74.76, 339.21 81.46 C334.24 88.16, 327.27 95.78, 316.69 101.64 C306.12 107.5, 291.06 112.64, 275.77 116.63 C260.47 120.62, 242.54 123.42, 224.93 125.56 C207.32 127.7, 188.71 129.78, 170.1 129.47 C151.48 129.16, 130.94 126.42, 113.24 123.71 C95.55 121, 78.49 117.37, 63.93 113.23 C49.37 109.08, 35.77 104.65, 25.9 98.85 C16.02 93.05, 8.92 85.41, 4.66 78.42 C0.41 71.42, -1.48 63.71, 0.34 56.86 C2.16 50.01, 7.52 43.6, 15.58 37.29 C23.65 30.97, 35.62 24.12, 48.75 18.99 C61.87 13.86, 76.09 9.45, 94.33 6.49 C112.57 3.53, 145.83 2.16, 158.19 1.23 C170.55 0.29, 168.11 -0.06, 168.49 0.86 M230.93 2.2 C248.71 3.12, 265.81 8.61, 280.57 13.07 C295.33 17.53, 309.2 22.99, 319.48 28.97 C329.76 34.95, 337.95 42.05, 342.26 48.95 C346.58 55.86, 347.03 63.38, 345.36 70.38 C343.68 77.38, 339.47 84.46, 332.21 90.96 C324.95 97.46, 314.44 104.32, 301.79 109.37 C289.13 114.43, 273.05 118.03, 256.3 121.29 C239.54 124.55, 219.99 127.81, 201.26 128.94 C182.53 130.07, 162.46 129.51, 143.9 128.09 C125.35 126.66, 106.45 124.03, 89.94 120.42 C73.44 116.8, 57.57 111.22, 44.85 106.4 C32.12 101.58, 21.22 97.59, 13.6 91.5 C5.98 85.42, 0.51 77.05, -0.87 69.89 C-2.24 62.73, 0.72 55.56, 5.34 48.54 C9.97 41.53, 16.5 33.65, 26.87 27.82 C37.25 21.99, 52.78 17.59, 67.59 13.57 C82.41 9.55, 98.37 5.9, 115.76 3.7 C133.16 1.5, 152.82 0.54, 171.95 0.36 C191.07 0.18, 220.92 2.03, 230.5 2.62 C240.07 3.21, 230.51 2.73, 229.38 3.89" stroke="#1e1e1e" stroke-width="2" fill="none"></path></g><g transform="translate(783.8670035409309 61.84439697644086) rotate(0 22.339981079101562 12.5)"><text x="22.339981079101562" y="0" font-family="Virgil, Segoe UI Emoji" font-size="20px" fill="#1e1e1e" text-anchor="middle" style="white-space: pre;" direction="ltr" dominant-baseline="text-before-edge">User</text></g><g stroke-linecap="round"><g transform="translate(833.4595542570005 147.52858231707296) rotate(0 -6.988376524390105 61.432926829268354)"><path d="M-0.56 0.39 C-3.07 20.64, -11.84 102.15, -13.93 122.59 M1.34 -0.45 C-1.41 20.5, -12.39 103.17, -14.86 123.99" stroke="#1e1e1e" stroke-width="2" fill="none"></path></g><g transform="translate(833.4595542570005 147.52858231707296) rotate(0 -6.988376524390105 61.432926829268354)"><path d="M-20.39 99.61 C-17.35 109.28, -16.28 120.16, -14.86 123.99 M-20.39 99.61 C-17.75 106.74, -17.09 114.27, -14.86 123.99" stroke="#1e1e1e" stroke-width="2" fill="none"></path></g><g transform="translate(833.4595542570005 147.52858231707296) rotate(0 -6.988376524390105 61.432926829268354)"><path d="M-3.42 101.76 C-7.06 110.5, -12.65 120.55, -14.86 123.99 M-3.42 101.76 C-6.11 108.17, -10.77 115.02, -14.86 123.99" stroke="#1e1e1e" stroke-width="2" fill="none"></path></g></g><mask></mask><g mask="url(#mask-JeGwWhF9l_bfuamJTBmVL)" stroke-linecap="round"><g transform="translate(1765.8588919642957 742.3346696193225) rotate(0 -23.705051369862986 102.8494220890409)"><path d="M-0.62 0.12 C-8.58 34.55, -40.55 171.5, -48.23 205.9 M1.26 -0.87 C-6.29 33.24, -37.89 169.64, -45.95 203.88" stroke="#1e1e1e" stroke-width="2" fill="none"></path></g><g transform="translate(1765.8588919642957 742.3346696193225) rotate(0 -23.705051369862986 102.8494220890409)"><path d="M-48.94 179.06 C-48.1 184.28, -47.18 193.37, -45.95 203.88 M-48.94 179.06 C-47.67 187.5, -46.43 198.11, -45.95 203.88" stroke="#1e1e1e" stroke-width="2" fill="none"></path></g><g transform="translate(1765.8588919642957 742.3346696193225) rotate(0 -23.705051369862986 102.8494220890409)"><path d="M-32.29 182.94 C-35.84 187.05, -39.33 195.11, -45.95 203.88 M-32.29 182.94 C-37.07 189.9, -41.9 199.1, -45.95 203.88" stroke="#1e1e1e" stroke-width="2" fill="none"></path></g></g><mask id="mask-JeGwWhF9l_bfuamJTBmVL"><rect x="0" y="0" fill="#fff" width="1913.2689947040217" height="1048.0335137974043"></rect><rect x="1636.253938250683" y="820.1840917083637" fill="#000" width="211.7998046875" height="50" opacity="1"></rect></mask><g transform="translate(1636.253938250683 820.1840917083634) rotate(0 106.12005491010859 24.664530688598802)"><text x="105.89990234375" y="0" font-family="Virgil, Segoe UI Emoji" font-size="20px" fill="#1e1e1e" text-anchor="middle" style="white-space: pre;" direction="ltr" dominant-baseline="text-before-edge">Symbol updates form </text><text x="105.89990234375" y="25" font-family="Virgil, Segoe UI Emoji" font-size="20px" fill="#1e1e1e" text-anchor="middle" style="white-space: pre;" direction="ltr" dominant-baseline="text-before-edge">WS</text></g><g stroke-linecap="round" transform="translate(1890.2068521159154 965.8773726547997) rotate(0 181.11008779358622 80.04248532068652)"><path d="M32 0 C105.74 4.49, 180.09 0.36, 330.22 0 C350.65 0.73, 360.8 9.72, 362.22 32 C360.47 57.01, 364.45 77.77, 362.22 128.08 C360.11 153, 351.91 161.55, 330.22 160.08 C219.47 165.63, 102.8 161.78, 32 160.08 C8.87 159.73, -1.03 150.78, 0 128.08 C0.03 108.79, 2.12 87.95, 0 32 C-2.61 11.38, 10.83 3.33, 32 0" stroke="none" stroke-width="0" fill="#ffec99"></path><path d="M32 0 C107.72 0.82, 185.25 1.96, 330.22 0 M32 0 C148.49 1.13, 265.8 1.49, 330.22 0 M330.22 0 C349.56 -1.55, 361.55 11.21, 362.22 32 M330.22 0 C351.49 -2.06, 361.41 11.55, 362.22 32 M362.22 32 C363.98 61, 362.53 93.28, 362.22 128.08 M362.22 32 C363.15 56.49, 363.37 81.68, 362.22 128.08 M362.22 128.08 C363.63 147.94, 350.98 161.96, 330.22 160.08 M362.22 128.08 C361.87 150.34, 352.36 161.15, 330.22 160.08 M330.22 160.08 C254.23 158.92, 177.29 159.52, 32 160.08 M330.22 160.08 C220.67 159.09, 112.27 159.24, 32 160.08 M32 160.08 C11.32 160.75, -0.93 148.45, 0 128.08 M32 160.08 C11.58 158.53, 0.33 148.84, 0 128.08 M0 128.08 C1.29 103.48, -1.01 80.93, 0 32 M0 128.08 C-0.21 102.83, -0.88 77.37, 0 32 M0 32 C-1.55 11.73, 12.24 -1.86, 32 0 M0 32 C-0.6 11.29, 12.43 -1.55, 32 0" stroke="#1e1e1e" stroke-width="2" fill="none"></path></g><g transform="translate(1932.5570522141893 1008.4198579754861) rotate(0 138.7598876953125 37.5)"><text x="138.7598876953125" y="0" font-family="Virgil, Segoe UI Emoji" font-size="20px" fill="#1e1e1e" text-anchor="middle" style="white-space: pre;" direction="ltr" dominant-baseline="text-before-edge">CreateSymbol</text><text x="138.7598876953125" y="25" font-family="Virgil, Segoe UI Emoji" font-size="20px" fill="#1e1e1e" text-anchor="middle" style="white-space: pre;" direction="ltr" dominant-baseline="text-before-edge"></text><text x="138.7598876953125" y="50" font-family="Virgil, Segoe UI Emoji" font-size="20px" fill="#1e1e1e" text-anchor="middle" style="white-space: pre;" direction="ltr" dominant-baseline="text-before-edge">1. Insert into SymbolDB with</text></g><g mask="url(#mask-CJRkYUvjPbRmLzTAUbKAd)" stroke-linecap="round"><g transform="translate(1849.2600049779953 736.3693041704498) rotate(0 140.33872003424653 110.16160102739718)"><path d="M0.15 0.17 C47.23 36.98, 234.5 183.94, 281.29 220.51 M-1.23 -0.78 C45.85 36.28, 233.75 185.26, 280.66 222.15" stroke="#1e1e1e" stroke-width="2" fill="none"></path></g><g transform="translate(1849.2600049779953 736.3693041704498) rotate(0 140.33872003424653 110.16160102739718)"><path d="M256.93 214.3 C261.95 216.86, 266.75 217.79, 280.66 222.15 M256.93 214.3 C262.56 216.37, 268.6 218.17, 280.66 222.15" stroke="#1e1e1e" stroke-width="2" fill="none"></path></g><g transform="translate(1849.2600049779953 736.3693041704498) rotate(0 140.33872003424653 110.16160102739718)"><path d="M267.53 200.88 C270.38 206.15, 273.05 209.77, 280.66 222.15 M267.53 200.88 C270.52 206.22, 274.01 211.24, 280.66 222.15" stroke="#1e1e1e" stroke-width="2" fill="none"></path></g></g><mask id="mask-CJRkYUvjPbRmLzTAUbKAd"><rect x="0" y="0" fill="#fff" width="2229.9374450464884" height="1056.6925062252442"></rect><rect x="1893.5388190063823" y="809.0309051978472" fill="#000" width="192.11981201171875" height="75" opacity="1"></rect></mask><g transform="translate(1893.5388190063832 809.030905197847) rotate(0 95.7492536898701 38.020285401418846)"><text x="96.05990600585938" y="0" font-family="Virgil, Segoe UI Emoji" font-size="20px" fill="#1e1e1e" text-anchor="middle" style="white-space: pre;" direction="ltr" dominant-baseline="text-before-edge">CreateSymbol on </text><text x="96.05990600585938" y="25" font-family="Virgil, Segoe UI Emoji" font-size="20px" fill="#1e1e1e" text-anchor="middle" style="white-space: pre;" direction="ltr" dominant-baseline="text-before-edge">bootstrap or first </text><text x="96.05990600585938" y="50" font-family="Virgil, Segoe UI Emoji" font-size="20px" fill="#1e1e1e" text-anchor="middle" style="white-space: pre;" direction="ltr" dominant-baseline="text-before-edge">ref</text></g><g stroke-linecap="round"><g transform="translate(2068.7855752391224 1139.3316496207117) rotate(0 -223.09281552789867 93.23662765202153)"><path d="M0.33 -0.21 C-73.99 30.67, -371.18 154.53, -445.44 185.49 M-0.96 -1.37 C-75.41 29.61, -371.9 155.21, -446 186.51" stroke="#1e1e1e" stroke-width="2" fill="none"></path></g><g transform="translate(2068.7855752391224 1139.3316496207117) rotate(0 -223.09281552789867 93.23662765202153)"><path d="M-427.7 169.49 C-434.18 176.51, -441.63 182.53, -446 186.51 M-427.7 169.49 C-431.51 173.28, -436.25 176.31, -446 186.51" stroke="#1e1e1e" stroke-width="2" fill="none"></path></g><g transform="translate(2068.7855752391224 1139.3316496207117) rotate(0 -223.09281552789867 93.23662765202153)"><path d="M-421.03 185.24 C-429.79 186.97, -439.48 187.69, -446 186.51 M-421.03 185.24 C-426.27 185.42, -432.52 184.9, -446 186.51" stroke="#1e1e1e" stroke-width="2" fill="none"></path></g></g><mask></mask></svg>
