<svg version="1.1" xmlns="http://www.w3.org/2000/svg" viewBox="0 0 1768.902942482698 1165.2412109375" width="1768.902942482698" height="1165.2412109375">
  <!-- svg-source:excalidraw -->
  
  <defs>
    <style class="style-fonts">
      @font-face {
        font-family: "Virgil";
        src: url("https://unpkg.com/@excalidraw/excalidraw@undefined/dist/excalidraw-assets/Virgil.woff2");
      }
      @font-face {
        font-family: "Cascadia";
        src: url("https://unpkg.com/@excalidraw/excalidraw@undefined/dist/excalidraw-assets/Cascadia.woff2");
      }
      @font-face {
        font-family: "Assistant";
        src: url("https://unpkg.com/@excalidraw/excalidraw@undefined/dist/excalidraw-assets/Assistant-Regular.woff2");
      }
    </style>
    
  </defs>
  <rect x="0" y="0" width="1768.902942482698" height="1165.2412109375" fill="#ffffff"></rect><g stroke-linecap="round" transform="translate(409.6163522560714 475.7861328125) rotate(0 59.82421875 269.7734375)"><path d="M29.91 0 C44.36 -1.24, 62.23 -0.15, 89.74 0 M29.91 0 C52.16 -0.37, 74.34 -0.82, 89.74 0 M89.74 0 C108.12 0.81, 118.67 10.91, 119.65 29.91 M89.74 0 C111.95 -0.06, 117.83 10.17, 119.65 29.91 M119.65 29.91 C120.25 210.8, 120.21 391.34, 119.65 509.63 M119.65 29.91 C119.63 214.12, 120.44 399.47, 119.65 509.63 M119.65 509.63 C121.41 529.8, 109.97 537.64, 89.74 539.55 M119.65 509.63 C119.22 531.15, 111.94 540.78, 89.74 539.55 M89.74 539.55 C69.15 540.32, 49.44 540.54, 29.91 539.55 M89.74 539.55 C70.69 539.81, 50.24 538.8, 29.91 539.55 M29.91 539.55 C9.94 538.8, 0.06 530.2, 0 509.63 M29.91 539.55 C8.79 540.58, -1.9 530.11, 0 509.63 M0 509.63 C0.19 323.99, 1.54 139.58, 0 29.91 M0 509.63 C1.45 372.92, 2.11 235.4, 0 29.91 M0 29.91 C-0.92 8.41, 9.25 1.64, 29.91 0 M0 29.91 C1.6 12.02, 10.87 -0.77, 29.91 0" stroke="#1e1e1e" stroke-width="2" fill="none"></path></g><g transform="translate(416.68061464620814 695.5595703125) rotate(0 52.75995635986328 50)"><text x="52.75995635986328" y="0" font-family="Virgil, Segoe UI Emoji" font-size="20px" fill="#1e1e1e" text-anchor="middle" style="white-space: pre;" direction="ltr" dominant-baseline="text-before-edge">API </text><text x="52.75995635986328" y="25" font-family="Virgil, Segoe UI Emoji" font-size="20px" fill="#1e1e1e" text-anchor="middle" style="white-space: pre;" direction="ltr" dominant-baseline="text-before-edge">Gateway</text><text x="52.75995635986328" y="50" font-family="Virgil, Segoe UI Emoji" font-size="20px" fill="#1e1e1e" text-anchor="middle" style="white-space: pre;" direction="ltr" dominant-baseline="text-before-edge">Routing/Au</text><text x="52.75995635986328" y="75" font-family="Virgil, Segoe UI Emoji" font-size="20px" fill="#1e1e1e" text-anchor="middle" style="white-space: pre;" direction="ltr" dominant-baseline="text-before-edge">th/LB</text></g><g stroke-linecap="round" transform="translate(1370.8546335060714 628.9970703125) rotate(0 106.095703125 131)"><path d="M80.99 3.2 C91.56 -2.08, 105.31 -0.93, 117.35 0.74 C129.4 2.41, 142.39 6.53, 153.27 13.2 C164.14 19.88, 174.1 29.95, 182.6 40.81 C191.1 51.67, 199.47 64.68, 204.27 78.35 C209.07 92.02, 210.71 107.67, 211.4 122.83 C212.09 137.98, 211.67 154.97, 208.41 169.26 C205.15 183.56, 199.06 196.88, 191.84 208.59 C184.61 220.31, 175.23 231.23, 165.06 239.56 C154.89 247.89, 142.73 254.93, 130.8 258.57 C118.86 262.21, 105.36 263.04, 93.46 261.4 C81.57 259.75, 70.14 255.38, 59.44 248.7 C48.75 242.01, 37.87 232.2, 29.29 221.28 C20.71 210.36, 12.65 196.98, 7.96 183.19 C3.27 169.41, 1.85 153.38, 1.15 138.56 C0.45 123.74, 0.53 108.61, 3.74 94.29 C6.95 79.98, 12.96 64.73, 20.42 52.68 C27.89 40.63, 36.99 30.6, 48.51 22 C60.03 13.4, 81.3 4.32, 89.56 1.08 C97.82 -2.16, 97.76 0.17, 98.09 2.56 M154.55 13.16 C165.43 18.16, 174.15 32.12, 182.62 43.23 C191.09 54.34, 200.45 66.31, 205.39 79.81 C210.34 93.31, 211.72 109.12, 212.3 124.24 C212.87 139.36, 212.29 156.22, 208.84 170.53 C205.39 184.84, 199.4 198.08, 191.61 210.1 C183.82 222.11, 172.64 234.35, 162.08 242.6 C151.52 250.86, 139.57 256.52, 128.23 259.63 C116.89 262.74, 105.77 263.12, 94.05 261.26 C82.32 259.4, 68.76 255.14, 57.89 248.48 C47.01 241.82, 37.3 232.26, 28.81 221.29 C20.33 210.33, 11.77 196.85, 6.98 182.7 C2.19 168.55, 0.59 151.28, 0.07 136.38 C-0.45 121.47, 0.2 107.49, 3.86 93.28 C7.52 79.06, 14.33 63.02, 22.01 51.09 C29.7 39.17, 39.8 29.94, 50 21.73 C60.2 13.52, 71.67 5.37, 83.21 1.84 C94.76 -1.7, 107.41 -1.38, 119.26 0.5 C131.1 2.37, 148.31 10.14, 154.3 13.08 C160.28 16.02, 155.86 15.88, 155.18 18.13" stroke="#1e1e1e" stroke-width="2" fill="none"></path></g><g transform="translate(1415.9793943247541 684.8660819770623) rotate(0 60.949951171875 75)"><text x="60.949951171875" y="0" font-family="Virgil, Segoe UI Emoji" font-size="20px" fill="#1e1e1e" text-anchor="middle" style="white-space: pre;" direction="ltr" dominant-baseline="text-before-edge">Video and </text><text x="60.949951171875" y="25" font-family="Virgil, Segoe UI Emoji" font-size="20px" fill="#1e1e1e" text-anchor="middle" style="white-space: pre;" direction="ltr" dominant-baseline="text-before-edge">Chunk MD</text><text x="60.949951171875" y="50" font-family="Virgil, Segoe UI Emoji" font-size="20px" fill="#1e1e1e" text-anchor="middle" style="white-space: pre;" direction="ltr" dominant-baseline="text-before-edge">Store</text><text x="60.949951171875" y="75" font-family="Virgil, Segoe UI Emoji" font-size="20px" fill="#1e1e1e" text-anchor="middle" style="white-space: pre;" direction="ltr" dominant-baseline="text-before-edge">(KV store - </text><text x="60.949951171875" y="100" font-family="Virgil, Segoe UI Emoji" font-size="20px" fill="#1e1e1e" text-anchor="middle" style="white-space: pre;" direction="ltr" dominant-baseline="text-before-edge">sharded by </text><text x="60.949951171875" y="125" font-family="Virgil, Segoe UI Emoji" font-size="20px" fill="#1e1e1e" text-anchor="middle" style="white-space: pre;" direction="ltr" dominant-baseline="text-before-edge">videoId)</text></g><g stroke-linecap="round" transform="translate(832.9425241310714 663.3544921875) rotate(0 62.259765625 50.7421875)"><path d="M25.37 0 C41.98 0.8, 61.94 0.99, 99.15 0 M25.37 0 C43.86 -0.54, 61.32 -0.26, 99.15 0 M99.15 0 C116.49 -0.69, 124.52 8.38, 124.52 25.37 M99.15 0 C115.84 0.93, 125.82 9.18, 124.52 25.37 M124.52 25.37 C122.8 43.31, 124.12 58.08, 124.52 76.11 M124.52 25.37 C124.01 38.17, 125.09 50.99, 124.52 76.11 M124.52 76.11 C123.12 93.57, 114.68 102.28, 99.15 101.48 M124.52 76.11 C125.44 93.83, 116.98 99.82, 99.15 101.48 M99.15 101.48 C71.53 100.69, 46.45 102.95, 25.37 101.48 M99.15 101.48 C78.74 101.1, 56.51 101.56, 25.37 101.48 M25.37 101.48 C7.94 99.65, -0.24 91.71, 0 76.11 M25.37 101.48 C6.45 99.32, 1.12 91.17, 0 76.11 M0 76.11 C-0.66 59.85, -1.71 40.3, 0 25.37 M0 76.11 C0.83 63.89, 0.66 52.91, 0 25.37 M0 25.37 C1.86 8.68, 10.03 0.26, 25.37 0 M0 25.37 C1.93 6.57, 6.81 0.04, 25.37 0" stroke="#1e1e1e" stroke-width="2" fill="none"></path></g><g transform="translate(842.6823388893722 689.0966796875) rotate(0 52.51995086669922 25)"><text x="52.51995086669922" y="0" font-family="Virgil, Segoe UI Emoji" font-size="20px" fill="#1e1e1e" text-anchor="middle" style="white-space: pre;" direction="ltr" dominant-baseline="text-before-edge">CreateVide</text><text x="52.51995086669922" y="25" font-family="Virgil, Segoe UI Emoji" font-size="20px" fill="#1e1e1e" text-anchor="middle" style="white-space: pre;" direction="ltr" dominant-baseline="text-before-edge">o</text></g><g stroke-linecap="round" transform="translate(1188.4327585060714 172.3134765625) rotate(0 81.6796875 81.361328125)"><path d="M65.07 2.34 C75.32 -1.18, 88.55 -0.96, 99.48 1.4 C110.41 3.76, 121.76 10.02, 130.63 16.49 C139.49 22.96, 147.33 30.84, 152.67 40.22 C158.01 49.6, 161.58 61.7, 162.67 72.79 C163.76 83.89, 162.54 96.23, 159.23 106.77 C155.92 117.31, 150.42 127.7, 142.84 136.04 C135.25 144.39, 123.97 152.41, 113.72 156.82 C103.47 161.24, 92.37 162.61, 81.36 162.53 C70.35 162.45, 57.89 160.87, 47.65 156.37 C37.41 151.87, 27.2 144.1, 19.91 135.54 C12.61 126.99, 7.04 115.46, 3.88 105.03 C0.72 94.61, -0.35 83.85, 0.93 73 C2.2 62.14, 6.15 49.49, 11.52 39.9 C16.89 30.32, 23.84 21.92, 33.14 15.49 C42.44 9.07, 61.11 3.41, 67.33 1.35 C73.55 -0.7, 70.26 1.69, 70.45 3.16 M53.81 5.65 C63.33 0.73, 76.09 -1.23, 87.21 -0.71 C98.34 -0.19, 110.72 3.2, 120.56 8.8 C130.41 14.39, 139.66 24.13, 146.28 32.88 C152.9 41.63, 157.54 50.69, 160.31 61.29 C163.08 71.88, 164.61 85.42, 162.89 96.43 C161.17 107.44, 156.25 118.14, 149.97 127.34 C143.7 136.55, 135.12 145.95, 125.26 151.65 C115.4 157.34, 101.97 160.23, 90.8 161.52 C79.63 162.81, 68.89 162.43, 58.24 159.38 C47.59 156.32, 35.49 150.51, 26.91 143.19 C18.32 135.87, 11.32 125.53, 6.74 115.43 C2.16 105.32, -0.57 93.26, -0.55 82.56 C-0.54 71.86, 2.64 61.44, 6.85 51.23 C11.07 41.03, 16.71 28.88, 24.71 21.32 C32.7 13.77, 49.85 8.42, 54.83 5.91 C59.81 3.4, 54.06 5.33, 54.57 6.27" stroke="#1e1e1e" stroke-width="2" fill="none"></path></g><g transform="translate(1218.6862326970452 216.14365784396875) rotate(0 51.669952392578125 37.5)"><text x="51.669952392578125" y="0" font-family="Virgil, Segoe UI Emoji" font-size="20px" fill="#1e1e1e" text-anchor="middle" style="white-space: pre;" direction="ltr" dominant-baseline="text-before-edge">Content</text><text x="51.669952392578125" y="25" font-family="Virgil, Segoe UI Emoji" font-size="20px" fill="#1e1e1e" text-anchor="middle" style="white-space: pre;" direction="ltr" dominant-baseline="text-before-edge">Store (eg </text><text x="51.669952392578125" y="50" font-family="Virgil, Segoe UI Emoji" font-size="20px" fill="#1e1e1e" text-anchor="middle" style="white-space: pre;" direction="ltr" dominant-baseline="text-before-edge">S3)</text></g><g stroke-linecap="round" transform="translate(83.64955538107142 710.7958984375) rotate(0 63.68359375 49.44140625)"><path d="M24.72 0 C49.37 0.63, 74.81 2.01, 102.65 0 M24.72 0 C42.2 -1.19, 58.28 0.17, 102.65 0 M102.65 0 C117.29 0.29, 127.77 8.84, 127.37 24.72 M102.65 0 C121.18 -0.79, 129.03 8.62, 127.37 24.72 M127.37 24.72 C127.54 43.97, 126.14 60.26, 127.37 74.16 M127.37 24.72 C127.19 36.26, 128.02 48.71, 127.37 74.16 M127.37 74.16 C128.45 89.57, 121.04 98.79, 102.65 98.88 M127.37 74.16 C125.95 88.45, 117.31 98.6, 102.65 98.88 M102.65 98.88 C83.26 99.88, 66.63 100.08, 24.72 98.88 M102.65 98.88 C79.45 98.43, 54.95 98.57, 24.72 98.88 M24.72 98.88 C7.62 97.74, -0.07 92.58, 0 74.16 M24.72 98.88 C9.69 97.91, 2.05 89.66, 0 74.16 M0 74.16 C1.29 64.05, 0.79 51.12, 0 24.72 M0 74.16 C0.07 55.89, -0.03 37.83, 0 24.72 M0 24.72 C-1.4 8.96, 6.87 -1.28, 24.72 0 M0 24.72 C0.07 10.42, 9.34 1.47, 24.72 0" stroke="#1e1e1e" stroke-width="2" fill="none"></path></g><g transform="translate(99.7831918556808 722.7373046875) rotate(0 47.549957275390625 37.5)"><text x="47.549957275390625" y="0" font-family="Virgil, Segoe UI Emoji" font-size="20px" fill="#1e1e1e" text-anchor="middle" style="white-space: pre;" direction="ltr" dominant-baseline="text-before-edge">User</text><text x="47.549957275390625" y="25" font-family="Virgil, Segoe UI Emoji" font-size="20px" fill="#1e1e1e" text-anchor="middle" style="white-space: pre;" direction="ltr" dominant-baseline="text-before-edge">(Browser/</text><text x="47.549957275390625" y="50" font-family="Virgil, Segoe UI Emoji" font-size="20px" fill="#1e1e1e" text-anchor="middle" style="white-space: pre;" direction="ltr" dominant-baseline="text-before-edge">Device</text></g><g mask="url(#mask-ohuvl8ayWY-9N_ZZYZfBI)" stroke-linecap="round"><g transform="translate(538.9549672582734 643.9938755454012) rotate(0 144.585575311399 26.186306347657634)"><path d="M0.67 -0.33 C49.05 8.24, 242.13 43.23, 290.26 52.14 M-0.43 -1.55 C47.88 7.14, 241.67 44.77, 289.88 53.55" stroke="#1e1e1e" stroke-width="2" fill="none"></path></g><g transform="translate(538.9549672582734 643.9938755454012) rotate(0 144.585575311399 26.186306347657634)"><path d="M260.28 58.4 C268.59 58.59, 277.63 55.8, 289.88 53.55 M260.28 58.4 C271.41 57.38, 281.15 55.51, 289.88 53.55" stroke="#1e1e1e" stroke-width="2" fill="none"></path></g><g transform="translate(538.9549672582734 643.9938755454012) rotate(0 144.585575311399 26.186306347657634)"><path d="M264.09 38.24 C271.36 44.5, 279.27 47.77, 289.88 53.55 M264.09 38.24 C273.72 44.42, 282.09 49.77, 289.88 53.55" stroke="#1e1e1e" stroke-width="2" fill="none"></path></g></g><mask id="mask-ohuvl8ayWY-9N_ZZYZfBI"><rect x="0" y="0" fill="#fff" width="928.1261178810714" height="796.3664882407165"></rect><rect x="642.6105804114693" y="657.6801818930588" fill="#000" width="81.85992431640625" height="25" opacity="1"></rect></mask><g transform="translate(642.6105804114693 657.680181893059) rotate(0 41.25873232942536 12.311472806399678)"><text x="40.929962158203125" y="0" font-family="Virgil, Segoe UI Emoji" font-size="20px" fill="#1e1e1e" text-anchor="middle" style="white-space: pre;" direction="ltr" dominant-baseline="text-before-edge">Creation</text></g><g mask="url(#mask-G3zeV6yhfTepqLzdjXDa-)" stroke-linecap="round"><g transform="translate(969.0362741310714 712.424322341793) rotate(0 199.36082324725976 26.75075249086477)"><path d="M0.51 -1.03 C66.99 7.89, 331.54 45.03, 397.9 54.17 M-0.67 1.05 C66.26 9.56, 333.76 43.36, 400.18 52.4" stroke="#1e1e1e" stroke-width="2" fill="none"></path></g><g transform="translate(969.0362741310714 712.424322341793) rotate(0 199.36082324725976 26.75075249086477)"><path d="M370.9 58.93 C375.64 55.99, 384.95 55.82, 400.18 52.4 M370.9 58.93 C380.47 57.18, 390.79 53.97, 400.18 52.4" stroke="#1e1e1e" stroke-width="2" fill="none"></path></g><g transform="translate(969.0362741310714 712.424322341793) rotate(0 199.36082324725976 26.75075249086477)"><path d="M373.56 38.58 C377.82 40.16, 386.55 44.5, 400.18 52.4 M373.56 38.58 C382.24 43.46, 391.69 46.89, 400.18 52.4" stroke="#1e1e1e" stroke-width="2" fill="none"></path></g></g><mask id="mask-G3zeV6yhfTepqLzdjXDa-"><rect x="0" y="0" fill="#fff" width="1467.757920625591" height="865.9258273235225"></rect><rect x="1113.2871425443468" y="714.1750748326577" fill="#000" width="110.21990966796875" height="50" opacity="1"></rect></mask><g transform="translate(1113.2871425443468 714.1750748326577) rotate(0 55.50290139623917 24.821374392509483)"><text x="55.109954833984375" y="0" font-family="Virgil, Segoe UI Emoji" font-size="20px" fill="#1e1e1e" text-anchor="middle" style="white-space: pre;" direction="ltr" dominant-baseline="text-before-edge">1. Create </text><text x="55.109954833984375" y="25" font-family="Virgil, Segoe UI Emoji" font-size="20px" fill="#1e1e1e" text-anchor="middle" style="white-space: pre;" direction="ltr" dominant-baseline="text-before-edge">Video Entry</text></g><g mask="url(#mask-EKQbmf4rJJblHSnUYkklf)" stroke-linecap="round"><g transform="translate(1002.009562528968 515.3914645757732) rotate(0 137.54675197050722 -80.99074947668917)"><path d="M0.82 0.23 C46.78 -26.73, 229.98 -134.1, 275.83 -160.99 M-0.21 -0.69 C45.65 -28.05, 229.31 -135.54, 275.26 -162.59" stroke="#1e1e1e" stroke-width="2" fill="none"></path></g><g transform="translate(1002.009562528968 515.3914645757732) rotate(0 137.54675197050722 -80.99074947668917)"><path d="M256.15 -139.47 C262.22 -145.44, 269.33 -152.4, 275.26 -162.59 M256.15 -139.47 C263.68 -147.95, 269.78 -155.66, 275.26 -162.59" stroke="#1e1e1e" stroke-width="2" fill="none"></path></g><g transform="translate(1002.009562528968 515.3914645757732) rotate(0 137.54675197050722 -80.99074947668917)"><path d="M245.76 -157.17 C255.12 -157.81, 265.41 -159.36, 275.26 -162.59 M245.76 -157.17 C257.01 -159.02, 266.97 -160.16, 275.26 -162.59" stroke="#1e1e1e" stroke-width="2" fill="none"></path></g></g><mask id="mask-EKQbmf4rJJblHSnUYkklf"><rect x="0" y="0" fill="#fff" width="1377.1030664699824" height="777.3729635291515"></rect><rect x="1064.4663868261352" y="396.90071509908404" fill="#000" width="150.1798553466797" height="75" opacity="1"></rect></mask><g transform="translate(1064.4663868261355 396.900715099084) rotate(0 75.35357541185329 37.310937860417184)"><text x="75.08992767333984" y="0" font-family="Virgil, Segoe UI Emoji" font-size="20px" fill="#1e1e1e" text-anchor="middle" style="white-space: pre;" direction="ltr" dominant-baseline="text-before-edge">2. Obtain</text><text x="75.08992767333984" y="25" font-family="Virgil, Segoe UI Emoji" font-size="20px" fill="#1e1e1e" text-anchor="middle" style="white-space: pre;" direction="ltr" dominant-baseline="text-before-edge">Upload URLs</text><text x="75.08992767333984" y="50" font-family="Virgil, Segoe UI Emoji" font-size="20px" fill="#1e1e1e" text-anchor="middle" style="white-space: pre;" direction="ltr" dominant-baseline="text-before-edge">(signed/authed)</text></g><g mask="url(#mask-x34PV3SqD_o-xi4byvLMq)" stroke-linecap="round"><g transform="translate(820.1909589133388 505.229318582439) rotate(0 -142.0792955161337 28.669406938780334)"><path d="M-0.3 -0.42 C-47.55 8.92, -236.1 47.2, -283.51 56.7 M1.74 -1.68 C-45.6 7.75, -236.18 48.03, -284.12 57.9" stroke="#e03131" stroke-width="2" fill="none"></path></g><g transform="translate(820.1909589133388 505.229318582439) rotate(0 -142.0792955161337 28.669406938780334)"><path d="M-258.62 42.09 C-266.8 47.81, -274.75 50.41, -284.12 57.9 M-258.62 42.09 C-265.22 46.88, -270.65 48.86, -284.12 57.9" stroke="#e03131" stroke-width="2" fill="none"></path></g><g transform="translate(820.1909589133388 505.229318582439) rotate(0 -142.0792955161337 28.669406938780334)"><path d="M-254.42 62.18 C-263.97 61.92, -273.16 58.55, -284.12 57.9 M-254.42 62.18 C-261.86 62.19, -268.3 59.37, -284.12 57.9" stroke="#e03131" stroke-width="2" fill="none"></path></g></g><mask id="mask-x34PV3SqD_o-xi4byvLMq"><rect x="0" y="0" fill="#fff" width="1204.3495499456062" height="662.5681324599997"></rect><rect x="591.1217113098028" y="508.8987255212193" fill="#000" width="173.9799041748047" height="50" opacity="1"></rect></mask><g transform="translate(591.1217113098028 508.8987255212194) rotate(0 87.881833757842 24.44011379069648)"><text x="86.98995208740234" y="0" font-family="Virgil, Segoe UI Emoji" font-size="20px" fill="#e03131" text-anchor="middle" style="white-space: pre;" direction="ltr" dominant-baseline="text-before-edge">3. Send FileID + </text><text x="86.98995208740234" y="25" font-family="Virgil, Segoe UI Emoji" font-size="20px" fill="#e03131" text-anchor="middle" style="white-space: pre;" direction="ltr" dominant-baseline="text-before-edge">UploadURLs</text></g><g mask="url(#mask-JtZZA-CAtI93USMqLC-xV)" stroke-linecap="round"><g transform="translate(177.8426207463002 700.8818359375) rotate(0 501.1810073124739 -221.56024209518986)"><path d="M0.14 -1.17 C54.25 -56.87, 158.52 -259.99, 325.4 -333.74 C492.28 -407.5, 888.63 -425.56, 1001.42 -443.7 M-1.25 0.83 C52.61 -55.26, 156.76 -261.64, 324.28 -335.56 C491.79 -409.48, 890.83 -424.47, 1003.82 -442.69" stroke="#1e1e1e" stroke-width="2" fill="none"></path></g><g transform="translate(177.8426207463002 700.8818359375) rotate(0 501.1810073124739 -221.56024209518986)"><path d="M976.85 -429.56 C984.64 -434.91, 997.37 -440.69, 1003.82 -442.69 M976.85 -429.56 C983.79 -433.85, 990.72 -437.22, 1003.82 -442.69" stroke="#1e1e1e" stroke-width="2" fill="none"></path></g><g transform="translate(177.8426207463002 700.8818359375) rotate(0 501.1810073124739 -221.56024209518986)"><path d="M974.72 -449.97 C983.36 -447.91, 996.86 -446.28, 1003.82 -442.69 M974.72 -449.97 C982.15 -449.13, 989.62 -447.37, 1003.82 -442.69" stroke="#1e1e1e" stroke-width="2" fill="none"></path></g></g><mask id="mask-JtZZA-CAtI93USMqLC-xV"><rect x="0" y="0" fill="#fff" width="1280.204635371248" height="1244.0023201278798"></rect><rect x="342.5654489357589" y="354.0537109375" fill="#000" width="322.019775390625" height="25" opacity="1"></rect></mask><g transform="translate(342.5654489357589 354.0537109375) rotate(0 336.5641912533296 125.39274405545018)"><text x="161.0098876953125" y="0" font-family="Virgil, Segoe UI Emoji" font-size="20px" fill="#1e1e1e" text-anchor="middle" style="white-space: pre;" direction="ltr" dominant-baseline="text-before-edge">4. Upload Chunks to upload URL</text></g><g mask="url(#mask-OFynjk8RSAS9rfKQoHeS9)" stroke-linecap="round"><g transform="translate(1311.2782089515676 334.74938858188483) rotate(0 67.54832630613873 147.19952852551597)"><path d="M-0.3 0.03 C2.64 30.35, -4.2 132.52, 18.24 181.55 C40.67 230.57, 114.65 275.16, 134.31 294.16 M1.74 -1 C4.51 29.49, -4.95 133.28, 17.56 182.67 C40.06 232.06, 117.49 276.86, 136.79 295.35" stroke="#1e1e1e" stroke-width="2" fill="none"></path></g><g transform="translate(1311.2782089515676 334.74938858188483) rotate(0 67.54832630613873 147.19952852551597)"><path d="M108.2 286.25 C118.22 290.35, 126.86 291.37, 136.79 295.35 M108.2 286.25 C115.34 288.36, 123.6 291.97, 136.79 295.35" stroke="#1e1e1e" stroke-width="2" fill="none"></path></g><g transform="translate(1311.2782089515676 334.74938858188483) rotate(0 67.54832630613873 147.19952852551597)"><path d="M120.74 270 C126.32 279.75, 130.58 286.46, 136.79 295.35 M120.74 270 C124.52 276.78, 129.26 284.94, 136.79 295.35" stroke="#1e1e1e" stroke-width="2" fill="none"></path></g></g><mask id="mask-OFynjk8RSAS9rfKQoHeS9"><rect x="0" y="0" fill="#fff" width="1546.3748615638451" height="729.1484456329167"></rect><rect x="1220.232814963591" y="429.578125" fill="#000" width="217.559814453125" height="175" opacity="1"></rect></mask><g transform="translate(1220.2328149635907 429.578125) rotate(0 159.2883505815214 52.3439310938449)"><text x="108.7799072265625" y="0" font-family="Virgil, Segoe UI Emoji" font-size="20px" fill="#1e1e1e" text-anchor="middle" style="white-space: pre;" direction="ltr" dominant-baseline="text-before-edge">5. On Chunk UPload -</text><text x="108.7799072265625" y="25" font-family="Virgil, Segoe UI Emoji" font-size="20px" fill="#1e1e1e" text-anchor="middle" style="white-space: pre;" direction="ltr" dominant-baseline="text-before-edge"> update chunk status</text><text x="108.7799072265625" y="50" font-family="Virgil, Segoe UI Emoji" font-size="20px" fill="#1e1e1e" text-anchor="middle" style="white-space: pre;" direction="ltr" dominant-baseline="text-before-edge">notification.</text><text x="108.7799072265625" y="75" font-family="Virgil, Segoe UI Emoji" font-size="20px" fill="#1e1e1e" text-anchor="middle" style="white-space: pre;" direction="ltr" dominant-baseline="text-before-edge">5b On All chunks </text><text x="108.7799072265625" y="100" font-family="Virgil, Segoe UI Emoji" font-size="20px" fill="#1e1e1e" text-anchor="middle" style="white-space: pre;" direction="ltr" dominant-baseline="text-before-edge">uploaded can mark or</text><text x="108.7799072265625" y="125" font-family="Virgil, Segoe UI Emoji" font-size="20px" fill="#1e1e1e" text-anchor="middle" style="white-space: pre;" direction="ltr" dominant-baseline="text-before-edge">do this on read and </text><text x="108.7799072265625" y="150" font-family="Virgil, Segoe UI Emoji" font-size="20px" fill="#1e1e1e" text-anchor="middle" style="white-space: pre;" direction="ltr" dominant-baseline="text-before-edge">keep in file</text></g><g stroke-linecap="round" transform="translate(828.0343210060714 474.4462890625) rotate(0 77.00390625 50.7421875)"><path d="M25.37 0 C55.43 -1.41, 87.06 -2.24, 128.64 0 M25.37 0 C61.44 0.03, 96.82 1.05, 128.64 0 M128.64 0 C147.21 0.47, 154.21 7.32, 154.01 25.37 M128.64 0 C144.64 1.58, 154.94 8.19, 154.01 25.37 M154.01 25.37 C155.95 37.99, 153.49 48.98, 154.01 76.11 M154.01 25.37 C153.28 41.24, 152.6 58.6, 154.01 76.11 M154.01 76.11 C155.13 91.11, 144.23 101.71, 128.64 101.48 M154.01 76.11 C154.3 91, 143.67 100.95, 128.64 101.48 M128.64 101.48 C94.26 102.51, 60.24 102.53, 25.37 101.48 M128.64 101.48 C106.94 102.1, 84.04 100.72, 25.37 101.48 M25.37 101.48 C9.44 103.44, -0.75 93.63, 0 76.11 M25.37 101.48 C7.54 100.06, -0.29 92.4, 0 76.11 M0 76.11 C-1.16 64.46, -1.88 50.44, 0 25.37 M0 76.11 C-0.11 58.99, 0.09 39.73, 0 25.37 M0 25.37 C0.65 9.97, 9.14 0.05, 25.37 0 M0 25.37 C-2.07 10.29, 6.71 0.95, 25.37 0" stroke="#1e1e1e" stroke-width="2" fill="none"></path></g><g transform="translate(848.3782769997238 512.6884765625) rotate(0 56.659950256347656 12.5)"><text x="56.659950256347656" y="0" font-family="Virgil, Segoe UI Emoji" font-size="20px" fill="#1e1e1e" text-anchor="middle" style="white-space: pre;" direction="ltr" dominant-baseline="text-before-edge">UploadVideo</text></g><g mask="url(#mask-3eeMWb5jIdFKsLZwIYyKS)" stroke-linecap="round"><g transform="translate(537.6196133348493 603.2104930484816) rotate(0 141.17382812499994 -22.22425050471201)"><path d="M-0.79 0.88 C46.38 -6.63, 236.12 -37.18, 283.3 -44.77 M1 0.3 C48.07 -7.07, 236.1 -36.11, 282.85 -43.39" stroke="#1e1e1e" stroke-width="2" fill="none"></path></g><g transform="translate(537.6196133348493 603.2104930484816) rotate(0 141.17382812499994 -22.22425050471201)"><path d="M256.57 -28.94 C266.5 -31.85, 273.01 -38.16, 282.85 -43.39 M256.57 -28.94 C264.99 -31.89, 270.81 -36.71, 282.85 -43.39" stroke="#1e1e1e" stroke-width="2" fill="none"></path></g><g transform="translate(537.6196133348493 603.2104930484816) rotate(0 141.17382812499994 -22.22425050471201)"><path d="M253.42 -49.21 C264.43 -45.55, 271.95 -45.3, 282.85 -43.39 M253.42 -49.21 C262.71 -46.37, 269.43 -45.4, 282.85 -43.39" stroke="#1e1e1e" stroke-width="2" fill="none"></path></g></g><mask id="mask-3eeMWb5jIdFKsLZwIYyKS"><rect x="0" y="0" fill="#fff" width="919.9672695848492" height="747.6589940579056"></rect><rect x="646.1934658739116" y="568.4862425437695" fill="#000" width="65.199951171875" height="25" opacity="1"></rect></mask><g transform="translate(646.1934658739117 568.4862425437695) rotate(0 32.682863497734104 12.782390332221993)"><text x="32.5999755859375" y="0" font-family="Virgil, Segoe UI Emoji" font-size="20px" fill="#1e1e1e" text-anchor="middle" style="white-space: pre;" direction="ltr" dominant-baseline="text-before-edge">Upload</text></g><g stroke-linecap="round"><g transform="translate(403.7003366310714 588.798550410263) rotate(0 -91.44850949123901 59.29422743288451)"><path d="M-0.26 0.46 C-30.69 20.5, -152.25 100.03, -182.73 119.68 M1.81 -0.34 C-28.76 19.44, -152.61 98.15, -183.59 118.13" stroke="#e03131" stroke-width="2" fill="none"></path></g><g transform="translate(403.7003366310714 588.798550410263) rotate(0 -91.44850949123901 59.29422743288451)"><path d="M-165.37 94.29 C-169.98 101.43, -174.2 107.62, -183.59 118.13 M-165.37 94.29 C-170.79 100.23, -175.02 106.79, -183.59 118.13" stroke="#e03131" stroke-width="2" fill="none"></path></g><g transform="translate(403.7003366310714 588.798550410263) rotate(0 -91.44850949123901 59.29422743288451)"><path d="M-154.31 111.58 C-162.04 113.69, -169.46 114.88, -183.59 118.13 M-154.31 111.58 C-163 112.59, -170.34 114.29, -183.59 118.13" stroke="#e03131" stroke-width="2" fill="none"></path></g></g><mask></mask><g mask="url(#mask-UTrTA7xTJGqGeiBuEJUB0)" stroke-linecap="round"><g transform="translate(220.13783663107142 748.7744583809703) rotate(0 93.337890625 -46.43118447450544)"><path d="M-0.94 0.74 C30.04 -14.73, 154.94 -77.07, 186.34 -92.69 M0.77 0.09 C31.52 -15.18, 154.16 -75.76, 185.21 -91.07" stroke="#1e1e1e" stroke-width="2" fill="none"></path></g><g transform="translate(220.13783663107142 748.7744583809703) rotate(0 93.337890625 -46.43118447450544)"><path d="M164.47 -69.39 C172.73 -77.15, 178.81 -82.63, 185.21 -91.07 M164.47 -69.39 C171.09 -75.71, 175.52 -81.95, 185.21 -91.07" stroke="#1e1e1e" stroke-width="2" fill="none"></path></g><g transform="translate(220.13783663107142 748.7744583809703) rotate(0 93.337890625 -46.43118447450544)"><path d="M155.39 -87.79 C166.75 -89.23, 175.91 -88.47, 185.21 -91.07 M155.39 -87.79 C164.68 -88.86, 171.73 -89.8, 185.21 -91.07" stroke="#1e1e1e" stroke-width="2" fill="none"></path></g></g><mask id="mask-UTrTA7xTJGqGeiBuEJUB0"><rect x="0" y="0" fill="#fff" width="506.8136178810714" height="941.6368273299811"></rect><rect x="274.47575777364955" y="677.3432739064648" fill="#000" width="77.99993896484375" height="50" opacity="1"></rect></mask><g transform="translate(274.47575777364955 677.3432739064648) rotate(0 38.36203067302705 25.45573170185088)"><text x="38.999969482421875" y="0" font-family="Virgil, Segoe UI Emoji" font-size="20px" fill="#1e1e1e" text-anchor="middle" style="white-space: pre;" direction="ltr" dominant-baseline="text-before-edge">Create/</text><text x="38.999969482421875" y="25" font-family="Virgil, Segoe UI Emoji" font-size="20px" fill="#1e1e1e" text-anchor="middle" style="white-space: pre;" direction="ltr" dominant-baseline="text-before-edge">Upload</text></g><g stroke-linecap="round" transform="translate(162.59486788107142 178.5068359375) rotate(0 81.6796875 81.361328125)"><path d="M74.52 0.72 C84.93 -1.29, 99.22 0.84, 109.61 4.54 C120.01 8.24, 128.98 15.17, 136.9 22.91 C144.81 30.66, 152.56 40.88, 157.13 51.01 C161.69 61.13, 164.45 72.78, 164.3 83.64 C164.15 94.49, 161.16 106.19, 156.23 116.14 C151.3 126.09, 143.2 136.27, 134.72 143.33 C126.25 150.4, 116.01 155.37, 105.37 158.54 C94.74 161.71, 82.08 163.58, 70.91 162.35 C59.74 161.11, 47.84 157, 38.33 151.12 C28.82 145.24, 19.91 136.27, 13.87 127.08 C7.82 117.88, 3.87 106.75, 2.05 95.94 C0.24 85.14, 0.67 72.84, 2.96 62.26 C5.26 51.68, 9.15 41.2, 15.85 32.47 C22.54 23.73, 32.42 15.36, 43.12 9.85 C53.83 4.34, 72.9 0.81, 80.07 -0.57 C87.25 -1.95, 85.92 0.2, 86.16 1.59 M78.73 0.54 C89 -1.07, 101.68 1.82, 112.19 6.1 C122.7 10.39, 133.99 18.39, 141.78 26.24 C149.56 34.08, 155.55 42.74, 158.92 53.16 C162.28 63.58, 162.83 77.37, 161.97 88.75 C161.11 100.13, 158.63 112.03, 153.75 121.42 C148.86 130.82, 141.37 138.64, 132.64 145.11 C123.91 151.59, 112.43 157.35, 101.37 160.27 C90.31 163.18, 77.1 164.38, 66.28 162.59 C55.46 160.79, 45.72 156.07, 36.46 149.5 C27.19 142.93, 16.68 132.56, 10.7 123.15 C4.72 113.75, 1.91 104.03, 0.59 93.06 C-0.73 82.09, -0.4 68.05, 2.78 57.33 C5.96 46.62, 12.22 37.19, 19.66 28.77 C27.1 20.36, 37.44 11.51, 47.42 6.83 C57.41 2.15, 74.09 1.8, 79.58 0.71 C85.07 -0.37, 80.41 -0.94, 80.37 0.32" stroke="#1e1e1e" stroke-width="2" fill="none"></path></g><g transform="translate(204.53832925466241 209.83701721896875) rotate(0 39.97996520996094 50)"><text x="39.97996520996094" y="0" font-family="Virgil, Segoe UI Emoji" font-size="20px" fill="#1e1e1e" text-anchor="middle" style="white-space: pre;" direction="ltr" dominant-baseline="text-before-edge">CDN</text><text x="39.97996520996094" y="25" font-family="Virgil, Segoe UI Emoji" font-size="20px" fill="#1e1e1e" text-anchor="middle" style="white-space: pre;" direction="ltr" dominant-baseline="text-before-edge">Also </text><text x="39.97996520996094" y="50" font-family="Virgil, Segoe UI Emoji" font-size="20px" fill="#1e1e1e" text-anchor="middle" style="white-space: pre;" direction="ltr" dominant-baseline="text-before-edge">Various </text><text x="39.97996520996094" y="75" font-family="Virgil, Segoe UI Emoji" font-size="20px" fill="#1e1e1e" text-anchor="middle" style="white-space: pre;" direction="ltr" dominant-baseline="text-before-edge">Formats</text></g><g mask="url(#mask-ALPj7h32NS9ERq2ghutHx)" stroke-linecap="round"><g transform="translate(163.59357273900434 706.3798828125) rotate(0 25.85263794980105 -179.69818998533253)"><path d="M-0.63 -0.47 C7.97 -60.12, 43.18 -298.72, 51.79 -358.66 M1.24 -1.76 C9.68 -61.69, 42.77 -300.83, 50.88 -360.39" stroke="#1e1e1e" stroke-width="2" fill="none"></path></g><g transform="translate(163.59357273900434 706.3798828125) rotate(0 25.85263794980105 -179.69818998533253)"><path d="M57.21 -331.07 C54.62 -340.16, 54.65 -350.62, 50.88 -360.39 M57.21 -331.07 C55.25 -337.81, 54.87 -344.99, 50.88 -360.39" stroke="#1e1e1e" stroke-width="2" fill="none"></path></g><g transform="translate(163.59357273900434 706.3798828125) rotate(0 25.85263794980105 -179.69818998533253)"><path d="M36.88 -333.86 C40.65 -341.97, 47.04 -351.55, 50.88 -360.39 M36.88 -333.86 C39.86 -340.05, 44.42 -346.55, 50.88 -360.39" stroke="#1e1e1e" stroke-width="2" fill="none"></path></g></g><mask id="mask-ALPj7h32NS9ERq2ghutHx"><rect x="0" y="0" fill="#fff" width="315.29884863860644" height="1165.776262783165"></rect><rect x="97.90630132601245" y="489.18169282716747" fill="#000" width="183.07981872558594" height="75" opacity="1"></rect></mask><g transform="translate(97.90630132601245 489.18169282716747) rotate(0 91.26434299945831 36.76859640817622)"><text x="91.53990936279297" y="0" font-family="Virgil, Segoe UI Emoji" font-size="20px" fill="#1e1e1e" text-anchor="middle" style="white-space: pre;" direction="ltr" dominant-baseline="text-before-edge">Streaming</text><text x="91.53990936279297" y="25" font-family="Virgil, Segoe UI Emoji" font-size="20px" fill="#1e1e1e" text-anchor="middle" style="white-space: pre;" direction="ltr" dominant-baseline="text-before-edge">(offset, bitrates, </text><text x="91.53990936279297" y="50" font-family="Virgil, Segoe UI Emoji" font-size="20px" fill="#1e1e1e" text-anchor="middle" style="white-space: pre;" direction="ltr" dominant-baseline="text-before-edge">codecs</text></g><g mask="url(#mask-NhOaJCQYE3j6AW0A1TD_7)" stroke-linecap="round"><g transform="translate(738.6413082206977 71.79777218518205) rotate(0 -199.91936397507197 85.58846957157742)"><path d="M-0.66 -0.52 C-67.49 28.11, -334.32 141.89, -400.78 170.61 M1.19 1.82 C-65.28 30.72, -331.7 143.85, -398.56 171.85" stroke="#1e1e1e" stroke-width="2" fill="none"></path></g><g transform="translate(738.6413082206977 71.79777218518205) rotate(0 -199.91936397507197 85.58846957157742)"><path d="M-376.58 151.43 C-384.54 156.14, -391.52 164.79, -398.56 171.85 M-376.58 151.43 C-385.09 158.55, -391.91 165.29, -398.56 171.85" stroke="#1e1e1e" stroke-width="2" fill="none"></path></g><g transform="translate(738.6413082206977 71.79777218518205) rotate(0 -199.91936397507197 85.58846957157742)"><path d="M-368.6 170.33 C-378.87 169.07, -388.35 171.8, -398.56 171.85 M-368.6 170.33 C-379.75 170.78, -389.39 170.87, -398.56 171.85" stroke="#1e1e1e" stroke-width="2" fill="none"></path></g></g><mask id="mask-NhOaJCQYE3j6AW0A1TD_7"><rect x="0" y="0" fill="#fff" width="1238.4800361708417" height="342.9747113283369"></rect><rect x="400.47206631593826" y="119.88624175675949" fill="#000" width="276.499755859375" height="75" opacity="1"></rect></mask><g transform="translate(400.47206631593826 119.88624175675949) rotate(0 138.37390576523262 37.575767829227246)"><text x="138.2498779296875" y="0" font-family="Virgil, Segoe UI Emoji" font-size="20px" fill="#1e1e1e" text-anchor="middle" style="white-space: pre;" direction="ltr" dominant-baseline="text-before-edge">6. Upload to CDN</text><text x="138.2498779296875" y="25" font-family="Virgil, Segoe UI Emoji" font-size="20px" fill="#1e1e1e" text-anchor="middle" style="white-space: pre;" direction="ltr" dominant-baseline="text-before-edge">(codecs, bitrates, formats, </text><text x="138.2498779296875" y="50" font-family="Virgil, Segoe UI Emoji" font-size="20px" fill="#1e1e1e" text-anchor="middle" style="white-space: pre;" direction="ltr" dominant-baseline="text-before-edge">4k, 8k etc)</text></g><g stroke-linecap="round" transform="translate(1027.6632272560714 787.2060546875) rotate(0 77.15234375 44.728515625)"><path d="M105.74 2.51 C116.76 4.36, 127.64 10.01, 135.35 15.44 C143.07 20.87, 149.39 28.36, 152.03 35.1 C154.66 41.83, 154.22 49.21, 151.16 55.84 C148.11 62.47, 141.55 69.61, 133.69 74.89 C125.83 80.18, 115.11 85.01, 104 87.53 C92.9 90.05, 78.93 91.23, 67.06 90.02 C55.2 88.81, 42.62 84.28, 32.8 80.28 C22.99 76.27, 13.74 72, 8.17 65.99 C2.59 59.97, -0.71 51.12, -0.66 44.19 C-0.61 37.26, 2.82 30.51, 8.45 24.42 C14.09 18.33, 23.05 11.52, 33.16 7.64 C43.27 3.75, 56.28 1.58, 69.11 1.12 C81.93 0.65, 102.59 4.02, 110.13 4.85 C117.66 5.69, 115.02 5.53, 114.33 6.11 M89.66 0.29 C101.32 0.73, 114.6 6.24, 124.2 10.58 C133.81 14.92, 142.11 20.47, 147.3 26.35 C152.5 32.22, 155.81 38.79, 155.37 45.85 C154.92 52.91, 150.94 62.69, 144.64 68.71 C138.33 74.73, 127.95 78.73, 117.54 81.99 C107.13 85.25, 93.78 87.7, 82.17 88.29 C70.57 88.89, 58.67 88.04, 47.91 85.56 C37.14 83.08, 25.47 78.84, 17.58 73.41 C9.7 67.97, 3.13 59.83, 0.58 52.96 C-1.97 46.08, -1.5 38.85, 2.28 32.14 C6.05 25.44, 14.73 17.89, 23.24 12.7 C31.74 7.52, 42.08 2.94, 53.3 1.03 C64.52 -0.87, 84.3 1.27, 90.57 1.26 C96.83 1.24, 91.29 0.07, 90.89 0.94" stroke="#1e1e1e" stroke-width="2" fill="none"></path></g><g transform="translate(1075.1306511907765 806.8067336016541) rotate(0 29.629974365234375 25)"><text x="29.629974365234375" y="0" font-family="Virgil, Segoe UI Emoji" font-size="20px" fill="#1e1e1e" text-anchor="middle" style="white-space: pre;" direction="ltr" dominant-baseline="text-before-edge">Action</text><text x="29.629974365234375" y="25" font-family="Virgil, Segoe UI Emoji" font-size="20px" fill="#1e1e1e" text-anchor="middle" style="white-space: pre;" direction="ltr" dominant-baseline="text-before-edge">Store</text></g><g stroke-linecap="round" transform="translate(817.4640085060714 806.4892578125) rotate(0 62.259765625 50.7421875)"><path d="M25.37 0 C44.85 0.56, 61.29 -0.13, 99.15 0 M25.37 0 C42.49 0.45, 58.96 0.78, 99.15 0 M99.15 0 C114.5 -1.33, 126.13 7.18, 124.52 25.37 M99.15 0 C114.64 1.09, 126.59 9.04, 124.52 25.37 M124.52 25.37 C124.26 44.95, 125.97 63.23, 124.52 76.11 M124.52 25.37 C124.86 41.65, 124.49 57.74, 124.52 76.11 M124.52 76.11 C124.65 91.28, 114.58 100.72, 99.15 101.48 M124.52 76.11 C124.53 94.11, 116.24 102.52, 99.15 101.48 M99.15 101.48 C73.29 100.81, 45.26 100.41, 25.37 101.48 M99.15 101.48 C80.47 100.63, 60.92 101.13, 25.37 101.48 M25.37 101.48 C10.2 101.7, -0.79 93.84, 0 76.11 M25.37 101.48 C9.38 100.11, 1.94 90.84, 0 76.11 M0 76.11 C-0.6 59.95, 1.27 48.14, 0 25.37 M0 76.11 C-0.19 62.3, 0.75 47.81, 0 25.37 M0 25.37 C-0.93 7.41, 6.59 1.21, 25.37 0 M0 25.37 C-2.07 8.08, 6.23 0.71, 25.37 0" stroke="#1e1e1e" stroke-width="2" fill="none"></path></g><g transform="translate(839.2938119728683 844.7314453125) rotate(0 40.429962158203125 12.5)"><text x="40.429962158203125" y="0" font-family="Virgil, Segoe UI Emoji" font-size="20px" fill="#1e1e1e" text-anchor="middle" style="white-space: pre;" direction="ltr" dominant-baseline="text-before-edge">Comment</text></g><g stroke-linecap="round"><g transform="translate(224.17689913107142 779.283412417333) rotate(0 85.642578125 -8.241803615856895)"><path d="M0.74 -1.07 C29.49 -3.91, 143.08 -14.89, 171.51 -17.61 M-0.33 0.98 C28.37 -1.7, 142.2 -13.74, 170.69 -16.67" stroke="#1971c2" stroke-width="2" fill="none"></path></g><g transform="translate(224.17689913107142 779.283412417333) rotate(0 85.642578125 -8.241803615856895)"><path d="M143.71 -3.54 C147.86 -6.17, 153.62 -9.34, 170.69 -16.67 M143.71 -3.54 C150.6 -6.05, 155.68 -8.85, 170.69 -16.67" stroke="#1971c2" stroke-width="2" fill="none"></path></g><g transform="translate(224.17689913107142 779.283412417333) rotate(0 85.642578125 -8.241803615856895)"><path d="M141.58 -23.95 C146.09 -22.16, 152.32 -20.89, 170.69 -16.67 M141.58 -23.95 C148.91 -21.97, 154.46 -20.26, 170.69 -16.67" stroke="#1971c2" stroke-width="2" fill="none"></path></g></g><mask></mask><g stroke-linecap="round"><g transform="translate(542.9990539571787 750.8917242864813) rotate(0 131.12695312500006 49.55080436667075)"><path d="M0.42 0.47 C43.99 17.01, 218.78 82.52, 262.23 98.81 M-0.82 -0.32 C42.51 16.43, 217.23 83.63, 261.26 100.2" stroke="#1971c2" stroke-width="2" fill="none"></path></g><g transform="translate(542.9990539571787 750.8917242864813) rotate(0 131.12695312500006 49.55080436667075)"><path d="M231.27 99.75 C243.11 99.76, 252.89 98.02, 261.26 100.2 M231.27 99.75 C239.06 99.86, 245.49 99.39, 261.26 100.2" stroke="#1971c2" stroke-width="2" fill="none"></path></g><g transform="translate(542.9990539571787 750.8917242864813) rotate(0 131.12695312500006 49.55080436667075)"><path d="M238.58 80.57 C247.66 87.68, 254.75 93, 261.26 100.2 M238.58 80.57 C244.8 85.03, 249.58 88.9, 261.26 100.2" stroke="#1971c2" stroke-width="2" fill="none"></path></g></g><mask></mask><g stroke-linecap="round"><g transform="translate(953.4425241310714 839.3566458024287) rotate(0 34.26779648529089 -1.1077255162521737)"><path d="M0.73 -1.13 C12.28 -1.49, 57.29 -2.32, 68.69 -2.31 M-0.34 0.89 C11.11 0.74, 56.31 -0.21, 67.83 -0.83" stroke="#1971c2" stroke-width="2" fill="none"></path></g><g transform="translate(953.4425241310714 839.3566458024287) rotate(0 34.26779648529089 -1.1077255162521737)"><path d="M40.01 10.41 C45.17 7.67, 53.92 5.64, 67.83 -0.83 M40.01 10.41 C50.67 6.75, 61.08 1.36, 67.83 -0.83" stroke="#1971c2" stroke-width="2" fill="none"></path></g><g transform="translate(953.4425241310714 839.3566458024287) rotate(0 34.26779648529089 -1.1077255162521737)"><path d="M39.3 -10.1 C44.61 -7.67, 53.54 -4.51, 67.83 -0.83 M39.3 -10.1 C50.21 -5.64, 60.9 -2.92, 67.83 -0.83" stroke="#1971c2" stroke-width="2" fill="none"></path></g></g><mask></mask><g stroke-linecap="round" transform="translate(11.008930381071423 570.1064453125) rotate(0 63.68359375 42.5)"><path d="M21.25 0 C52.07 -0.37, 87.35 1.06, 106.12 0 M21.25 0 C51.47 -1.19, 83.6 -1.59, 106.12 0 M106.12 0 C122.15 -1.35, 126.13 6.58, 127.37 21.25 M106.12 0 C121.59 -1.78, 128.55 7.73, 127.37 21.25 M127.37 21.25 C129.71 38.05, 126.66 53.41, 127.37 63.75 M127.37 21.25 C127.85 29.69, 128.32 40.58, 127.37 63.75 M127.37 63.75 C126.83 79.01, 121.19 86.34, 106.12 85 M127.37 63.75 C125.45 76.63, 119.6 86.29, 106.12 85 M106.12 85 C87.27 85.87, 67.49 87.64, 21.25 85 M106.12 85 C88.09 85.95, 68.53 84.38, 21.25 85 M21.25 85 C6.34 84.56, 0.24 78.7, 0 63.75 M21.25 85 C6.62 85.68, 0.7 78.81, 0 63.75 M0 63.75 C1.36 49.52, 0.57 31.7, 0 21.25 M0 63.75 C0.13 54.44, 1.19 47.19, 0 21.25 M0 21.25 C-0.58 7.18, 8.66 -0.79, 21.25 0 M0 21.25 C0.41 7.49, 5.58 -0.39, 21.25 0" stroke="#1e1e1e" stroke-width="2" fill="none"></path></g><g transform="translate(23.43256777120814 575.1064453125) rotate(0 51.25995635986328 37.5)"><text x="51.25995635986328" y="0" font-family="Virgil, Segoe UI Emoji" font-size="20px" fill="#1e1e1e" text-anchor="middle" style="white-space: pre;" direction="ltr" dominant-baseline="text-before-edge">Stream</text><text x="51.25995635986328" y="25" font-family="Virgil, Segoe UI Emoji" font-size="20px" fill="#1e1e1e" text-anchor="middle" style="white-space: pre;" direction="ltr" dominant-baseline="text-before-edge">(offset, </text><text x="51.25995635986328" y="50" font-family="Virgil, Segoe UI Emoji" font-size="20px" fill="#1e1e1e" text-anchor="middle" style="white-space: pre;" direction="ltr" dominant-baseline="text-before-edge">codec etc)</text></g><g stroke-linecap="round" transform="translate(836.2530710060714 1000.5634765625) rotate(0 62.259765625 50.7421875)"><path d="M25.37 0 C47.43 1.08, 71.61 1.57, 99.15 0 M25.37 0 C49.54 0.29, 73.32 -0.06, 99.15 0 M99.15 0 C116.47 0.99, 123.27 8.24, 124.52 25.37 M99.15 0 C117.39 1.57, 125.84 9.9, 124.52 25.37 M124.52 25.37 C125.77 39.56, 125.02 51.81, 124.52 76.11 M124.52 25.37 C123.85 40.64, 123.65 56.33, 124.52 76.11 M124.52 76.11 C123.78 91.33, 117.07 102.88, 99.15 101.48 M124.52 76.11 C126.61 95.27, 114.75 103.64, 99.15 101.48 M99.15 101.48 C75.47 99.78, 53.43 102.82, 25.37 101.48 M99.15 101.48 C82.56 102.15, 65.75 101.77, 25.37 101.48 M25.37 101.48 C7.72 103.44, 0.91 94.43, 0 76.11 M25.37 101.48 C9.05 100.47, -1.32 92.3, 0 76.11 M0 76.11 C-0.16 63.2, 0.64 47.65, 0 25.37 M0 76.11 C0.21 58.81, 0.7 41.89, 0 25.37 M0 25.37 C-0.92 9.91, 8.22 0.7, 25.37 0 M0 25.37 C1.33 9.75, 8.09 1.61, 25.37 0" stroke="#1e1e1e" stroke-width="2" fill="none"></path></g><g transform="translate(852.9928705055831 1026.3056640625) rotate(0 45.51996612548828 25)"><text x="45.51996612548828" y="0" font-family="Virgil, Segoe UI Emoji" font-size="20px" fill="#1e1e1e" text-anchor="middle" style="white-space: pre;" direction="ltr" dominant-baseline="text-before-edge">GetVideo</text><text x="45.51996612548828" y="25" font-family="Virgil, Segoe UI Emoji" font-size="20px" fill="#1e1e1e" text-anchor="middle" style="white-space: pre;" direction="ltr" dominant-baseline="text-before-edge">(MD only)</text></g><g mask="url(#mask-i2zEkfgsYMxVUIUKpYG8v)" stroke-linecap="round"><g transform="translate(11.735492881071366 635.5419959249987) rotate(0 404.4921875 247.34960750625066)"><path d="M0.3 -0.29 C15.34 82.07, -43.4 421.09, 91.28 495.03 C225.97 568.97, 688.97 451.82, 808.41 443.32 M-1 -1.49 C14.35 80.42, -41.07 418.71, 93.65 493.08 C228.37 567.46, 688.35 453.27, 807.34 444.76" stroke="#1e1e1e" stroke-width="2" fill="none"></path></g><g transform="translate(11.735492881071366 635.5419959249987) rotate(0 404.4921875 247.34960750625066)"><path d="M781.06 459.24 C790.55 452.51, 801.68 447.09, 807.34 444.76 M781.06 459.24 C789.92 455.32, 797.03 450.5, 807.34 444.76" stroke="#1e1e1e" stroke-width="2" fill="none"></path></g><g transform="translate(11.735492881071366 635.5419959249987) rotate(0 404.4921875 247.34960750625066)"><path d="M777.9 438.96 C788.75 440.01, 801.09 442.37, 807.34 444.76 M777.9 438.96 C787.58 441.47, 795.69 443.1, 807.34 444.76" stroke="#1e1e1e" stroke-width="2" fill="none"></path></g></g><mask id="mask-i2zEkfgsYMxVUIUKpYG8v"><rect x="0" y="0" fill="#fff" width="920.7198678810714" height="1230.2412109375"></rect><rect x="10" y="1105.2412109375" fill="#000" width="187.35983276367188" height="50" opacity="1"></rect></mask><g transform="translate(10 1105.2412109375) rotate(0 405.43599620277587 -210.74892817604206)"><text x="93.67991638183594" y="0" font-family="Virgil, Segoe UI Emoji" font-size="20px" fill="#1e1e1e" text-anchor="middle" style="white-space: pre;" direction="ltr" dominant-baseline="text-before-edge">Can poll or get </text><text x="93.67991638183594" y="25" font-family="Virgil, Segoe UI Emoji" font-size="20px" fill="#1e1e1e" text-anchor="middle" style="white-space: pre;" direction="ltr" dominant-baseline="text-before-edge">notified on changes</text></g><g mask="url(#mask-EONh0Il1h3FpOFhReEI_v)" stroke-linecap="round"><g transform="translate(973.8448678810714 1055.5345956390086) rotate(0 203.66605985756246 -106.83309044595748)"><path d="M-0.89 0.59 C67.2 -34.79, 339.67 -176.74, 407.53 -212.6 M0.85 -0.15 C68.88 -35.81, 338.73 -178.56, 406.68 -214.16" stroke="#1e1e1e" stroke-width="2" fill="none"></path></g><g transform="translate(973.8448678810714 1055.5345956390086) rotate(0 203.66605985756246 -106.83309044595748)"><path d="M386.52 -191.94 C391.96 -196.32, 397.17 -203.31, 406.68 -214.16 M386.52 -191.94 C389.95 -195.89, 395.1 -201.08, 406.68 -214.16" stroke="#1e1e1e" stroke-width="2" fill="none"></path></g><g transform="translate(973.8448678810714 1055.5345956390086) rotate(0 203.66605985756246 -106.83309044595748)"><path d="M376.96 -210.1 C384.44 -210.44, 391.73 -213.46, 406.68 -214.16 M376.96 -210.1 C382.66 -209.92, 389.96 -211.03, 406.68 -214.16" stroke="#1e1e1e" stroke-width="2" fill="none"></path></g></g><mask id="mask-EONh0Il1h3FpOFhReEI_v"><rect x="0" y="0" fill="#fff" width="1481.1769875961963" height="1369.2007765309236"></rect><rect x="1093.4709878582626" y="936.2015051930509" fill="#000" width="168.0798797607422" height="25" opacity="1"></rect></mask><g transform="translate(1093.4709878582628 936.2015051930509) rotate(0 83.69271748065955 12.546722981738867)"><text x="84.0399398803711" y="0" font-family="Virgil, Segoe UI Emoji" font-size="20px" fill="#1e1e1e" text-anchor="middle" style="white-space: pre;" direction="ltr" dominant-baseline="text-before-edge">1. Get Video Info</text></g><g mask="url(#mask-aTEK5tZcy-6XmyJYgYzTa)" stroke-linecap="round"><g transform="translate(970.0909616310714 1071.3837890625) rotate(0 355.0910223166825 -387.28895170040073)"><path d="M0.27 0.92 C118.67 -40.42, 645.58 -120.13, 709.89 -249.23 C774.19 -378.33, 440.28 -686.21, 386.1 -773.71 M-1.05 0.36 C117.21 -41.22, 644.37 -121.6, 708.78 -250.92 C773.2 -380.25, 439.51 -688.59, 385.45 -775.59" stroke="#1e1e1e" stroke-width="2" fill="none"></path></g><g transform="translate(970.0909616310714 1071.3837890625) rotate(0 355.0910223166825 -387.28895170040073)"><path d="M411.37 -760.48 C406.37 -764.81, 399.53 -767.83, 385.45 -775.59 M411.37 -760.48 C401.46 -765.81, 392.64 -770.89, 385.45 -775.59" stroke="#1e1e1e" stroke-width="2" fill="none"></path></g><g transform="translate(970.0909616310714 1071.3837890625) rotate(0 355.0910223166825 -387.28895170040073)"><path d="M395.59 -747.35 C394.79 -755.1, 392.01 -761.51, 385.45 -775.59 M395.59 -747.35 C391.69 -757.62, 388.75 -767.6, 385.45 -775.59" stroke="#1e1e1e" stroke-width="2" fill="none"></path></g></g><mask id="mask-aTEK5tZcy-6XmyJYgYzTa"><rect x="0" y="0" fill="#fff" width="1780.2730062644364" height="1945.9616924633015"></rect><rect x="1601.6430700461747" y="746.3369140625" fill="#000" width="157.25987243652344" height="150" opacity="1"></rect></mask><g transform="translate(1601.6430700461747 746.3369140625) rotate(0 -273.04108664688374 -62.28776091944536)"><text x="78.62993621826172" y="0" font-family="Virgil, Segoe UI Emoji" font-size="20px" fill="#1e1e1e" text-anchor="middle" style="white-space: pre;" direction="ltr" dominant-baseline="text-before-edge">3. Get Signed </text><text x="78.62993621826172" y="25" font-family="Virgil, Segoe UI Emoji" font-size="20px" fill="#1e1e1e" text-anchor="middle" style="white-space: pre;" direction="ltr" dominant-baseline="text-before-edge">streaming </text><text x="78.62993621826172" y="50" font-family="Virgil, Segoe UI Emoji" font-size="20px" fill="#1e1e1e" text-anchor="middle" style="white-space: pre;" direction="ltr" dominant-baseline="text-before-edge">URL</text><text x="78.62993621826172" y="75" font-family="Virgil, Segoe UI Emoji" font-size="20px" fill="#1e1e1e" text-anchor="middle" style="white-space: pre;" direction="ltr" dominant-baseline="text-before-edge">(To invalidate </text><text x="78.62993621826172" y="100" font-family="Virgil, Segoe UI Emoji" font-size="20px" fill="#1e1e1e" text-anchor="middle" style="white-space: pre;" direction="ltr" dominant-baseline="text-before-edge">URL on </text><text x="78.62993621826172" y="125" font-family="Virgil, Segoe UI Emoji" font-size="20px" fill="#1e1e1e" text-anchor="middle" style="white-space: pre;" direction="ltr" dominant-baseline="text-before-edge">access changes)</text></g><g mask="url(#mask-JcoobmAvBmCyREgeHDet7)" stroke-linecap="round"><g transform="translate(819.8331491310714 1044.8603515625) rotate(0 -381.71973220940555 -189.08203125)"><path d="M-0.89 0.61 C-111.14 -12.64, -535.36 -15.83, -662.58 -78.76 C-789.79 -141.7, -747.54 -327.13, -764.2 -377 M0.84 -0.12 C-108.96 -13.21, -533.4 -14.04, -660.49 -77.15 C-787.58 -140.25, -744.82 -328.79, -761.71 -378.74" stroke="#1e1e1e" stroke-width="2" fill="none"></path></g><g transform="translate(819.8331491310714 1044.8603515625) rotate(0 -381.71973220940555 -189.08203125)"><path d="M-749.49 -351.34 C-751.19 -359.11, -754.5 -364.11, -761.71 -378.74 M-749.49 -351.34 C-755.42 -361.99, -759.63 -373.62, -761.71 -378.74" stroke="#1e1e1e" stroke-width="2" fill="none"></path></g><g transform="translate(819.8331491310714 1044.8603515625) rotate(0 -381.71973220940555 -189.08203125)"><path d="M-769.96 -349.9 C-767.4 -357.82, -766.45 -363.12, -761.71 -378.74 M-769.96 -349.9 C-767.78 -361.14, -763.87 -373.35, -761.71 -378.74" stroke="#1e1e1e" stroke-width="2" fill="none"></path></g></g><mask id="mask-JcoobmAvBmCyREgeHDet7"><rect x="0" y="0" fill="#fff" width="1683.2726135498824" height="1523.0244140625"></rect><rect x="26.212604697477673" y="928.4501953125" fill="#000" width="264.4598388671875" height="75" opacity="1"></rect></mask><g transform="translate(26.212604697477673 928.4501953125) rotate(0 411.94062705085275 -72.65418552045242)"><text x="132.22991943359375" y="0" font-family="Virgil, Segoe UI Emoji" font-size="20px" fill="#1e1e1e" text-anchor="middle" style="white-space: pre;" direction="ltr" dominant-baseline="text-before-edge">4. Send back DownloadURL</text><text x="132.22991943359375" y="25" font-family="Virgil, Segoe UI Emoji" font-size="20px" fill="#1e1e1e" text-anchor="middle" style="white-space: pre;" direction="ltr" dominant-baseline="text-before-edge">For owners this could be </text><text x="132.22991943359375" y="50" font-family="Virgil, Segoe UI Emoji" font-size="20px" fill="#1e1e1e" text-anchor="middle" style="white-space: pre;" direction="ltr" dominant-baseline="text-before-edge">directly on S3 for RWY</text></g><g stroke-linecap="round" transform="translate(753.1188105663002 10) rotate(0 104.396484375 57.416015625)"><path d="M28.71 0 C77.19 -2.22, 128.37 -1.31, 180.08 0 M28.71 0 C72.26 0.15, 115.63 0.34, 180.08 0 M180.08 0 C201.07 1.6, 206.87 8.72, 208.79 28.71 M180.08 0 C199.71 -0.35, 210.1 8.86, 208.79 28.71 M208.79 28.71 C209.03 45.42, 210.72 62.53, 208.79 86.12 M208.79 28.71 C208.47 41.16, 208.29 54.56, 208.79 86.12 M208.79 86.12 C208.82 105.92, 199.52 115.25, 180.08 114.83 M208.79 86.12 C210.6 107.13, 196.99 116.51, 180.08 114.83 M180.08 114.83 C130.18 115.34, 78.79 116.31, 28.71 114.83 M180.08 114.83 C144.91 116.49, 112.22 115.83, 28.71 114.83 M28.71 114.83 C8.64 116.23, 0.28 106.8, 0 86.12 M28.71 114.83 C8.17 114.65, 2.21 103.32, 0 86.12 M0 86.12 C-0.98 63.37, -1.63 44.47, 0 28.71 M0 86.12 C0.71 74.72, 0.18 62.5, 0 28.71 M0 28.71 C-0.18 10.44, 9.15 0.08, 28.71 0 M0 28.71 C-0.71 9.98, 10.61 -1.91, 28.71 0" stroke="#1e1e1e" stroke-width="2" fill="none"></path></g><g transform="translate(762.1153773387612 29.916015625) rotate(0 95.39991760253906 37.5)"><text x="95.39991760253906" y="0" font-family="Virgil, Segoe UI Emoji" font-size="20px" fill="#1e1e1e" text-anchor="middle" style="white-space: pre;" direction="ltr" dominant-baseline="text-before-edge">Processing</text><text x="95.39991760253906" y="25" font-family="Virgil, Segoe UI Emoji" font-size="20px" fill="#1e1e1e" text-anchor="middle" style="white-space: pre;" direction="ltr" dominant-baseline="text-before-edge">(Filter, Transcoder,</text><text x="95.39991760253906" y="50" font-family="Virgil, Segoe UI Emoji" font-size="20px" fill="#1e1e1e" text-anchor="middle" style="white-space: pre;" direction="ltr" dominant-baseline="text-before-edge">Quality Converter</text></g><g stroke-linecap="round"><g transform="translate(1192.9547480663002 197.3046875) rotate(0 -110.220703125 -58.849609375)"><path d="M1 -0.88 C-35.61 -20.53, -183.05 -98.4, -219.88 -117.83 M0.07 1.27 C-36.64 -18.19, -183.77 -96.82, -220.54 -116.36" stroke="#1e1e1e" stroke-width="2" fill="none"></path></g><g transform="translate(1192.9547480663002 197.3046875) rotate(0 -110.220703125 -58.849609375)"><path d="M-190.84 -112.16 C-200.76 -112.18, -207.97 -113.57, -220.54 -116.36 M-190.84 -112.16 C-200.18 -113.86, -209.48 -115.37, -220.54 -116.36" stroke="#1e1e1e" stroke-width="2" fill="none"></path></g><g transform="translate(1192.9547480663002 197.3046875) rotate(0 -110.220703125 -58.849609375)"><path d="M-200.49 -94.05 C-207.68 -99.3, -212.14 -105.85, -220.54 -116.36 M-200.49 -94.05 C-206.61 -101.47, -212.82 -108.78, -220.54 -116.36" stroke="#1e1e1e" stroke-width="2" fill="none"></path></g></g><mask></mask></svg>