<svg version="1.1" xmlns="http://www.w3.org/2000/svg" viewBox="0 0 1572.55741940269 624.9664873079627" width="3145.11483880538" height="1249.9329746159253" filter="invert(93%) hue-rotate(180deg)">
  <!-- svg-source:excalidraw -->
  
  <defs>
    <style class="style-fonts">
      @font-face {
        font-family: "Virgil";
        src: url("https://unpkg.com/@excalidraw/excalidraw@undefined/dist/excalidraw-assets/Virgil.woff2");
      }
      @font-face {
        font-family: "Cascadia";
        src: url("https://unpkg.com/@excalidraw/excalidraw@undefined/dist/excalidraw-assets/Cascadia.woff2");
      }
      @font-face {
        font-family: "Assistant";
        src: url("https://unpkg.com/@excalidraw/excalidraw@undefined/dist/excalidraw-assets/Assistant-Regular.woff2");
      }
    </style>
    
  </defs>
  <rect x="0" y="0" width="1572.55741940269" height="624.9664873079627" fill="#ffffff"></rect><g stroke-linecap="round" transform="translate(780.37060546875 58.110512262658176) rotate(0 154.041015625 188.50260416666669)"><path d="M32 0 C124.2 -0.99, 219.11 -2.66, 276.08 0 M32 0 C102.64 -0.21, 173.72 -0.36, 276.08 0 M276.08 0 C296.7 1.76, 307.24 10.26, 308.08 32 M276.08 0 C296.81 0.5, 309.6 10.34, 308.08 32 M308.08 32 C308.8 104.48, 307.48 177.63, 308.08 345.01 M308.08 32 C308.43 122.12, 307.5 211.95, 308.08 345.01 M308.08 345.01 C307.15 366.96, 298.99 376.04, 276.08 377.01 M308.08 345.01 C307.25 364.62, 298.51 375.77, 276.08 377.01 M276.08 377.01 C223.44 375.86, 169.69 377.21, 32 377.01 M276.08 377.01 C195.81 376.26, 113.63 376.51, 32 377.01 M32 377.01 C11.75 377.73, 0.05 364.72, 0 345.01 M32 377.01 C10.4 375.88, -1.38 368.64, 0 345.01 M0 345.01 C-2.75 270.73, -2 194.63, 0 32 M0 345.01 C-2.33 248.31, -1.5 151.28, 0 32 M0 32 C0.35 9.52, 10.62 0.93, 32 0 M0 32 C1.6 8.58, 11.82 -1.98, 32 0" stroke="#1e1e1e" stroke-width="2" fill="none"></path></g><g transform="translate(860.2216186523438 405.11572059599155) rotate(0 74.19000244140625 12.5)"><text x="74.19000244140625" y="0" font-family="Virgil, Segoe UI Emoji" font-size="20px" fill="#1e1e1e" text-anchor="middle" style="white-space: pre;" direction="ltr" dominant-baseline="text-before-edge">CommentService</text></g><g stroke-linecap="round" transform="translate(10 145.4868143459915) rotate(0 113.041015625 47.8359375)"><path d="M23.92 0 C87.6 -0.02, 154.19 -2.67, 202.16 0 M23.92 0 C60.26 0.44, 97.11 -1.12, 202.16 0 M202.16 0 C219.47 1.97, 225.86 6.45, 226.08 23.92 M202.16 0 C218.26 1.38, 225.81 7.61, 226.08 23.92 M226.08 23.92 C224.42 34.51, 225.78 47.28, 226.08 71.75 M226.08 23.92 C225.73 40.28, 226 55.56, 226.08 71.75 M226.08 71.75 C227.4 87.9, 219.61 95.83, 202.16 95.67 M226.08 71.75 C224.77 85.96, 218.4 94.67, 202.16 95.67 M202.16 95.67 C161.48 93.61, 117.44 96.68, 23.92 95.67 M202.16 95.67 C158.72 94.9, 112.8 93.3, 23.92 95.67 M23.92 95.67 C9.46 94.79, -1.43 86.82, 0 71.75 M23.92 95.67 C8.79 93.7, -1.5 86.07, 0 71.75 M0 71.75 C-0.59 55.6, -1.09 40.13, 0 23.92 M0 71.75 C-0.42 59.82, -0.51 50.13, 0 23.92 M0 23.92 C1.16 6.41, 8.28 1.46, 23.92 0 M0 23.92 C-0.91 9.06, 6.75 0.6, 23.92 0" stroke="#1e1e1e" stroke-width="2" fill="none"></path></g><g transform="translate(100.70101547241211 180.8227518459915) rotate(0 22.34000015258789 12.5)"><text x="22.34000015258789" y="0" font-family="Virgil, Segoe UI Emoji" font-size="20px" fill="#1e1e1e" text-anchor="middle" style="white-space: pre;" direction="ltr" dominant-baseline="text-before-edge">User</text></g><g stroke-linecap="round"><g transform="translate(245.2211950819169 198.455099367201) rotate(0 63.26440245904155 15.083405233183008)"><path d="M1 -0.49 C22.16 4.63, 106.58 26.02, 127.36 31.27 M0.06 -1.8 C21.1 2.97, 105.5 24.58, 126.84 29.73" stroke="#1e1e1e" stroke-width="2" fill="none"></path></g><g transform="translate(245.2211950819169 198.455099367201) rotate(0 63.26440245904155 15.083405233183008)"><path d="M30.84 -3.59 C20.1 -0.93, 12.83 -2.73, 1 -0.49 M30.84 -3.59 C19.8 -1.76, 8.5 -1.92, 1 -0.49" stroke="#1e1e1e" stroke-width="2" fill="none"></path></g><g transform="translate(245.2211950819169 198.455099367201) rotate(0 63.26440245904155 15.083405233183008)"><path d="M25.84 16.32 C16.68 12.31, 11.07 3.88, 1 -0.49 M25.84 16.32 C16.83 10.79, 7.37 3.31, 1 -0.49" stroke="#1e1e1e" stroke-width="2" fill="none"></path></g><g transform="translate(245.2211950819169 198.455099367201) rotate(0 63.26440245904155 15.083405233183008)"><path d="M97.01 32.87 C106.1 32.95, 118.69 29.08, 126.84 29.73 M97.01 32.87 C107.99 32.05, 118.64 29.6, 126.84 29.73" stroke="#1e1e1e" stroke-width="2" fill="none"></path></g><g transform="translate(245.2211950819169 198.455099367201) rotate(0 63.26440245904155 15.083405233183008)"><path d="M101.97 12.95 C109.5 19.71, 120.44 22.46, 126.84 29.73 M101.97 12.95 C110.94 19.5, 119.76 24.36, 126.84 29.73" stroke="#1e1e1e" stroke-width="2" fill="none"></path></g></g><mask></mask><g stroke-linecap="round" transform="translate(386.5394965277778 52.708168512658176) rotate(0 113.041015625 223.3359375)"><path d="M32 0 C93.03 -0.31, 157.61 0.23, 194.08 0 M32 0 C63.81 -0.21, 96.88 -1.21, 194.08 0 M194.08 0 C213.61 -1.68, 225.98 8.89, 226.08 32 M194.08 0 C215.41 0.23, 224.69 12.82, 226.08 32 M226.08 32 C225.98 180.6, 226.43 327.74, 226.08 414.67 M226.08 32 C227.46 140.59, 226.72 248.08, 226.08 414.67 M226.08 414.67 C226.7 435.89, 214.63 446.97, 194.08 446.67 M226.08 414.67 C226.66 436.86, 215.35 447.94, 194.08 446.67 M194.08 446.67 C131.54 445.69, 68.94 445.05, 32 446.67 M194.08 446.67 C150.78 446.4, 107.81 446.55, 32 446.67 M32 446.67 C10.76 445.23, -0.14 436.5, 0 414.67 M32 446.67 C12.88 448.5, -0.63 434.22, 0 414.67 M0 414.67 C-0.33 296.95, -0.17 182.08, 0 32 M0 414.67 C-0.25 317.13, -0.17 218.74, 0 32 M0 32 C-0.24 10.91, 10.83 1.69, 32 0 M0 32 C-0.05 10, 9.01 -0.96, 32 0" stroke="#1e1e1e" stroke-width="2" fill="none"></path></g><g transform="translate(432.8305045233833 251.04410601265818) rotate(0 66.75000762939453 25)"><text x="66.75000762939453" y="0" font-family="Virgil, Segoe UI Emoji" font-size="20px" fill="#1e1e1e" text-anchor="middle" style="white-space: pre;" direction="ltr" dominant-baseline="text-before-edge">API Gateway</text><text x="66.75000762939453" y="25" font-family="Virgil, Segoe UI Emoji" font-size="20px" fill="#1e1e1e" text-anchor="middle" style="white-space: pre;" direction="ltr" dominant-baseline="text-before-edge">/LB</text></g><g stroke-linecap="round" transform="translate(852.8232421875 108.02848101265818) rotate(0 88.5 32)"><path d="M16 0 C65.38 2.65, 111.75 1.28, 161 0 M16 0 C59.59 -0.48, 103.73 -0.02, 161 0 M161 0 C173.06 0.05, 177.4 6.67, 177 16 M161 0 C169.55 -2.23, 178.93 3.51, 177 16 M177 16 C176.82 24.3, 176.83 30.52, 177 48 M177 16 C177.13 26.24, 176.48 37.9, 177 48 M177 48 C176.1 58.02, 170.71 64.7, 161 64 M177 48 C175.82 56.91, 170.09 64.86, 161 64 M161 64 C120.43 63.77, 79.71 64.04, 16 64 M161 64 C121.3 64.14, 82.22 64.13, 16 64 M16 64 C4.11 65.33, 1.03 58.92, 0 48 M16 64 C7.36 61.97, 1.93 57.5, 0 48 M0 48 C1.23 39.51, 1.39 28.78, 0 16 M0 48 C0.67 37.79, 0.08 25.46, 0 16 M0 16 C1.21 4.66, 3.9 1.58, 16 0 M0 16 C1.02 5.77, 3.14 -1.32, 16 0" stroke="#1e1e1e" stroke-width="2" fill="none"></path></g><g transform="translate(866.8932418823242 127.52848101265818) rotate(0 74.43000030517578 12.5)"><text x="74.43000030517578" y="0" font-family="Virgil, Segoe UI Emoji" font-size="20px" fill="#1e1e1e" text-anchor="middle" style="white-space: pre;" direction="ltr" dominant-baseline="text-before-edge">CreateComment</text></g><g stroke-linecap="round" transform="translate(856.1287977430557 294.05625879043595) rotate(0 88.5 32)"><path d="M16 0 C44.25 0.66, 76.65 -0.27, 161 0 M16 0 C51.6 1.66, 84.89 0.48, 161 0 M161 0 C173.39 0.37, 176.97 7.11, 177 16 M161 0 C170.41 -1.1, 177.01 3.6, 177 16 M177 16 C175.51 25.2, 175.71 29.74, 177 48 M177 16 C175.96 25.63, 177.73 34.59, 177 48 M177 48 C178.77 57.61, 169.89 63.41, 161 64 M177 48 C178.27 57.63, 172.66 64.01, 161 64 M161 64 C126.32 64.18, 93.67 63.46, 16 64 M161 64 C119.23 65.44, 76.67 64.27, 16 64 M16 64 C3.52 63.02, 1.4 59.21, 0 48 M16 64 C6.22 63.47, -0.03 60.27, 0 48 M0 48 C0.85 39.84, 0.75 35.03, 0 16 M0 48 C-1.1 38.7, -0.61 31.44, 0 16 M0 16 C1.83 5.13, 3.35 -1.69, 16 0 M0 16 C-1.36 6.12, 6.95 -0.62, 16 0" stroke="#1e1e1e" stroke-width="2" fill="none"></path></g><g transform="translate(879.5087949964736 313.55625879043595) rotate(0 65.12000274658203 12.5)"><text x="65.12000274658203" y="0" font-family="Virgil, Segoe UI Emoji" font-size="20px" fill="#1e1e1e" text-anchor="middle" style="white-space: pre;" direction="ltr" dominant-baseline="text-before-edge">ListComments</text></g><g stroke-linecap="round"><g transform="translate(628.3510199652778 172.75299516902348) rotate(0 107.94933564743997 -21.3052913940587)"><path d="M-0.79 1.07 C35.42 -5.99, 180.5 -35.08, 216.45 -42.17 M0.99 0.59 C37.17 -6.86, 179.74 -36.76, 215.8 -44.07" stroke="#1e1e1e" stroke-width="2" fill="none"></path></g><g transform="translate(628.3510199652778 172.75299516902348) rotate(0 107.94933564743997 -21.3052913940587)"><path d="M190.27 -28.31 C197.86 -30.82, 202.65 -36.95, 215.8 -44.07 M190.27 -28.31 C200.69 -34.54, 209.64 -40.37, 215.8 -44.07" stroke="#1e1e1e" stroke-width="2" fill="none"></path></g><g transform="translate(628.3510199652778 172.75299516902348) rotate(0 107.94933564743997 -21.3052913940587)"><path d="M186.11 -48.41 C194.69 -46.29, 200.43 -47.82, 215.8 -44.07 M186.11 -48.41 C198.19 -46.78, 208.76 -44.73, 215.8 -44.07" stroke="#1e1e1e" stroke-width="2" fill="none"></path></g></g><mask></mask><g stroke-linecap="round"><g transform="translate(633.3510199652778 269.5399645669024) rotate(0 106.5318664194873 21.27586880486796)"><path d="M0.13 -0.9 C35.61 6.19, 178.1 34.68, 213.73 41.93 M-1.26 1.25 C34.04 8.53, 177.33 36.02, 213.14 43.14" stroke="#1e1e1e" stroke-width="2" fill="none"></path></g><g transform="translate(633.3510199652778 269.5399645669024) rotate(0 106.5318664194873 21.27586880486796)"><path d="M183.5 47.81 C193.09 47.15, 204.6 45.7, 213.14 43.14 M183.5 47.81 C192.44 47.09, 202.46 43.71, 213.14 43.14" stroke="#1e1e1e" stroke-width="2" fill="none"></path></g><g transform="translate(633.3510199652778 269.5399645669024) rotate(0 106.5318664194873 21.27586880486796)"><path d="M187.43 27.67 C195.45 34.53, 205.5 40.59, 213.14 43.14 M187.43 27.67 C195.17 33.13, 204 35.89, 213.14 43.14" stroke="#1e1e1e" stroke-width="2" fill="none"></path></g></g><mask></mask><g stroke-linecap="round" transform="translate(1249.55741940269 10) rotate(0 156.5 107.5)"><path d="M193.46 2.44 C209.66 3.44, 227.3 10.98, 241.74 17.34 C256.18 23.71, 269.68 31.53, 280.11 40.64 C290.53 49.76, 298.81 60.97, 304.28 72.02 C309.75 83.07, 312.84 95.25, 312.91 106.96 C312.99 118.66, 309.97 131.15, 304.74 142.24 C299.51 153.33, 291.84 164.41, 281.54 173.48 C271.24 182.55, 257.37 190.3, 242.95 196.66 C228.53 203.01, 211.41 208.48, 195.04 211.6 C178.66 214.73, 161.54 216.4, 144.72 215.43 C127.89 214.46, 109.76 210.35, 94.1 205.79 C78.45 201.23, 63.12 195.97, 50.77 188.08 C38.43 180.19, 28.28 168.68, 20.04 158.44 C11.79 148.2, 4.22 137.9, 1.33 126.65 C-1.56 115.4, 0 102.6, 2.69 90.95 C5.38 79.31, 9.71 67.02, 17.45 56.76 C25.19 46.5, 36.62 37.39, 49.1 29.39 C61.58 21.39, 76.8 13.63, 92.35 8.77 C107.9 3.91, 123.03 0.64, 142.39 0.24 C161.74 -0.16, 195.63 4.39, 208.51 6.38 C221.39 8.36, 220.57 10.39, 219.67 12.15 M96.39 8.76 C110.41 2.8, 129.35 -0.02, 146.14 -0.92 C162.93 -1.82, 180.74 -0.02, 197.12 3.34 C213.51 6.69, 230.4 12.45, 244.45 19.21 C258.5 25.97, 271.37 34.5, 281.42 43.88 C291.46 53.26, 299.35 64.68, 304.72 75.5 C310.09 86.32, 313.93 97.59, 313.62 108.81 C313.31 120.02, 308.55 131.51, 302.86 142.78 C297.18 154.04, 289.9 167.13, 279.49 176.38 C269.08 185.64, 255.03 192.27, 240.41 198.29 C225.79 204.32, 208.3 210.07, 191.77 212.54 C175.24 215.02, 158.18 214.14, 141.22 213.14 C124.27 212.14, 105.38 211.07, 90.03 206.54 C74.69 202.01, 61.44 194.28, 49.17 185.95 C36.9 177.63, 24.35 166.79, 16.41 156.59 C8.46 146.38, 3.65 136.37, 1.51 124.7 C-0.63 113.04, 0.24 98.47, 3.57 86.61 C6.9 74.76, 13.3 63.23, 21.48 53.58 C29.67 43.93, 40.43 36.33, 52.67 28.72 C64.92 21.12, 87.62 11.23, 94.96 7.95 C102.3 4.66, 95.48 7.23, 96.72 9.02" stroke="#1e1e1e" stroke-width="2" fill="none"></path></g><g transform="translate(1365.4652078418194 92.48602102244615) rotate(0 40.43000030517578 25)"><text x="40.43000030517578" y="0" font-family="Virgil, Segoe UI Emoji" font-size="20px" fill="#1e1e1e" text-anchor="middle" style="white-space: pre;" direction="ltr" dominant-baseline="text-before-edge">Comment</text><text x="40.43000030517578" y="25" font-family="Virgil, Segoe UI Emoji" font-size="20px" fill="#1e1e1e" text-anchor="middle" style="white-space: pre;" direction="ltr" dominant-baseline="text-before-edge">Store</text></g><g stroke-linecap="round"><g transform="translate(1040.8232421875 128.37122593799504) rotate(0 98.97206235066301 3.2850130578471664)"><path d="M-0.33 -0.39 C32.28 0.89, 163.78 5.55, 196.88 6.82 M1.69 -1.63 C34.56 -0.67, 166.37 3.68, 199.04 4.83" stroke="#1e1e1e" stroke-width="2" fill="none"></path></g><g transform="translate(1040.8232421875 128.37122593799504) rotate(0 98.97206235066301 3.2850130578471664)"><path d="M170.52 14.13 C181.34 8.72, 193.79 7.31, 199.04 4.83 M170.52 14.13 C180.84 10.41, 190.59 6.86, 199.04 4.83" stroke="#1e1e1e" stroke-width="2" fill="none"></path></g><g transform="translate(1040.8232421875 128.37122593799504) rotate(0 98.97206235066301 3.2850130578471664)"><path d="M171.21 -6.38 C181.61 -3.59, 193.79 3.19, 199.04 4.83 M171.21 -6.38 C181.39 -2.8, 190.89 0.94, 199.04 4.83" stroke="#1e1e1e" stroke-width="2" fill="none"></path></g></g><mask></mask><g stroke-linecap="round"><g transform="translate(1036.6287977430557 304.90259828725095) rotate(0 120.67728866887023 -56.372823760963165)"><path d="M0.93 -0.55 C41.03 -19.4, 200.7 -94.72, 240.64 -113.56 M-0.04 1.78 C40.45 -16.9, 202.47 -93.37, 242.98 -112.45" stroke="#1e1e1e" stroke-width="2" fill="none"></path></g><g transform="translate(1036.6287977430557 304.90259828725095) rotate(0 120.67728866887023 -56.372823760963165)"><path d="M221.85 -91.15 C227.38 -98.92, 233.31 -105.5, 242.98 -112.45 M221.85 -91.15 C226.84 -95.15, 231.82 -101.7, 242.98 -112.45" stroke="#1e1e1e" stroke-width="2" fill="none"></path></g><g transform="translate(1036.6287977430557 304.90259828725095) rotate(0 120.67728866887023 -56.372823760963165)"><path d="M213.1 -109.71 C221.2 -111.96, 229.76 -112.94, 242.98 -112.45 M213.1 -109.71 C219.95 -109.4, 226.95 -111.66, 242.98 -112.45" stroke="#1e1e1e" stroke-width="2" fill="none"></path></g></g><mask></mask><g stroke-linecap="round" transform="translate(814.3068274745926 513.9106460632366) rotate(0 100.2435472705696 50.52792062236301)"><path d="M25.26 0 C61.56 0.61, 92.22 0.19, 175.22 0 M25.26 0 C57.96 -1.94, 89.77 -2.11, 175.22 0 M175.22 0 C191.27 -0.28, 201.28 8.77, 200.49 25.26 M175.22 0 C193.07 -0.72, 201.26 6.37, 200.49 25.26 M200.49 25.26 C199.54 38.08, 199.25 46.17, 200.49 75.79 M200.49 25.26 C199.42 42.59, 199.6 62.4, 200.49 75.79 M200.49 75.79 C199.07 92.74, 191.03 102.79, 175.22 101.06 M200.49 75.79 C198.56 92.29, 191.86 98.97, 175.22 101.06 M175.22 101.06 C117.81 100.82, 57.52 103.6, 25.26 101.06 M175.22 101.06 C134.43 102.44, 95.39 100.81, 25.26 101.06 M25.26 101.06 C7.63 99.46, -1.54 92.69, 0 75.79 M25.26 101.06 C10.61 98.93, -0.8 94.91, 0 75.79 M0 75.79 C1.16 61.51, -2.35 46.79, 0 25.26 M0 75.79 C0.76 58.32, 0.7 39.84, 0 25.26 M0 25.26 C-0.59 9.61, 9.85 -0.97, 25.26 0 M0 25.26 C-0.99 7.32, 7.99 -0.1, 25.26 0" stroke="#1e1e1e" stroke-width="2" fill="none"></path></g><g transform="translate(845.950376271041 551.9385666855997) rotate(0 68.5999984741211 12.5)"><text x="68.5999984741211" y="0" font-family="Virgil, Segoe UI Emoji" font-size="20px" fill="#1e1e1e" text-anchor="middle" style="white-space: pre;" direction="ltr" dominant-baseline="text-before-edge">Channelservice</text></g><g mask="url(#mask-p1AkL84t9Lq0Tm6vcNxHV)" stroke-linecap="round"><g transform="translate(241.76556461858024 237.85628820458732) rotate(0 70.88607594936701 64.55696202531644)"><path d="M-1.07 0.31 C22.42 21.97, 118.13 107.46, 141.93 129.09 M0.56 -0.57 C23.82 21.37, 117.67 109.14, 141.06 130.62" stroke="#2f9e44" stroke-width="2" fill="none"></path></g><g transform="translate(241.76556461858024 237.85628820458732) rotate(0 70.88607594936701 64.55696202531644)"><path d="M113.42 118.96 C124.41 123.92, 134.41 128.01, 141.06 130.62 M113.42 118.96 C123.14 123.58, 134.33 127.06, 141.06 130.62" stroke="#2f9e44" stroke-width="2" fill="none"></path></g><g transform="translate(241.76556461858024 237.85628820458732) rotate(0 70.88607594936701 64.55696202531644)"><path d="M127.38 103.92 C132.93 114.5, 137.6 124.33, 141.06 130.62 M127.38 103.92 C131.7 114.36, 137.5 123.65, 141.06 130.62" stroke="#2f9e44" stroke-width="2" fill="none"></path></g></g><mask id="mask-p1AkL84t9Lq0Tm6vcNxHV"><rect x="0" y="0" fill="#fff" width="483.53771651731427" height="466.9702122552202"></rect><rect x="309.94164052980034" y="289.9132502299037" fill="#000" width="5.420000076293945" height="25" opacity="1"></rect></mask><g transform="translate(309.9416405298002 289.9132502299038) rotate(0 2.2507459554821594 12.968828572798529)"><text x="2.7100000381469727" y="0" font-family="Virgil, Segoe UI Emoji" font-size="20px" fill="#2f9e44" text-anchor="middle" style="white-space: pre;" direction="ltr" dominant-baseline="text-before-edge">1</text></g><g mask="url(#mask-cuyMKBoOy-8cNwABVmWKR)" stroke-linecap="round"><g transform="translate(618.9807544919977 453.04616162230866) rotate(0 94.93670886075938 53.79746835443035)"><path d="M-0.1 1.17 C31.42 18.95, 157.68 89.2, 189.45 106.98 M-1.61 0.74 C29.68 18.65, 156.33 90.1, 188.28 108.19" stroke="#2f9e44" stroke-width="2" fill="none"></path></g><g transform="translate(618.9807544919977 453.04616162230866) rotate(0 94.93670886075938 53.79746835443035)"><path d="M158.69 103.25 C170.41 104.2, 177.18 107.6, 188.28 108.19 M158.69 103.25 C168.75 103.67, 178.42 105.73, 188.28 108.19" stroke="#2f9e44" stroke-width="2" fill="none"></path></g><g transform="translate(618.9807544919977 453.04616162230866) rotate(0 94.93670886075938 53.79746835443035)"><path d="M168.79 85.39 C177.22 92.22, 180.66 101.51, 188.28 108.19 M168.79 85.39 C175.69 91.58, 182.13 99.34, 188.28 108.19" stroke="#2f9e44" stroke-width="2" fill="none"></path></g></g><mask id="mask-cuyMKBoOy-8cNwABVmWKR"><rect x="0" y="0" fill="#fff" width="908.8541722135164" height="660.6410983311694"></rect><rect x="666.0074596906477" y="494.34362997673895" fill="#000" width="95.82000732421875" height="25" opacity="1"></rect></mask><g transform="translate(666.0074596906477 494.343629976739) rotate(0 46.89298190390696 13.169341649524881)"><text x="47.910003662109375" y="0" font-family="Virgil, Segoe UI Emoji" font-size="20px" fill="#2f9e44" text-anchor="middle" style="white-space: pre;" direction="ltr" dominant-baseline="text-before-edge">1. Connect</text></g><g mask="url(#mask-aa5wqWT9dSVVawDhdUY76)" stroke-linecap="round"><g transform="translate(1405.056703859086 235.32464263496706) rotate(0 -191.13924050632897 168.3544303797467)"><path d="M0.42 0 C-63.31 56.08, -319.63 281.17, -383.45 337.26 M-0.82 -1.05 C-64.11 54.62, -317.59 278.95, -381.36 335.43" stroke="#1e1e1e" stroke-width="2" fill="none"></path></g><g transform="translate(1405.056703859086 235.32464263496706) rotate(0 -191.13924050632897 168.3544303797467)"><path d="M-367.05 309.06 C-369.93 312.77, -372.05 319.92, -381.36 335.43 M-367.05 309.06 C-371.85 315.97, -376.26 324.63, -381.36 335.43" stroke="#1e1e1e" stroke-width="2" fill="none"></path></g><g transform="translate(1405.056703859086 235.32464263496706) rotate(0 -191.13924050632897 168.3544303797467)"><path d="M-353.45 324.43 C-359.32 324.91, -364.34 328.79, -381.36 335.43 M-353.45 324.43 C-362.1 326.91, -370.45 331.13, -381.36 335.43" stroke="#1e1e1e" stroke-width="2" fill="none"></path></g></g><mask id="mask-aa5wqWT9dSVVawDhdUY76"><rect x="0" y="0" fill="#fff" width="1887.3351848717439" height="672.0335033944605"></rect><rect x="1133.5574627424055" y="391.17907301471377" fill="#000" width="160.72000122070312" height="25" opacity="1"></rect></mask><g transform="translate(1133.5574627424053 391.17907301471377) rotate(0 79.98335785008976 12.254484933661303)"><text x="80.36000061035156" y="0" font-family="Virgil, Segoe UI Emoji" font-size="20px" fill="#1e1e1e" text-anchor="middle" style="white-space: pre;" direction="ltr" dominant-baseline="text-before-edge">On New Comment</text></g><g stroke-linecap="round"><g transform="translate(802.525058289466 598.6157818754732) rotate(0 -94.93670886075938 -44.936708860759495)"><path d="M-0.82 -1.18 C-32.7 -16.49, -159 -75.79, -190.61 -90.74 M0.95 0.81 C-30.6 -13.86, -156.2 -74.5, -188.29 -89.66" stroke="#2f9e44" stroke-width="2" fill="none"></path></g><g transform="translate(802.525058289466 598.6157818754732) rotate(0 -94.93670886075938 -44.936708860759495)"><path d="M-158.43 -86.76 C-171.02 -89.22, -181.1 -90.03, -188.29 -89.66 M-158.43 -86.76 C-165.22 -87.06, -171.04 -88.15, -188.29 -89.66" stroke="#2f9e44" stroke-width="2" fill="none"></path></g><g transform="translate(802.525058289466 598.6157818754732) rotate(0 -94.93670886075938 -44.936708860759495)"><path d="M-167.28 -68.24 C-176.91 -77.22, -183.84 -84.6, -188.29 -89.66 M-167.28 -68.24 C-172.32 -72.48, -176.24 -77.52, -188.29 -89.66" stroke="#2f9e44" stroke-width="2" fill="none"></path></g></g><mask></mask><g stroke-linecap="round"><g transform="translate(379.740248162884 450.51451605268846) rotate(0 -82.91139240506322 -98.10126582278477)"><path d="M0.8 -0.15 C-27.1 -32.64, -138.76 -162.44, -166.43 -195.23 M-0.25 -1.28 C-27.82 -34.06, -136.46 -164.4, -164.04 -196.84" stroke="#2f9e44" stroke-width="2" fill="none"></path></g><g transform="translate(379.740248162884 450.51451605268846) rotate(0 -82.91139240506322 -98.10126582278477)"><path d="M-138.05 -181.87 C-148.08 -188.37, -156.03 -192.03, -164.04 -196.84 M-138.05 -181.87 C-144.03 -185.26, -151.17 -189.25, -164.04 -196.84" stroke="#2f9e44" stroke-width="2" fill="none"></path></g><g transform="translate(379.740248162884 450.51451605268846) rotate(0 -82.91139240506322 -98.10126582278477)"><path d="M-153.75 -168.66 C-157.83 -180.25, -159.84 -188.91, -164.04 -196.84 M-153.75 -168.66 C-156.02 -175.16, -159.35 -182.36, -164.04 -196.84" stroke="#2f9e44" stroke-width="2" fill="none"></path></g></g><mask></mask></svg>